M48
; DRILL file {KiCad 6.0.9-8da3e8f707~116~ubuntu22.04.1} date Sat Nov 12 09:52:39 2022
; FORMAT={-:-/ absolute / metric / decimal}
; #@! TF.CreationDate,2022-11-12T09:52:39-05:00
; #@! TF.GenerationSoftware,Kicad,Pcbnew,6.0.9-8da3e8f707~116~ubuntu22.04.1
; #@! TF.FileFunction,MixedPlating,1,2
FMAT,2
METRIC
; #@! TA.AperFunction,Plated,PTH,ComponentDrill
T1C1.000
; #@! TA.AperFunction,Plated,PTH,ComponentDrill
T2C1.300
; #@! TA.AperFunction,Plated,PTH,ComponentDrill
T3C2.100
%
G90
G05
T1
X123.42Y-83.0
X125.96Y-83.0
X128.5Y-83.0
X131.04Y-83.0
X133.58Y-83.0
X136.12Y-83.0
X138.66Y-83.0
X141.2Y-83.0
X143.74Y-83.0
X146.28Y-83.0
X148.82Y-83.0
X151.36Y-83.0
X153.9Y-83.0
T2
X120.0Y-87.5
X125.0Y-87.5
X130.0Y-87.5
X170.0Y-87.5
X170.0Y-92.5
X175.0Y-87.5
X175.0Y-92.5
X180.0Y-87.5
X180.0Y-92.5
T3
X147.585Y-89.8
X147.585Y-94.5
X147.585Y-99.2
X147.585Y-107.8
X147.585Y-112.5
X147.585Y-117.2
X152.415Y-89.8
X152.415Y-94.5
X152.415Y-99.2
X152.415Y-107.8
X152.415Y-112.5
X152.415Y-117.2
T0
M30
