G04 #@! TF.GenerationSoftware,KiCad,Pcbnew,6.0.9-8da3e8f707~116~ubuntu22.04.1*
G04 #@! TF.CreationDate,2022-11-12T09:52:39-05:00*
G04 #@! TF.ProjectId,voltproc_b2,766f6c74-7072-46f6-935f-62322e6b6963,rev?*
G04 #@! TF.SameCoordinates,Original*
G04 #@! TF.FileFunction,Copper,L2,Bot*
G04 #@! TF.FilePolarity,Positive*
%FSLAX46Y46*%
G04 Gerber Fmt 4.6, Leading zero omitted, Abs format (unit mm)*
G04 Created by KiCad (PCBNEW 6.0.9-8da3e8f707~116~ubuntu22.04.1) date 2022-11-12 09:52:39*
%MOMM*%
%LPD*%
G01*
G04 APERTURE LIST*
G04 #@! TA.AperFunction,ComponentPad*
%ADD10C,3.100000*%
G04 #@! TD*
G04 #@! TA.AperFunction,ComponentPad*
%ADD11C,2.340000*%
G04 #@! TD*
G04 #@! TA.AperFunction,ComponentPad*
%ADD12R,1.700000X1.700000*%
G04 #@! TD*
G04 #@! TA.AperFunction,ComponentPad*
%ADD13O,1.700000X1.700000*%
G04 #@! TD*
G04 #@! TA.AperFunction,Conductor*
%ADD14C,0.250000*%
G04 #@! TD*
G04 APERTURE END LIST*
D10*
G04 #@! TO.P,SW2,1,A*
G04 #@! TO.N,Board_0-GND1*
X147585000Y-107800000D03*
G04 #@! TO.P,SW2,2,B*
G04 #@! TO.N,Board_0-/Panel components/LIN_SPEED*
X147585000Y-112500000D03*
G04 #@! TO.P,SW2,3,C*
G04 #@! TO.N,Board_0-unconnected-(SW2-Pad3)*
X147585000Y-117200000D03*
G04 #@! TO.P,SW2,4,A*
G04 #@! TO.N,Board_0-GND1*
X152415000Y-107800000D03*
G04 #@! TO.P,SW2,5,B*
G04 #@! TO.N,Board_0-/Panel components/RC_SPEED*
X152415000Y-112500000D03*
G04 #@! TO.P,SW2,6,C*
G04 #@! TO.N,Board_0-unconnected-(SW2-Pad6)*
X152415000Y-117200000D03*
G04 #@! TD*
G04 #@! TO.P,SW1,1,A*
G04 #@! TO.N,Board_0-/Panel components/LIN_IN*
X152415000Y-99200000D03*
G04 #@! TO.P,SW1,2,B*
G04 #@! TO.N,Board_0-/Panel components/LAG_IN*
X152415000Y-94500000D03*
G04 #@! TO.P,SW1,3,C*
G04 #@! TO.N,Board_0-/Panel components/RC_IN*
X152415000Y-89800000D03*
G04 #@! TO.P,SW1,4,A*
G04 #@! TO.N,Board_0-/Panel components/LIN_OUT*
X147585000Y-99200000D03*
G04 #@! TO.P,SW1,5,B*
G04 #@! TO.N,Board_0-/Panel components/LAG_OUT*
X147585000Y-94500000D03*
G04 #@! TO.P,SW1,6,C*
G04 #@! TO.N,Board_0-/Panel components/RC_OUT*
X147585000Y-89800000D03*
G04 #@! TD*
D11*
G04 #@! TO.P,RV4,1,1*
G04 #@! TO.N,Board_0-/Panel components/LAG_LIN_CCW*
X180000000Y-87500000D03*
G04 #@! TO.P,RV4,2,2*
G04 #@! TO.N,Board_0-/Panel components/LAG_LIN_WIP*
X175000000Y-87500000D03*
G04 #@! TO.P,RV4,3,3*
X170000000Y-87500000D03*
G04 #@! TO.P,RV4,4,4*
G04 #@! TO.N,Board_0-/Panel components/RC_IN*
X180000000Y-92500000D03*
G04 #@! TO.P,RV4,5,5*
G04 #@! TO.N,Board_0-/Panel components/LAG_RC_WIP*
X175000000Y-92500000D03*
G04 #@! TO.P,RV4,6,6*
X170000000Y-92500000D03*
G04 #@! TD*
G04 #@! TO.P,RV3,1,1*
G04 #@! TO.N,Board_0-GND1*
X130000000Y-87500000D03*
G04 #@! TO.P,RV3,2,2*
G04 #@! TO.N,Board_0-/Panel components/IN_2_1_WIP*
X125000000Y-87500000D03*
G04 #@! TO.P,RV3,3,3*
G04 #@! TO.N,Board_0-/Panel components/IN_2_1_CW*
X120000000Y-87500000D03*
G04 #@! TD*
D12*
G04 #@! TO.P,J7,1,Pin_1*
G04 #@! TO.N,Board_0-GND1*
X153900000Y-83000000D03*
D13*
G04 #@! TO.P,J7,2,Pin_2*
G04 #@! TO.N,Board_0-/Panel components/LAG_RC_WIP*
X151360000Y-83000000D03*
G04 #@! TO.P,J7,3,Pin_3*
G04 #@! TO.N,Board_0-/Panel components/LAG_LIN_CCW*
X148820000Y-83000000D03*
G04 #@! TO.P,J7,4,Pin_4*
G04 #@! TO.N,Board_0-/Panel components/LAG_LIN_WIP*
X146280000Y-83000000D03*
G04 #@! TO.P,J7,5,Pin_5*
G04 #@! TO.N,Board_0-/Panel components/LIN_SPEED*
X143740000Y-83000000D03*
G04 #@! TO.P,J7,6,Pin_6*
G04 #@! TO.N,Board_0-/Panel components/RC_SPEED*
X141200000Y-83000000D03*
G04 #@! TO.P,J7,7,Pin_7*
G04 #@! TO.N,Board_0-/Panel components/RC_OUT*
X138660000Y-83000000D03*
G04 #@! TO.P,J7,8,Pin_8*
G04 #@! TO.N,Board_0-/Panel components/LAG_OUT*
X136120000Y-83000000D03*
G04 #@! TO.P,J7,9,Pin_9*
G04 #@! TO.N,Board_0-/Panel components/LIN_OUT*
X133580000Y-83000000D03*
G04 #@! TO.P,J7,10,Pin_10*
G04 #@! TO.N,Board_0-/Panel components/LAG_IN*
X131040000Y-83000000D03*
G04 #@! TO.P,J7,11,Pin_11*
G04 #@! TO.N,Board_0-/Panel components/LIN_IN*
X128500000Y-83000000D03*
G04 #@! TO.P,J7,12,Pin_12*
G04 #@! TO.N,Board_0-/Panel components/IN_2_1_CW*
X125960000Y-83000000D03*
G04 #@! TO.P,J7,13,Pin_13*
G04 #@! TO.N,Board_0-/Panel components/IN_2_1_WIP*
X123420000Y-83000000D03*
G04 #@! TD*
D14*
G04 #@! TO.N,Board_0-/Panel components/IN_2_1_CW*
X121460000Y-87500000D02*
X125960000Y-83000000D01*
X120000000Y-87500000D02*
X121460000Y-87500000D01*
G04 #@! TO.N,Board_0-/Panel components/LAG_IN*
X140665489Y-92625489D02*
X150540489Y-92625489D01*
X131040000Y-83000000D02*
X140665489Y-92625489D01*
X150540489Y-92625489D02*
X152415000Y-94500000D01*
G04 #@! TO.N,Board_0-/Panel components/LAG_LIN_CCW*
X149994521Y-81825479D02*
X162133479Y-81825479D01*
X169303000Y-88995000D02*
X178505000Y-88995000D01*
X148820000Y-83000000D02*
X149994521Y-81825479D01*
X162133479Y-81825479D02*
X169303000Y-88995000D01*
X178505000Y-88995000D02*
X180000000Y-87500000D01*
G04 #@! TO.N,Board_0-/Panel components/LAG_LIN_WIP*
X147904022Y-81375978D02*
X146280000Y-83000000D01*
X170000000Y-87500000D02*
X175000000Y-87500000D01*
X163875978Y-81375978D02*
X147904022Y-81375978D01*
X170000000Y-87500000D02*
X163875978Y-81375978D01*
G04 #@! TO.N,Board_0-/Panel components/LAG_RC_WIP*
X170000000Y-92500000D02*
X175000000Y-92500000D01*
X170000000Y-92500000D02*
X160860000Y-92500000D01*
X160860000Y-92500000D02*
X151360000Y-83000000D01*
G04 #@! TO.N,Board_0-/Panel components/RC_IN*
X152415000Y-89800000D02*
X156690000Y-94075000D01*
X156690000Y-94075000D02*
X178425000Y-94075000D01*
X178425000Y-94075000D02*
X180000000Y-92500000D01*
G04 #@! TD*
G04 #@! TA.AperFunction,Conductor*
G04 #@! TO.N,Board_0-GND1*
G36*
X147789754Y-80528502D02*
G01*
X147836247Y-80582158D01*
X147846351Y-80652432D01*
X147816857Y-80717012D01*
X147753000Y-80756522D01*
X147745225Y-80757504D01*
X147737858Y-80760421D01*
X147737853Y-80760422D01*
X147704114Y-80773780D01*
X147692887Y-80777624D01*
X147650429Y-80789960D01*
X147643603Y-80793997D01*
X147632994Y-80800271D01*
X147615246Y-80808966D01*
X147596405Y-80816426D01*
X147589989Y-80821088D01*
X147589988Y-80821088D01*
X147560635Y-80842414D01*
X147550715Y-80848930D01*
X147519487Y-80867398D01*
X147519484Y-80867400D01*
X147512660Y-80871436D01*
X147498339Y-80885757D01*
X147483306Y-80898597D01*
X147466915Y-80910506D01*
X147461865Y-80916610D01*
X147461860Y-80916615D01*
X147438729Y-80944576D01*
X147430739Y-80953357D01*
X146737344Y-81646751D01*
X146675032Y-81680776D01*
X146626153Y-81681702D01*
X146413373Y-81643800D01*
X146413367Y-81643799D01*
X146408284Y-81642894D01*
X146334452Y-81641992D01*
X146190081Y-81640228D01*
X146190079Y-81640228D01*
X146184911Y-81640165D01*
X145964091Y-81673955D01*
X145751756Y-81743357D01*
X145553607Y-81846507D01*
X145549474Y-81849610D01*
X145549471Y-81849612D01*
X145525247Y-81867800D01*
X145374965Y-81980635D01*
X145220629Y-82142138D01*
X145113201Y-82299621D01*
X145058293Y-82344621D01*
X144987768Y-82352792D01*
X144924021Y-82321538D01*
X144903324Y-82297054D01*
X144822822Y-82172617D01*
X144822820Y-82172614D01*
X144820014Y-82168277D01*
X144669670Y-82003051D01*
X144665619Y-81999852D01*
X144665615Y-81999848D01*
X144498414Y-81867800D01*
X144498410Y-81867798D01*
X144494359Y-81864598D01*
X144298789Y-81756638D01*
X144293920Y-81754914D01*
X144293916Y-81754912D01*
X144093087Y-81683795D01*
X144093083Y-81683794D01*
X144088212Y-81682069D01*
X144083119Y-81681162D01*
X144083116Y-81681161D01*
X143873373Y-81643800D01*
X143873367Y-81643799D01*
X143868284Y-81642894D01*
X143794452Y-81641992D01*
X143650081Y-81640228D01*
X143650079Y-81640228D01*
X143644911Y-81640165D01*
X143424091Y-81673955D01*
X143211756Y-81743357D01*
X143013607Y-81846507D01*
X143009474Y-81849610D01*
X143009471Y-81849612D01*
X142985247Y-81867800D01*
X142834965Y-81980635D01*
X142680629Y-82142138D01*
X142573201Y-82299621D01*
X142518293Y-82344621D01*
X142447768Y-82352792D01*
X142384021Y-82321538D01*
X142363324Y-82297054D01*
X142282822Y-82172617D01*
X142282820Y-82172614D01*
X142280014Y-82168277D01*
X142129670Y-82003051D01*
X142125619Y-81999852D01*
X142125615Y-81999848D01*
X141958414Y-81867800D01*
X141958410Y-81867798D01*
X141954359Y-81864598D01*
X141758789Y-81756638D01*
X141753920Y-81754914D01*
X141753916Y-81754912D01*
X141553087Y-81683795D01*
X141553083Y-81683794D01*
X141548212Y-81682069D01*
X141543119Y-81681162D01*
X141543116Y-81681161D01*
X141333373Y-81643800D01*
X141333367Y-81643799D01*
X141328284Y-81642894D01*
X141254452Y-81641992D01*
X141110081Y-81640228D01*
X141110079Y-81640228D01*
X141104911Y-81640165D01*
X140884091Y-81673955D01*
X140671756Y-81743357D01*
X140473607Y-81846507D01*
X140469474Y-81849610D01*
X140469471Y-81849612D01*
X140445247Y-81867800D01*
X140294965Y-81980635D01*
X140140629Y-82142138D01*
X140033201Y-82299621D01*
X139978293Y-82344621D01*
X139907768Y-82352792D01*
X139844021Y-82321538D01*
X139823324Y-82297054D01*
X139742822Y-82172617D01*
X139742820Y-82172614D01*
X139740014Y-82168277D01*
X139589670Y-82003051D01*
X139585619Y-81999852D01*
X139585615Y-81999848D01*
X139418414Y-81867800D01*
X139418410Y-81867798D01*
X139414359Y-81864598D01*
X139218789Y-81756638D01*
X139213920Y-81754914D01*
X139213916Y-81754912D01*
X139013087Y-81683795D01*
X139013083Y-81683794D01*
X139008212Y-81682069D01*
X139003119Y-81681162D01*
X139003116Y-81681161D01*
X138793373Y-81643800D01*
X138793367Y-81643799D01*
X138788284Y-81642894D01*
X138714452Y-81641992D01*
X138570081Y-81640228D01*
X138570079Y-81640228D01*
X138564911Y-81640165D01*
X138344091Y-81673955D01*
X138131756Y-81743357D01*
X137933607Y-81846507D01*
X137929474Y-81849610D01*
X137929471Y-81849612D01*
X137905247Y-81867800D01*
X137754965Y-81980635D01*
X137600629Y-82142138D01*
X137493201Y-82299621D01*
X137438293Y-82344621D01*
X137367768Y-82352792D01*
X137304021Y-82321538D01*
X137283324Y-82297054D01*
X137202822Y-82172617D01*
X137202820Y-82172614D01*
X137200014Y-82168277D01*
X137049670Y-82003051D01*
X137045619Y-81999852D01*
X137045615Y-81999848D01*
X136878414Y-81867800D01*
X136878410Y-81867798D01*
X136874359Y-81864598D01*
X136678789Y-81756638D01*
X136673920Y-81754914D01*
X136673916Y-81754912D01*
X136473087Y-81683795D01*
X136473083Y-81683794D01*
X136468212Y-81682069D01*
X136463119Y-81681162D01*
X136463116Y-81681161D01*
X136253373Y-81643800D01*
X136253367Y-81643799D01*
X136248284Y-81642894D01*
X136174452Y-81641992D01*
X136030081Y-81640228D01*
X136030079Y-81640228D01*
X136024911Y-81640165D01*
X135804091Y-81673955D01*
X135591756Y-81743357D01*
X135393607Y-81846507D01*
X135389474Y-81849610D01*
X135389471Y-81849612D01*
X135365247Y-81867800D01*
X135214965Y-81980635D01*
X135060629Y-82142138D01*
X134953201Y-82299621D01*
X134898293Y-82344621D01*
X134827768Y-82352792D01*
X134764021Y-82321538D01*
X134743324Y-82297054D01*
X134662822Y-82172617D01*
X134662820Y-82172614D01*
X134660014Y-82168277D01*
X134509670Y-82003051D01*
X134505619Y-81999852D01*
X134505615Y-81999848D01*
X134338414Y-81867800D01*
X134338410Y-81867798D01*
X134334359Y-81864598D01*
X134138789Y-81756638D01*
X134133920Y-81754914D01*
X134133916Y-81754912D01*
X133933087Y-81683795D01*
X133933083Y-81683794D01*
X133928212Y-81682069D01*
X133923119Y-81681162D01*
X133923116Y-81681161D01*
X133713373Y-81643800D01*
X133713367Y-81643799D01*
X133708284Y-81642894D01*
X133634452Y-81641992D01*
X133490081Y-81640228D01*
X133490079Y-81640228D01*
X133484911Y-81640165D01*
X133264091Y-81673955D01*
X133051756Y-81743357D01*
X132853607Y-81846507D01*
X132849474Y-81849610D01*
X132849471Y-81849612D01*
X132825247Y-81867800D01*
X132674965Y-81980635D01*
X132520629Y-82142138D01*
X132413201Y-82299621D01*
X132358293Y-82344621D01*
X132287768Y-82352792D01*
X132224021Y-82321538D01*
X132203324Y-82297054D01*
X132122822Y-82172617D01*
X132122820Y-82172614D01*
X132120014Y-82168277D01*
X131969670Y-82003051D01*
X131965619Y-81999852D01*
X131965615Y-81999848D01*
X131798414Y-81867800D01*
X131798410Y-81867798D01*
X131794359Y-81864598D01*
X131598789Y-81756638D01*
X131593920Y-81754914D01*
X131593916Y-81754912D01*
X131393087Y-81683795D01*
X131393083Y-81683794D01*
X131388212Y-81682069D01*
X131383119Y-81681162D01*
X131383116Y-81681161D01*
X131173373Y-81643800D01*
X131173367Y-81643799D01*
X131168284Y-81642894D01*
X131094452Y-81641992D01*
X130950081Y-81640228D01*
X130950079Y-81640228D01*
X130944911Y-81640165D01*
X130724091Y-81673955D01*
X130511756Y-81743357D01*
X130313607Y-81846507D01*
X130309474Y-81849610D01*
X130309471Y-81849612D01*
X130285247Y-81867800D01*
X130134965Y-81980635D01*
X129980629Y-82142138D01*
X129873201Y-82299621D01*
X129818293Y-82344621D01*
X129747768Y-82352792D01*
X129684021Y-82321538D01*
X129663324Y-82297054D01*
X129582822Y-82172617D01*
X129582820Y-82172614D01*
X129580014Y-82168277D01*
X129429670Y-82003051D01*
X129425619Y-81999852D01*
X129425615Y-81999848D01*
X129258414Y-81867800D01*
X129258410Y-81867798D01*
X129254359Y-81864598D01*
X129058789Y-81756638D01*
X129053920Y-81754914D01*
X129053916Y-81754912D01*
X128853087Y-81683795D01*
X128853083Y-81683794D01*
X128848212Y-81682069D01*
X128843119Y-81681162D01*
X128843116Y-81681161D01*
X128633373Y-81643800D01*
X128633367Y-81643799D01*
X128628284Y-81642894D01*
X128554452Y-81641992D01*
X128410081Y-81640228D01*
X128410079Y-81640228D01*
X128404911Y-81640165D01*
X128184091Y-81673955D01*
X127971756Y-81743357D01*
X127773607Y-81846507D01*
X127769474Y-81849610D01*
X127769471Y-81849612D01*
X127745247Y-81867800D01*
X127594965Y-81980635D01*
X127440629Y-82142138D01*
X127333201Y-82299621D01*
X127278293Y-82344621D01*
X127207768Y-82352792D01*
X127144021Y-82321538D01*
X127123324Y-82297054D01*
X127042822Y-82172617D01*
X127042820Y-82172614D01*
X127040014Y-82168277D01*
X126889670Y-82003051D01*
X126885619Y-81999852D01*
X126885615Y-81999848D01*
X126718414Y-81867800D01*
X126718410Y-81867798D01*
X126714359Y-81864598D01*
X126518789Y-81756638D01*
X126513920Y-81754914D01*
X126513916Y-81754912D01*
X126313087Y-81683795D01*
X126313083Y-81683794D01*
X126308212Y-81682069D01*
X126303119Y-81681162D01*
X126303116Y-81681161D01*
X126093373Y-81643800D01*
X126093367Y-81643799D01*
X126088284Y-81642894D01*
X126014452Y-81641992D01*
X125870081Y-81640228D01*
X125870079Y-81640228D01*
X125864911Y-81640165D01*
X125644091Y-81673955D01*
X125431756Y-81743357D01*
X125233607Y-81846507D01*
X125229474Y-81849610D01*
X125229471Y-81849612D01*
X125205247Y-81867800D01*
X125054965Y-81980635D01*
X124900629Y-82142138D01*
X124793201Y-82299621D01*
X124738293Y-82344621D01*
X124667768Y-82352792D01*
X124604021Y-82321538D01*
X124583324Y-82297054D01*
X124502822Y-82172617D01*
X124502820Y-82172614D01*
X124500014Y-82168277D01*
X124349670Y-82003051D01*
X124345619Y-81999852D01*
X124345615Y-81999848D01*
X124178414Y-81867800D01*
X124178410Y-81867798D01*
X124174359Y-81864598D01*
X123978789Y-81756638D01*
X123973920Y-81754914D01*
X123973916Y-81754912D01*
X123773087Y-81683795D01*
X123773083Y-81683794D01*
X123768212Y-81682069D01*
X123763119Y-81681162D01*
X123763116Y-81681161D01*
X123553373Y-81643800D01*
X123553367Y-81643799D01*
X123548284Y-81642894D01*
X123474452Y-81641992D01*
X123330081Y-81640228D01*
X123330079Y-81640228D01*
X123324911Y-81640165D01*
X123104091Y-81673955D01*
X122891756Y-81743357D01*
X122693607Y-81846507D01*
X122689474Y-81849610D01*
X122689471Y-81849612D01*
X122665247Y-81867800D01*
X122514965Y-81980635D01*
X122360629Y-82142138D01*
X122234743Y-82326680D01*
X122187715Y-82427993D01*
X122146466Y-82516858D01*
X122140688Y-82529305D01*
X122080989Y-82744570D01*
X122057251Y-82966695D01*
X122070110Y-83189715D01*
X122071247Y-83194761D01*
X122071248Y-83194767D01*
X122085606Y-83258475D01*
X122119222Y-83407639D01*
X122203266Y-83614616D01*
X122254942Y-83698944D01*
X122317291Y-83800688D01*
X122319987Y-83805088D01*
X122466250Y-83973938D01*
X122638126Y-84116632D01*
X122831000Y-84229338D01*
X123039692Y-84309030D01*
X123044760Y-84310061D01*
X123044763Y-84310062D01*
X123152012Y-84331882D01*
X123258597Y-84353567D01*
X123263771Y-84353757D01*
X123263773Y-84353757D01*
X123325898Y-84356035D01*
X123405650Y-84358959D01*
X123472991Y-84381443D01*
X123517487Y-84436767D01*
X123525009Y-84507364D01*
X123490127Y-84573969D01*
X121544146Y-86519949D01*
X121481834Y-86553975D01*
X121411018Y-86548910D01*
X121356102Y-86508861D01*
X121240990Y-86362842D01*
X121059276Y-86191902D01*
X120943160Y-86111350D01*
X120858130Y-86052362D01*
X120858125Y-86052359D01*
X120854292Y-86049700D01*
X120850110Y-86047637D01*
X120850102Y-86047633D01*
X120634728Y-85941423D01*
X120634725Y-85941422D01*
X120630540Y-85939358D01*
X120392937Y-85863300D01*
X120388330Y-85862550D01*
X120388327Y-85862549D01*
X120151312Y-85823949D01*
X120151313Y-85823949D01*
X120146701Y-85823198D01*
X120025753Y-85821615D01*
X119901920Y-85819994D01*
X119901917Y-85819994D01*
X119897243Y-85819933D01*
X119650042Y-85853575D01*
X119645556Y-85854883D01*
X119645554Y-85854883D01*
X119617576Y-85863038D01*
X119410528Y-85923387D01*
X119406275Y-85925347D01*
X119406274Y-85925348D01*
X119378971Y-85937935D01*
X119183965Y-86027834D01*
X119153767Y-86047633D01*
X118979242Y-86162056D01*
X118979237Y-86162060D01*
X118975329Y-86164622D01*
X118789202Y-86330746D01*
X118629675Y-86522557D01*
X118500252Y-86735840D01*
X118498443Y-86740154D01*
X118498442Y-86740156D01*
X118407232Y-86957668D01*
X118403775Y-86965911D01*
X118402624Y-86970443D01*
X118402623Y-86970446D01*
X118394185Y-87003671D01*
X118342365Y-87207714D01*
X118317370Y-87455939D01*
X118317594Y-87460606D01*
X118317594Y-87460611D01*
X118323354Y-87580535D01*
X118329339Y-87705131D01*
X118378010Y-87949818D01*
X118462314Y-88184622D01*
X118580398Y-88404386D01*
X118729668Y-88604283D01*
X118906844Y-88779921D01*
X118910606Y-88782679D01*
X118910609Y-88782682D01*
X119022139Y-88864458D01*
X119108036Y-88927440D01*
X119112171Y-88929616D01*
X119112175Y-88929618D01*
X119209002Y-88980561D01*
X119328823Y-89043602D01*
X119420918Y-89075763D01*
X119558550Y-89123826D01*
X119564354Y-89125853D01*
X119568947Y-89126725D01*
X119804867Y-89171516D01*
X119804870Y-89171516D01*
X119809456Y-89172387D01*
X119934100Y-89177285D01*
X120054075Y-89181999D01*
X120054081Y-89181999D01*
X120058743Y-89182182D01*
X120148181Y-89172387D01*
X120302087Y-89155532D01*
X120302092Y-89155531D01*
X120306740Y-89155022D01*
X120313140Y-89153337D01*
X120543476Y-89092694D01*
X120543478Y-89092693D01*
X120547999Y-89091503D01*
X120594332Y-89071597D01*
X120772924Y-88994868D01*
X120772926Y-88994867D01*
X120777218Y-88993023D01*
X120879679Y-88929618D01*
X120985391Y-88864202D01*
X120985395Y-88864199D01*
X120989364Y-88861743D01*
X121089900Y-88776633D01*
X121176209Y-88703567D01*
X121176210Y-88703566D01*
X121179775Y-88700548D01*
X121261316Y-88607569D01*
X121341187Y-88516494D01*
X121341191Y-88516489D01*
X121344269Y-88512979D01*
X121360803Y-88487275D01*
X121424798Y-88387783D01*
X121479231Y-88303157D01*
X121481258Y-88298659D01*
X121530696Y-88188909D01*
X121576911Y-88135014D01*
X121612863Y-88119224D01*
X121618797Y-88118474D01*
X121626165Y-88115557D01*
X121626172Y-88115555D01*
X121659912Y-88102196D01*
X121671142Y-88098351D01*
X121705983Y-88088229D01*
X121705984Y-88088229D01*
X121713593Y-88086018D01*
X121720412Y-88081985D01*
X121720417Y-88081983D01*
X121731028Y-88075707D01*
X121748776Y-88067012D01*
X121767617Y-88059552D01*
X121803387Y-88033564D01*
X121813307Y-88027048D01*
X121844535Y-88008580D01*
X121844538Y-88008578D01*
X121851362Y-88004542D01*
X121865683Y-87990221D01*
X121880717Y-87977380D01*
X121897107Y-87965472D01*
X121925298Y-87931395D01*
X121933288Y-87922616D01*
X123348061Y-86507843D01*
X123410373Y-86473817D01*
X123481188Y-86478882D01*
X123538024Y-86521429D01*
X123562835Y-86587949D01*
X123544875Y-86662303D01*
X123500252Y-86735840D01*
X123498443Y-86740154D01*
X123498442Y-86740156D01*
X123407232Y-86957668D01*
X123403775Y-86965911D01*
X123402624Y-86970443D01*
X123402623Y-86970446D01*
X123394185Y-87003671D01*
X123342365Y-87207714D01*
X123317370Y-87455939D01*
X123317594Y-87460606D01*
X123317594Y-87460611D01*
X123323354Y-87580535D01*
X123329339Y-87705131D01*
X123378010Y-87949818D01*
X123462314Y-88184622D01*
X123580398Y-88404386D01*
X123729668Y-88604283D01*
X123906844Y-88779921D01*
X123910606Y-88782679D01*
X123910609Y-88782682D01*
X124022139Y-88864458D01*
X124108036Y-88927440D01*
X124112171Y-88929616D01*
X124112175Y-88929618D01*
X124209002Y-88980561D01*
X124328823Y-89043602D01*
X124420918Y-89075763D01*
X124558550Y-89123826D01*
X124564354Y-89125853D01*
X124568947Y-89126725D01*
X124804867Y-89171516D01*
X124804870Y-89171516D01*
X124809456Y-89172387D01*
X124934100Y-89177285D01*
X125054075Y-89181999D01*
X125054081Y-89181999D01*
X125058743Y-89182182D01*
X125148181Y-89172387D01*
X125302087Y-89155532D01*
X125302092Y-89155531D01*
X125306740Y-89155022D01*
X125313140Y-89153337D01*
X125543476Y-89092694D01*
X125543478Y-89092693D01*
X125547999Y-89091503D01*
X125594332Y-89071597D01*
X125772924Y-88994868D01*
X125772926Y-88994867D01*
X125777218Y-88993023D01*
X125879679Y-88929618D01*
X125985391Y-88864202D01*
X125985395Y-88864199D01*
X125989364Y-88861743D01*
X126000997Y-88851895D01*
X129012851Y-88851895D01*
X129021563Y-88863415D01*
X129104529Y-88924249D01*
X129112444Y-88929194D01*
X129324873Y-89040959D01*
X129333447Y-89044687D01*
X129560067Y-89123826D01*
X129569077Y-89126240D01*
X129804923Y-89171017D01*
X129814180Y-89172071D01*
X130054058Y-89181497D01*
X130063372Y-89181171D01*
X130301996Y-89155038D01*
X130311173Y-89153337D01*
X130543312Y-89092220D01*
X130552132Y-89089183D01*
X130772693Y-88994423D01*
X130780965Y-88990116D01*
X130984026Y-88864458D01*
X130990751Y-88854253D01*
X130984688Y-88843899D01*
X130012810Y-87872020D01*
X129998869Y-87864408D01*
X129997034Y-87864539D01*
X129990420Y-87868790D01*
X129019509Y-88839702D01*
X129012851Y-88851895D01*
X126000997Y-88851895D01*
X126089900Y-88776633D01*
X126176209Y-88703567D01*
X126176210Y-88703566D01*
X126179775Y-88700548D01*
X126261316Y-88607569D01*
X126341187Y-88516494D01*
X126341191Y-88516489D01*
X126344269Y-88512979D01*
X126360803Y-88487275D01*
X126424798Y-88387783D01*
X126479231Y-88303157D01*
X126581697Y-88075691D01*
X126615956Y-87954218D01*
X126648146Y-87840082D01*
X126648147Y-87840079D01*
X126649416Y-87835578D01*
X126680900Y-87588092D01*
X126680984Y-87584909D01*
X126682243Y-87536828D01*
X126683207Y-87500000D01*
X126680281Y-87460624D01*
X128318096Y-87460624D01*
X128329614Y-87700398D01*
X128330751Y-87709658D01*
X128377581Y-87945095D01*
X128380075Y-87954088D01*
X128461189Y-88180009D01*
X128464989Y-88188544D01*
X128578607Y-88399996D01*
X128583618Y-88407863D01*
X128636609Y-88478826D01*
X128647867Y-88487275D01*
X128660286Y-88480503D01*
X129627980Y-87512810D01*
X129634357Y-87501131D01*
X130364408Y-87501131D01*
X130364539Y-87502966D01*
X130368790Y-87509580D01*
X131342024Y-88482813D01*
X131354404Y-88489573D01*
X131362745Y-88483330D01*
X131476265Y-88306843D01*
X131480708Y-88298659D01*
X131579304Y-88079783D01*
X131582494Y-88071018D01*
X131647654Y-87839981D01*
X131649514Y-87830839D01*
X131680001Y-87591196D01*
X131680482Y-87584909D01*
X131682622Y-87503160D01*
X131682471Y-87496851D01*
X131664568Y-87255932D01*
X131663191Y-87246726D01*
X131610210Y-87012582D01*
X131607486Y-87003671D01*
X131520478Y-86779930D01*
X131516467Y-86771521D01*
X131397347Y-86563105D01*
X131392130Y-86555370D01*
X131364425Y-86520227D01*
X131352501Y-86511758D01*
X131340965Y-86518246D01*
X130372020Y-87487190D01*
X130364408Y-87501131D01*
X129634357Y-87501131D01*
X129635592Y-87498869D01*
X129635461Y-87497034D01*
X129631210Y-87490420D01*
X128658131Y-86517342D01*
X128644823Y-86510075D01*
X128634786Y-86517195D01*
X128633076Y-86519251D01*
X128627655Y-86526851D01*
X128503127Y-86732067D01*
X128498889Y-86740384D01*
X128406060Y-86961755D01*
X128403099Y-86970605D01*
X128344011Y-87203264D01*
X128342390Y-87212458D01*
X128318341Y-87451297D01*
X128318096Y-87460624D01*
X126680281Y-87460624D01*
X126664718Y-87251206D01*
X126609659Y-87007878D01*
X126595164Y-86970605D01*
X126520931Y-86779714D01*
X126520930Y-86779711D01*
X126519238Y-86775361D01*
X126494494Y-86732067D01*
X126412123Y-86587949D01*
X126395442Y-86558763D01*
X126240990Y-86362842D01*
X126059276Y-86191902D01*
X125993951Y-86146585D01*
X129010999Y-86146585D01*
X129015572Y-86156361D01*
X129987190Y-87127980D01*
X130001131Y-87135592D01*
X130002966Y-87135461D01*
X130009580Y-87131210D01*
X130980929Y-86159860D01*
X130987313Y-86148169D01*
X130977903Y-86136061D01*
X130857873Y-86052793D01*
X130849846Y-86048065D01*
X130634540Y-85941888D01*
X130625907Y-85938400D01*
X130397265Y-85865211D01*
X130388214Y-85863038D01*
X130151269Y-85824449D01*
X130141980Y-85823637D01*
X129901950Y-85820495D01*
X129892638Y-85821065D01*
X129654776Y-85853436D01*
X129645658Y-85855374D01*
X129415203Y-85922546D01*
X129406450Y-85925818D01*
X129188454Y-86026316D01*
X129180299Y-86030836D01*
X129020136Y-86135844D01*
X129010999Y-86146585D01*
X125993951Y-86146585D01*
X125943160Y-86111350D01*
X125858130Y-86052362D01*
X125858125Y-86052359D01*
X125854292Y-86049700D01*
X125850110Y-86047637D01*
X125850102Y-86047633D01*
X125634728Y-85941423D01*
X125634725Y-85941422D01*
X125630540Y-85939358D01*
X125392937Y-85863300D01*
X125388330Y-85862550D01*
X125388327Y-85862549D01*
X125151312Y-85823949D01*
X125151313Y-85823949D01*
X125146701Y-85823198D01*
X125025753Y-85821615D01*
X124901920Y-85819994D01*
X124901917Y-85819994D01*
X124897243Y-85819933D01*
X124650042Y-85853575D01*
X124645556Y-85854883D01*
X124645554Y-85854883D01*
X124617576Y-85863038D01*
X124410528Y-85923387D01*
X124406275Y-85925347D01*
X124406274Y-85925348D01*
X124378971Y-85937935D01*
X124183965Y-86027834D01*
X124180059Y-86030395D01*
X124180057Y-86030396D01*
X124179386Y-86030836D01*
X124174537Y-86034015D01*
X124106603Y-86054640D01*
X124038302Y-86035262D01*
X123991320Y-85982034D01*
X123980574Y-85911856D01*
X124009474Y-85847008D01*
X124016355Y-85839550D01*
X125504550Y-84351355D01*
X125566862Y-84317329D01*
X125618762Y-84316979D01*
X125798597Y-84353567D01*
X125803772Y-84353757D01*
X125803774Y-84353757D01*
X126016673Y-84361564D01*
X126016677Y-84361564D01*
X126021837Y-84361753D01*
X126026957Y-84361097D01*
X126026959Y-84361097D01*
X126238288Y-84334025D01*
X126238289Y-84334025D01*
X126243416Y-84333368D01*
X126282434Y-84321662D01*
X126452429Y-84270661D01*
X126452434Y-84270659D01*
X126457384Y-84269174D01*
X126657994Y-84170896D01*
X126839860Y-84041173D01*
X126998096Y-83883489D01*
X127057594Y-83800689D01*
X127128453Y-83702077D01*
X127129776Y-83703028D01*
X127176645Y-83659857D01*
X127246580Y-83647625D01*
X127312026Y-83675144D01*
X127339875Y-83706994D01*
X127399987Y-83805088D01*
X127546250Y-83973938D01*
X127718126Y-84116632D01*
X127911000Y-84229338D01*
X128119692Y-84309030D01*
X128124760Y-84310061D01*
X128124763Y-84310062D01*
X128232012Y-84331882D01*
X128338597Y-84353567D01*
X128343772Y-84353757D01*
X128343774Y-84353757D01*
X128556673Y-84361564D01*
X128556677Y-84361564D01*
X128561837Y-84361753D01*
X128566957Y-84361097D01*
X128566959Y-84361097D01*
X128778288Y-84334025D01*
X128778289Y-84334025D01*
X128783416Y-84333368D01*
X128822434Y-84321662D01*
X128992429Y-84270661D01*
X128992434Y-84270659D01*
X128997384Y-84269174D01*
X129197994Y-84170896D01*
X129379860Y-84041173D01*
X129538096Y-83883489D01*
X129597594Y-83800689D01*
X129668453Y-83702077D01*
X129669776Y-83703028D01*
X129716645Y-83659857D01*
X129786580Y-83647625D01*
X129852026Y-83675144D01*
X129879875Y-83706994D01*
X129939987Y-83805088D01*
X130086250Y-83973938D01*
X130258126Y-84116632D01*
X130451000Y-84229338D01*
X130659692Y-84309030D01*
X130664760Y-84310061D01*
X130664763Y-84310062D01*
X130772012Y-84331882D01*
X130878597Y-84353567D01*
X130883772Y-84353757D01*
X130883774Y-84353757D01*
X131096673Y-84361564D01*
X131096677Y-84361564D01*
X131101837Y-84361753D01*
X131106957Y-84361097D01*
X131106959Y-84361097D01*
X131318288Y-84334025D01*
X131318289Y-84334025D01*
X131323416Y-84333368D01*
X131328367Y-84331883D01*
X131328370Y-84331882D01*
X131369829Y-84319444D01*
X131440825Y-84319028D01*
X131495131Y-84351035D01*
X140161837Y-93017742D01*
X140169377Y-93026028D01*
X140173489Y-93032507D01*
X140179266Y-93037932D01*
X140223140Y-93079132D01*
X140225982Y-93081887D01*
X140245719Y-93101624D01*
X140248916Y-93104104D01*
X140257936Y-93111807D01*
X140290168Y-93142075D01*
X140297114Y-93145894D01*
X140297117Y-93145896D01*
X140307923Y-93151837D01*
X140324442Y-93162688D01*
X140340448Y-93175103D01*
X140347717Y-93178248D01*
X140347721Y-93178251D01*
X140381026Y-93192663D01*
X140391676Y-93197880D01*
X140430429Y-93219184D01*
X140438104Y-93221155D01*
X140438105Y-93221155D01*
X140450051Y-93224222D01*
X140468756Y-93230626D01*
X140487344Y-93238670D01*
X140495167Y-93239909D01*
X140495177Y-93239912D01*
X140531013Y-93245588D01*
X140542633Y-93247994D01*
X140577778Y-93257017D01*
X140585459Y-93258989D01*
X140605713Y-93258989D01*
X140625423Y-93260540D01*
X140645432Y-93263709D01*
X140653324Y-93262963D01*
X140689450Y-93259548D01*
X140701308Y-93258989D01*
X145703522Y-93258989D01*
X145771643Y-93278991D01*
X145818136Y-93332647D01*
X145828240Y-93402921D01*
X145814877Y-93443948D01*
X145751930Y-93562835D01*
X145700073Y-93660776D01*
X145698601Y-93664799D01*
X145698599Y-93664803D01*
X145658125Y-93775405D01*
X145603616Y-93924355D01*
X145602703Y-93928541D01*
X145602703Y-93928542D01*
X145564094Y-94105623D01*
X145543825Y-94198585D01*
X145521803Y-94478393D01*
X145537960Y-94758601D01*
X145538785Y-94762806D01*
X145538786Y-94762814D01*
X145549711Y-94818497D01*
X145591996Y-95034024D01*
X145593383Y-95038074D01*
X145593384Y-95038079D01*
X145681522Y-95295509D01*
X145682911Y-95299565D01*
X145809022Y-95550310D01*
X145811448Y-95553839D01*
X145811451Y-95553845D01*
X145920012Y-95711801D01*
X145967997Y-95781620D01*
X146156894Y-95989215D01*
X146160183Y-95991965D01*
X146368925Y-96166501D01*
X146368930Y-96166505D01*
X146372217Y-96169253D01*
X146427424Y-96203884D01*
X146606341Y-96316119D01*
X146606345Y-96316121D01*
X146609981Y-96318402D01*
X146865788Y-96433903D01*
X146869907Y-96435123D01*
X147130790Y-96512401D01*
X147130795Y-96512402D01*
X147134903Y-96513619D01*
X147139137Y-96514267D01*
X147139142Y-96514268D01*
X147383514Y-96551662D01*
X147412347Y-96556074D01*
X147555292Y-96558319D01*
X147688694Y-96560415D01*
X147688700Y-96560415D01*
X147692985Y-96560482D01*
X147971626Y-96526763D01*
X148243112Y-96455540D01*
X148247072Y-96453900D01*
X148247077Y-96453898D01*
X148386600Y-96396105D01*
X148502420Y-96348131D01*
X148553296Y-96318402D01*
X148741054Y-96208685D01*
X148741055Y-96208685D01*
X148744752Y-96206524D01*
X148965624Y-96033338D01*
X149160948Y-95831779D01*
X149163481Y-95828331D01*
X149163485Y-95828326D01*
X149324572Y-95609032D01*
X149327110Y-95605577D01*
X149461036Y-95358916D01*
X149560247Y-95096362D01*
X149622907Y-94822773D01*
X149632685Y-94713220D01*
X149647637Y-94545677D01*
X149647637Y-94545675D01*
X149647857Y-94543211D01*
X149648310Y-94500000D01*
X149629220Y-94219977D01*
X149623923Y-94194396D01*
X149573172Y-93949332D01*
X149572303Y-93945135D01*
X149478612Y-93680561D01*
X149355884Y-93442779D01*
X149342415Y-93373071D01*
X149368770Y-93307148D01*
X149426583Y-93265938D01*
X149467850Y-93258989D01*
X150225894Y-93258989D01*
X150294015Y-93278991D01*
X150314990Y-93295894D01*
X150516123Y-93497028D01*
X150550148Y-93559340D01*
X150545083Y-93630156D01*
X150538383Y-93645079D01*
X150532082Y-93656980D01*
X150532078Y-93656989D01*
X150530073Y-93660776D01*
X150528601Y-93664799D01*
X150528599Y-93664803D01*
X150488125Y-93775405D01*
X150433616Y-93924355D01*
X150432703Y-93928541D01*
X150432703Y-93928542D01*
X150394094Y-94105623D01*
X150373825Y-94198585D01*
X150351803Y-94478393D01*
X150367960Y-94758601D01*
X150368785Y-94762806D01*
X150368786Y-94762814D01*
X150379711Y-94818497D01*
X150421996Y-95034024D01*
X150423383Y-95038074D01*
X150423384Y-95038079D01*
X150511522Y-95295509D01*
X150512911Y-95299565D01*
X150639022Y-95550310D01*
X150641448Y-95553839D01*
X150641451Y-95553845D01*
X150750012Y-95711801D01*
X150797997Y-95781620D01*
X150986894Y-95989215D01*
X150990183Y-95991965D01*
X151198925Y-96166501D01*
X151198930Y-96166505D01*
X151202217Y-96169253D01*
X151257424Y-96203884D01*
X151436341Y-96316119D01*
X151436345Y-96316121D01*
X151439981Y-96318402D01*
X151695788Y-96433903D01*
X151699907Y-96435123D01*
X151960790Y-96512401D01*
X151960795Y-96512402D01*
X151964903Y-96513619D01*
X151969137Y-96514267D01*
X151969142Y-96514268D01*
X152213514Y-96551662D01*
X152242347Y-96556074D01*
X152385292Y-96558319D01*
X152518694Y-96560415D01*
X152518700Y-96560415D01*
X152522985Y-96560482D01*
X152801626Y-96526763D01*
X153073112Y-96455540D01*
X153077072Y-96453900D01*
X153077077Y-96453898D01*
X153216600Y-96396105D01*
X153332420Y-96348131D01*
X153383296Y-96318402D01*
X153571054Y-96208685D01*
X153571055Y-96208685D01*
X153574752Y-96206524D01*
X153795624Y-96033338D01*
X153990948Y-95831779D01*
X153993481Y-95828331D01*
X153993485Y-95828326D01*
X154154572Y-95609032D01*
X154157110Y-95605577D01*
X154291036Y-95358916D01*
X154390247Y-95096362D01*
X154452907Y-94822773D01*
X154462685Y-94713220D01*
X154477637Y-94545677D01*
X154477637Y-94545675D01*
X154477857Y-94543211D01*
X154478310Y-94500000D01*
X154459220Y-94219977D01*
X154453923Y-94194396D01*
X154403172Y-93949332D01*
X154402303Y-93945135D01*
X154308612Y-93680561D01*
X154298401Y-93660776D01*
X154181847Y-93434957D01*
X154181847Y-93434956D01*
X154179882Y-93431150D01*
X154173099Y-93421498D01*
X154056687Y-93255862D01*
X154018493Y-93201517D01*
X153872824Y-93044758D01*
X153830354Y-92999055D01*
X153830351Y-92999052D01*
X153827433Y-92995912D01*
X153610237Y-92818139D01*
X153370923Y-92671487D01*
X153348348Y-92661577D01*
X153117853Y-92560397D01*
X153113921Y-92558671D01*
X153094526Y-92553146D01*
X152848114Y-92482954D01*
X152848115Y-92482954D01*
X152843986Y-92481778D01*
X152629730Y-92451285D01*
X152570365Y-92442836D01*
X152570363Y-92442836D01*
X152566113Y-92442231D01*
X152561824Y-92442209D01*
X152561817Y-92442208D01*
X152289730Y-92440783D01*
X152289723Y-92440783D01*
X152285444Y-92440761D01*
X152281199Y-92441320D01*
X152281197Y-92441320D01*
X152217813Y-92449665D01*
X152007172Y-92477397D01*
X151736446Y-92551459D01*
X151732499Y-92553142D01*
X151732489Y-92553146D01*
X151552536Y-92629903D01*
X151482029Y-92638232D01*
X151414006Y-92603101D01*
X151044141Y-92233236D01*
X151036601Y-92224950D01*
X151032489Y-92218471D01*
X150982837Y-92171845D01*
X150979996Y-92169091D01*
X150960259Y-92149354D01*
X150957062Y-92146874D01*
X150948040Y-92139169D01*
X150921589Y-92114330D01*
X150915810Y-92108903D01*
X150908864Y-92105084D01*
X150908861Y-92105082D01*
X150898055Y-92099141D01*
X150881536Y-92088290D01*
X150881072Y-92087930D01*
X150865530Y-92075875D01*
X150858261Y-92072730D01*
X150858257Y-92072727D01*
X150824952Y-92058315D01*
X150814302Y-92053098D01*
X150775549Y-92031794D01*
X150755926Y-92026756D01*
X150737223Y-92020352D01*
X150725909Y-92015456D01*
X150725908Y-92015456D01*
X150718634Y-92012308D01*
X150710811Y-92011069D01*
X150710801Y-92011066D01*
X150674965Y-92005390D01*
X150663345Y-92002984D01*
X150628200Y-91993961D01*
X150628199Y-91993961D01*
X150620519Y-91991989D01*
X150600265Y-91991989D01*
X150580554Y-91990438D01*
X150568375Y-91988509D01*
X150560546Y-91987269D01*
X150552654Y-91988015D01*
X150516528Y-91991430D01*
X150504670Y-91991989D01*
X148305719Y-91991989D01*
X148237598Y-91971987D01*
X148191105Y-91918331D01*
X148181001Y-91848057D01*
X148210495Y-91783477D01*
X148257501Y-91749580D01*
X148383310Y-91697468D01*
X148502420Y-91648131D01*
X148553296Y-91618402D01*
X148741054Y-91508685D01*
X148741055Y-91508685D01*
X148744752Y-91506524D01*
X148965624Y-91333338D01*
X148971157Y-91327629D01*
X149129121Y-91164622D01*
X149160948Y-91131779D01*
X149163481Y-91128331D01*
X149163485Y-91128326D01*
X149324572Y-90909032D01*
X149327110Y-90905577D01*
X149359198Y-90846479D01*
X149458986Y-90662692D01*
X149458987Y-90662690D01*
X149461036Y-90658916D01*
X149560247Y-90396362D01*
X149622907Y-90122773D01*
X149647857Y-89843211D01*
X149648310Y-89800000D01*
X149636940Y-89633220D01*
X149629512Y-89524254D01*
X149629511Y-89524248D01*
X149629220Y-89519977D01*
X149626359Y-89506159D01*
X149573172Y-89249332D01*
X149572303Y-89245135D01*
X149478612Y-88980561D01*
X149468401Y-88960776D01*
X149351847Y-88734957D01*
X149351847Y-88734956D01*
X149349882Y-88731150D01*
X149339595Y-88716512D01*
X149199019Y-88516494D01*
X149188493Y-88501517D01*
X149024087Y-88324595D01*
X149000354Y-88299055D01*
X149000351Y-88299052D01*
X148997433Y-88295912D01*
X148780237Y-88118139D01*
X148560048Y-87983207D01*
X148544580Y-87973728D01*
X148540923Y-87971487D01*
X148527221Y-87965472D01*
X148287853Y-87860397D01*
X148283921Y-87858671D01*
X148264519Y-87853144D01*
X148018114Y-87782954D01*
X148018115Y-87782954D01*
X148013986Y-87781778D01*
X147808217Y-87752493D01*
X147740365Y-87742836D01*
X147740363Y-87742836D01*
X147736113Y-87742231D01*
X147731824Y-87742209D01*
X147731817Y-87742208D01*
X147459730Y-87740783D01*
X147459723Y-87740783D01*
X147455444Y-87740761D01*
X147451199Y-87741320D01*
X147451197Y-87741320D01*
X147387813Y-87749665D01*
X147177172Y-87777397D01*
X146906446Y-87851459D01*
X146648277Y-87961577D01*
X146533829Y-88030073D01*
X146411123Y-88103511D01*
X146411119Y-88103514D01*
X146407441Y-88105715D01*
X146188395Y-88281204D01*
X146185451Y-88284306D01*
X146185447Y-88284310D01*
X146000858Y-88478826D01*
X145995192Y-88484797D01*
X145831408Y-88712727D01*
X145700073Y-88960776D01*
X145698601Y-88964799D01*
X145698599Y-88964803D01*
X145669763Y-89043602D01*
X145603616Y-89224355D01*
X145602703Y-89228541D01*
X145602703Y-89228542D01*
X145544840Y-89493931D01*
X145543825Y-89498585D01*
X145521803Y-89778393D01*
X145537960Y-90058601D01*
X145538785Y-90062806D01*
X145538786Y-90062814D01*
X145549711Y-90118497D01*
X145591996Y-90334024D01*
X145593383Y-90338074D01*
X145593384Y-90338079D01*
X145681522Y-90595509D01*
X145682911Y-90599565D01*
X145809022Y-90850310D01*
X145811448Y-90853839D01*
X145811451Y-90853845D01*
X145858345Y-90922076D01*
X145967997Y-91081620D01*
X146156894Y-91289215D01*
X146160183Y-91291965D01*
X146368925Y-91466501D01*
X146368930Y-91466505D01*
X146372217Y-91469253D01*
X146427424Y-91503884D01*
X146606341Y-91616119D01*
X146606345Y-91616121D01*
X146609981Y-91618402D01*
X146613891Y-91620167D01*
X146613892Y-91620168D01*
X146651679Y-91637229D01*
X146865788Y-91733903D01*
X146872328Y-91735840D01*
X146903852Y-91745178D01*
X146963486Y-91783703D01*
X146992826Y-91848354D01*
X146982555Y-91918604D01*
X146935934Y-91972149D01*
X146868066Y-91991989D01*
X140980083Y-91991989D01*
X140911962Y-91971987D01*
X140890988Y-91955084D01*
X133511318Y-84575413D01*
X133477292Y-84513101D01*
X133482357Y-84442286D01*
X133524904Y-84385450D01*
X133591424Y-84360639D01*
X133605024Y-84360403D01*
X133621698Y-84361015D01*
X133636674Y-84361564D01*
X133636678Y-84361564D01*
X133641837Y-84361753D01*
X133646957Y-84361097D01*
X133646959Y-84361097D01*
X133858288Y-84334025D01*
X133858289Y-84334025D01*
X133863416Y-84333368D01*
X133902434Y-84321662D01*
X134072429Y-84270661D01*
X134072434Y-84270659D01*
X134077384Y-84269174D01*
X134277994Y-84170896D01*
X134459860Y-84041173D01*
X134618096Y-83883489D01*
X134677594Y-83800689D01*
X134748453Y-83702077D01*
X134749776Y-83703028D01*
X134796645Y-83659857D01*
X134866580Y-83647625D01*
X134932026Y-83675144D01*
X134959875Y-83706994D01*
X135019987Y-83805088D01*
X135166250Y-83973938D01*
X135338126Y-84116632D01*
X135531000Y-84229338D01*
X135739692Y-84309030D01*
X135744760Y-84310061D01*
X135744763Y-84310062D01*
X135852012Y-84331882D01*
X135958597Y-84353567D01*
X135963772Y-84353757D01*
X135963774Y-84353757D01*
X136176673Y-84361564D01*
X136176677Y-84361564D01*
X136181837Y-84361753D01*
X136186957Y-84361097D01*
X136186959Y-84361097D01*
X136398288Y-84334025D01*
X136398289Y-84334025D01*
X136403416Y-84333368D01*
X136442434Y-84321662D01*
X136612429Y-84270661D01*
X136612434Y-84270659D01*
X136617384Y-84269174D01*
X136817994Y-84170896D01*
X136999860Y-84041173D01*
X137158096Y-83883489D01*
X137217594Y-83800689D01*
X137288453Y-83702077D01*
X137289776Y-83703028D01*
X137336645Y-83659857D01*
X137406580Y-83647625D01*
X137472026Y-83675144D01*
X137499875Y-83706994D01*
X137559987Y-83805088D01*
X137706250Y-83973938D01*
X137878126Y-84116632D01*
X138071000Y-84229338D01*
X138279692Y-84309030D01*
X138284760Y-84310061D01*
X138284763Y-84310062D01*
X138392012Y-84331882D01*
X138498597Y-84353567D01*
X138503772Y-84353757D01*
X138503774Y-84353757D01*
X138716673Y-84361564D01*
X138716677Y-84361564D01*
X138721837Y-84361753D01*
X138726957Y-84361097D01*
X138726959Y-84361097D01*
X138938288Y-84334025D01*
X138938289Y-84334025D01*
X138943416Y-84333368D01*
X138982434Y-84321662D01*
X139152429Y-84270661D01*
X139152434Y-84270659D01*
X139157384Y-84269174D01*
X139357994Y-84170896D01*
X139539860Y-84041173D01*
X139698096Y-83883489D01*
X139757594Y-83800689D01*
X139828453Y-83702077D01*
X139829776Y-83703028D01*
X139876645Y-83659857D01*
X139946580Y-83647625D01*
X140012026Y-83675144D01*
X140039875Y-83706994D01*
X140099987Y-83805088D01*
X140246250Y-83973938D01*
X140418126Y-84116632D01*
X140611000Y-84229338D01*
X140819692Y-84309030D01*
X140824760Y-84310061D01*
X140824763Y-84310062D01*
X140932012Y-84331882D01*
X141038597Y-84353567D01*
X141043772Y-84353757D01*
X141043774Y-84353757D01*
X141256673Y-84361564D01*
X141256677Y-84361564D01*
X141261837Y-84361753D01*
X141266957Y-84361097D01*
X141266959Y-84361097D01*
X141478288Y-84334025D01*
X141478289Y-84334025D01*
X141483416Y-84333368D01*
X141522434Y-84321662D01*
X141692429Y-84270661D01*
X141692434Y-84270659D01*
X141697384Y-84269174D01*
X141897994Y-84170896D01*
X142079860Y-84041173D01*
X142238096Y-83883489D01*
X142297594Y-83800689D01*
X142368453Y-83702077D01*
X142369776Y-83703028D01*
X142416645Y-83659857D01*
X142486580Y-83647625D01*
X142552026Y-83675144D01*
X142579875Y-83706994D01*
X142639987Y-83805088D01*
X142786250Y-83973938D01*
X142958126Y-84116632D01*
X143151000Y-84229338D01*
X143359692Y-84309030D01*
X143364760Y-84310061D01*
X143364763Y-84310062D01*
X143472012Y-84331882D01*
X143578597Y-84353567D01*
X143583772Y-84353757D01*
X143583774Y-84353757D01*
X143796673Y-84361564D01*
X143796677Y-84361564D01*
X143801837Y-84361753D01*
X143806957Y-84361097D01*
X143806959Y-84361097D01*
X144018288Y-84334025D01*
X144018289Y-84334025D01*
X144023416Y-84333368D01*
X144062434Y-84321662D01*
X144232429Y-84270661D01*
X144232434Y-84270659D01*
X144237384Y-84269174D01*
X144437994Y-84170896D01*
X144619860Y-84041173D01*
X144778096Y-83883489D01*
X144837594Y-83800689D01*
X144908453Y-83702077D01*
X144909776Y-83703028D01*
X144956645Y-83659857D01*
X145026580Y-83647625D01*
X145092026Y-83675144D01*
X145119875Y-83706994D01*
X145179987Y-83805088D01*
X145326250Y-83973938D01*
X145498126Y-84116632D01*
X145691000Y-84229338D01*
X145899692Y-84309030D01*
X145904760Y-84310061D01*
X145904763Y-84310062D01*
X146012012Y-84331882D01*
X146118597Y-84353567D01*
X146123772Y-84353757D01*
X146123774Y-84353757D01*
X146336673Y-84361564D01*
X146336677Y-84361564D01*
X146341837Y-84361753D01*
X146346957Y-84361097D01*
X146346959Y-84361097D01*
X146558288Y-84334025D01*
X146558289Y-84334025D01*
X146563416Y-84333368D01*
X146602434Y-84321662D01*
X146772429Y-84270661D01*
X146772434Y-84270659D01*
X146777384Y-84269174D01*
X146977994Y-84170896D01*
X147159860Y-84041173D01*
X147318096Y-83883489D01*
X147377594Y-83800689D01*
X147448453Y-83702077D01*
X147449776Y-83703028D01*
X147496645Y-83659857D01*
X147566580Y-83647625D01*
X147632026Y-83675144D01*
X147659875Y-83706994D01*
X147719987Y-83805088D01*
X147866250Y-83973938D01*
X148038126Y-84116632D01*
X148231000Y-84229338D01*
X148439692Y-84309030D01*
X148444760Y-84310061D01*
X148444763Y-84310062D01*
X148552012Y-84331882D01*
X148658597Y-84353567D01*
X148663772Y-84353757D01*
X148663774Y-84353757D01*
X148876673Y-84361564D01*
X148876677Y-84361564D01*
X148881837Y-84361753D01*
X148886957Y-84361097D01*
X148886959Y-84361097D01*
X149098288Y-84334025D01*
X149098289Y-84334025D01*
X149103416Y-84333368D01*
X149142434Y-84321662D01*
X149312429Y-84270661D01*
X149312434Y-84270659D01*
X149317384Y-84269174D01*
X149517994Y-84170896D01*
X149699860Y-84041173D01*
X149858096Y-83883489D01*
X149917594Y-83800689D01*
X149988453Y-83702077D01*
X149989776Y-83703028D01*
X150036645Y-83659857D01*
X150106580Y-83647625D01*
X150172026Y-83675144D01*
X150199875Y-83706994D01*
X150259987Y-83805088D01*
X150406250Y-83973938D01*
X150578126Y-84116632D01*
X150771000Y-84229338D01*
X150979692Y-84309030D01*
X150984760Y-84310061D01*
X150984763Y-84310062D01*
X151092012Y-84331882D01*
X151198597Y-84353567D01*
X151203772Y-84353757D01*
X151203774Y-84353757D01*
X151416673Y-84361564D01*
X151416677Y-84361564D01*
X151421837Y-84361753D01*
X151426957Y-84361097D01*
X151426959Y-84361097D01*
X151638288Y-84334025D01*
X151638289Y-84334025D01*
X151643416Y-84333368D01*
X151648367Y-84331883D01*
X151648370Y-84331882D01*
X151689829Y-84319444D01*
X151760825Y-84319028D01*
X151815131Y-84351035D01*
X156161132Y-88697037D01*
X160356348Y-92892253D01*
X160363888Y-92900539D01*
X160368000Y-92907018D01*
X160373777Y-92912443D01*
X160417651Y-92953643D01*
X160420493Y-92956398D01*
X160440230Y-92976135D01*
X160443427Y-92978615D01*
X160452447Y-92986318D01*
X160484679Y-93016586D01*
X160491625Y-93020405D01*
X160491628Y-93020407D01*
X160502434Y-93026348D01*
X160518953Y-93037199D01*
X160534959Y-93049614D01*
X160542228Y-93052759D01*
X160542232Y-93052762D01*
X160575537Y-93067174D01*
X160586187Y-93072391D01*
X160624940Y-93093695D01*
X160632615Y-93095666D01*
X160632616Y-93095666D01*
X160644562Y-93098733D01*
X160663266Y-93105137D01*
X160669291Y-93107744D01*
X160681855Y-93113181D01*
X160689678Y-93114420D01*
X160689688Y-93114423D01*
X160725524Y-93120099D01*
X160737144Y-93122505D01*
X160772289Y-93131528D01*
X160779970Y-93133500D01*
X160800224Y-93133500D01*
X160819934Y-93135051D01*
X160839943Y-93138220D01*
X160847835Y-93137474D01*
X160883961Y-93134059D01*
X160895819Y-93133500D01*
X168359511Y-93133500D01*
X168427632Y-93153502D01*
X168470502Y-93199861D01*
X168495571Y-93246516D01*
X168500593Y-93255862D01*
X168515217Y-93325336D01*
X168489958Y-93391687D01*
X168432837Y-93433850D01*
X168389601Y-93441500D01*
X157004594Y-93441500D01*
X156936473Y-93421498D01*
X156915499Y-93404595D01*
X154314671Y-90803766D01*
X154280645Y-90741454D01*
X154285710Y-90670638D01*
X154289074Y-90662530D01*
X154291036Y-90658916D01*
X154390247Y-90396362D01*
X154452907Y-90122773D01*
X154477857Y-89843211D01*
X154478310Y-89800000D01*
X154466940Y-89633220D01*
X154459512Y-89524254D01*
X154459511Y-89524248D01*
X154459220Y-89519977D01*
X154456359Y-89506159D01*
X154403172Y-89249332D01*
X154402303Y-89245135D01*
X154308612Y-88980561D01*
X154298401Y-88960776D01*
X154181847Y-88734957D01*
X154181847Y-88734956D01*
X154179882Y-88731150D01*
X154169595Y-88716512D01*
X154029019Y-88516494D01*
X154018493Y-88501517D01*
X153854087Y-88324595D01*
X153830354Y-88299055D01*
X153830351Y-88299052D01*
X153827433Y-88295912D01*
X153610237Y-88118139D01*
X153390048Y-87983207D01*
X153374580Y-87973728D01*
X153370923Y-87971487D01*
X153357221Y-87965472D01*
X153117853Y-87860397D01*
X153113921Y-87858671D01*
X153094519Y-87853144D01*
X152848114Y-87782954D01*
X152848115Y-87782954D01*
X152843986Y-87781778D01*
X152638217Y-87752493D01*
X152570365Y-87742836D01*
X152570363Y-87742836D01*
X152566113Y-87742231D01*
X152561824Y-87742209D01*
X152561817Y-87742208D01*
X152289730Y-87740783D01*
X152289723Y-87740783D01*
X152285444Y-87740761D01*
X152281199Y-87741320D01*
X152281197Y-87741320D01*
X152217813Y-87749665D01*
X152007172Y-87777397D01*
X151736446Y-87851459D01*
X151478277Y-87961577D01*
X151363829Y-88030073D01*
X151241123Y-88103511D01*
X151241119Y-88103514D01*
X151237441Y-88105715D01*
X151018395Y-88281204D01*
X151015451Y-88284306D01*
X151015447Y-88284310D01*
X150830858Y-88478826D01*
X150825192Y-88484797D01*
X150661408Y-88712727D01*
X150530073Y-88960776D01*
X150528601Y-88964799D01*
X150528599Y-88964803D01*
X150499763Y-89043602D01*
X150433616Y-89224355D01*
X150432703Y-89228541D01*
X150432703Y-89228542D01*
X150374840Y-89493931D01*
X150373825Y-89498585D01*
X150351803Y-89778393D01*
X150367960Y-90058601D01*
X150368785Y-90062806D01*
X150368786Y-90062814D01*
X150379711Y-90118497D01*
X150421996Y-90334024D01*
X150423383Y-90338074D01*
X150423384Y-90338079D01*
X150511522Y-90595509D01*
X150512911Y-90599565D01*
X150639022Y-90850310D01*
X150641448Y-90853839D01*
X150641451Y-90853845D01*
X150688345Y-90922076D01*
X150797997Y-91081620D01*
X150986894Y-91289215D01*
X150990183Y-91291965D01*
X151198925Y-91466501D01*
X151198930Y-91466505D01*
X151202217Y-91469253D01*
X151257424Y-91503884D01*
X151436341Y-91616119D01*
X151436345Y-91616121D01*
X151439981Y-91618402D01*
X151443891Y-91620167D01*
X151443892Y-91620168D01*
X151481679Y-91637229D01*
X151695788Y-91733903D01*
X151716891Y-91740154D01*
X151960790Y-91812401D01*
X151960795Y-91812402D01*
X151964903Y-91813619D01*
X151969137Y-91814267D01*
X151969142Y-91814268D01*
X152213514Y-91851662D01*
X152242347Y-91856074D01*
X152385292Y-91858319D01*
X152518694Y-91860415D01*
X152518700Y-91860415D01*
X152522985Y-91860482D01*
X152801626Y-91826763D01*
X153073112Y-91755540D01*
X153279252Y-91670154D01*
X153349840Y-91662565D01*
X153416564Y-91697468D01*
X154808974Y-93089879D01*
X156186348Y-94467253D01*
X156193888Y-94475539D01*
X156198000Y-94482018D01*
X156203777Y-94487443D01*
X156247651Y-94528643D01*
X156250493Y-94531398D01*
X156270230Y-94551135D01*
X156273427Y-94553615D01*
X156282447Y-94561318D01*
X156314679Y-94591586D01*
X156321625Y-94595405D01*
X156321628Y-94595407D01*
X156332434Y-94601348D01*
X156348953Y-94612199D01*
X156364959Y-94624614D01*
X156372228Y-94627759D01*
X156372232Y-94627762D01*
X156405537Y-94642174D01*
X156416187Y-94647391D01*
X156454940Y-94668695D01*
X156462615Y-94670666D01*
X156462616Y-94670666D01*
X156474562Y-94673733D01*
X156493267Y-94680137D01*
X156511855Y-94688181D01*
X156519678Y-94689420D01*
X156519688Y-94689423D01*
X156555524Y-94695099D01*
X156567144Y-94697505D01*
X156598959Y-94705673D01*
X156609970Y-94708500D01*
X156630224Y-94708500D01*
X156649934Y-94710051D01*
X156669943Y-94713220D01*
X156677835Y-94712474D01*
X156696580Y-94710702D01*
X156713962Y-94709059D01*
X156725819Y-94708500D01*
X178346233Y-94708500D01*
X178357416Y-94709027D01*
X178364909Y-94710702D01*
X178372835Y-94710453D01*
X178372836Y-94710453D01*
X178432986Y-94708562D01*
X178436945Y-94708500D01*
X178464856Y-94708500D01*
X178468791Y-94708003D01*
X178468856Y-94707995D01*
X178480693Y-94707062D01*
X178512951Y-94706048D01*
X178516970Y-94705922D01*
X178524889Y-94705673D01*
X178544343Y-94700021D01*
X178563700Y-94696013D01*
X178575930Y-94694468D01*
X178575931Y-94694468D01*
X178583797Y-94693474D01*
X178591168Y-94690555D01*
X178591170Y-94690555D01*
X178624912Y-94677196D01*
X178636142Y-94673351D01*
X178670983Y-94663229D01*
X178670984Y-94663229D01*
X178678593Y-94661018D01*
X178685412Y-94656985D01*
X178685417Y-94656983D01*
X178696028Y-94650707D01*
X178713776Y-94642012D01*
X178732617Y-94634552D01*
X178768387Y-94608564D01*
X178778307Y-94602048D01*
X178809535Y-94583580D01*
X178809538Y-94583578D01*
X178816362Y-94579542D01*
X178830683Y-94565221D01*
X178845717Y-94552380D01*
X178855694Y-94545131D01*
X178862107Y-94540472D01*
X178890298Y-94506395D01*
X178898288Y-94497616D01*
X179290281Y-94105623D01*
X179352593Y-94071597D01*
X179420917Y-94075763D01*
X179559937Y-94124311D01*
X179559943Y-94124313D01*
X179564354Y-94125853D01*
X179568947Y-94126725D01*
X179804867Y-94171516D01*
X179804870Y-94171516D01*
X179809456Y-94172387D01*
X179934099Y-94177284D01*
X180054075Y-94181999D01*
X180054081Y-94181999D01*
X180058743Y-94182182D01*
X180156134Y-94171516D01*
X180302087Y-94155532D01*
X180302092Y-94155531D01*
X180306740Y-94155022D01*
X180311264Y-94153831D01*
X180543476Y-94092694D01*
X180543478Y-94092693D01*
X180547999Y-94091503D01*
X180594332Y-94071597D01*
X180772924Y-93994868D01*
X180772926Y-93994867D01*
X180777218Y-93993023D01*
X180894687Y-93920331D01*
X180985391Y-93864202D01*
X180985395Y-93864199D01*
X180989364Y-93861743D01*
X181179775Y-93700548D01*
X181241507Y-93630156D01*
X181341187Y-93516494D01*
X181341191Y-93516489D01*
X181344269Y-93512979D01*
X181394455Y-93434957D01*
X181476703Y-93307087D01*
X181479231Y-93303157D01*
X181581697Y-93075691D01*
X181588164Y-93052762D01*
X181648146Y-92840082D01*
X181648147Y-92840079D01*
X181649416Y-92835578D01*
X181671552Y-92661577D01*
X181680502Y-92591222D01*
X181680502Y-92591218D01*
X181680900Y-92588092D01*
X181681671Y-92558671D01*
X181683124Y-92503160D01*
X181683207Y-92500000D01*
X181664718Y-92251206D01*
X181609659Y-92007878D01*
X181595702Y-91971987D01*
X181520931Y-91779714D01*
X181520930Y-91779711D01*
X181519238Y-91775361D01*
X181507910Y-91755540D01*
X181445284Y-91645968D01*
X181395442Y-91558763D01*
X181240990Y-91362842D01*
X181059276Y-91191902D01*
X180900305Y-91081620D01*
X180858130Y-91052362D01*
X180858125Y-91052359D01*
X180854292Y-91049700D01*
X180850110Y-91047637D01*
X180850102Y-91047633D01*
X180634728Y-90941423D01*
X180634725Y-90941422D01*
X180630540Y-90939358D01*
X180392937Y-90863300D01*
X180388330Y-90862550D01*
X180388327Y-90862549D01*
X180151312Y-90823949D01*
X180151313Y-90823949D01*
X180146701Y-90823198D01*
X180025753Y-90821615D01*
X179901920Y-90819994D01*
X179901917Y-90819994D01*
X179897243Y-90819933D01*
X179650042Y-90853575D01*
X179645556Y-90854883D01*
X179645554Y-90854883D01*
X179616677Y-90863300D01*
X179410528Y-90923387D01*
X179183965Y-91027834D01*
X179180056Y-91030397D01*
X178979242Y-91162056D01*
X178979237Y-91162060D01*
X178975329Y-91164622D01*
X178882265Y-91247684D01*
X178832653Y-91291965D01*
X178789202Y-91330746D01*
X178629675Y-91522557D01*
X178500252Y-91735840D01*
X178498443Y-91740154D01*
X178498442Y-91740156D01*
X178423613Y-91918604D01*
X178403775Y-91965911D01*
X178402624Y-91970443D01*
X178402623Y-91970446D01*
X178372695Y-92088290D01*
X178342365Y-92207714D01*
X178317370Y-92455939D01*
X178317594Y-92460606D01*
X178317594Y-92460611D01*
X178319335Y-92496851D01*
X178329339Y-92705131D01*
X178378010Y-92949818D01*
X178379586Y-92954209D01*
X178379589Y-92954218D01*
X178424001Y-93077915D01*
X178428195Y-93148787D01*
X178394508Y-93209587D01*
X178199500Y-93404595D01*
X178137188Y-93438621D01*
X178110405Y-93441500D01*
X176611865Y-93441500D01*
X176543744Y-93421498D01*
X176497251Y-93367842D01*
X176487147Y-93297568D01*
X176496983Y-93263749D01*
X176536915Y-93175103D01*
X176581697Y-93075691D01*
X176588164Y-93052762D01*
X176648146Y-92840082D01*
X176648147Y-92840079D01*
X176649416Y-92835578D01*
X176671552Y-92661577D01*
X176680502Y-92591222D01*
X176680502Y-92591218D01*
X176680900Y-92588092D01*
X176681671Y-92558671D01*
X176683124Y-92503160D01*
X176683207Y-92500000D01*
X176664718Y-92251206D01*
X176609659Y-92007878D01*
X176595702Y-91971987D01*
X176520931Y-91779714D01*
X176520930Y-91779711D01*
X176519238Y-91775361D01*
X176507910Y-91755540D01*
X176445284Y-91645968D01*
X176395442Y-91558763D01*
X176240990Y-91362842D01*
X176059276Y-91191902D01*
X175900305Y-91081620D01*
X175858130Y-91052362D01*
X175858125Y-91052359D01*
X175854292Y-91049700D01*
X175850110Y-91047637D01*
X175850102Y-91047633D01*
X175634728Y-90941423D01*
X175634725Y-90941422D01*
X175630540Y-90939358D01*
X175392937Y-90863300D01*
X175388330Y-90862550D01*
X175388327Y-90862549D01*
X175151312Y-90823949D01*
X175151313Y-90823949D01*
X175146701Y-90823198D01*
X175025753Y-90821615D01*
X174901920Y-90819994D01*
X174901917Y-90819994D01*
X174897243Y-90819933D01*
X174650042Y-90853575D01*
X174645556Y-90854883D01*
X174645554Y-90854883D01*
X174616677Y-90863300D01*
X174410528Y-90923387D01*
X174183965Y-91027834D01*
X174180056Y-91030397D01*
X173979242Y-91162056D01*
X173979237Y-91162060D01*
X173975329Y-91164622D01*
X173882265Y-91247684D01*
X173832653Y-91291965D01*
X173789202Y-91330746D01*
X173629675Y-91522557D01*
X173572900Y-91616119D01*
X173502680Y-91731839D01*
X173500252Y-91735840D01*
X173480182Y-91783703D01*
X173477866Y-91789225D01*
X173433078Y-91844311D01*
X173361669Y-91866500D01*
X171640873Y-91866500D01*
X171572752Y-91846498D01*
X171526259Y-91792842D01*
X171523439Y-91786165D01*
X171522394Y-91783477D01*
X171519238Y-91775361D01*
X171507910Y-91755540D01*
X171445284Y-91645968D01*
X171395442Y-91558763D01*
X171240990Y-91362842D01*
X171059276Y-91191902D01*
X170900305Y-91081620D01*
X170858130Y-91052362D01*
X170858125Y-91052359D01*
X170854292Y-91049700D01*
X170850110Y-91047637D01*
X170850102Y-91047633D01*
X170634728Y-90941423D01*
X170634725Y-90941422D01*
X170630540Y-90939358D01*
X170392937Y-90863300D01*
X170388330Y-90862550D01*
X170388327Y-90862549D01*
X170151312Y-90823949D01*
X170151313Y-90823949D01*
X170146701Y-90823198D01*
X170025753Y-90821615D01*
X169901920Y-90819994D01*
X169901917Y-90819994D01*
X169897243Y-90819933D01*
X169650042Y-90853575D01*
X169645556Y-90854883D01*
X169645554Y-90854883D01*
X169616677Y-90863300D01*
X169410528Y-90923387D01*
X169183965Y-91027834D01*
X169180056Y-91030397D01*
X168979242Y-91162056D01*
X168979237Y-91162060D01*
X168975329Y-91164622D01*
X168882265Y-91247684D01*
X168832653Y-91291965D01*
X168789202Y-91330746D01*
X168629675Y-91522557D01*
X168572900Y-91616119D01*
X168502680Y-91731839D01*
X168500252Y-91735840D01*
X168480182Y-91783703D01*
X168477866Y-91789225D01*
X168433078Y-91844311D01*
X168361669Y-91866500D01*
X161174594Y-91866500D01*
X161106473Y-91846498D01*
X161085499Y-91829595D01*
X153682905Y-84427000D01*
X153648879Y-84364688D01*
X153646213Y-84339884D01*
X154154000Y-84339884D01*
X154158475Y-84355123D01*
X154159865Y-84356328D01*
X154167548Y-84357999D01*
X154794669Y-84357999D01*
X154801490Y-84357629D01*
X154852352Y-84352105D01*
X154867604Y-84348479D01*
X154988054Y-84303324D01*
X155003649Y-84294786D01*
X155105724Y-84218285D01*
X155118285Y-84205724D01*
X155194786Y-84103649D01*
X155203324Y-84088054D01*
X155248478Y-83967606D01*
X155252105Y-83952351D01*
X155257631Y-83901486D01*
X155258000Y-83894672D01*
X155258000Y-83272115D01*
X155253525Y-83256876D01*
X155252135Y-83255671D01*
X155244452Y-83254000D01*
X154172115Y-83254000D01*
X154156876Y-83258475D01*
X154155671Y-83259865D01*
X154154000Y-83267548D01*
X154154000Y-84339884D01*
X153646213Y-84339884D01*
X153646000Y-84337905D01*
X153646000Y-82872000D01*
X153666002Y-82803879D01*
X153719658Y-82757386D01*
X153772000Y-82746000D01*
X155239884Y-82746000D01*
X155255123Y-82741525D01*
X155256328Y-82740135D01*
X155257999Y-82732452D01*
X155257999Y-82584979D01*
X155278001Y-82516858D01*
X155331657Y-82470365D01*
X155383999Y-82458979D01*
X161818885Y-82458979D01*
X161887006Y-82478981D01*
X161907980Y-82495884D01*
X165353983Y-85941888D01*
X168799348Y-89387253D01*
X168806888Y-89395539D01*
X168811000Y-89402018D01*
X168816777Y-89407443D01*
X168860651Y-89448643D01*
X168863493Y-89451398D01*
X168883230Y-89471135D01*
X168886427Y-89473615D01*
X168895447Y-89481318D01*
X168927679Y-89511586D01*
X168934625Y-89515405D01*
X168934628Y-89515407D01*
X168945434Y-89521348D01*
X168961953Y-89532199D01*
X168977959Y-89544614D01*
X168985228Y-89547759D01*
X168985232Y-89547762D01*
X169018537Y-89562174D01*
X169029187Y-89567391D01*
X169067940Y-89588695D01*
X169075615Y-89590666D01*
X169075616Y-89590666D01*
X169087562Y-89593733D01*
X169106267Y-89600137D01*
X169124855Y-89608181D01*
X169132678Y-89609420D01*
X169132688Y-89609423D01*
X169168524Y-89615099D01*
X169180144Y-89617505D01*
X169211959Y-89625673D01*
X169222970Y-89628500D01*
X169243224Y-89628500D01*
X169262934Y-89630051D01*
X169282943Y-89633220D01*
X169290835Y-89632474D01*
X169309580Y-89630702D01*
X169326962Y-89629059D01*
X169338819Y-89628500D01*
X178426233Y-89628500D01*
X178437416Y-89629027D01*
X178444909Y-89630702D01*
X178452835Y-89630453D01*
X178452836Y-89630453D01*
X178512986Y-89628562D01*
X178516945Y-89628500D01*
X178544856Y-89628500D01*
X178548791Y-89628003D01*
X178548856Y-89627995D01*
X178560693Y-89627062D01*
X178592951Y-89626048D01*
X178596970Y-89625922D01*
X178604889Y-89625673D01*
X178624343Y-89620021D01*
X178643700Y-89616013D01*
X178655930Y-89614468D01*
X178655931Y-89614468D01*
X178663797Y-89613474D01*
X178671168Y-89610555D01*
X178671170Y-89610555D01*
X178704912Y-89597196D01*
X178716142Y-89593351D01*
X178750983Y-89583229D01*
X178750984Y-89583229D01*
X178758593Y-89581018D01*
X178765412Y-89576985D01*
X178765417Y-89576983D01*
X178776028Y-89570707D01*
X178793776Y-89562012D01*
X178812617Y-89554552D01*
X178848387Y-89528564D01*
X178858307Y-89522048D01*
X178889535Y-89503580D01*
X178889538Y-89503578D01*
X178896362Y-89499542D01*
X178910683Y-89485221D01*
X178925717Y-89472380D01*
X178935694Y-89465131D01*
X178942107Y-89460472D01*
X178970298Y-89426395D01*
X178978288Y-89417616D01*
X179290281Y-89105623D01*
X179352593Y-89071597D01*
X179420917Y-89075763D01*
X179559937Y-89124311D01*
X179559943Y-89124313D01*
X179564354Y-89125853D01*
X179568947Y-89126725D01*
X179804867Y-89171516D01*
X179804870Y-89171516D01*
X179809456Y-89172387D01*
X179934100Y-89177285D01*
X180054075Y-89181999D01*
X180054081Y-89181999D01*
X180058743Y-89182182D01*
X180148181Y-89172387D01*
X180302087Y-89155532D01*
X180302092Y-89155531D01*
X180306740Y-89155022D01*
X180313140Y-89153337D01*
X180543476Y-89092694D01*
X180543478Y-89092693D01*
X180547999Y-89091503D01*
X180594332Y-89071597D01*
X180772924Y-88994868D01*
X180772926Y-88994867D01*
X180777218Y-88993023D01*
X180879679Y-88929618D01*
X180985391Y-88864202D01*
X180985395Y-88864199D01*
X180989364Y-88861743D01*
X181089900Y-88776633D01*
X181176209Y-88703567D01*
X181176210Y-88703566D01*
X181179775Y-88700548D01*
X181261316Y-88607569D01*
X181341187Y-88516494D01*
X181341191Y-88516489D01*
X181344269Y-88512979D01*
X181360803Y-88487275D01*
X181424798Y-88387783D01*
X181479231Y-88303157D01*
X181581697Y-88075691D01*
X181615956Y-87954218D01*
X181648146Y-87840082D01*
X181648147Y-87840079D01*
X181649416Y-87835578D01*
X181680900Y-87588092D01*
X181680984Y-87584909D01*
X181682243Y-87536828D01*
X181683207Y-87500000D01*
X181664718Y-87251206D01*
X181609659Y-87007878D01*
X181595164Y-86970605D01*
X181520931Y-86779714D01*
X181520930Y-86779711D01*
X181519238Y-86775361D01*
X181494494Y-86732067D01*
X181412123Y-86587949D01*
X181395442Y-86558763D01*
X181240990Y-86362842D01*
X181059276Y-86191902D01*
X180943160Y-86111350D01*
X180858130Y-86052362D01*
X180858125Y-86052359D01*
X180854292Y-86049700D01*
X180850110Y-86047637D01*
X180850102Y-86047633D01*
X180634728Y-85941423D01*
X180634725Y-85941422D01*
X180630540Y-85939358D01*
X180392937Y-85863300D01*
X180388330Y-85862550D01*
X180388327Y-85862549D01*
X180151312Y-85823949D01*
X180151313Y-85823949D01*
X180146701Y-85823198D01*
X180025753Y-85821615D01*
X179901920Y-85819994D01*
X179901917Y-85819994D01*
X179897243Y-85819933D01*
X179650042Y-85853575D01*
X179645556Y-85854883D01*
X179645554Y-85854883D01*
X179617576Y-85863038D01*
X179410528Y-85923387D01*
X179406275Y-85925347D01*
X179406274Y-85925348D01*
X179378971Y-85937935D01*
X179183965Y-86027834D01*
X179153767Y-86047633D01*
X178979242Y-86162056D01*
X178979237Y-86162060D01*
X178975329Y-86164622D01*
X178789202Y-86330746D01*
X178629675Y-86522557D01*
X178500252Y-86735840D01*
X178498443Y-86740154D01*
X178498442Y-86740156D01*
X178407232Y-86957668D01*
X178403775Y-86965911D01*
X178402624Y-86970443D01*
X178402623Y-86970446D01*
X178394185Y-87003671D01*
X178342365Y-87207714D01*
X178317370Y-87455939D01*
X178317594Y-87460606D01*
X178317594Y-87460611D01*
X178323354Y-87580535D01*
X178329339Y-87705131D01*
X178378010Y-87949818D01*
X178379586Y-87954209D01*
X178379589Y-87954218D01*
X178424001Y-88077915D01*
X178428195Y-88148787D01*
X178394508Y-88209587D01*
X178279500Y-88324595D01*
X178217188Y-88358621D01*
X178190405Y-88361500D01*
X176647902Y-88361500D01*
X176579781Y-88341498D01*
X176533288Y-88287842D01*
X176523184Y-88217568D01*
X176533020Y-88183749D01*
X176548770Y-88148787D01*
X176581697Y-88075691D01*
X176615956Y-87954218D01*
X176648146Y-87840082D01*
X176648147Y-87840079D01*
X176649416Y-87835578D01*
X176680900Y-87588092D01*
X176680984Y-87584909D01*
X176682243Y-87536828D01*
X176683207Y-87500000D01*
X176664718Y-87251206D01*
X176609659Y-87007878D01*
X176595164Y-86970605D01*
X176520931Y-86779714D01*
X176520930Y-86779711D01*
X176519238Y-86775361D01*
X176494494Y-86732067D01*
X176412123Y-86587949D01*
X176395442Y-86558763D01*
X176240990Y-86362842D01*
X176059276Y-86191902D01*
X175943160Y-86111350D01*
X175858130Y-86052362D01*
X175858125Y-86052359D01*
X175854292Y-86049700D01*
X175850110Y-86047637D01*
X175850102Y-86047633D01*
X175634728Y-85941423D01*
X175634725Y-85941422D01*
X175630540Y-85939358D01*
X175392937Y-85863300D01*
X175388330Y-85862550D01*
X175388327Y-85862549D01*
X175151312Y-85823949D01*
X175151313Y-85823949D01*
X175146701Y-85823198D01*
X175025753Y-85821615D01*
X174901920Y-85819994D01*
X174901917Y-85819994D01*
X174897243Y-85819933D01*
X174650042Y-85853575D01*
X174645556Y-85854883D01*
X174645554Y-85854883D01*
X174617576Y-85863038D01*
X174410528Y-85923387D01*
X174406275Y-85925347D01*
X174406274Y-85925348D01*
X174378971Y-85937935D01*
X174183965Y-86027834D01*
X174153767Y-86047633D01*
X173979242Y-86162056D01*
X173979237Y-86162060D01*
X173975329Y-86164622D01*
X173789202Y-86330746D01*
X173629675Y-86522557D01*
X173605070Y-86563105D01*
X173502680Y-86731839D01*
X173500252Y-86735840D01*
X173481856Y-86779711D01*
X173477866Y-86789225D01*
X173433078Y-86844311D01*
X173361669Y-86866500D01*
X171640873Y-86866500D01*
X171572752Y-86846498D01*
X171526259Y-86792842D01*
X171523439Y-86786165D01*
X171519238Y-86775361D01*
X171494494Y-86732067D01*
X171412123Y-86587949D01*
X171395442Y-86558763D01*
X171240990Y-86362842D01*
X171059276Y-86191902D01*
X170943160Y-86111350D01*
X170858130Y-86052362D01*
X170858125Y-86052359D01*
X170854292Y-86049700D01*
X170850110Y-86047637D01*
X170850102Y-86047633D01*
X170634728Y-85941423D01*
X170634725Y-85941422D01*
X170630540Y-85939358D01*
X170392937Y-85863300D01*
X170388330Y-85862550D01*
X170388327Y-85862549D01*
X170151312Y-85823949D01*
X170151313Y-85823949D01*
X170146701Y-85823198D01*
X170025753Y-85821615D01*
X169901920Y-85819994D01*
X169901917Y-85819994D01*
X169897243Y-85819933D01*
X169650042Y-85853575D01*
X169645556Y-85854883D01*
X169645554Y-85854883D01*
X169520836Y-85891235D01*
X169411492Y-85923106D01*
X169340496Y-85922965D01*
X169287139Y-85891235D01*
X164379630Y-80983725D01*
X164372090Y-80975439D01*
X164367978Y-80968960D01*
X164342012Y-80944576D01*
X164318327Y-80922335D01*
X164315485Y-80919580D01*
X164295748Y-80899843D01*
X164292551Y-80897363D01*
X164283529Y-80889658D01*
X164270100Y-80877047D01*
X164251299Y-80859392D01*
X164244353Y-80855573D01*
X164244350Y-80855571D01*
X164233544Y-80849630D01*
X164217025Y-80838779D01*
X164216561Y-80838419D01*
X164201019Y-80826364D01*
X164193750Y-80823219D01*
X164193746Y-80823216D01*
X164160441Y-80808804D01*
X164149791Y-80803587D01*
X164111038Y-80782283D01*
X164091415Y-80777245D01*
X164072712Y-80770841D01*
X164061398Y-80765945D01*
X164061397Y-80765945D01*
X164054123Y-80762797D01*
X164046300Y-80761558D01*
X164046297Y-80761557D01*
X164029829Y-80758949D01*
X163965676Y-80728536D01*
X163928150Y-80668267D01*
X163929164Y-80597278D01*
X163968398Y-80538106D01*
X164033393Y-80509539D01*
X164049541Y-80508500D01*
X184865500Y-80508500D01*
X184933621Y-80528502D01*
X184980114Y-80582158D01*
X184991500Y-80634500D01*
X184991500Y-119365500D01*
X184971498Y-119433621D01*
X184917842Y-119480114D01*
X184865500Y-119491500D01*
X152703965Y-119491500D01*
X152635844Y-119471498D01*
X152589351Y-119417842D01*
X152579247Y-119347568D01*
X152608741Y-119282988D01*
X152668467Y-119244604D01*
X152688828Y-119240413D01*
X152797362Y-119227279D01*
X152801626Y-119226763D01*
X153073112Y-119155540D01*
X153077072Y-119153900D01*
X153077077Y-119153898D01*
X153216600Y-119096105D01*
X153332420Y-119048131D01*
X153383296Y-119018402D01*
X153571054Y-118908685D01*
X153571055Y-118908685D01*
X153574752Y-118906524D01*
X153795624Y-118733338D01*
X153990948Y-118531779D01*
X153993481Y-118528331D01*
X153993485Y-118528326D01*
X154154572Y-118309032D01*
X154157110Y-118305577D01*
X154291036Y-118058916D01*
X154390247Y-117796362D01*
X154452907Y-117522773D01*
X154477857Y-117243211D01*
X154478310Y-117200000D01*
X154459220Y-116919977D01*
X154453923Y-116894396D01*
X154403172Y-116649332D01*
X154402303Y-116645135D01*
X154308612Y-116380561D01*
X154298401Y-116360776D01*
X154181847Y-116134957D01*
X154181847Y-116134956D01*
X154179882Y-116131150D01*
X154169595Y-116116512D01*
X154020956Y-115905022D01*
X154018493Y-115901517D01*
X153827433Y-115695912D01*
X153610237Y-115518139D01*
X153370923Y-115371487D01*
X153348348Y-115361577D01*
X153117853Y-115260397D01*
X153113921Y-115258671D01*
X153094519Y-115253144D01*
X152848114Y-115182954D01*
X152848115Y-115182954D01*
X152843986Y-115181778D01*
X152638217Y-115152493D01*
X152570365Y-115142836D01*
X152570363Y-115142836D01*
X152566113Y-115142231D01*
X152561824Y-115142209D01*
X152561817Y-115142208D01*
X152289730Y-115140783D01*
X152289723Y-115140783D01*
X152285444Y-115140761D01*
X152281199Y-115141320D01*
X152281197Y-115141320D01*
X152217813Y-115149665D01*
X152007172Y-115177397D01*
X151736446Y-115251459D01*
X151478277Y-115361577D01*
X151332721Y-115448691D01*
X151241123Y-115503511D01*
X151241119Y-115503514D01*
X151237441Y-115505715D01*
X151018395Y-115681204D01*
X151015451Y-115684306D01*
X151015447Y-115684310D01*
X150828142Y-115881688D01*
X150825192Y-115884797D01*
X150661408Y-116112727D01*
X150530073Y-116360776D01*
X150528601Y-116364799D01*
X150528599Y-116364803D01*
X150521354Y-116384602D01*
X150433616Y-116624355D01*
X150373825Y-116898585D01*
X150351803Y-117178393D01*
X150367960Y-117458601D01*
X150368785Y-117462806D01*
X150368786Y-117462814D01*
X150379711Y-117518497D01*
X150421996Y-117734024D01*
X150423383Y-117738074D01*
X150423384Y-117738079D01*
X150511522Y-117995509D01*
X150512911Y-117999565D01*
X150639022Y-118250310D01*
X150641448Y-118253839D01*
X150641451Y-118253845D01*
X150750012Y-118411801D01*
X150797997Y-118481620D01*
X150986894Y-118689215D01*
X150990183Y-118691965D01*
X151198925Y-118866501D01*
X151198930Y-118866505D01*
X151202217Y-118869253D01*
X151257424Y-118903884D01*
X151436341Y-119016119D01*
X151436345Y-119016121D01*
X151439981Y-119018402D01*
X151695788Y-119133903D01*
X151699907Y-119135123D01*
X151960790Y-119212401D01*
X151960795Y-119212402D01*
X151964903Y-119213619D01*
X151969137Y-119214267D01*
X151969142Y-119214268D01*
X152143511Y-119240950D01*
X152207822Y-119271026D01*
X152245664Y-119331097D01*
X152245022Y-119402090D01*
X152206100Y-119461467D01*
X152141255Y-119490375D01*
X152124452Y-119491500D01*
X147873965Y-119491500D01*
X147805844Y-119471498D01*
X147759351Y-119417842D01*
X147749247Y-119347568D01*
X147778741Y-119282988D01*
X147838467Y-119244604D01*
X147858828Y-119240413D01*
X147967362Y-119227279D01*
X147971626Y-119226763D01*
X148243112Y-119155540D01*
X148247072Y-119153900D01*
X148247077Y-119153898D01*
X148386600Y-119096105D01*
X148502420Y-119048131D01*
X148553296Y-119018402D01*
X148741054Y-118908685D01*
X148741055Y-118908685D01*
X148744752Y-118906524D01*
X148965624Y-118733338D01*
X149160948Y-118531779D01*
X149163481Y-118528331D01*
X149163485Y-118528326D01*
X149324572Y-118309032D01*
X149327110Y-118305577D01*
X149461036Y-118058916D01*
X149560247Y-117796362D01*
X149622907Y-117522773D01*
X149647857Y-117243211D01*
X149648310Y-117200000D01*
X149629220Y-116919977D01*
X149623923Y-116894396D01*
X149573172Y-116649332D01*
X149572303Y-116645135D01*
X149478612Y-116380561D01*
X149468401Y-116360776D01*
X149351847Y-116134957D01*
X149351847Y-116134956D01*
X149349882Y-116131150D01*
X149339595Y-116116512D01*
X149190956Y-115905022D01*
X149188493Y-115901517D01*
X148997433Y-115695912D01*
X148780237Y-115518139D01*
X148540923Y-115371487D01*
X148518348Y-115361577D01*
X148287853Y-115260397D01*
X148283921Y-115258671D01*
X148264519Y-115253144D01*
X148018114Y-115182954D01*
X148018115Y-115182954D01*
X148013986Y-115181778D01*
X147808217Y-115152493D01*
X147740365Y-115142836D01*
X147740363Y-115142836D01*
X147736113Y-115142231D01*
X147731824Y-115142209D01*
X147731817Y-115142208D01*
X147459730Y-115140783D01*
X147459723Y-115140783D01*
X147455444Y-115140761D01*
X147451199Y-115141320D01*
X147451197Y-115141320D01*
X147387813Y-115149665D01*
X147177172Y-115177397D01*
X146906446Y-115251459D01*
X146648277Y-115361577D01*
X146502721Y-115448691D01*
X146411123Y-115503511D01*
X146411119Y-115503514D01*
X146407441Y-115505715D01*
X146188395Y-115681204D01*
X146185451Y-115684306D01*
X146185447Y-115684310D01*
X145998142Y-115881688D01*
X145995192Y-115884797D01*
X145831408Y-116112727D01*
X145700073Y-116360776D01*
X145698601Y-116364799D01*
X145698599Y-116364803D01*
X145691354Y-116384602D01*
X145603616Y-116624355D01*
X145543825Y-116898585D01*
X145521803Y-117178393D01*
X145537960Y-117458601D01*
X145538785Y-117462806D01*
X145538786Y-117462814D01*
X145549711Y-117518497D01*
X145591996Y-117734024D01*
X145593383Y-117738074D01*
X145593384Y-117738079D01*
X145681522Y-117995509D01*
X145682911Y-117999565D01*
X145809022Y-118250310D01*
X145811448Y-118253839D01*
X145811451Y-118253845D01*
X145920012Y-118411801D01*
X145967997Y-118481620D01*
X146156894Y-118689215D01*
X146160183Y-118691965D01*
X146368925Y-118866501D01*
X146368930Y-118866505D01*
X146372217Y-118869253D01*
X146427424Y-118903884D01*
X146606341Y-119016119D01*
X146606345Y-119016121D01*
X146609981Y-119018402D01*
X146865788Y-119133903D01*
X146869907Y-119135123D01*
X147130790Y-119212401D01*
X147130795Y-119212402D01*
X147134903Y-119213619D01*
X147139137Y-119214267D01*
X147139142Y-119214268D01*
X147313511Y-119240950D01*
X147377822Y-119271026D01*
X147415664Y-119331097D01*
X147415022Y-119402090D01*
X147376100Y-119461467D01*
X147311255Y-119490375D01*
X147294452Y-119491500D01*
X115134500Y-119491500D01*
X115066379Y-119471498D01*
X115019886Y-119417842D01*
X115008500Y-119365500D01*
X115008500Y-112478393D01*
X145521803Y-112478393D01*
X145537960Y-112758601D01*
X145538785Y-112762806D01*
X145538786Y-112762814D01*
X145549711Y-112818497D01*
X145591996Y-113034024D01*
X145593383Y-113038074D01*
X145593384Y-113038079D01*
X145681522Y-113295509D01*
X145682911Y-113299565D01*
X145809022Y-113550310D01*
X145811448Y-113553839D01*
X145811451Y-113553845D01*
X145920012Y-113711801D01*
X145967997Y-113781620D01*
X146156894Y-113989215D01*
X146160183Y-113991965D01*
X146368925Y-114166501D01*
X146368930Y-114166505D01*
X146372217Y-114169253D01*
X146427424Y-114203884D01*
X146606341Y-114316119D01*
X146606345Y-114316121D01*
X146609981Y-114318402D01*
X146865788Y-114433903D01*
X146869907Y-114435123D01*
X147130790Y-114512401D01*
X147130795Y-114512402D01*
X147134903Y-114513619D01*
X147139137Y-114514267D01*
X147139142Y-114514268D01*
X147383514Y-114551662D01*
X147412347Y-114556074D01*
X147555292Y-114558319D01*
X147688694Y-114560415D01*
X147688700Y-114560415D01*
X147692985Y-114560482D01*
X147971626Y-114526763D01*
X148243112Y-114455540D01*
X148247072Y-114453900D01*
X148247077Y-114453898D01*
X148386600Y-114396105D01*
X148502420Y-114348131D01*
X148553296Y-114318402D01*
X148741054Y-114208685D01*
X148741055Y-114208685D01*
X148744752Y-114206524D01*
X148965624Y-114033338D01*
X149160948Y-113831779D01*
X149163481Y-113828331D01*
X149163485Y-113828326D01*
X149324572Y-113609032D01*
X149327110Y-113605577D01*
X149461036Y-113358916D01*
X149560247Y-113096362D01*
X149622907Y-112822773D01*
X149647857Y-112543211D01*
X149648310Y-112500000D01*
X149646837Y-112478393D01*
X150351803Y-112478393D01*
X150367960Y-112758601D01*
X150368785Y-112762806D01*
X150368786Y-112762814D01*
X150379711Y-112818497D01*
X150421996Y-113034024D01*
X150423383Y-113038074D01*
X150423384Y-113038079D01*
X150511522Y-113295509D01*
X150512911Y-113299565D01*
X150639022Y-113550310D01*
X150641448Y-113553839D01*
X150641451Y-113553845D01*
X150750012Y-113711801D01*
X150797997Y-113781620D01*
X150986894Y-113989215D01*
X150990183Y-113991965D01*
X151198925Y-114166501D01*
X151198930Y-114166505D01*
X151202217Y-114169253D01*
X151257424Y-114203884D01*
X151436341Y-114316119D01*
X151436345Y-114316121D01*
X151439981Y-114318402D01*
X151695788Y-114433903D01*
X151699907Y-114435123D01*
X151960790Y-114512401D01*
X151960795Y-114512402D01*
X151964903Y-114513619D01*
X151969137Y-114514267D01*
X151969142Y-114514268D01*
X152213514Y-114551662D01*
X152242347Y-114556074D01*
X152385292Y-114558319D01*
X152518694Y-114560415D01*
X152518700Y-114560415D01*
X152522985Y-114560482D01*
X152801626Y-114526763D01*
X153073112Y-114455540D01*
X153077072Y-114453900D01*
X153077077Y-114453898D01*
X153216600Y-114396105D01*
X153332420Y-114348131D01*
X153383296Y-114318402D01*
X153571054Y-114208685D01*
X153571055Y-114208685D01*
X153574752Y-114206524D01*
X153795624Y-114033338D01*
X153990948Y-113831779D01*
X153993481Y-113828331D01*
X153993485Y-113828326D01*
X154154572Y-113609032D01*
X154157110Y-113605577D01*
X154291036Y-113358916D01*
X154390247Y-113096362D01*
X154452907Y-112822773D01*
X154477857Y-112543211D01*
X154478310Y-112500000D01*
X154459220Y-112219977D01*
X154453923Y-112194396D01*
X154403172Y-111949332D01*
X154402303Y-111945135D01*
X154308612Y-111680561D01*
X154298401Y-111660776D01*
X154181847Y-111434957D01*
X154181847Y-111434956D01*
X154179882Y-111431150D01*
X154169595Y-111416512D01*
X154020956Y-111205022D01*
X154018493Y-111201517D01*
X153827433Y-110995912D01*
X153610237Y-110818139D01*
X153370923Y-110671487D01*
X153348348Y-110661577D01*
X153117853Y-110560397D01*
X153113921Y-110558671D01*
X153094519Y-110553144D01*
X152848114Y-110482954D01*
X152848115Y-110482954D01*
X152843986Y-110481778D01*
X152638217Y-110452493D01*
X152570365Y-110442836D01*
X152570363Y-110442836D01*
X152566113Y-110442231D01*
X152561824Y-110442209D01*
X152561817Y-110442208D01*
X152289730Y-110440783D01*
X152289723Y-110440783D01*
X152285444Y-110440761D01*
X152281199Y-110441320D01*
X152281197Y-110441320D01*
X152217813Y-110449665D01*
X152007172Y-110477397D01*
X151736446Y-110551459D01*
X151478277Y-110661577D01*
X151332721Y-110748691D01*
X151241123Y-110803511D01*
X151241119Y-110803514D01*
X151237441Y-110805715D01*
X151018395Y-110981204D01*
X151015451Y-110984306D01*
X151015447Y-110984310D01*
X150828142Y-111181688D01*
X150825192Y-111184797D01*
X150661408Y-111412727D01*
X150530073Y-111660776D01*
X150528601Y-111664799D01*
X150528599Y-111664803D01*
X150521354Y-111684602D01*
X150433616Y-111924355D01*
X150373825Y-112198585D01*
X150351803Y-112478393D01*
X149646837Y-112478393D01*
X149629220Y-112219977D01*
X149623923Y-112194396D01*
X149573172Y-111949332D01*
X149572303Y-111945135D01*
X149478612Y-111680561D01*
X149468401Y-111660776D01*
X149351847Y-111434957D01*
X149351847Y-111434956D01*
X149349882Y-111431150D01*
X149339595Y-111416512D01*
X149190956Y-111205022D01*
X149188493Y-111201517D01*
X148997433Y-110995912D01*
X148780237Y-110818139D01*
X148540923Y-110671487D01*
X148518348Y-110661577D01*
X148287853Y-110560397D01*
X148283921Y-110558671D01*
X148264519Y-110553144D01*
X148018114Y-110482954D01*
X148018115Y-110482954D01*
X148013986Y-110481778D01*
X147808217Y-110452493D01*
X147740365Y-110442836D01*
X147740363Y-110442836D01*
X147736113Y-110442231D01*
X147731824Y-110442209D01*
X147731817Y-110442208D01*
X147459730Y-110440783D01*
X147459723Y-110440783D01*
X147455444Y-110440761D01*
X147451199Y-110441320D01*
X147451197Y-110441320D01*
X147387813Y-110449665D01*
X147177172Y-110477397D01*
X146906446Y-110551459D01*
X146648277Y-110661577D01*
X146502721Y-110748691D01*
X146411123Y-110803511D01*
X146411119Y-110803514D01*
X146407441Y-110805715D01*
X146188395Y-110981204D01*
X146185451Y-110984306D01*
X146185447Y-110984310D01*
X145998142Y-111181688D01*
X145995192Y-111184797D01*
X145831408Y-111412727D01*
X145700073Y-111660776D01*
X145698601Y-111664799D01*
X145698599Y-111664803D01*
X145691354Y-111684602D01*
X145603616Y-111924355D01*
X145543825Y-112198585D01*
X145521803Y-112478393D01*
X115008500Y-112478393D01*
X115008500Y-109425151D01*
X146325121Y-109425151D01*
X146332175Y-109435121D01*
X146369214Y-109466091D01*
X146376156Y-109471134D01*
X146606578Y-109615678D01*
X146614130Y-109619727D01*
X146862050Y-109731668D01*
X146870081Y-109734654D01*
X147130899Y-109811912D01*
X147139251Y-109813779D01*
X147408147Y-109854925D01*
X147416681Y-109855641D01*
X147688668Y-109859915D01*
X147697219Y-109859466D01*
X147967274Y-109826786D01*
X147975675Y-109825184D01*
X148238809Y-109756152D01*
X148246911Y-109753425D01*
X148498237Y-109649322D01*
X148505899Y-109645519D01*
X148740764Y-109508275D01*
X148747850Y-109503459D01*
X148835269Y-109434915D01*
X148842243Y-109425151D01*
X151155121Y-109425151D01*
X151162175Y-109435121D01*
X151199214Y-109466091D01*
X151206156Y-109471134D01*
X151436578Y-109615678D01*
X151444130Y-109619727D01*
X151692050Y-109731668D01*
X151700081Y-109734654D01*
X151960899Y-109811912D01*
X151969251Y-109813779D01*
X152238147Y-109854925D01*
X152246681Y-109855641D01*
X152518668Y-109859915D01*
X152527219Y-109859466D01*
X152797274Y-109826786D01*
X152805675Y-109825184D01*
X153068809Y-109756152D01*
X153076911Y-109753425D01*
X153328237Y-109649322D01*
X153335899Y-109645519D01*
X153570764Y-109508275D01*
X153577850Y-109503459D01*
X153665269Y-109434915D01*
X153673739Y-109423056D01*
X153667222Y-109411432D01*
X152427812Y-108172022D01*
X152413868Y-108164408D01*
X152412035Y-108164539D01*
X152405420Y-108168790D01*
X151162414Y-109411796D01*
X151155121Y-109425151D01*
X148842243Y-109425151D01*
X148843739Y-109423056D01*
X148837222Y-109411432D01*
X147597812Y-108172022D01*
X147583868Y-108164408D01*
X147582035Y-108164539D01*
X147575420Y-108168790D01*
X146332414Y-109411796D01*
X146325121Y-109425151D01*
X115008500Y-109425151D01*
X115008500Y-107782679D01*
X145522551Y-107782679D01*
X145538210Y-108054252D01*
X145539283Y-108062751D01*
X145591656Y-108329693D01*
X145593867Y-108337945D01*
X145681983Y-108595314D01*
X145685297Y-108603198D01*
X145807531Y-108846231D01*
X145811881Y-108853586D01*
X145948390Y-109052209D01*
X145958643Y-109060552D01*
X145972384Y-109053406D01*
X147212978Y-107812812D01*
X147219356Y-107801132D01*
X147949408Y-107801132D01*
X147949539Y-107802965D01*
X147953790Y-107809580D01*
X149196497Y-109052287D01*
X149208707Y-109058954D01*
X149220206Y-109050265D01*
X149324149Y-108908763D01*
X149328733Y-108901540D01*
X149458530Y-108662484D01*
X149462098Y-108654690D01*
X149558249Y-108400235D01*
X149560726Y-108392029D01*
X149621454Y-108126878D01*
X149622794Y-108118417D01*
X149647137Y-107845665D01*
X149647383Y-107840726D01*
X149647783Y-107802485D01*
X149647640Y-107797519D01*
X149646628Y-107782679D01*
X150352551Y-107782679D01*
X150368210Y-108054252D01*
X150369283Y-108062751D01*
X150421656Y-108329693D01*
X150423867Y-108337945D01*
X150511983Y-108595314D01*
X150515297Y-108603198D01*
X150637531Y-108846231D01*
X150641881Y-108853586D01*
X150778390Y-109052209D01*
X150788643Y-109060552D01*
X150802384Y-109053406D01*
X152042978Y-107812812D01*
X152049356Y-107801132D01*
X152779408Y-107801132D01*
X152779539Y-107802965D01*
X152783790Y-107809580D01*
X154026497Y-109052287D01*
X154038707Y-109058954D01*
X154050206Y-109050265D01*
X154154149Y-108908763D01*
X154158733Y-108901540D01*
X154288530Y-108662484D01*
X154292098Y-108654690D01*
X154388249Y-108400235D01*
X154390726Y-108392029D01*
X154451454Y-108126878D01*
X154452794Y-108118417D01*
X154477137Y-107845665D01*
X154477383Y-107840726D01*
X154477783Y-107802485D01*
X154477640Y-107797519D01*
X154459015Y-107524319D01*
X154457856Y-107515851D01*
X154402689Y-107249467D01*
X154400389Y-107241229D01*
X154309584Y-106984801D01*
X154306188Y-106976953D01*
X154181421Y-106735222D01*
X154176983Y-106727895D01*
X154050922Y-106548527D01*
X154040400Y-106540146D01*
X154027012Y-106547198D01*
X152787022Y-107787188D01*
X152779408Y-107801132D01*
X152049356Y-107801132D01*
X152050592Y-107798868D01*
X152050461Y-107797035D01*
X152046210Y-107790420D01*
X150802987Y-106547197D01*
X150790977Y-106540638D01*
X150779238Y-106549606D01*
X150664342Y-106709501D01*
X150659820Y-106716795D01*
X150532541Y-106957183D01*
X150529055Y-106965011D01*
X150435573Y-107220464D01*
X150433184Y-107228688D01*
X150375233Y-107494473D01*
X150373984Y-107502929D01*
X150352640Y-107774128D01*
X150352551Y-107782679D01*
X149646628Y-107782679D01*
X149629015Y-107524319D01*
X149627856Y-107515851D01*
X149572689Y-107249467D01*
X149570389Y-107241229D01*
X149479584Y-106984801D01*
X149476188Y-106976953D01*
X149351421Y-106735222D01*
X149346983Y-106727895D01*
X149220922Y-106548527D01*
X149210400Y-106540146D01*
X149197012Y-106547198D01*
X147957022Y-107787188D01*
X147949408Y-107801132D01*
X147219356Y-107801132D01*
X147220592Y-107798868D01*
X147220461Y-107797035D01*
X147216210Y-107790420D01*
X145972987Y-106547197D01*
X145960977Y-106540638D01*
X145949238Y-106549606D01*
X145834342Y-106709501D01*
X145829820Y-106716795D01*
X145702541Y-106957183D01*
X145699055Y-106965011D01*
X145605573Y-107220464D01*
X145603184Y-107228688D01*
X145545233Y-107494473D01*
X145543984Y-107502929D01*
X145522640Y-107774128D01*
X145522551Y-107782679D01*
X115008500Y-107782679D01*
X115008500Y-106176929D01*
X146326013Y-106176929D01*
X146332409Y-106188199D01*
X147572188Y-107427978D01*
X147586132Y-107435592D01*
X147587965Y-107435461D01*
X147594580Y-107431210D01*
X148837136Y-106188654D01*
X148843538Y-106176929D01*
X151156013Y-106176929D01*
X151162409Y-106188199D01*
X152402188Y-107427978D01*
X152416132Y-107435592D01*
X152417965Y-107435461D01*
X152424580Y-107431210D01*
X153667136Y-106188654D01*
X153674327Y-106175485D01*
X153667004Y-106165248D01*
X153613265Y-106121263D01*
X153606290Y-106116306D01*
X153374341Y-105974167D01*
X153366771Y-105970210D01*
X153117681Y-105860868D01*
X153109621Y-105857966D01*
X152848010Y-105783444D01*
X152839635Y-105781664D01*
X152570328Y-105743336D01*
X152561780Y-105742708D01*
X152289761Y-105741283D01*
X152281228Y-105741820D01*
X152011528Y-105777328D01*
X152003127Y-105779022D01*
X151740756Y-105850798D01*
X151732661Y-105853617D01*
X151482446Y-105960342D01*
X151474823Y-105964227D01*
X151241411Y-106103921D01*
X151234379Y-106108808D01*
X151164482Y-106164806D01*
X151156013Y-106176929D01*
X148843538Y-106176929D01*
X148844327Y-106175485D01*
X148837004Y-106165248D01*
X148783265Y-106121263D01*
X148776290Y-106116306D01*
X148544341Y-105974167D01*
X148536771Y-105970210D01*
X148287681Y-105860868D01*
X148279621Y-105857966D01*
X148018010Y-105783444D01*
X148009635Y-105781664D01*
X147740328Y-105743336D01*
X147731780Y-105742708D01*
X147459761Y-105741283D01*
X147451228Y-105741820D01*
X147181528Y-105777328D01*
X147173127Y-105779022D01*
X146910756Y-105850798D01*
X146902661Y-105853617D01*
X146652446Y-105960342D01*
X146644823Y-105964227D01*
X146411411Y-106103921D01*
X146404379Y-106108808D01*
X146334482Y-106164806D01*
X146326013Y-106176929D01*
X115008500Y-106176929D01*
X115008500Y-99178393D01*
X145521803Y-99178393D01*
X145537960Y-99458601D01*
X145538785Y-99462806D01*
X145538786Y-99462814D01*
X145549711Y-99518497D01*
X145591996Y-99734024D01*
X145593383Y-99738074D01*
X145593384Y-99738079D01*
X145681522Y-99995509D01*
X145682911Y-99999565D01*
X145809022Y-100250310D01*
X145811448Y-100253839D01*
X145811451Y-100253845D01*
X145920012Y-100411801D01*
X145967997Y-100481620D01*
X146156894Y-100689215D01*
X146160183Y-100691965D01*
X146368925Y-100866501D01*
X146368930Y-100866505D01*
X146372217Y-100869253D01*
X146427424Y-100903884D01*
X146606341Y-101016119D01*
X146606345Y-101016121D01*
X146609981Y-101018402D01*
X146865788Y-101133903D01*
X146869907Y-101135123D01*
X147130790Y-101212401D01*
X147130795Y-101212402D01*
X147134903Y-101213619D01*
X147139137Y-101214267D01*
X147139142Y-101214268D01*
X147383514Y-101251662D01*
X147412347Y-101256074D01*
X147555292Y-101258319D01*
X147688694Y-101260415D01*
X147688700Y-101260415D01*
X147692985Y-101260482D01*
X147971626Y-101226763D01*
X148243112Y-101155540D01*
X148247072Y-101153900D01*
X148247077Y-101153898D01*
X148386600Y-101096105D01*
X148502420Y-101048131D01*
X148553296Y-101018402D01*
X148741054Y-100908685D01*
X148741055Y-100908685D01*
X148744752Y-100906524D01*
X148965624Y-100733338D01*
X149160948Y-100531779D01*
X149163481Y-100528331D01*
X149163485Y-100528326D01*
X149324572Y-100309032D01*
X149327110Y-100305577D01*
X149461036Y-100058916D01*
X149560247Y-99796362D01*
X149622907Y-99522773D01*
X149647857Y-99243211D01*
X149648310Y-99200000D01*
X149646837Y-99178393D01*
X150351803Y-99178393D01*
X150367960Y-99458601D01*
X150368785Y-99462806D01*
X150368786Y-99462814D01*
X150379711Y-99518497D01*
X150421996Y-99734024D01*
X150423383Y-99738074D01*
X150423384Y-99738079D01*
X150511522Y-99995509D01*
X150512911Y-99999565D01*
X150639022Y-100250310D01*
X150641448Y-100253839D01*
X150641451Y-100253845D01*
X150750012Y-100411801D01*
X150797997Y-100481620D01*
X150986894Y-100689215D01*
X150990183Y-100691965D01*
X151198925Y-100866501D01*
X151198930Y-100866505D01*
X151202217Y-100869253D01*
X151257424Y-100903884D01*
X151436341Y-101016119D01*
X151436345Y-101016121D01*
X151439981Y-101018402D01*
X151695788Y-101133903D01*
X151699907Y-101135123D01*
X151960790Y-101212401D01*
X151960795Y-101212402D01*
X151964903Y-101213619D01*
X151969137Y-101214267D01*
X151969142Y-101214268D01*
X152213514Y-101251662D01*
X152242347Y-101256074D01*
X152385292Y-101258319D01*
X152518694Y-101260415D01*
X152518700Y-101260415D01*
X152522985Y-101260482D01*
X152801626Y-101226763D01*
X153073112Y-101155540D01*
X153077072Y-101153900D01*
X153077077Y-101153898D01*
X153216600Y-101096105D01*
X153332420Y-101048131D01*
X153383296Y-101018402D01*
X153571054Y-100908685D01*
X153571055Y-100908685D01*
X153574752Y-100906524D01*
X153795624Y-100733338D01*
X153990948Y-100531779D01*
X153993481Y-100528331D01*
X153993485Y-100528326D01*
X154154572Y-100309032D01*
X154157110Y-100305577D01*
X154291036Y-100058916D01*
X154390247Y-99796362D01*
X154452907Y-99522773D01*
X154477857Y-99243211D01*
X154478310Y-99200000D01*
X154459220Y-98919977D01*
X154453923Y-98894396D01*
X154403172Y-98649332D01*
X154402303Y-98645135D01*
X154308612Y-98380561D01*
X154298401Y-98360776D01*
X154181847Y-98134957D01*
X154181847Y-98134956D01*
X154179882Y-98131150D01*
X154169595Y-98116512D01*
X154020956Y-97905022D01*
X154018493Y-97901517D01*
X153827433Y-97695912D01*
X153610237Y-97518139D01*
X153370923Y-97371487D01*
X153348348Y-97361577D01*
X153117853Y-97260397D01*
X153113921Y-97258671D01*
X153094519Y-97253144D01*
X152848114Y-97182954D01*
X152848115Y-97182954D01*
X152843986Y-97181778D01*
X152638217Y-97152493D01*
X152570365Y-97142836D01*
X152570363Y-97142836D01*
X152566113Y-97142231D01*
X152561824Y-97142209D01*
X152561817Y-97142208D01*
X152289730Y-97140783D01*
X152289723Y-97140783D01*
X152285444Y-97140761D01*
X152281199Y-97141320D01*
X152281197Y-97141320D01*
X152217813Y-97149665D01*
X152007172Y-97177397D01*
X151736446Y-97251459D01*
X151478277Y-97361577D01*
X151332721Y-97448691D01*
X151241123Y-97503511D01*
X151241119Y-97503514D01*
X151237441Y-97505715D01*
X151018395Y-97681204D01*
X151015451Y-97684306D01*
X151015447Y-97684310D01*
X150828142Y-97881688D01*
X150825192Y-97884797D01*
X150661408Y-98112727D01*
X150530073Y-98360776D01*
X150528601Y-98364799D01*
X150528599Y-98364803D01*
X150521354Y-98384602D01*
X150433616Y-98624355D01*
X150373825Y-98898585D01*
X150351803Y-99178393D01*
X149646837Y-99178393D01*
X149629220Y-98919977D01*
X149623923Y-98894396D01*
X149573172Y-98649332D01*
X149572303Y-98645135D01*
X149478612Y-98380561D01*
X149468401Y-98360776D01*
X149351847Y-98134957D01*
X149351847Y-98134956D01*
X149349882Y-98131150D01*
X149339595Y-98116512D01*
X149190956Y-97905022D01*
X149188493Y-97901517D01*
X148997433Y-97695912D01*
X148780237Y-97518139D01*
X148540923Y-97371487D01*
X148518348Y-97361577D01*
X148287853Y-97260397D01*
X148283921Y-97258671D01*
X148264519Y-97253144D01*
X148018114Y-97182954D01*
X148018115Y-97182954D01*
X148013986Y-97181778D01*
X147808217Y-97152493D01*
X147740365Y-97142836D01*
X147740363Y-97142836D01*
X147736113Y-97142231D01*
X147731824Y-97142209D01*
X147731817Y-97142208D01*
X147459730Y-97140783D01*
X147459723Y-97140783D01*
X147455444Y-97140761D01*
X147451199Y-97141320D01*
X147451197Y-97141320D01*
X147387813Y-97149665D01*
X147177172Y-97177397D01*
X146906446Y-97251459D01*
X146648277Y-97361577D01*
X146502721Y-97448691D01*
X146411123Y-97503511D01*
X146411119Y-97503514D01*
X146407441Y-97505715D01*
X146188395Y-97681204D01*
X146185451Y-97684306D01*
X146185447Y-97684310D01*
X145998142Y-97881688D01*
X145995192Y-97884797D01*
X145831408Y-98112727D01*
X145700073Y-98360776D01*
X145698601Y-98364799D01*
X145698599Y-98364803D01*
X145691354Y-98384602D01*
X145603616Y-98624355D01*
X145543825Y-98898585D01*
X145521803Y-99178393D01*
X115008500Y-99178393D01*
X115008500Y-80634500D01*
X115028502Y-80566379D01*
X115082158Y-80519886D01*
X115134500Y-80508500D01*
X147721633Y-80508500D01*
X147789754Y-80528502D01*
G37*
G04 #@! TD.AperFunction*
G04 #@! TD*
M02*
