G04 #@! TF.GenerationSoftware,KiCad,Pcbnew,6.0.9-8da3e8f707~116~ubuntu22.04.1*
G04 #@! TF.CreationDate,2022-11-09T09:15:30-05:00*
G04 #@! TF.ProjectId,voltproc_b2,766f6c74-7072-46f6-935f-62322e6b6963,rev?*
G04 #@! TF.SameCoordinates,Original*
G04 #@! TF.FileFunction,Legend,Top*
G04 #@! TF.FilePolarity,Positive*
%FSLAX46Y46*%
G04 Gerber Fmt 4.6, Leading zero omitted, Abs format (unit mm)*
G04 Created by KiCad (PCBNEW 6.0.9-8da3e8f707~116~ubuntu22.04.1) date 2022-11-09 09:15:30*
%MOMM*%
%LPD*%
G01*
G04 APERTURE LIST*
%ADD10C,0.150000*%
%ADD11C,0.120000*%
G04 APERTURE END LIST*
D10*
X54815047Y-40272380D02*
X54338857Y-40272380D01*
X54338857Y-39272380D01*
X55100761Y-39986666D02*
X55576952Y-39986666D01*
X55005523Y-40272380D02*
X55338857Y-39272380D01*
X55672190Y-40272380D01*
X56529333Y-39320000D02*
X56434095Y-39272380D01*
X56291238Y-39272380D01*
X56148380Y-39320000D01*
X56053142Y-39415238D01*
X56005523Y-39510476D01*
X55957904Y-39700952D01*
X55957904Y-39843809D01*
X56005523Y-40034285D01*
X56053142Y-40129523D01*
X56148380Y-40224761D01*
X56291238Y-40272380D01*
X56386476Y-40272380D01*
X56529333Y-40224761D01*
X56576952Y-40177142D01*
X56576952Y-39843809D01*
X56386476Y-39843809D01*
X57719809Y-40224761D02*
X57862666Y-40272380D01*
X58100761Y-40272380D01*
X58196000Y-40224761D01*
X58243619Y-40177142D01*
X58291238Y-40081904D01*
X58291238Y-39986666D01*
X58243619Y-39891428D01*
X58196000Y-39843809D01*
X58100761Y-39796190D01*
X57910285Y-39748571D01*
X57815047Y-39700952D01*
X57767428Y-39653333D01*
X57719809Y-39558095D01*
X57719809Y-39462857D01*
X57767428Y-39367619D01*
X57815047Y-39320000D01*
X57910285Y-39272380D01*
X58148380Y-39272380D01*
X58291238Y-39320000D01*
X58719809Y-40272380D02*
X58719809Y-39272380D01*
X59100761Y-39272380D01*
X59196000Y-39320000D01*
X59243619Y-39367619D01*
X59291238Y-39462857D01*
X59291238Y-39605714D01*
X59243619Y-39700952D01*
X59196000Y-39748571D01*
X59100761Y-39796190D01*
X58719809Y-39796190D01*
X59719809Y-39748571D02*
X60053142Y-39748571D01*
X60196000Y-40272380D02*
X59719809Y-40272380D01*
X59719809Y-39272380D01*
X60196000Y-39272380D01*
X60624571Y-39748571D02*
X60957904Y-39748571D01*
X61100761Y-40272380D02*
X60624571Y-40272380D01*
X60624571Y-39272380D01*
X61100761Y-39272380D01*
X61529333Y-40272380D02*
X61529333Y-39272380D01*
X61767428Y-39272380D01*
X61910285Y-39320000D01*
X62005523Y-39415238D01*
X62053142Y-39510476D01*
X62100761Y-39700952D01*
X62100761Y-39843809D01*
X62053142Y-40034285D01*
X62005523Y-40129523D01*
X61910285Y-40224761D01*
X61767428Y-40272380D01*
X61529333Y-40272380D01*
X18642857Y-50147380D02*
X18976190Y-51147380D01*
X19309523Y-50147380D01*
X19833333Y-50147380D02*
X20023809Y-50147380D01*
X20119047Y-50195000D01*
X20214285Y-50290238D01*
X20261904Y-50480714D01*
X20261904Y-50814047D01*
X20214285Y-51004523D01*
X20119047Y-51099761D01*
X20023809Y-51147380D01*
X19833333Y-51147380D01*
X19738095Y-51099761D01*
X19642857Y-51004523D01*
X19595238Y-50814047D01*
X19595238Y-50480714D01*
X19642857Y-50290238D01*
X19738095Y-50195000D01*
X19833333Y-50147380D01*
X21166666Y-51147380D02*
X20690476Y-51147380D01*
X20690476Y-50147380D01*
X21357142Y-50147380D02*
X21928571Y-50147380D01*
X21642857Y-51147380D02*
X21642857Y-50147380D01*
X22214285Y-50861666D02*
X22690476Y-50861666D01*
X22119047Y-51147380D02*
X22452380Y-50147380D01*
X22785714Y-51147380D01*
X23642857Y-50195000D02*
X23547619Y-50147380D01*
X23404761Y-50147380D01*
X23261904Y-50195000D01*
X23166666Y-50290238D01*
X23119047Y-50385476D01*
X23071428Y-50575952D01*
X23071428Y-50718809D01*
X23119047Y-50909285D01*
X23166666Y-51004523D01*
X23261904Y-51099761D01*
X23404761Y-51147380D01*
X23500000Y-51147380D01*
X23642857Y-51099761D01*
X23690476Y-51052142D01*
X23690476Y-50718809D01*
X23500000Y-50718809D01*
X24119047Y-50623571D02*
X24452380Y-50623571D01*
X24595238Y-51147380D02*
X24119047Y-51147380D01*
X24119047Y-50147380D01*
X24595238Y-50147380D01*
X25785714Y-51147380D02*
X25785714Y-50147380D01*
X26166666Y-50147380D01*
X26261904Y-50195000D01*
X26309523Y-50242619D01*
X26357142Y-50337857D01*
X26357142Y-50480714D01*
X26309523Y-50575952D01*
X26261904Y-50623571D01*
X26166666Y-50671190D01*
X25785714Y-50671190D01*
X27357142Y-51147380D02*
X27023809Y-50671190D01*
X26785714Y-51147380D02*
X26785714Y-50147380D01*
X27166666Y-50147380D01*
X27261904Y-50195000D01*
X27309523Y-50242619D01*
X27357142Y-50337857D01*
X27357142Y-50480714D01*
X27309523Y-50575952D01*
X27261904Y-50623571D01*
X27166666Y-50671190D01*
X26785714Y-50671190D01*
X27976190Y-50147380D02*
X28166666Y-50147380D01*
X28261904Y-50195000D01*
X28357142Y-50290238D01*
X28404761Y-50480714D01*
X28404761Y-50814047D01*
X28357142Y-51004523D01*
X28261904Y-51099761D01*
X28166666Y-51147380D01*
X27976190Y-51147380D01*
X27880952Y-51099761D01*
X27785714Y-51004523D01*
X27738095Y-50814047D01*
X27738095Y-50480714D01*
X27785714Y-50290238D01*
X27880952Y-50195000D01*
X27976190Y-50147380D01*
X29404761Y-51052142D02*
X29357142Y-51099761D01*
X29214285Y-51147380D01*
X29119047Y-51147380D01*
X28976190Y-51099761D01*
X28880952Y-51004523D01*
X28833333Y-50909285D01*
X28785714Y-50718809D01*
X28785714Y-50575952D01*
X28833333Y-50385476D01*
X28880952Y-50290238D01*
X28976190Y-50195000D01*
X29119047Y-50147380D01*
X29214285Y-50147380D01*
X29357142Y-50195000D01*
X29404761Y-50242619D01*
X29833333Y-50623571D02*
X30166666Y-50623571D01*
X30309523Y-51147380D02*
X29833333Y-51147380D01*
X29833333Y-50147380D01*
X30309523Y-50147380D01*
X30690476Y-51099761D02*
X30833333Y-51147380D01*
X31071428Y-51147380D01*
X31166666Y-51099761D01*
X31214285Y-51052142D01*
X31261904Y-50956904D01*
X31261904Y-50861666D01*
X31214285Y-50766428D01*
X31166666Y-50718809D01*
X31071428Y-50671190D01*
X30880952Y-50623571D01*
X30785714Y-50575952D01*
X30738095Y-50528333D01*
X30690476Y-50433095D01*
X30690476Y-50337857D01*
X30738095Y-50242619D01*
X30785714Y-50195000D01*
X30880952Y-50147380D01*
X31119047Y-50147380D01*
X31261904Y-50195000D01*
X31642857Y-51099761D02*
X31785714Y-51147380D01*
X32023809Y-51147380D01*
X32119047Y-51099761D01*
X32166666Y-51052142D01*
X32214285Y-50956904D01*
X32214285Y-50861666D01*
X32166666Y-50766428D01*
X32119047Y-50718809D01*
X32023809Y-50671190D01*
X31833333Y-50623571D01*
X31738095Y-50575952D01*
X31690476Y-50528333D01*
X31642857Y-50433095D01*
X31642857Y-50337857D01*
X31690476Y-50242619D01*
X31738095Y-50195000D01*
X31833333Y-50147380D01*
X32071428Y-50147380D01*
X32214285Y-50195000D01*
X32833333Y-50147380D02*
X33023809Y-50147380D01*
X33119047Y-50195000D01*
X33214285Y-50290238D01*
X33261904Y-50480714D01*
X33261904Y-50814047D01*
X33214285Y-51004523D01*
X33119047Y-51099761D01*
X33023809Y-51147380D01*
X32833333Y-51147380D01*
X32738095Y-51099761D01*
X32642857Y-51004523D01*
X32595238Y-50814047D01*
X32595238Y-50480714D01*
X32642857Y-50290238D01*
X32738095Y-50195000D01*
X32833333Y-50147380D01*
X34261904Y-51147380D02*
X33928571Y-50671190D01*
X33690476Y-51147380D02*
X33690476Y-50147380D01*
X34071428Y-50147380D01*
X34166666Y-50195000D01*
X34214285Y-50242619D01*
X34261904Y-50337857D01*
X34261904Y-50480714D01*
X34214285Y-50575952D01*
X34166666Y-50623571D01*
X34071428Y-50671190D01*
X33690476Y-50671190D01*
X21690476Y-52662142D02*
X21642857Y-52709761D01*
X21500000Y-52757380D01*
X21404761Y-52757380D01*
X21261904Y-52709761D01*
X21166666Y-52614523D01*
X21119047Y-52519285D01*
X21071428Y-52328809D01*
X21071428Y-52185952D01*
X21119047Y-51995476D01*
X21166666Y-51900238D01*
X21261904Y-51805000D01*
X21404761Y-51757380D01*
X21500000Y-51757380D01*
X21642857Y-51805000D01*
X21690476Y-51852619D01*
X22261904Y-52757380D02*
X22166666Y-52709761D01*
X22119047Y-52662142D01*
X22071428Y-52566904D01*
X22071428Y-52281190D01*
X22119047Y-52185952D01*
X22166666Y-52138333D01*
X22261904Y-52090714D01*
X22404761Y-52090714D01*
X22500000Y-52138333D01*
X22547619Y-52185952D01*
X22595238Y-52281190D01*
X22595238Y-52566904D01*
X22547619Y-52662142D01*
X22500000Y-52709761D01*
X22404761Y-52757380D01*
X22261904Y-52757380D01*
X23023809Y-52090714D02*
X23023809Y-52757380D01*
X23023809Y-52185952D02*
X23071428Y-52138333D01*
X23166666Y-52090714D01*
X23309523Y-52090714D01*
X23404761Y-52138333D01*
X23452380Y-52233571D01*
X23452380Y-52757380D01*
X23785714Y-52090714D02*
X24166666Y-52090714D01*
X23928571Y-51757380D02*
X23928571Y-52614523D01*
X23976190Y-52709761D01*
X24071428Y-52757380D01*
X24166666Y-52757380D01*
X24500000Y-52757380D02*
X24500000Y-52090714D01*
X24500000Y-52281190D02*
X24547619Y-52185952D01*
X24595238Y-52138333D01*
X24690476Y-52090714D01*
X24785714Y-52090714D01*
X25261904Y-52757380D02*
X25166666Y-52709761D01*
X25119047Y-52662142D01*
X25071428Y-52566904D01*
X25071428Y-52281190D01*
X25119047Y-52185952D01*
X25166666Y-52138333D01*
X25261904Y-52090714D01*
X25404761Y-52090714D01*
X25500000Y-52138333D01*
X25547619Y-52185952D01*
X25595238Y-52281190D01*
X25595238Y-52566904D01*
X25547619Y-52662142D01*
X25500000Y-52709761D01*
X25404761Y-52757380D01*
X25261904Y-52757380D01*
X26166666Y-52757380D02*
X26071428Y-52709761D01*
X26023809Y-52614523D01*
X26023809Y-51757380D01*
X26500000Y-52709761D02*
X26595238Y-52757380D01*
X26785714Y-52757380D01*
X26880952Y-52709761D01*
X26928571Y-52614523D01*
X26928571Y-52566904D01*
X26880952Y-52471666D01*
X26785714Y-52424047D01*
X26642857Y-52424047D01*
X26547619Y-52376428D01*
X26500000Y-52281190D01*
X26500000Y-52233571D01*
X26547619Y-52138333D01*
X26642857Y-52090714D01*
X26785714Y-52090714D01*
X26880952Y-52138333D01*
X28119047Y-52757380D02*
X28119047Y-51757380D01*
X28119047Y-52138333D02*
X28214285Y-52090714D01*
X28404761Y-52090714D01*
X28500000Y-52138333D01*
X28547619Y-52185952D01*
X28595238Y-52281190D01*
X28595238Y-52566904D01*
X28547619Y-52662142D01*
X28500000Y-52709761D01*
X28404761Y-52757380D01*
X28214285Y-52757380D01*
X28119047Y-52709761D01*
X29166666Y-52757380D02*
X29071428Y-52709761D01*
X29023809Y-52662142D01*
X28976190Y-52566904D01*
X28976190Y-52281190D01*
X29023809Y-52185952D01*
X29071428Y-52138333D01*
X29166666Y-52090714D01*
X29309523Y-52090714D01*
X29404761Y-52138333D01*
X29452380Y-52185952D01*
X29500000Y-52281190D01*
X29500000Y-52566904D01*
X29452380Y-52662142D01*
X29404761Y-52709761D01*
X29309523Y-52757380D01*
X29166666Y-52757380D01*
X30357142Y-52757380D02*
X30357142Y-52233571D01*
X30309523Y-52138333D01*
X30214285Y-52090714D01*
X30023809Y-52090714D01*
X29928571Y-52138333D01*
X30357142Y-52709761D02*
X30261904Y-52757380D01*
X30023809Y-52757380D01*
X29928571Y-52709761D01*
X29880952Y-52614523D01*
X29880952Y-52519285D01*
X29928571Y-52424047D01*
X30023809Y-52376428D01*
X30261904Y-52376428D01*
X30357142Y-52328809D01*
X30833333Y-52757380D02*
X30833333Y-52090714D01*
X30833333Y-52281190D02*
X30880952Y-52185952D01*
X30928571Y-52138333D01*
X31023809Y-52090714D01*
X31119047Y-52090714D01*
X31880952Y-52757380D02*
X31880952Y-51757380D01*
X31880952Y-52709761D02*
X31785714Y-52757380D01*
X31595238Y-52757380D01*
X31500000Y-52709761D01*
X31452380Y-52662142D01*
X31404761Y-52566904D01*
X31404761Y-52281190D01*
X31452380Y-52185952D01*
X31500000Y-52138333D01*
X31595238Y-52090714D01*
X31785714Y-52090714D01*
X31880952Y-52138333D01*
X21476190Y-31952380D02*
X21476190Y-30952380D01*
X21952380Y-31952380D02*
X21952380Y-30952380D01*
X22523809Y-31952380D01*
X22523809Y-30952380D01*
X22761904Y-32047619D02*
X23523809Y-32047619D01*
X23714285Y-31047619D02*
X23761904Y-31000000D01*
X23857142Y-30952380D01*
X24095238Y-30952380D01*
X24190476Y-31000000D01*
X24238095Y-31047619D01*
X24285714Y-31142857D01*
X24285714Y-31238095D01*
X24238095Y-31380952D01*
X23666666Y-31952380D01*
X24285714Y-31952380D01*
X24476190Y-32047619D02*
X25238095Y-32047619D01*
X26000000Y-31952380D02*
X25428571Y-31952380D01*
X25714285Y-31952380D02*
X25714285Y-30952380D01*
X25619047Y-31095238D01*
X25523809Y-31190476D01*
X25428571Y-31238095D01*
X27190476Y-31952380D02*
X27190476Y-30952380D01*
X27571428Y-30952380D01*
X27666666Y-31000000D01*
X27714285Y-31047619D01*
X27761904Y-31142857D01*
X27761904Y-31285714D01*
X27714285Y-31380952D01*
X27666666Y-31428571D01*
X27571428Y-31476190D01*
X27190476Y-31476190D01*
X28380952Y-30952380D02*
X28571428Y-30952380D01*
X28666666Y-31000000D01*
X28761904Y-31095238D01*
X28809523Y-31285714D01*
X28809523Y-31619047D01*
X28761904Y-31809523D01*
X28666666Y-31904761D01*
X28571428Y-31952380D01*
X28380952Y-31952380D01*
X28285714Y-31904761D01*
X28190476Y-31809523D01*
X28142857Y-31619047D01*
X28142857Y-31285714D01*
X28190476Y-31095238D01*
X28285714Y-31000000D01*
X28380952Y-30952380D01*
X29095238Y-30952380D02*
X29666666Y-30952380D01*
X29380952Y-31952380D02*
X29380952Y-30952380D01*
X54809523Y-22238380D02*
X54333333Y-22238380D01*
X54333333Y-21238380D01*
X55095238Y-21952666D02*
X55571428Y-21952666D01*
X55000000Y-22238380D02*
X55333333Y-21238380D01*
X55666666Y-22238380D01*
X56523809Y-21286000D02*
X56428571Y-21238380D01*
X56285714Y-21238380D01*
X56142857Y-21286000D01*
X56047619Y-21381238D01*
X56000000Y-21476476D01*
X55952380Y-21666952D01*
X55952380Y-21809809D01*
X56000000Y-22000285D01*
X56047619Y-22095523D01*
X56142857Y-22190761D01*
X56285714Y-22238380D01*
X56380952Y-22238380D01*
X56523809Y-22190761D01*
X56571428Y-22143142D01*
X56571428Y-21809809D01*
X56380952Y-21809809D01*
X58333333Y-22238380D02*
X58000000Y-21762190D01*
X57761904Y-22238380D02*
X57761904Y-21238380D01*
X58142857Y-21238380D01*
X58238095Y-21286000D01*
X58285714Y-21333619D01*
X58333333Y-21428857D01*
X58333333Y-21571714D01*
X58285714Y-21666952D01*
X58238095Y-21714571D01*
X58142857Y-21762190D01*
X57761904Y-21762190D01*
X59333333Y-22143142D02*
X59285714Y-22190761D01*
X59142857Y-22238380D01*
X59047619Y-22238380D01*
X58904761Y-22190761D01*
X58809523Y-22095523D01*
X58761904Y-22000285D01*
X58714285Y-21809809D01*
X58714285Y-21666952D01*
X58761904Y-21476476D01*
X58809523Y-21381238D01*
X58904761Y-21286000D01*
X59047619Y-21238380D01*
X59142857Y-21238380D01*
X59285714Y-21286000D01*
X59333333Y-21333619D01*
X60476190Y-21190761D02*
X59619047Y-22476476D01*
X61285714Y-22238380D02*
X60809523Y-22238380D01*
X60809523Y-21238380D01*
X61619047Y-22238380D02*
X61619047Y-21238380D01*
X62095238Y-22238380D02*
X62095238Y-21238380D01*
X62666666Y-22238380D01*
X62666666Y-21238380D01*
X73095238Y-31952380D02*
X72619047Y-31952380D01*
X72619047Y-30952380D01*
X73380952Y-31666666D02*
X73857142Y-31666666D01*
X73285714Y-31952380D02*
X73619047Y-30952380D01*
X73952380Y-31952380D01*
X74809523Y-31000000D02*
X74714285Y-30952380D01*
X74571428Y-30952380D01*
X74428571Y-31000000D01*
X74333333Y-31095238D01*
X74285714Y-31190476D01*
X74238095Y-31380952D01*
X74238095Y-31523809D01*
X74285714Y-31714285D01*
X74333333Y-31809523D01*
X74428571Y-31904761D01*
X74571428Y-31952380D01*
X74666666Y-31952380D01*
X74809523Y-31904761D01*
X74857142Y-31857142D01*
X74857142Y-31523809D01*
X74666666Y-31523809D01*
X76047619Y-31952380D02*
X76047619Y-30952380D01*
X76428571Y-30952380D01*
X76523809Y-31000000D01*
X76571428Y-31047619D01*
X76619047Y-31142857D01*
X76619047Y-31285714D01*
X76571428Y-31380952D01*
X76523809Y-31428571D01*
X76428571Y-31476190D01*
X76047619Y-31476190D01*
X77238095Y-30952380D02*
X77428571Y-30952380D01*
X77523809Y-31000000D01*
X77619047Y-31095238D01*
X77666666Y-31285714D01*
X77666666Y-31619047D01*
X77619047Y-31809523D01*
X77523809Y-31904761D01*
X77428571Y-31952380D01*
X77238095Y-31952380D01*
X77142857Y-31904761D01*
X77047619Y-31809523D01*
X77000000Y-31619047D01*
X77000000Y-31285714D01*
X77047619Y-31095238D01*
X77142857Y-31000000D01*
X77238095Y-30952380D01*
X77952380Y-30952380D02*
X78523809Y-30952380D01*
X78238095Y-31952380D02*
X78238095Y-30952380D01*
G04 #@! TO.C,RV3*
X36339285Y-39446428D02*
X35982142Y-39696428D01*
X36339285Y-39875000D02*
X35589285Y-39875000D01*
X35589285Y-39589285D01*
X35625000Y-39517857D01*
X35660714Y-39482142D01*
X35732142Y-39446428D01*
X35839285Y-39446428D01*
X35910714Y-39482142D01*
X35946428Y-39517857D01*
X35982142Y-39589285D01*
X35982142Y-39875000D01*
X35589285Y-39232142D02*
X36339285Y-38982142D01*
X35589285Y-38732142D01*
X35589285Y-38553571D02*
X35589285Y-38089285D01*
X35875000Y-38339285D01*
X35875000Y-38232142D01*
X35910714Y-38160714D01*
X35946428Y-38125000D01*
X36017857Y-38089285D01*
X36196428Y-38089285D01*
X36267857Y-38125000D01*
X36303571Y-38160714D01*
X36339285Y-38232142D01*
X36339285Y-38446428D01*
X36303571Y-38517857D01*
X36267857Y-38553571D01*
X25446428Y-39821428D02*
X25482142Y-39714285D01*
X25517857Y-39678571D01*
X25589285Y-39642857D01*
X25696428Y-39642857D01*
X25767857Y-39678571D01*
X25803571Y-39714285D01*
X25839285Y-39785714D01*
X25839285Y-40071428D01*
X25089285Y-40071428D01*
X25089285Y-39821428D01*
X25125000Y-39750000D01*
X25160714Y-39714285D01*
X25232142Y-39678571D01*
X25303571Y-39678571D01*
X25375000Y-39714285D01*
X25410714Y-39750000D01*
X25446428Y-39821428D01*
X25446428Y-40071428D01*
X25839285Y-38928571D02*
X25839285Y-39357142D01*
X25839285Y-39142857D02*
X25089285Y-39142857D01*
X25196428Y-39214285D01*
X25267857Y-39285714D01*
X25303571Y-39357142D01*
X25089285Y-38464285D02*
X25089285Y-38392857D01*
X25125000Y-38321428D01*
X25160714Y-38285714D01*
X25232142Y-38250000D01*
X25375000Y-38214285D01*
X25553571Y-38214285D01*
X25696428Y-38250000D01*
X25767857Y-38285714D01*
X25803571Y-38321428D01*
X25839285Y-38392857D01*
X25839285Y-38464285D01*
X25803571Y-38535714D01*
X25767857Y-38571428D01*
X25696428Y-38607142D01*
X25553571Y-38642857D01*
X25375000Y-38642857D01*
X25232142Y-38607142D01*
X25160714Y-38571428D01*
X25125000Y-38535714D01*
X25089285Y-38464285D01*
X25089285Y-37750000D02*
X25089285Y-37678571D01*
X25125000Y-37607142D01*
X25160714Y-37571428D01*
X25232142Y-37535714D01*
X25375000Y-37500000D01*
X25553571Y-37500000D01*
X25696428Y-37535714D01*
X25767857Y-37571428D01*
X25803571Y-37607142D01*
X25839285Y-37678571D01*
X25839285Y-37750000D01*
X25803571Y-37821428D01*
X25767857Y-37857142D01*
X25696428Y-37892857D01*
X25553571Y-37928571D01*
X25375000Y-37928571D01*
X25232142Y-37892857D01*
X25160714Y-37857142D01*
X25125000Y-37821428D01*
X25089285Y-37750000D01*
X25839285Y-37178571D02*
X25089285Y-37178571D01*
X25553571Y-37107142D02*
X25839285Y-36892857D01*
X25339285Y-36892857D02*
X25625000Y-37178571D01*
G04 #@! TO.C,RV4*
X65647285Y-39758428D02*
X65290142Y-40008428D01*
X65647285Y-40187000D02*
X64897285Y-40187000D01*
X64897285Y-39901285D01*
X64933000Y-39829857D01*
X64968714Y-39794142D01*
X65040142Y-39758428D01*
X65147285Y-39758428D01*
X65218714Y-39794142D01*
X65254428Y-39829857D01*
X65290142Y-39901285D01*
X65290142Y-40187000D01*
X64897285Y-39544142D02*
X65647285Y-39294142D01*
X64897285Y-39044142D01*
X65147285Y-38472714D02*
X65647285Y-38472714D01*
X64861571Y-38651285D02*
X65397285Y-38829857D01*
X65397285Y-38365571D01*
X75446428Y-39232142D02*
X75482142Y-39125000D01*
X75517857Y-39089285D01*
X75589285Y-39053571D01*
X75696428Y-39053571D01*
X75767857Y-39089285D01*
X75803571Y-39125000D01*
X75839285Y-39196428D01*
X75839285Y-39482142D01*
X75089285Y-39482142D01*
X75089285Y-39232142D01*
X75125000Y-39160714D01*
X75160714Y-39125000D01*
X75232142Y-39089285D01*
X75303571Y-39089285D01*
X75375000Y-39125000D01*
X75410714Y-39160714D01*
X75446428Y-39232142D01*
X75446428Y-39482142D01*
X75839285Y-38339285D02*
X75839285Y-38767857D01*
X75839285Y-38553571D02*
X75089285Y-38553571D01*
X75196428Y-38625000D01*
X75267857Y-38696428D01*
X75303571Y-38767857D01*
X75839285Y-38017857D02*
X75089285Y-38017857D01*
X75625000Y-37767857D01*
X75089285Y-37517857D01*
X75839285Y-37517857D01*
G04 #@! TO.C,SW2*
X49576000Y-40377571D02*
X49683142Y-40413285D01*
X49861714Y-40413285D01*
X49933142Y-40377571D01*
X49968857Y-40341857D01*
X50004571Y-40270428D01*
X50004571Y-40199000D01*
X49968857Y-40127571D01*
X49933142Y-40091857D01*
X49861714Y-40056142D01*
X49718857Y-40020428D01*
X49647428Y-39984714D01*
X49611714Y-39949000D01*
X49576000Y-39877571D01*
X49576000Y-39806142D01*
X49611714Y-39734714D01*
X49647428Y-39699000D01*
X49718857Y-39663285D01*
X49897428Y-39663285D01*
X50004571Y-39699000D01*
X50254571Y-39663285D02*
X50433142Y-40413285D01*
X50576000Y-39877571D01*
X50718857Y-40413285D01*
X50897428Y-39663285D01*
X51147428Y-39734714D02*
X51183142Y-39699000D01*
X51254571Y-39663285D01*
X51433142Y-39663285D01*
X51504571Y-39699000D01*
X51540285Y-39734714D01*
X51576000Y-39806142D01*
X51576000Y-39877571D01*
X51540285Y-39984714D01*
X51111714Y-40413285D01*
X51576000Y-40413285D01*
G04 #@! TO.C,SW1*
X49500000Y-22203571D02*
X49607142Y-22239285D01*
X49785714Y-22239285D01*
X49857142Y-22203571D01*
X49892857Y-22167857D01*
X49928571Y-22096428D01*
X49928571Y-22025000D01*
X49892857Y-21953571D01*
X49857142Y-21917857D01*
X49785714Y-21882142D01*
X49642857Y-21846428D01*
X49571428Y-21810714D01*
X49535714Y-21775000D01*
X49500000Y-21703571D01*
X49500000Y-21632142D01*
X49535714Y-21560714D01*
X49571428Y-21525000D01*
X49642857Y-21489285D01*
X49821428Y-21489285D01*
X49928571Y-21525000D01*
X50178571Y-21489285D02*
X50357142Y-22239285D01*
X50500000Y-21703571D01*
X50642857Y-22239285D01*
X50821428Y-21489285D01*
X51500000Y-22239285D02*
X51071428Y-22239285D01*
X51285714Y-22239285D02*
X51285714Y-21489285D01*
X51214285Y-21596428D01*
X51142857Y-21667857D01*
X51071428Y-21703571D01*
D11*
G04 #@! TO.C,RV3*
X16500000Y-47500000D02*
X16500000Y-23500000D01*
X21500000Y-23500000D02*
X24500000Y-23500000D01*
X34500000Y-23500000D02*
X34500000Y-47500000D01*
X26500000Y-23500000D02*
X29500000Y-23500000D01*
X16500000Y-23500000D02*
X19500000Y-23500000D01*
X34500000Y-47500000D02*
X16500000Y-47500000D01*
X31500000Y-23500000D02*
X34500000Y-23500000D01*
G04 #@! TO.C,RV4*
X66500000Y-23500000D02*
X69500000Y-23500000D01*
X84500000Y-23500000D02*
X84500000Y-47500000D01*
X84500000Y-47500000D02*
X66500000Y-47500000D01*
X66500000Y-47500000D02*
X66500000Y-23500000D01*
X71500000Y-23500000D02*
X74500000Y-23500000D01*
X81500000Y-23500000D02*
X84500000Y-23500000D01*
X76500000Y-23500000D02*
X79500000Y-23500000D01*
G04 #@! TO.C,SW2*
X47080000Y-53850000D02*
X47080000Y-53840000D01*
X44785000Y-41150000D02*
X56215000Y-41150000D01*
X56215000Y-41160000D02*
X56215000Y-53850000D01*
X44785000Y-53850000D02*
X44785000Y-41150000D01*
X56215000Y-53850000D02*
X44785000Y-53850000D01*
G04 #@! TO.C,SW1*
X44785000Y-35840000D02*
X44785000Y-23150000D01*
X56215000Y-23150000D02*
X56215000Y-35850000D01*
X56215000Y-35850000D02*
X44785000Y-35850000D01*
X44785000Y-23150000D02*
X56215000Y-23150000D01*
X53920000Y-23150000D02*
X53920000Y-23160000D01*
G04 #@! TD*
M02*
