G04 #@! TF.GenerationSoftware,KiCad,Pcbnew,6.0.9-8da3e8f707~116~ubuntu22.04.1*
G04 #@! TF.CreationDate,2022-11-12T09:52:39-05:00*
G04 #@! TF.ProjectId,voltproc_b2,766f6c74-7072-46f6-935f-62322e6b6963,rev?*
G04 #@! TF.SameCoordinates,Original*
G04 #@! TF.FileFunction,Legend,Top*
G04 #@! TF.FilePolarity,Positive*
%FSLAX46Y46*%
G04 Gerber Fmt 4.6, Leading zero omitted, Abs format (unit mm)*
G04 Created by KiCad (PCBNEW 6.0.9-8da3e8f707~116~ubuntu22.04.1) date 2022-11-12 09:52:39*
%MOMM*%
%LPD*%
G01*
G04 APERTURE LIST*
%ADD10C,0.150000*%
%ADD11C,0.120000*%
G04 APERTURE END LIST*
D10*
X154315047Y-105272380D02*
X153838857Y-105272380D01*
X153838857Y-104272380D01*
X154600761Y-104986666D02*
X155076952Y-104986666D01*
X154505523Y-105272380D02*
X154838857Y-104272380D01*
X155172190Y-105272380D01*
X156029333Y-104320000D02*
X155934095Y-104272380D01*
X155791238Y-104272380D01*
X155648380Y-104320000D01*
X155553142Y-104415238D01*
X155505523Y-104510476D01*
X155457904Y-104700952D01*
X155457904Y-104843809D01*
X155505523Y-105034285D01*
X155553142Y-105129523D01*
X155648380Y-105224761D01*
X155791238Y-105272380D01*
X155886476Y-105272380D01*
X156029333Y-105224761D01*
X156076952Y-105177142D01*
X156076952Y-104843809D01*
X155886476Y-104843809D01*
X157219809Y-105224761D02*
X157362666Y-105272380D01*
X157600761Y-105272380D01*
X157696000Y-105224761D01*
X157743619Y-105177142D01*
X157791238Y-105081904D01*
X157791238Y-104986666D01*
X157743619Y-104891428D01*
X157696000Y-104843809D01*
X157600761Y-104796190D01*
X157410285Y-104748571D01*
X157315047Y-104700952D01*
X157267428Y-104653333D01*
X157219809Y-104558095D01*
X157219809Y-104462857D01*
X157267428Y-104367619D01*
X157315047Y-104320000D01*
X157410285Y-104272380D01*
X157648380Y-104272380D01*
X157791238Y-104320000D01*
X158219809Y-105272380D02*
X158219809Y-104272380D01*
X158600761Y-104272380D01*
X158696000Y-104320000D01*
X158743619Y-104367619D01*
X158791238Y-104462857D01*
X158791238Y-104605714D01*
X158743619Y-104700952D01*
X158696000Y-104748571D01*
X158600761Y-104796190D01*
X158219809Y-104796190D01*
X159219809Y-104748571D02*
X159553142Y-104748571D01*
X159696000Y-105272380D02*
X159219809Y-105272380D01*
X159219809Y-104272380D01*
X159696000Y-104272380D01*
X160124571Y-104748571D02*
X160457904Y-104748571D01*
X160600761Y-105272380D02*
X160124571Y-105272380D01*
X160124571Y-104272380D01*
X160600761Y-104272380D01*
X161029333Y-105272380D02*
X161029333Y-104272380D01*
X161267428Y-104272380D01*
X161410285Y-104320000D01*
X161505523Y-104415238D01*
X161553142Y-104510476D01*
X161600761Y-104700952D01*
X161600761Y-104843809D01*
X161553142Y-105034285D01*
X161505523Y-105129523D01*
X161410285Y-105224761D01*
X161267428Y-105272380D01*
X161029333Y-105272380D01*
X118142857Y-115147380D02*
X118476190Y-116147380D01*
X118809523Y-115147380D01*
X119333333Y-115147380D02*
X119523809Y-115147380D01*
X119619047Y-115195000D01*
X119714285Y-115290238D01*
X119761904Y-115480714D01*
X119761904Y-115814047D01*
X119714285Y-116004523D01*
X119619047Y-116099761D01*
X119523809Y-116147380D01*
X119333333Y-116147380D01*
X119238095Y-116099761D01*
X119142857Y-116004523D01*
X119095238Y-115814047D01*
X119095238Y-115480714D01*
X119142857Y-115290238D01*
X119238095Y-115195000D01*
X119333333Y-115147380D01*
X120666666Y-116147380D02*
X120190476Y-116147380D01*
X120190476Y-115147380D01*
X120857142Y-115147380D02*
X121428571Y-115147380D01*
X121142857Y-116147380D02*
X121142857Y-115147380D01*
X121714285Y-115861666D02*
X122190476Y-115861666D01*
X121619047Y-116147380D02*
X121952380Y-115147380D01*
X122285714Y-116147380D01*
X123142857Y-115195000D02*
X123047619Y-115147380D01*
X122904761Y-115147380D01*
X122761904Y-115195000D01*
X122666666Y-115290238D01*
X122619047Y-115385476D01*
X122571428Y-115575952D01*
X122571428Y-115718809D01*
X122619047Y-115909285D01*
X122666666Y-116004523D01*
X122761904Y-116099761D01*
X122904761Y-116147380D01*
X123000000Y-116147380D01*
X123142857Y-116099761D01*
X123190476Y-116052142D01*
X123190476Y-115718809D01*
X123000000Y-115718809D01*
X123619047Y-115623571D02*
X123952380Y-115623571D01*
X124095238Y-116147380D02*
X123619047Y-116147380D01*
X123619047Y-115147380D01*
X124095238Y-115147380D01*
X125285714Y-116147380D02*
X125285714Y-115147380D01*
X125666666Y-115147380D01*
X125761904Y-115195000D01*
X125809523Y-115242619D01*
X125857142Y-115337857D01*
X125857142Y-115480714D01*
X125809523Y-115575952D01*
X125761904Y-115623571D01*
X125666666Y-115671190D01*
X125285714Y-115671190D01*
X126857142Y-116147380D02*
X126523809Y-115671190D01*
X126285714Y-116147380D02*
X126285714Y-115147380D01*
X126666666Y-115147380D01*
X126761904Y-115195000D01*
X126809523Y-115242619D01*
X126857142Y-115337857D01*
X126857142Y-115480714D01*
X126809523Y-115575952D01*
X126761904Y-115623571D01*
X126666666Y-115671190D01*
X126285714Y-115671190D01*
X127476190Y-115147380D02*
X127666666Y-115147380D01*
X127761904Y-115195000D01*
X127857142Y-115290238D01*
X127904761Y-115480714D01*
X127904761Y-115814047D01*
X127857142Y-116004523D01*
X127761904Y-116099761D01*
X127666666Y-116147380D01*
X127476190Y-116147380D01*
X127380952Y-116099761D01*
X127285714Y-116004523D01*
X127238095Y-115814047D01*
X127238095Y-115480714D01*
X127285714Y-115290238D01*
X127380952Y-115195000D01*
X127476190Y-115147380D01*
X128904761Y-116052142D02*
X128857142Y-116099761D01*
X128714285Y-116147380D01*
X128619047Y-116147380D01*
X128476190Y-116099761D01*
X128380952Y-116004523D01*
X128333333Y-115909285D01*
X128285714Y-115718809D01*
X128285714Y-115575952D01*
X128333333Y-115385476D01*
X128380952Y-115290238D01*
X128476190Y-115195000D01*
X128619047Y-115147380D01*
X128714285Y-115147380D01*
X128857142Y-115195000D01*
X128904761Y-115242619D01*
X129333333Y-115623571D02*
X129666666Y-115623571D01*
X129809523Y-116147380D02*
X129333333Y-116147380D01*
X129333333Y-115147380D01*
X129809523Y-115147380D01*
X130190476Y-116099761D02*
X130333333Y-116147380D01*
X130571428Y-116147380D01*
X130666666Y-116099761D01*
X130714285Y-116052142D01*
X130761904Y-115956904D01*
X130761904Y-115861666D01*
X130714285Y-115766428D01*
X130666666Y-115718809D01*
X130571428Y-115671190D01*
X130380952Y-115623571D01*
X130285714Y-115575952D01*
X130238095Y-115528333D01*
X130190476Y-115433095D01*
X130190476Y-115337857D01*
X130238095Y-115242619D01*
X130285714Y-115195000D01*
X130380952Y-115147380D01*
X130619047Y-115147380D01*
X130761904Y-115195000D01*
X131142857Y-116099761D02*
X131285714Y-116147380D01*
X131523809Y-116147380D01*
X131619047Y-116099761D01*
X131666666Y-116052142D01*
X131714285Y-115956904D01*
X131714285Y-115861666D01*
X131666666Y-115766428D01*
X131619047Y-115718809D01*
X131523809Y-115671190D01*
X131333333Y-115623571D01*
X131238095Y-115575952D01*
X131190476Y-115528333D01*
X131142857Y-115433095D01*
X131142857Y-115337857D01*
X131190476Y-115242619D01*
X131238095Y-115195000D01*
X131333333Y-115147380D01*
X131571428Y-115147380D01*
X131714285Y-115195000D01*
X132333333Y-115147380D02*
X132523809Y-115147380D01*
X132619047Y-115195000D01*
X132714285Y-115290238D01*
X132761904Y-115480714D01*
X132761904Y-115814047D01*
X132714285Y-116004523D01*
X132619047Y-116099761D01*
X132523809Y-116147380D01*
X132333333Y-116147380D01*
X132238095Y-116099761D01*
X132142857Y-116004523D01*
X132095238Y-115814047D01*
X132095238Y-115480714D01*
X132142857Y-115290238D01*
X132238095Y-115195000D01*
X132333333Y-115147380D01*
X133761904Y-116147380D02*
X133428571Y-115671190D01*
X133190476Y-116147380D02*
X133190476Y-115147380D01*
X133571428Y-115147380D01*
X133666666Y-115195000D01*
X133714285Y-115242619D01*
X133761904Y-115337857D01*
X133761904Y-115480714D01*
X133714285Y-115575952D01*
X133666666Y-115623571D01*
X133571428Y-115671190D01*
X133190476Y-115671190D01*
X121190476Y-117662142D02*
X121142857Y-117709761D01*
X121000000Y-117757380D01*
X120904761Y-117757380D01*
X120761904Y-117709761D01*
X120666666Y-117614523D01*
X120619047Y-117519285D01*
X120571428Y-117328809D01*
X120571428Y-117185952D01*
X120619047Y-116995476D01*
X120666666Y-116900238D01*
X120761904Y-116805000D01*
X120904761Y-116757380D01*
X121000000Y-116757380D01*
X121142857Y-116805000D01*
X121190476Y-116852619D01*
X121761904Y-117757380D02*
X121666666Y-117709761D01*
X121619047Y-117662142D01*
X121571428Y-117566904D01*
X121571428Y-117281190D01*
X121619047Y-117185952D01*
X121666666Y-117138333D01*
X121761904Y-117090714D01*
X121904761Y-117090714D01*
X122000000Y-117138333D01*
X122047619Y-117185952D01*
X122095238Y-117281190D01*
X122095238Y-117566904D01*
X122047619Y-117662142D01*
X122000000Y-117709761D01*
X121904761Y-117757380D01*
X121761904Y-117757380D01*
X122523809Y-117090714D02*
X122523809Y-117757380D01*
X122523809Y-117185952D02*
X122571428Y-117138333D01*
X122666666Y-117090714D01*
X122809523Y-117090714D01*
X122904761Y-117138333D01*
X122952380Y-117233571D01*
X122952380Y-117757380D01*
X123285714Y-117090714D02*
X123666666Y-117090714D01*
X123428571Y-116757380D02*
X123428571Y-117614523D01*
X123476190Y-117709761D01*
X123571428Y-117757380D01*
X123666666Y-117757380D01*
X124000000Y-117757380D02*
X124000000Y-117090714D01*
X124000000Y-117281190D02*
X124047619Y-117185952D01*
X124095238Y-117138333D01*
X124190476Y-117090714D01*
X124285714Y-117090714D01*
X124761904Y-117757380D02*
X124666666Y-117709761D01*
X124619047Y-117662142D01*
X124571428Y-117566904D01*
X124571428Y-117281190D01*
X124619047Y-117185952D01*
X124666666Y-117138333D01*
X124761904Y-117090714D01*
X124904761Y-117090714D01*
X125000000Y-117138333D01*
X125047619Y-117185952D01*
X125095238Y-117281190D01*
X125095238Y-117566904D01*
X125047619Y-117662142D01*
X125000000Y-117709761D01*
X124904761Y-117757380D01*
X124761904Y-117757380D01*
X125666666Y-117757380D02*
X125571428Y-117709761D01*
X125523809Y-117614523D01*
X125523809Y-116757380D01*
X126000000Y-117709761D02*
X126095238Y-117757380D01*
X126285714Y-117757380D01*
X126380952Y-117709761D01*
X126428571Y-117614523D01*
X126428571Y-117566904D01*
X126380952Y-117471666D01*
X126285714Y-117424047D01*
X126142857Y-117424047D01*
X126047619Y-117376428D01*
X126000000Y-117281190D01*
X126000000Y-117233571D01*
X126047619Y-117138333D01*
X126142857Y-117090714D01*
X126285714Y-117090714D01*
X126380952Y-117138333D01*
X127619047Y-117757380D02*
X127619047Y-116757380D01*
X127619047Y-117138333D02*
X127714285Y-117090714D01*
X127904761Y-117090714D01*
X128000000Y-117138333D01*
X128047619Y-117185952D01*
X128095238Y-117281190D01*
X128095238Y-117566904D01*
X128047619Y-117662142D01*
X128000000Y-117709761D01*
X127904761Y-117757380D01*
X127714285Y-117757380D01*
X127619047Y-117709761D01*
X128666666Y-117757380D02*
X128571428Y-117709761D01*
X128523809Y-117662142D01*
X128476190Y-117566904D01*
X128476190Y-117281190D01*
X128523809Y-117185952D01*
X128571428Y-117138333D01*
X128666666Y-117090714D01*
X128809523Y-117090714D01*
X128904761Y-117138333D01*
X128952380Y-117185952D01*
X129000000Y-117281190D01*
X129000000Y-117566904D01*
X128952380Y-117662142D01*
X128904761Y-117709761D01*
X128809523Y-117757380D01*
X128666666Y-117757380D01*
X129857142Y-117757380D02*
X129857142Y-117233571D01*
X129809523Y-117138333D01*
X129714285Y-117090714D01*
X129523809Y-117090714D01*
X129428571Y-117138333D01*
X129857142Y-117709761D02*
X129761904Y-117757380D01*
X129523809Y-117757380D01*
X129428571Y-117709761D01*
X129380952Y-117614523D01*
X129380952Y-117519285D01*
X129428571Y-117424047D01*
X129523809Y-117376428D01*
X129761904Y-117376428D01*
X129857142Y-117328809D01*
X130333333Y-117757380D02*
X130333333Y-117090714D01*
X130333333Y-117281190D02*
X130380952Y-117185952D01*
X130428571Y-117138333D01*
X130523809Y-117090714D01*
X130619047Y-117090714D01*
X131380952Y-117757380D02*
X131380952Y-116757380D01*
X131380952Y-117709761D02*
X131285714Y-117757380D01*
X131095238Y-117757380D01*
X131000000Y-117709761D01*
X130952380Y-117662142D01*
X130904761Y-117566904D01*
X130904761Y-117281190D01*
X130952380Y-117185952D01*
X131000000Y-117138333D01*
X131095238Y-117090714D01*
X131285714Y-117090714D01*
X131380952Y-117138333D01*
X120976190Y-96952380D02*
X120976190Y-95952380D01*
X121452380Y-96952380D02*
X121452380Y-95952380D01*
X122023809Y-96952380D01*
X122023809Y-95952380D01*
X122261904Y-97047619D02*
X123023809Y-97047619D01*
X123214285Y-96047619D02*
X123261904Y-96000000D01*
X123357142Y-95952380D01*
X123595238Y-95952380D01*
X123690476Y-96000000D01*
X123738095Y-96047619D01*
X123785714Y-96142857D01*
X123785714Y-96238095D01*
X123738095Y-96380952D01*
X123166666Y-96952380D01*
X123785714Y-96952380D01*
X123976190Y-97047619D02*
X124738095Y-97047619D01*
X125500000Y-96952380D02*
X124928571Y-96952380D01*
X125214285Y-96952380D02*
X125214285Y-95952380D01*
X125119047Y-96095238D01*
X125023809Y-96190476D01*
X124928571Y-96238095D01*
X126690476Y-96952380D02*
X126690476Y-95952380D01*
X127071428Y-95952380D01*
X127166666Y-96000000D01*
X127214285Y-96047619D01*
X127261904Y-96142857D01*
X127261904Y-96285714D01*
X127214285Y-96380952D01*
X127166666Y-96428571D01*
X127071428Y-96476190D01*
X126690476Y-96476190D01*
X127880952Y-95952380D02*
X128071428Y-95952380D01*
X128166666Y-96000000D01*
X128261904Y-96095238D01*
X128309523Y-96285714D01*
X128309523Y-96619047D01*
X128261904Y-96809523D01*
X128166666Y-96904761D01*
X128071428Y-96952380D01*
X127880952Y-96952380D01*
X127785714Y-96904761D01*
X127690476Y-96809523D01*
X127642857Y-96619047D01*
X127642857Y-96285714D01*
X127690476Y-96095238D01*
X127785714Y-96000000D01*
X127880952Y-95952380D01*
X128595238Y-95952380D02*
X129166666Y-95952380D01*
X128880952Y-96952380D02*
X128880952Y-95952380D01*
X154309523Y-87238380D02*
X153833333Y-87238380D01*
X153833333Y-86238380D01*
X154595238Y-86952666D02*
X155071428Y-86952666D01*
X154500000Y-87238380D02*
X154833333Y-86238380D01*
X155166666Y-87238380D01*
X156023809Y-86286000D02*
X155928571Y-86238380D01*
X155785714Y-86238380D01*
X155642857Y-86286000D01*
X155547619Y-86381238D01*
X155500000Y-86476476D01*
X155452380Y-86666952D01*
X155452380Y-86809809D01*
X155500000Y-87000285D01*
X155547619Y-87095523D01*
X155642857Y-87190761D01*
X155785714Y-87238380D01*
X155880952Y-87238380D01*
X156023809Y-87190761D01*
X156071428Y-87143142D01*
X156071428Y-86809809D01*
X155880952Y-86809809D01*
X157833333Y-87238380D02*
X157500000Y-86762190D01*
X157261904Y-87238380D02*
X157261904Y-86238380D01*
X157642857Y-86238380D01*
X157738095Y-86286000D01*
X157785714Y-86333619D01*
X157833333Y-86428857D01*
X157833333Y-86571714D01*
X157785714Y-86666952D01*
X157738095Y-86714571D01*
X157642857Y-86762190D01*
X157261904Y-86762190D01*
X158833333Y-87143142D02*
X158785714Y-87190761D01*
X158642857Y-87238380D01*
X158547619Y-87238380D01*
X158404761Y-87190761D01*
X158309523Y-87095523D01*
X158261904Y-87000285D01*
X158214285Y-86809809D01*
X158214285Y-86666952D01*
X158261904Y-86476476D01*
X158309523Y-86381238D01*
X158404761Y-86286000D01*
X158547619Y-86238380D01*
X158642857Y-86238380D01*
X158785714Y-86286000D01*
X158833333Y-86333619D01*
X159976190Y-86190761D02*
X159119047Y-87476476D01*
X160785714Y-87238380D02*
X160309523Y-87238380D01*
X160309523Y-86238380D01*
X161119047Y-87238380D02*
X161119047Y-86238380D01*
X161595238Y-87238380D02*
X161595238Y-86238380D01*
X162166666Y-87238380D01*
X162166666Y-86238380D01*
X172595238Y-96952380D02*
X172119047Y-96952380D01*
X172119047Y-95952380D01*
X172880952Y-96666666D02*
X173357142Y-96666666D01*
X172785714Y-96952380D02*
X173119047Y-95952380D01*
X173452380Y-96952380D01*
X174309523Y-96000000D02*
X174214285Y-95952380D01*
X174071428Y-95952380D01*
X173928571Y-96000000D01*
X173833333Y-96095238D01*
X173785714Y-96190476D01*
X173738095Y-96380952D01*
X173738095Y-96523809D01*
X173785714Y-96714285D01*
X173833333Y-96809523D01*
X173928571Y-96904761D01*
X174071428Y-96952380D01*
X174166666Y-96952380D01*
X174309523Y-96904761D01*
X174357142Y-96857142D01*
X174357142Y-96523809D01*
X174166666Y-96523809D01*
X175547619Y-96952380D02*
X175547619Y-95952380D01*
X175928571Y-95952380D01*
X176023809Y-96000000D01*
X176071428Y-96047619D01*
X176119047Y-96142857D01*
X176119047Y-96285714D01*
X176071428Y-96380952D01*
X176023809Y-96428571D01*
X175928571Y-96476190D01*
X175547619Y-96476190D01*
X176738095Y-95952380D02*
X176928571Y-95952380D01*
X177023809Y-96000000D01*
X177119047Y-96095238D01*
X177166666Y-96285714D01*
X177166666Y-96619047D01*
X177119047Y-96809523D01*
X177023809Y-96904761D01*
X176928571Y-96952380D01*
X176738095Y-96952380D01*
X176642857Y-96904761D01*
X176547619Y-96809523D01*
X176500000Y-96619047D01*
X176500000Y-96285714D01*
X176547619Y-96095238D01*
X176642857Y-96000000D01*
X176738095Y-95952380D01*
X177452380Y-95952380D02*
X178023809Y-95952380D01*
X177738095Y-96952380D02*
X177738095Y-95952380D01*
G04 #@! TO.C,SW2*
X149076000Y-105377571D02*
X149183142Y-105413285D01*
X149361714Y-105413285D01*
X149433142Y-105377571D01*
X149468857Y-105341857D01*
X149504571Y-105270428D01*
X149504571Y-105199000D01*
X149468857Y-105127571D01*
X149433142Y-105091857D01*
X149361714Y-105056142D01*
X149218857Y-105020428D01*
X149147428Y-104984714D01*
X149111714Y-104949000D01*
X149076000Y-104877571D01*
X149076000Y-104806142D01*
X149111714Y-104734714D01*
X149147428Y-104699000D01*
X149218857Y-104663285D01*
X149397428Y-104663285D01*
X149504571Y-104699000D01*
X149754571Y-104663285D02*
X149933142Y-105413285D01*
X150076000Y-104877571D01*
X150218857Y-105413285D01*
X150397428Y-104663285D01*
X150647428Y-104734714D02*
X150683142Y-104699000D01*
X150754571Y-104663285D01*
X150933142Y-104663285D01*
X151004571Y-104699000D01*
X151040285Y-104734714D01*
X151076000Y-104806142D01*
X151076000Y-104877571D01*
X151040285Y-104984714D01*
X150611714Y-105413285D01*
X151076000Y-105413285D01*
G04 #@! TO.C,SW1*
X149000000Y-87203571D02*
X149107142Y-87239285D01*
X149285714Y-87239285D01*
X149357142Y-87203571D01*
X149392857Y-87167857D01*
X149428571Y-87096428D01*
X149428571Y-87025000D01*
X149392857Y-86953571D01*
X149357142Y-86917857D01*
X149285714Y-86882142D01*
X149142857Y-86846428D01*
X149071428Y-86810714D01*
X149035714Y-86775000D01*
X149000000Y-86703571D01*
X149000000Y-86632142D01*
X149035714Y-86560714D01*
X149071428Y-86525000D01*
X149142857Y-86489285D01*
X149321428Y-86489285D01*
X149428571Y-86525000D01*
X149678571Y-86489285D02*
X149857142Y-87239285D01*
X150000000Y-86703571D01*
X150142857Y-87239285D01*
X150321428Y-86489285D01*
X151000000Y-87239285D02*
X150571428Y-87239285D01*
X150785714Y-87239285D02*
X150785714Y-86489285D01*
X150714285Y-86596428D01*
X150642857Y-86667857D01*
X150571428Y-86703571D01*
G04 #@! TO.C,RV4*
X165147285Y-104758428D02*
X164790142Y-105008428D01*
X165147285Y-105187000D02*
X164397285Y-105187000D01*
X164397285Y-104901285D01*
X164433000Y-104829857D01*
X164468714Y-104794142D01*
X164540142Y-104758428D01*
X164647285Y-104758428D01*
X164718714Y-104794142D01*
X164754428Y-104829857D01*
X164790142Y-104901285D01*
X164790142Y-105187000D01*
X164397285Y-104544142D02*
X165147285Y-104294142D01*
X164397285Y-104044142D01*
X164647285Y-103472714D02*
X165147285Y-103472714D01*
X164361571Y-103651285D02*
X164897285Y-103829857D01*
X164897285Y-103365571D01*
X174946428Y-104232142D02*
X174982142Y-104125000D01*
X175017857Y-104089285D01*
X175089285Y-104053571D01*
X175196428Y-104053571D01*
X175267857Y-104089285D01*
X175303571Y-104125000D01*
X175339285Y-104196428D01*
X175339285Y-104482142D01*
X174589285Y-104482142D01*
X174589285Y-104232142D01*
X174625000Y-104160714D01*
X174660714Y-104125000D01*
X174732142Y-104089285D01*
X174803571Y-104089285D01*
X174875000Y-104125000D01*
X174910714Y-104160714D01*
X174946428Y-104232142D01*
X174946428Y-104482142D01*
X175339285Y-103339285D02*
X175339285Y-103767857D01*
X175339285Y-103553571D02*
X174589285Y-103553571D01*
X174696428Y-103625000D01*
X174767857Y-103696428D01*
X174803571Y-103767857D01*
X175339285Y-103017857D02*
X174589285Y-103017857D01*
X175125000Y-102767857D01*
X174589285Y-102517857D01*
X175339285Y-102517857D01*
G04 #@! TO.C,RV3*
X135839285Y-104446428D02*
X135482142Y-104696428D01*
X135839285Y-104875000D02*
X135089285Y-104875000D01*
X135089285Y-104589285D01*
X135125000Y-104517857D01*
X135160714Y-104482142D01*
X135232142Y-104446428D01*
X135339285Y-104446428D01*
X135410714Y-104482142D01*
X135446428Y-104517857D01*
X135482142Y-104589285D01*
X135482142Y-104875000D01*
X135089285Y-104232142D02*
X135839285Y-103982142D01*
X135089285Y-103732142D01*
X135089285Y-103553571D02*
X135089285Y-103089285D01*
X135375000Y-103339285D01*
X135375000Y-103232142D01*
X135410714Y-103160714D01*
X135446428Y-103125000D01*
X135517857Y-103089285D01*
X135696428Y-103089285D01*
X135767857Y-103125000D01*
X135803571Y-103160714D01*
X135839285Y-103232142D01*
X135839285Y-103446428D01*
X135803571Y-103517857D01*
X135767857Y-103553571D01*
X124946428Y-104821428D02*
X124982142Y-104714285D01*
X125017857Y-104678571D01*
X125089285Y-104642857D01*
X125196428Y-104642857D01*
X125267857Y-104678571D01*
X125303571Y-104714285D01*
X125339285Y-104785714D01*
X125339285Y-105071428D01*
X124589285Y-105071428D01*
X124589285Y-104821428D01*
X124625000Y-104750000D01*
X124660714Y-104714285D01*
X124732142Y-104678571D01*
X124803571Y-104678571D01*
X124875000Y-104714285D01*
X124910714Y-104750000D01*
X124946428Y-104821428D01*
X124946428Y-105071428D01*
X125339285Y-103928571D02*
X125339285Y-104357142D01*
X125339285Y-104142857D02*
X124589285Y-104142857D01*
X124696428Y-104214285D01*
X124767857Y-104285714D01*
X124803571Y-104357142D01*
X124589285Y-103464285D02*
X124589285Y-103392857D01*
X124625000Y-103321428D01*
X124660714Y-103285714D01*
X124732142Y-103250000D01*
X124875000Y-103214285D01*
X125053571Y-103214285D01*
X125196428Y-103250000D01*
X125267857Y-103285714D01*
X125303571Y-103321428D01*
X125339285Y-103392857D01*
X125339285Y-103464285D01*
X125303571Y-103535714D01*
X125267857Y-103571428D01*
X125196428Y-103607142D01*
X125053571Y-103642857D01*
X124875000Y-103642857D01*
X124732142Y-103607142D01*
X124660714Y-103571428D01*
X124625000Y-103535714D01*
X124589285Y-103464285D01*
X124589285Y-102750000D02*
X124589285Y-102678571D01*
X124625000Y-102607142D01*
X124660714Y-102571428D01*
X124732142Y-102535714D01*
X124875000Y-102500000D01*
X125053571Y-102500000D01*
X125196428Y-102535714D01*
X125267857Y-102571428D01*
X125303571Y-102607142D01*
X125339285Y-102678571D01*
X125339285Y-102750000D01*
X125303571Y-102821428D01*
X125267857Y-102857142D01*
X125196428Y-102892857D01*
X125053571Y-102928571D01*
X124875000Y-102928571D01*
X124732142Y-102892857D01*
X124660714Y-102857142D01*
X124625000Y-102821428D01*
X124589285Y-102750000D01*
X125339285Y-102178571D02*
X124589285Y-102178571D01*
X125053571Y-102107142D02*
X125339285Y-101892857D01*
X124839285Y-101892857D02*
X125125000Y-102178571D01*
D11*
G04 #@! TO.C,SW2*
X155715000Y-118850000D02*
X144285000Y-118850000D01*
X155715000Y-106160000D02*
X155715000Y-118850000D01*
X146580000Y-118850000D02*
X146580000Y-118840000D01*
X144285000Y-118850000D02*
X144285000Y-106150000D01*
X144285000Y-106150000D02*
X155715000Y-106150000D01*
G04 #@! TO.C,SW1*
X144285000Y-88150000D02*
X155715000Y-88150000D01*
X153420000Y-88150000D02*
X153420000Y-88160000D01*
X144285000Y-100840000D02*
X144285000Y-88150000D01*
X155715000Y-88150000D02*
X155715000Y-100850000D01*
X155715000Y-100850000D02*
X144285000Y-100850000D01*
G04 #@! TO.C,RV4*
X176000000Y-88500000D02*
X179000000Y-88500000D01*
X171000000Y-88500000D02*
X174000000Y-88500000D01*
X166000000Y-112500000D02*
X166000000Y-88500000D01*
X184000000Y-88500000D02*
X184000000Y-112500000D01*
X181000000Y-88500000D02*
X184000000Y-88500000D01*
X184000000Y-112500000D02*
X166000000Y-112500000D01*
X166000000Y-88500000D02*
X169000000Y-88500000D01*
G04 #@! TO.C,RV3*
X116000000Y-88500000D02*
X119000000Y-88500000D01*
X116000000Y-112500000D02*
X116000000Y-88500000D01*
X121000000Y-88500000D02*
X124000000Y-88500000D01*
X134000000Y-88500000D02*
X134000000Y-112500000D01*
X134000000Y-112500000D02*
X116000000Y-112500000D01*
X126000000Y-88500000D02*
X129000000Y-88500000D01*
X131000000Y-88500000D02*
X134000000Y-88500000D01*
G04 #@! TD*
M02*
