M48
; DRILL file {KiCad 6.0.9-8da3e8f707~116~ubuntu22.04.1} date Wed Nov  9 09:15:30 2022
; FORMAT={-:-/ absolute / metric / decimal}
; #@! TF.CreationDate,2022-11-09T09:15:30-05:00
; #@! TF.GenerationSoftware,Kicad,Pcbnew,6.0.9-8da3e8f707~116~ubuntu22.04.1
; #@! TF.FileFunction,MixedPlating,1,2
FMAT,2
METRIC
; #@! TA.AperFunction,Plated,PTH,ComponentDrill
T1C1.000
; #@! TA.AperFunction,Plated,PTH,ComponentDrill
T2C1.300
; #@! TA.AperFunction,Plated,PTH,ComponentDrill
T3C2.100
%
G90
G05
T1
X23.92Y-18.0
X26.46Y-18.0
X29.0Y-18.0
X31.54Y-18.0
X34.08Y-18.0
X36.62Y-18.0
X39.16Y-18.0
X41.7Y-18.0
X44.24Y-18.0
X46.78Y-18.0
X49.32Y-18.0
X51.86Y-18.0
X54.4Y-18.0
T2
X20.5Y-22.5
X25.5Y-22.5
X30.5Y-22.5
X70.5Y-22.5
X70.5Y-27.5
X75.5Y-22.5
X75.5Y-27.5
X80.5Y-22.5
X80.5Y-27.5
T3
X48.085Y-24.8
X48.085Y-29.5
X48.085Y-34.2
X48.085Y-42.8
X48.085Y-47.5
X48.085Y-52.2
X52.915Y-24.8
X52.915Y-29.5
X52.915Y-34.2
X52.915Y-42.8
X52.915Y-47.5
X52.915Y-52.2
T0
M30
