G04 #@! TF.GenerationSoftware,KiCad,Pcbnew,6.0.7-f9a2dced07~116~ubuntu22.04.1*
G04 #@! TF.CreationDate,2022-09-02T23:43:53-04:00*
G04 #@! TF.ProjectId,voltproc_b2,766f6c74-7072-46f6-935f-62322e6b6963,rev?*
G04 #@! TF.SameCoordinates,Original*
G04 #@! TF.FileFunction,Copper,L2,Bot*
G04 #@! TF.FilePolarity,Positive*
%FSLAX46Y46*%
G04 Gerber Fmt 4.6, Leading zero omitted, Abs format (unit mm)*
G04 Created by KiCad (PCBNEW 6.0.7-f9a2dced07~116~ubuntu22.04.1) date 2022-09-02 23:43:53*
%MOMM*%
%LPD*%
G01*
G04 APERTURE LIST*
G04 #@! TA.AperFunction,ComponentPad*
%ADD10C,3.100000*%
G04 #@! TD*
G04 #@! TA.AperFunction,ComponentPad*
%ADD11C,2.340000*%
G04 #@! TD*
G04 #@! TA.AperFunction,ComponentPad*
%ADD12R,1.700000X1.700000*%
G04 #@! TD*
G04 #@! TA.AperFunction,ComponentPad*
%ADD13O,1.700000X1.700000*%
G04 #@! TD*
G04 #@! TA.AperFunction,Conductor*
%ADD14C,0.250000*%
G04 #@! TD*
G04 APERTURE END LIST*
D10*
G04 #@! TO.P,SW1,1,A*
G04 #@! TO.N,Board_0-/Panel components/LIN_IN*
X52915000Y-34200000D03*
G04 #@! TO.P,SW1,2,B*
G04 #@! TO.N,Board_0-/Panel components/LAG_IN*
X52915000Y-29500000D03*
G04 #@! TO.P,SW1,3,C*
G04 #@! TO.N,Board_0-/Panel components/RC_IN*
X52915000Y-24800000D03*
G04 #@! TO.P,SW1,4,A*
G04 #@! TO.N,Board_0-/Panel components/LIN_OUT*
X48085000Y-34200000D03*
G04 #@! TO.P,SW1,5,B*
G04 #@! TO.N,Board_0-/Panel components/LAG_OUT*
X48085000Y-29500000D03*
G04 #@! TO.P,SW1,6,C*
G04 #@! TO.N,Board_0-/Panel components/RC_OUT*
X48085000Y-24800000D03*
G04 #@! TD*
D11*
G04 #@! TO.P,RV3,1,1*
G04 #@! TO.N,Board_0-GND1*
X30500000Y-22500000D03*
G04 #@! TO.P,RV3,2,2*
G04 #@! TO.N,Board_0-/Panel components/IN_2_1_WIP*
X25500000Y-22500000D03*
G04 #@! TO.P,RV3,3,3*
G04 #@! TO.N,Board_0-/Panel components/IN_2_1_CW*
X20500000Y-22500000D03*
G04 #@! TD*
D10*
G04 #@! TO.P,SW2,1,A*
G04 #@! TO.N,Board_0-GND1*
X48085000Y-42800000D03*
G04 #@! TO.P,SW2,2,B*
G04 #@! TO.N,Board_0-/Panel components/LIN_SPEED*
X48085000Y-47500000D03*
G04 #@! TO.P,SW2,3,C*
G04 #@! TO.N,Board_0-unconnected-(SW2-Pad3)*
X48085000Y-52200000D03*
G04 #@! TO.P,SW2,4,A*
G04 #@! TO.N,Board_0-GND1*
X52915000Y-42800000D03*
G04 #@! TO.P,SW2,5,B*
G04 #@! TO.N,Board_0-/Panel components/RC_SPEED*
X52915000Y-47500000D03*
G04 #@! TO.P,SW2,6,C*
G04 #@! TO.N,Board_0-unconnected-(SW2-Pad6)*
X52915000Y-52200000D03*
G04 #@! TD*
D11*
G04 #@! TO.P,RV4,1,1*
G04 #@! TO.N,Board_0-/Panel components/LAG_LIN_CCW*
X80500000Y-17500000D03*
G04 #@! TO.P,RV4,2,2*
G04 #@! TO.N,Board_0-/Panel components/LAG_LIN_WIP*
X75500000Y-17500000D03*
G04 #@! TO.P,RV4,3,3*
X70500000Y-17500000D03*
G04 #@! TO.P,RV4,4,4*
G04 #@! TO.N,Board_0-/Panel components/RC_IN*
X80500000Y-22500000D03*
G04 #@! TO.P,RV4,5,5*
G04 #@! TO.N,Board_0-/Panel components/LAG_RC_WIP*
X75500000Y-22500000D03*
G04 #@! TO.P,RV4,6,6*
X70500000Y-22500000D03*
G04 #@! TD*
D12*
G04 #@! TO.P,J7,1,Pin_1*
G04 #@! TO.N,Board_0-GND1*
X54400000Y-18000000D03*
D13*
G04 #@! TO.P,J7,2,Pin_2*
G04 #@! TO.N,Board_0-/Panel components/LAG_RC_WIP*
X51860000Y-18000000D03*
G04 #@! TO.P,J7,3,Pin_3*
G04 #@! TO.N,Board_0-/Panel components/LAG_LIN_CCW*
X49320000Y-18000000D03*
G04 #@! TO.P,J7,4,Pin_4*
G04 #@! TO.N,Board_0-/Panel components/LAG_LIN_WIP*
X46780000Y-18000000D03*
G04 #@! TO.P,J7,5,Pin_5*
G04 #@! TO.N,Board_0-/Panel components/LIN_SPEED*
X44240000Y-18000000D03*
G04 #@! TO.P,J7,6,Pin_6*
G04 #@! TO.N,Board_0-/Panel components/RC_SPEED*
X41700000Y-18000000D03*
G04 #@! TO.P,J7,7,Pin_7*
G04 #@! TO.N,Board_0-/Panel components/RC_OUT*
X39160000Y-18000000D03*
G04 #@! TO.P,J7,8,Pin_8*
G04 #@! TO.N,Board_0-/Panel components/LAG_OUT*
X36620000Y-18000000D03*
G04 #@! TO.P,J7,9,Pin_9*
G04 #@! TO.N,Board_0-/Panel components/LIN_OUT*
X34080000Y-18000000D03*
G04 #@! TO.P,J7,10,Pin_10*
G04 #@! TO.N,Board_0-/Panel components/LAG_IN*
X31540000Y-18000000D03*
G04 #@! TO.P,J7,11,Pin_11*
G04 #@! TO.N,Board_0-/Panel components/LIN_IN*
X29000000Y-18000000D03*
G04 #@! TO.P,J7,12,Pin_12*
G04 #@! TO.N,Board_0-/Panel components/IN_2_1_CW*
X26460000Y-18000000D03*
G04 #@! TO.P,J7,13,Pin_13*
G04 #@! TO.N,Board_0-/Panel components/IN_2_1_WIP*
X23920000Y-18000000D03*
G04 #@! TD*
D14*
G04 #@! TO.N,Board_0-/Panel components/IN_2_1_CW*
X21960000Y-22500000D02*
X26460000Y-18000000D01*
X20500000Y-22500000D02*
X21960000Y-22500000D01*
G04 #@! TO.N,Board_0-/Panel components/LAG_IN*
X41165489Y-27625489D02*
X51040489Y-27625489D01*
X31540000Y-18000000D02*
X41165489Y-27625489D01*
X51040489Y-27625489D02*
X52915000Y-29500000D01*
G04 #@! TO.N,Board_0-/Panel components/LAG_LIN_CCW*
X66824489Y-16825489D02*
X68993511Y-18994511D01*
X50494511Y-16825489D02*
X66824489Y-16825489D01*
X79005489Y-18994511D02*
X80500000Y-17500000D01*
X49320000Y-18000000D02*
X50494511Y-16825489D01*
X68993511Y-18994511D02*
X79005489Y-18994511D01*
G04 #@! TO.N,Board_0-/Panel components/LAG_LIN_WIP*
X70500000Y-17500000D02*
X69375978Y-16375978D01*
X48404022Y-16375978D02*
X46780000Y-18000000D01*
X69375978Y-16375978D02*
X48404022Y-16375978D01*
X75500000Y-17500000D02*
X70500000Y-17500000D01*
G04 #@! TO.N,Board_0-/Panel components/LAG_RC_WIP*
X75500000Y-22500000D02*
X70500000Y-22500000D01*
X70500000Y-22500000D02*
X56360000Y-22500000D01*
X56360000Y-22500000D02*
X51860000Y-18000000D01*
G04 #@! TO.N,Board_0-/Panel components/RC_IN*
X78200000Y-24800000D02*
X80500000Y-22500000D01*
X52915000Y-24800000D02*
X78200000Y-24800000D01*
G04 #@! TD*
G04 #@! TA.AperFunction,Conductor*
G04 #@! TO.N,Board_0-GND1*
G36*
X48289754Y-15528502D02*
G01*
X48336247Y-15582158D01*
X48346351Y-15652432D01*
X48316857Y-15717012D01*
X48253000Y-15756522D01*
X48245225Y-15757504D01*
X48237858Y-15760421D01*
X48237853Y-15760422D01*
X48204114Y-15773780D01*
X48192887Y-15777624D01*
X48150429Y-15789960D01*
X48143603Y-15793997D01*
X48132994Y-15800271D01*
X48115246Y-15808966D01*
X48096405Y-15816426D01*
X48089989Y-15821088D01*
X48089988Y-15821088D01*
X48060635Y-15842414D01*
X48050715Y-15848930D01*
X48019487Y-15867398D01*
X48019484Y-15867400D01*
X48012660Y-15871436D01*
X47998339Y-15885757D01*
X47983306Y-15898597D01*
X47966915Y-15910506D01*
X47961865Y-15916610D01*
X47961860Y-15916615D01*
X47938729Y-15944576D01*
X47930739Y-15953357D01*
X47237344Y-16646751D01*
X47175032Y-16680776D01*
X47126153Y-16681702D01*
X46913373Y-16643800D01*
X46913367Y-16643799D01*
X46908284Y-16642894D01*
X46834452Y-16641992D01*
X46690081Y-16640228D01*
X46690079Y-16640228D01*
X46684911Y-16640165D01*
X46464091Y-16673955D01*
X46251756Y-16743357D01*
X46053607Y-16846507D01*
X46049474Y-16849610D01*
X46049471Y-16849612D01*
X45888535Y-16970446D01*
X45874965Y-16980635D01*
X45720629Y-17142138D01*
X45613201Y-17299621D01*
X45558293Y-17344621D01*
X45487768Y-17352792D01*
X45424021Y-17321538D01*
X45403324Y-17297054D01*
X45322822Y-17172617D01*
X45322820Y-17172614D01*
X45320014Y-17168277D01*
X45169670Y-17003051D01*
X45165619Y-16999852D01*
X45165615Y-16999848D01*
X44998414Y-16867800D01*
X44998410Y-16867798D01*
X44994359Y-16864598D01*
X44798789Y-16756638D01*
X44793920Y-16754914D01*
X44793916Y-16754912D01*
X44593087Y-16683795D01*
X44593083Y-16683794D01*
X44588212Y-16682069D01*
X44583119Y-16681162D01*
X44583116Y-16681161D01*
X44373373Y-16643800D01*
X44373367Y-16643799D01*
X44368284Y-16642894D01*
X44294452Y-16641992D01*
X44150081Y-16640228D01*
X44150079Y-16640228D01*
X44144911Y-16640165D01*
X43924091Y-16673955D01*
X43711756Y-16743357D01*
X43513607Y-16846507D01*
X43509474Y-16849610D01*
X43509471Y-16849612D01*
X43348535Y-16970446D01*
X43334965Y-16980635D01*
X43180629Y-17142138D01*
X43073201Y-17299621D01*
X43018293Y-17344621D01*
X42947768Y-17352792D01*
X42884021Y-17321538D01*
X42863324Y-17297054D01*
X42782822Y-17172617D01*
X42782820Y-17172614D01*
X42780014Y-17168277D01*
X42629670Y-17003051D01*
X42625619Y-16999852D01*
X42625615Y-16999848D01*
X42458414Y-16867800D01*
X42458410Y-16867798D01*
X42454359Y-16864598D01*
X42258789Y-16756638D01*
X42253920Y-16754914D01*
X42253916Y-16754912D01*
X42053087Y-16683795D01*
X42053083Y-16683794D01*
X42048212Y-16682069D01*
X42043119Y-16681162D01*
X42043116Y-16681161D01*
X41833373Y-16643800D01*
X41833367Y-16643799D01*
X41828284Y-16642894D01*
X41754452Y-16641992D01*
X41610081Y-16640228D01*
X41610079Y-16640228D01*
X41604911Y-16640165D01*
X41384091Y-16673955D01*
X41171756Y-16743357D01*
X40973607Y-16846507D01*
X40969474Y-16849610D01*
X40969471Y-16849612D01*
X40808535Y-16970446D01*
X40794965Y-16980635D01*
X40640629Y-17142138D01*
X40533201Y-17299621D01*
X40478293Y-17344621D01*
X40407768Y-17352792D01*
X40344021Y-17321538D01*
X40323324Y-17297054D01*
X40242822Y-17172617D01*
X40242820Y-17172614D01*
X40240014Y-17168277D01*
X40089670Y-17003051D01*
X40085619Y-16999852D01*
X40085615Y-16999848D01*
X39918414Y-16867800D01*
X39918410Y-16867798D01*
X39914359Y-16864598D01*
X39718789Y-16756638D01*
X39713920Y-16754914D01*
X39713916Y-16754912D01*
X39513087Y-16683795D01*
X39513083Y-16683794D01*
X39508212Y-16682069D01*
X39503119Y-16681162D01*
X39503116Y-16681161D01*
X39293373Y-16643800D01*
X39293367Y-16643799D01*
X39288284Y-16642894D01*
X39214452Y-16641992D01*
X39070081Y-16640228D01*
X39070079Y-16640228D01*
X39064911Y-16640165D01*
X38844091Y-16673955D01*
X38631756Y-16743357D01*
X38433607Y-16846507D01*
X38429474Y-16849610D01*
X38429471Y-16849612D01*
X38268535Y-16970446D01*
X38254965Y-16980635D01*
X38100629Y-17142138D01*
X37993201Y-17299621D01*
X37938293Y-17344621D01*
X37867768Y-17352792D01*
X37804021Y-17321538D01*
X37783324Y-17297054D01*
X37702822Y-17172617D01*
X37702820Y-17172614D01*
X37700014Y-17168277D01*
X37549670Y-17003051D01*
X37545619Y-16999852D01*
X37545615Y-16999848D01*
X37378414Y-16867800D01*
X37378410Y-16867798D01*
X37374359Y-16864598D01*
X37178789Y-16756638D01*
X37173920Y-16754914D01*
X37173916Y-16754912D01*
X36973087Y-16683795D01*
X36973083Y-16683794D01*
X36968212Y-16682069D01*
X36963119Y-16681162D01*
X36963116Y-16681161D01*
X36753373Y-16643800D01*
X36753367Y-16643799D01*
X36748284Y-16642894D01*
X36674452Y-16641992D01*
X36530081Y-16640228D01*
X36530079Y-16640228D01*
X36524911Y-16640165D01*
X36304091Y-16673955D01*
X36091756Y-16743357D01*
X35893607Y-16846507D01*
X35889474Y-16849610D01*
X35889471Y-16849612D01*
X35728535Y-16970446D01*
X35714965Y-16980635D01*
X35560629Y-17142138D01*
X35453201Y-17299621D01*
X35398293Y-17344621D01*
X35327768Y-17352792D01*
X35264021Y-17321538D01*
X35243324Y-17297054D01*
X35162822Y-17172617D01*
X35162820Y-17172614D01*
X35160014Y-17168277D01*
X35009670Y-17003051D01*
X35005619Y-16999852D01*
X35005615Y-16999848D01*
X34838414Y-16867800D01*
X34838410Y-16867798D01*
X34834359Y-16864598D01*
X34638789Y-16756638D01*
X34633920Y-16754914D01*
X34633916Y-16754912D01*
X34433087Y-16683795D01*
X34433083Y-16683794D01*
X34428212Y-16682069D01*
X34423119Y-16681162D01*
X34423116Y-16681161D01*
X34213373Y-16643800D01*
X34213367Y-16643799D01*
X34208284Y-16642894D01*
X34134452Y-16641992D01*
X33990081Y-16640228D01*
X33990079Y-16640228D01*
X33984911Y-16640165D01*
X33764091Y-16673955D01*
X33551756Y-16743357D01*
X33353607Y-16846507D01*
X33349474Y-16849610D01*
X33349471Y-16849612D01*
X33188535Y-16970446D01*
X33174965Y-16980635D01*
X33020629Y-17142138D01*
X32913201Y-17299621D01*
X32858293Y-17344621D01*
X32787768Y-17352792D01*
X32724021Y-17321538D01*
X32703324Y-17297054D01*
X32622822Y-17172617D01*
X32622820Y-17172614D01*
X32620014Y-17168277D01*
X32469670Y-17003051D01*
X32465619Y-16999852D01*
X32465615Y-16999848D01*
X32298414Y-16867800D01*
X32298410Y-16867798D01*
X32294359Y-16864598D01*
X32098789Y-16756638D01*
X32093920Y-16754914D01*
X32093916Y-16754912D01*
X31893087Y-16683795D01*
X31893083Y-16683794D01*
X31888212Y-16682069D01*
X31883119Y-16681162D01*
X31883116Y-16681161D01*
X31673373Y-16643800D01*
X31673367Y-16643799D01*
X31668284Y-16642894D01*
X31594452Y-16641992D01*
X31450081Y-16640228D01*
X31450079Y-16640228D01*
X31444911Y-16640165D01*
X31224091Y-16673955D01*
X31011756Y-16743357D01*
X30813607Y-16846507D01*
X30809474Y-16849610D01*
X30809471Y-16849612D01*
X30648535Y-16970446D01*
X30634965Y-16980635D01*
X30480629Y-17142138D01*
X30373201Y-17299621D01*
X30318293Y-17344621D01*
X30247768Y-17352792D01*
X30184021Y-17321538D01*
X30163324Y-17297054D01*
X30082822Y-17172617D01*
X30082820Y-17172614D01*
X30080014Y-17168277D01*
X29929670Y-17003051D01*
X29925619Y-16999852D01*
X29925615Y-16999848D01*
X29758414Y-16867800D01*
X29758410Y-16867798D01*
X29754359Y-16864598D01*
X29558789Y-16756638D01*
X29553920Y-16754914D01*
X29553916Y-16754912D01*
X29353087Y-16683795D01*
X29353083Y-16683794D01*
X29348212Y-16682069D01*
X29343119Y-16681162D01*
X29343116Y-16681161D01*
X29133373Y-16643800D01*
X29133367Y-16643799D01*
X29128284Y-16642894D01*
X29054452Y-16641992D01*
X28910081Y-16640228D01*
X28910079Y-16640228D01*
X28904911Y-16640165D01*
X28684091Y-16673955D01*
X28471756Y-16743357D01*
X28273607Y-16846507D01*
X28269474Y-16849610D01*
X28269471Y-16849612D01*
X28108535Y-16970446D01*
X28094965Y-16980635D01*
X27940629Y-17142138D01*
X27833201Y-17299621D01*
X27778293Y-17344621D01*
X27707768Y-17352792D01*
X27644021Y-17321538D01*
X27623324Y-17297054D01*
X27542822Y-17172617D01*
X27542820Y-17172614D01*
X27540014Y-17168277D01*
X27389670Y-17003051D01*
X27385619Y-16999852D01*
X27385615Y-16999848D01*
X27218414Y-16867800D01*
X27218410Y-16867798D01*
X27214359Y-16864598D01*
X27018789Y-16756638D01*
X27013920Y-16754914D01*
X27013916Y-16754912D01*
X26813087Y-16683795D01*
X26813083Y-16683794D01*
X26808212Y-16682069D01*
X26803119Y-16681162D01*
X26803116Y-16681161D01*
X26593373Y-16643800D01*
X26593367Y-16643799D01*
X26588284Y-16642894D01*
X26514452Y-16641992D01*
X26370081Y-16640228D01*
X26370079Y-16640228D01*
X26364911Y-16640165D01*
X26144091Y-16673955D01*
X25931756Y-16743357D01*
X25733607Y-16846507D01*
X25729474Y-16849610D01*
X25729471Y-16849612D01*
X25568535Y-16970446D01*
X25554965Y-16980635D01*
X25400629Y-17142138D01*
X25293201Y-17299621D01*
X25238293Y-17344621D01*
X25167768Y-17352792D01*
X25104021Y-17321538D01*
X25083324Y-17297054D01*
X25002822Y-17172617D01*
X25002820Y-17172614D01*
X25000014Y-17168277D01*
X24849670Y-17003051D01*
X24845619Y-16999852D01*
X24845615Y-16999848D01*
X24678414Y-16867800D01*
X24678410Y-16867798D01*
X24674359Y-16864598D01*
X24478789Y-16756638D01*
X24473920Y-16754914D01*
X24473916Y-16754912D01*
X24273087Y-16683795D01*
X24273083Y-16683794D01*
X24268212Y-16682069D01*
X24263119Y-16681162D01*
X24263116Y-16681161D01*
X24053373Y-16643800D01*
X24053367Y-16643799D01*
X24048284Y-16642894D01*
X23974452Y-16641992D01*
X23830081Y-16640228D01*
X23830079Y-16640228D01*
X23824911Y-16640165D01*
X23604091Y-16673955D01*
X23391756Y-16743357D01*
X23193607Y-16846507D01*
X23189474Y-16849610D01*
X23189471Y-16849612D01*
X23028535Y-16970446D01*
X23014965Y-16980635D01*
X22860629Y-17142138D01*
X22734743Y-17326680D01*
X22687715Y-17427993D01*
X22655753Y-17496851D01*
X22640688Y-17529305D01*
X22580989Y-17744570D01*
X22557251Y-17966695D01*
X22557548Y-17971848D01*
X22557548Y-17971851D01*
X22563664Y-18077915D01*
X22570110Y-18189715D01*
X22571247Y-18194761D01*
X22571248Y-18194767D01*
X22585606Y-18258475D01*
X22619222Y-18407639D01*
X22703266Y-18614616D01*
X22753773Y-18697037D01*
X22817291Y-18800688D01*
X22819987Y-18805088D01*
X22966250Y-18973938D01*
X23138126Y-19116632D01*
X23331000Y-19229338D01*
X23539692Y-19309030D01*
X23544760Y-19310061D01*
X23544763Y-19310062D01*
X23652012Y-19331882D01*
X23758597Y-19353567D01*
X23763771Y-19353757D01*
X23763773Y-19353757D01*
X23825898Y-19356035D01*
X23905650Y-19358959D01*
X23972991Y-19381443D01*
X24017487Y-19436767D01*
X24025009Y-19507364D01*
X23990127Y-19573969D01*
X22044146Y-21519949D01*
X21981834Y-21553975D01*
X21911018Y-21548910D01*
X21856102Y-21508861D01*
X21740990Y-21362842D01*
X21559276Y-21191902D01*
X21443160Y-21111350D01*
X21358130Y-21052362D01*
X21358125Y-21052359D01*
X21354292Y-21049700D01*
X21350110Y-21047637D01*
X21350102Y-21047633D01*
X21134728Y-20941423D01*
X21134725Y-20941422D01*
X21130540Y-20939358D01*
X20892937Y-20863300D01*
X20888330Y-20862550D01*
X20888327Y-20862549D01*
X20651312Y-20823949D01*
X20651313Y-20823949D01*
X20646701Y-20823198D01*
X20525753Y-20821615D01*
X20401920Y-20819994D01*
X20401917Y-20819994D01*
X20397243Y-20819933D01*
X20150042Y-20853575D01*
X20145556Y-20854883D01*
X20145554Y-20854883D01*
X20117576Y-20863038D01*
X19910528Y-20923387D01*
X19906275Y-20925347D01*
X19906274Y-20925348D01*
X19878971Y-20937935D01*
X19683965Y-21027834D01*
X19653767Y-21047633D01*
X19479242Y-21162056D01*
X19479237Y-21162060D01*
X19475329Y-21164622D01*
X19289202Y-21330746D01*
X19129675Y-21522557D01*
X19000252Y-21735840D01*
X18998443Y-21740154D01*
X18998442Y-21740156D01*
X18945462Y-21866500D01*
X18903775Y-21965911D01*
X18902624Y-21970443D01*
X18902623Y-21970446D01*
X18894185Y-22003671D01*
X18842365Y-22207714D01*
X18817370Y-22455939D01*
X18817594Y-22460606D01*
X18817594Y-22460611D01*
X18823354Y-22580535D01*
X18829339Y-22705131D01*
X18878010Y-22949818D01*
X18962314Y-23184622D01*
X19080398Y-23404386D01*
X19229668Y-23604283D01*
X19406844Y-23779921D01*
X19410606Y-23782679D01*
X19410609Y-23782682D01*
X19522139Y-23864458D01*
X19608036Y-23927440D01*
X19612171Y-23929616D01*
X19612175Y-23929618D01*
X19704912Y-23978409D01*
X19828823Y-24043602D01*
X19920918Y-24075763D01*
X20058550Y-24123826D01*
X20064354Y-24125853D01*
X20068947Y-24126725D01*
X20304867Y-24171516D01*
X20304870Y-24171516D01*
X20309456Y-24172387D01*
X20434100Y-24177285D01*
X20554075Y-24181999D01*
X20554081Y-24181999D01*
X20558743Y-24182182D01*
X20648181Y-24172387D01*
X20802087Y-24155532D01*
X20802092Y-24155531D01*
X20806740Y-24155022D01*
X20839116Y-24146498D01*
X21043476Y-24092694D01*
X21043478Y-24092693D01*
X21047999Y-24091503D01*
X21053399Y-24089183D01*
X21272924Y-23994868D01*
X21272926Y-23994867D01*
X21277218Y-23993023D01*
X21379679Y-23929618D01*
X21485391Y-23864202D01*
X21485395Y-23864199D01*
X21489364Y-23861743D01*
X21589900Y-23776633D01*
X21676209Y-23703567D01*
X21676210Y-23703566D01*
X21679775Y-23700548D01*
X21761316Y-23607569D01*
X21841187Y-23516494D01*
X21841191Y-23516489D01*
X21844269Y-23512979D01*
X21860803Y-23487275D01*
X21976703Y-23307087D01*
X21979231Y-23303157D01*
X21981258Y-23298659D01*
X22030696Y-23188909D01*
X22076911Y-23135014D01*
X22112863Y-23119224D01*
X22118797Y-23118474D01*
X22126165Y-23115557D01*
X22126172Y-23115555D01*
X22159912Y-23102196D01*
X22171142Y-23098351D01*
X22205983Y-23088229D01*
X22205984Y-23088229D01*
X22213593Y-23086018D01*
X22220412Y-23081985D01*
X22220417Y-23081983D01*
X22231028Y-23075707D01*
X22248776Y-23067012D01*
X22267617Y-23059552D01*
X22303387Y-23033564D01*
X22313307Y-23027048D01*
X22344535Y-23008580D01*
X22344538Y-23008578D01*
X22351362Y-23004542D01*
X22365683Y-22990221D01*
X22380717Y-22977380D01*
X22382431Y-22976135D01*
X22397107Y-22965472D01*
X22425298Y-22931395D01*
X22433288Y-22922616D01*
X23848061Y-21507843D01*
X23910373Y-21473817D01*
X23981188Y-21478882D01*
X24038024Y-21521429D01*
X24062835Y-21587949D01*
X24044875Y-21662303D01*
X24000252Y-21735840D01*
X23998443Y-21740154D01*
X23998442Y-21740156D01*
X23945462Y-21866500D01*
X23903775Y-21965911D01*
X23902624Y-21970443D01*
X23902623Y-21970446D01*
X23894185Y-22003671D01*
X23842365Y-22207714D01*
X23817370Y-22455939D01*
X23817594Y-22460606D01*
X23817594Y-22460611D01*
X23823354Y-22580535D01*
X23829339Y-22705131D01*
X23878010Y-22949818D01*
X23962314Y-23184622D01*
X24080398Y-23404386D01*
X24229668Y-23604283D01*
X24406844Y-23779921D01*
X24410606Y-23782679D01*
X24410609Y-23782682D01*
X24522139Y-23864458D01*
X24608036Y-23927440D01*
X24612171Y-23929616D01*
X24612175Y-23929618D01*
X24704912Y-23978409D01*
X24828823Y-24043602D01*
X24920918Y-24075763D01*
X25058550Y-24123826D01*
X25064354Y-24125853D01*
X25068947Y-24126725D01*
X25304867Y-24171516D01*
X25304870Y-24171516D01*
X25309456Y-24172387D01*
X25434100Y-24177285D01*
X25554075Y-24181999D01*
X25554081Y-24181999D01*
X25558743Y-24182182D01*
X25648181Y-24172387D01*
X25802087Y-24155532D01*
X25802092Y-24155531D01*
X25806740Y-24155022D01*
X25839116Y-24146498D01*
X26043476Y-24092694D01*
X26043478Y-24092693D01*
X26047999Y-24091503D01*
X26053399Y-24089183D01*
X26272924Y-23994868D01*
X26272926Y-23994867D01*
X26277218Y-23993023D01*
X26379679Y-23929618D01*
X26485391Y-23864202D01*
X26485395Y-23864199D01*
X26489364Y-23861743D01*
X26500997Y-23851895D01*
X29512851Y-23851895D01*
X29521563Y-23863415D01*
X29604529Y-23924249D01*
X29612444Y-23929194D01*
X29824873Y-24040959D01*
X29833447Y-24044687D01*
X30060067Y-24123826D01*
X30069077Y-24126240D01*
X30304923Y-24171017D01*
X30314180Y-24172071D01*
X30554058Y-24181497D01*
X30563372Y-24181171D01*
X30801996Y-24155038D01*
X30811173Y-24153337D01*
X31043312Y-24092220D01*
X31052132Y-24089183D01*
X31272693Y-23994423D01*
X31280965Y-23990116D01*
X31484026Y-23864458D01*
X31490751Y-23854253D01*
X31484688Y-23843899D01*
X30512810Y-22872020D01*
X30498869Y-22864408D01*
X30497034Y-22864539D01*
X30490420Y-22868790D01*
X29519509Y-23839702D01*
X29512851Y-23851895D01*
X26500997Y-23851895D01*
X26589900Y-23776633D01*
X26676209Y-23703567D01*
X26676210Y-23703566D01*
X26679775Y-23700548D01*
X26761316Y-23607569D01*
X26841187Y-23516494D01*
X26841191Y-23516489D01*
X26844269Y-23512979D01*
X26860803Y-23487275D01*
X26976703Y-23307087D01*
X26979231Y-23303157D01*
X27081697Y-23075691D01*
X27088164Y-23052762D01*
X27148146Y-22840082D01*
X27148147Y-22840079D01*
X27149416Y-22835578D01*
X27180900Y-22588092D01*
X27180984Y-22584909D01*
X27182243Y-22536828D01*
X27183207Y-22500000D01*
X27180281Y-22460624D01*
X28818096Y-22460624D01*
X28829614Y-22700398D01*
X28830751Y-22709658D01*
X28877581Y-22945095D01*
X28880075Y-22954088D01*
X28961189Y-23180009D01*
X28964989Y-23188544D01*
X29078607Y-23399996D01*
X29083618Y-23407863D01*
X29136609Y-23478826D01*
X29147867Y-23487275D01*
X29160286Y-23480503D01*
X30127980Y-22512810D01*
X30134357Y-22501131D01*
X30864408Y-22501131D01*
X30864539Y-22502966D01*
X30868790Y-22509580D01*
X31842024Y-23482813D01*
X31854404Y-23489573D01*
X31862745Y-23483330D01*
X31976265Y-23306843D01*
X31980708Y-23298659D01*
X32079304Y-23079783D01*
X32082494Y-23071018D01*
X32147654Y-22839981D01*
X32149514Y-22830839D01*
X32180001Y-22591196D01*
X32180482Y-22584909D01*
X32182622Y-22503160D01*
X32182471Y-22496851D01*
X32164568Y-22255932D01*
X32163191Y-22246726D01*
X32110210Y-22012582D01*
X32107486Y-22003671D01*
X32020478Y-21779930D01*
X32016467Y-21771521D01*
X31897347Y-21563105D01*
X31892130Y-21555370D01*
X31864425Y-21520227D01*
X31852501Y-21511758D01*
X31840965Y-21518246D01*
X30872020Y-22487190D01*
X30864408Y-22501131D01*
X30134357Y-22501131D01*
X30135592Y-22498869D01*
X30135461Y-22497034D01*
X30131210Y-22490420D01*
X29158131Y-21517342D01*
X29144823Y-21510075D01*
X29134786Y-21517195D01*
X29133076Y-21519251D01*
X29127655Y-21526851D01*
X29003127Y-21732067D01*
X28998889Y-21740384D01*
X28906060Y-21961755D01*
X28903099Y-21970605D01*
X28844011Y-22203264D01*
X28842390Y-22212458D01*
X28818341Y-22451297D01*
X28818096Y-22460624D01*
X27180281Y-22460624D01*
X27164718Y-22251206D01*
X27109659Y-22007878D01*
X27095164Y-21970605D01*
X27020931Y-21779714D01*
X27020930Y-21779711D01*
X27019238Y-21775361D01*
X26994494Y-21732067D01*
X26912123Y-21587949D01*
X26895442Y-21558763D01*
X26740990Y-21362842D01*
X26559276Y-21191902D01*
X26493951Y-21146585D01*
X29510999Y-21146585D01*
X29515572Y-21156361D01*
X30487190Y-22127980D01*
X30501131Y-22135592D01*
X30502966Y-22135461D01*
X30509580Y-22131210D01*
X31480929Y-21159860D01*
X31487313Y-21148169D01*
X31477903Y-21136061D01*
X31357873Y-21052793D01*
X31349846Y-21048065D01*
X31134540Y-20941888D01*
X31125907Y-20938400D01*
X30897265Y-20865211D01*
X30888214Y-20863038D01*
X30651269Y-20824449D01*
X30641980Y-20823637D01*
X30401950Y-20820495D01*
X30392638Y-20821065D01*
X30154776Y-20853436D01*
X30145658Y-20855374D01*
X29915203Y-20922546D01*
X29906450Y-20925818D01*
X29688454Y-21026316D01*
X29680299Y-21030836D01*
X29520136Y-21135844D01*
X29510999Y-21146585D01*
X26493951Y-21146585D01*
X26443160Y-21111350D01*
X26358130Y-21052362D01*
X26358125Y-21052359D01*
X26354292Y-21049700D01*
X26350110Y-21047637D01*
X26350102Y-21047633D01*
X26134728Y-20941423D01*
X26134725Y-20941422D01*
X26130540Y-20939358D01*
X25892937Y-20863300D01*
X25888330Y-20862550D01*
X25888327Y-20862549D01*
X25651312Y-20823949D01*
X25651313Y-20823949D01*
X25646701Y-20823198D01*
X25525753Y-20821615D01*
X25401920Y-20819994D01*
X25401917Y-20819994D01*
X25397243Y-20819933D01*
X25150042Y-20853575D01*
X25145556Y-20854883D01*
X25145554Y-20854883D01*
X25117576Y-20863038D01*
X24910528Y-20923387D01*
X24906275Y-20925347D01*
X24906274Y-20925348D01*
X24878971Y-20937935D01*
X24683965Y-21027834D01*
X24680059Y-21030395D01*
X24680057Y-21030396D01*
X24679386Y-21030836D01*
X24674537Y-21034015D01*
X24606603Y-21054640D01*
X24538302Y-21035262D01*
X24491320Y-20982034D01*
X24480574Y-20911856D01*
X24509474Y-20847008D01*
X24516355Y-20839550D01*
X26004550Y-19351355D01*
X26066862Y-19317329D01*
X26118762Y-19316979D01*
X26298597Y-19353567D01*
X26303772Y-19353757D01*
X26303774Y-19353757D01*
X26516673Y-19361564D01*
X26516677Y-19361564D01*
X26521837Y-19361753D01*
X26526957Y-19361097D01*
X26526959Y-19361097D01*
X26738288Y-19334025D01*
X26738289Y-19334025D01*
X26743416Y-19333368D01*
X26782434Y-19321662D01*
X26952429Y-19270661D01*
X26952434Y-19270659D01*
X26957384Y-19269174D01*
X27157994Y-19170896D01*
X27339860Y-19041173D01*
X27498096Y-18883489D01*
X27557594Y-18800689D01*
X27628453Y-18702077D01*
X27629776Y-18703028D01*
X27676645Y-18659857D01*
X27746580Y-18647625D01*
X27812026Y-18675144D01*
X27839875Y-18706994D01*
X27899987Y-18805088D01*
X28046250Y-18973938D01*
X28218126Y-19116632D01*
X28411000Y-19229338D01*
X28619692Y-19309030D01*
X28624760Y-19310061D01*
X28624763Y-19310062D01*
X28732012Y-19331882D01*
X28838597Y-19353567D01*
X28843772Y-19353757D01*
X28843774Y-19353757D01*
X29056673Y-19361564D01*
X29056677Y-19361564D01*
X29061837Y-19361753D01*
X29066957Y-19361097D01*
X29066959Y-19361097D01*
X29278288Y-19334025D01*
X29278289Y-19334025D01*
X29283416Y-19333368D01*
X29322434Y-19321662D01*
X29492429Y-19270661D01*
X29492434Y-19270659D01*
X29497384Y-19269174D01*
X29697994Y-19170896D01*
X29879860Y-19041173D01*
X30038096Y-18883489D01*
X30097594Y-18800689D01*
X30168453Y-18702077D01*
X30169776Y-18703028D01*
X30216645Y-18659857D01*
X30286580Y-18647625D01*
X30352026Y-18675144D01*
X30379875Y-18706994D01*
X30439987Y-18805088D01*
X30586250Y-18973938D01*
X30758126Y-19116632D01*
X30951000Y-19229338D01*
X31159692Y-19309030D01*
X31164760Y-19310061D01*
X31164763Y-19310062D01*
X31272012Y-19331882D01*
X31378597Y-19353567D01*
X31383772Y-19353757D01*
X31383774Y-19353757D01*
X31596673Y-19361564D01*
X31596677Y-19361564D01*
X31601837Y-19361753D01*
X31606957Y-19361097D01*
X31606959Y-19361097D01*
X31818288Y-19334025D01*
X31818289Y-19334025D01*
X31823416Y-19333368D01*
X31828367Y-19331883D01*
X31828370Y-19331882D01*
X31869829Y-19319444D01*
X31940825Y-19319028D01*
X31995131Y-19351035D01*
X40661837Y-28017742D01*
X40669377Y-28026028D01*
X40673489Y-28032507D01*
X40679266Y-28037932D01*
X40723140Y-28079132D01*
X40725982Y-28081887D01*
X40745719Y-28101624D01*
X40748916Y-28104104D01*
X40757936Y-28111807D01*
X40790168Y-28142075D01*
X40797114Y-28145894D01*
X40797117Y-28145896D01*
X40807923Y-28151837D01*
X40824442Y-28162688D01*
X40840448Y-28175103D01*
X40847717Y-28178248D01*
X40847721Y-28178251D01*
X40881026Y-28192663D01*
X40891676Y-28197880D01*
X40930429Y-28219184D01*
X40938104Y-28221155D01*
X40938105Y-28221155D01*
X40950051Y-28224222D01*
X40968756Y-28230626D01*
X40987344Y-28238670D01*
X40995167Y-28239909D01*
X40995177Y-28239912D01*
X41031013Y-28245588D01*
X41042633Y-28247994D01*
X41077778Y-28257017D01*
X41085459Y-28258989D01*
X41105713Y-28258989D01*
X41125423Y-28260540D01*
X41145432Y-28263709D01*
X41153324Y-28262963D01*
X41189450Y-28259548D01*
X41201308Y-28258989D01*
X46203522Y-28258989D01*
X46271643Y-28278991D01*
X46318136Y-28332647D01*
X46328240Y-28402921D01*
X46314877Y-28443948D01*
X46251930Y-28562835D01*
X46200073Y-28660776D01*
X46198601Y-28664799D01*
X46198599Y-28664803D01*
X46191354Y-28684602D01*
X46103616Y-28924355D01*
X46043825Y-29198585D01*
X46021803Y-29478393D01*
X46037960Y-29758601D01*
X46038785Y-29762806D01*
X46038786Y-29762814D01*
X46049711Y-29818497D01*
X46091996Y-30034024D01*
X46093383Y-30038074D01*
X46093384Y-30038079D01*
X46181522Y-30295509D01*
X46182911Y-30299565D01*
X46309022Y-30550310D01*
X46311448Y-30553839D01*
X46311451Y-30553845D01*
X46420012Y-30711801D01*
X46467997Y-30781620D01*
X46656894Y-30989215D01*
X46660183Y-30991965D01*
X46868925Y-31166501D01*
X46868930Y-31166505D01*
X46872217Y-31169253D01*
X46927424Y-31203884D01*
X47106341Y-31316119D01*
X47106345Y-31316121D01*
X47109981Y-31318402D01*
X47365788Y-31433903D01*
X47369907Y-31435123D01*
X47630790Y-31512401D01*
X47630795Y-31512402D01*
X47634903Y-31513619D01*
X47639137Y-31514267D01*
X47639142Y-31514268D01*
X47883514Y-31551662D01*
X47912347Y-31556074D01*
X48055292Y-31558319D01*
X48188694Y-31560415D01*
X48188700Y-31560415D01*
X48192985Y-31560482D01*
X48471626Y-31526763D01*
X48743112Y-31455540D01*
X48747072Y-31453900D01*
X48747077Y-31453898D01*
X48886600Y-31396105D01*
X49002420Y-31348131D01*
X49053296Y-31318402D01*
X49241054Y-31208685D01*
X49241055Y-31208685D01*
X49244752Y-31206524D01*
X49465624Y-31033338D01*
X49660948Y-30831779D01*
X49663481Y-30828331D01*
X49663485Y-30828326D01*
X49824572Y-30609032D01*
X49827110Y-30605577D01*
X49961036Y-30358916D01*
X50060247Y-30096362D01*
X50122907Y-29822773D01*
X50147857Y-29543211D01*
X50148310Y-29500000D01*
X50129220Y-29219977D01*
X50123923Y-29194396D01*
X50073172Y-28949332D01*
X50072303Y-28945135D01*
X49978612Y-28680561D01*
X49855884Y-28442779D01*
X49842415Y-28373071D01*
X49868770Y-28307148D01*
X49926583Y-28265938D01*
X49967850Y-28258989D01*
X50725894Y-28258989D01*
X50794015Y-28278991D01*
X50814990Y-28295894D01*
X51016123Y-28497028D01*
X51050148Y-28559340D01*
X51045083Y-28630156D01*
X51038383Y-28645079D01*
X51032082Y-28656980D01*
X51032078Y-28656989D01*
X51030073Y-28660776D01*
X51028601Y-28664799D01*
X51028599Y-28664803D01*
X51021354Y-28684602D01*
X50933616Y-28924355D01*
X50873825Y-29198585D01*
X50851803Y-29478393D01*
X50867960Y-29758601D01*
X50868785Y-29762806D01*
X50868786Y-29762814D01*
X50879711Y-29818497D01*
X50921996Y-30034024D01*
X50923383Y-30038074D01*
X50923384Y-30038079D01*
X51011522Y-30295509D01*
X51012911Y-30299565D01*
X51139022Y-30550310D01*
X51141448Y-30553839D01*
X51141451Y-30553845D01*
X51250012Y-30711801D01*
X51297997Y-30781620D01*
X51486894Y-30989215D01*
X51490183Y-30991965D01*
X51698925Y-31166501D01*
X51698930Y-31166505D01*
X51702217Y-31169253D01*
X51757424Y-31203884D01*
X51936341Y-31316119D01*
X51936345Y-31316121D01*
X51939981Y-31318402D01*
X52195788Y-31433903D01*
X52199907Y-31435123D01*
X52460790Y-31512401D01*
X52460795Y-31512402D01*
X52464903Y-31513619D01*
X52469137Y-31514267D01*
X52469142Y-31514268D01*
X52713514Y-31551662D01*
X52742347Y-31556074D01*
X52885292Y-31558319D01*
X53018694Y-31560415D01*
X53018700Y-31560415D01*
X53022985Y-31560482D01*
X53301626Y-31526763D01*
X53573112Y-31455540D01*
X53577072Y-31453900D01*
X53577077Y-31453898D01*
X53716600Y-31396105D01*
X53832420Y-31348131D01*
X53883296Y-31318402D01*
X54071054Y-31208685D01*
X54071055Y-31208685D01*
X54074752Y-31206524D01*
X54295624Y-31033338D01*
X54490948Y-30831779D01*
X54493481Y-30828331D01*
X54493485Y-30828326D01*
X54654572Y-30609032D01*
X54657110Y-30605577D01*
X54791036Y-30358916D01*
X54890247Y-30096362D01*
X54952907Y-29822773D01*
X54977857Y-29543211D01*
X54978310Y-29500000D01*
X54959220Y-29219977D01*
X54953923Y-29194396D01*
X54903172Y-28949332D01*
X54902303Y-28945135D01*
X54808612Y-28680561D01*
X54798401Y-28660776D01*
X54681847Y-28434957D01*
X54681847Y-28434956D01*
X54679882Y-28431150D01*
X54660043Y-28402921D01*
X54557499Y-28257017D01*
X54518493Y-28201517D01*
X54404766Y-28079132D01*
X54330354Y-27999055D01*
X54330351Y-27999052D01*
X54327433Y-27995912D01*
X54110237Y-27818139D01*
X53870923Y-27671487D01*
X53848348Y-27661577D01*
X53617853Y-27560397D01*
X53613921Y-27558671D01*
X53594526Y-27553146D01*
X53348114Y-27482954D01*
X53348115Y-27482954D01*
X53343986Y-27481778D01*
X53138217Y-27452493D01*
X53070365Y-27442836D01*
X53070363Y-27442836D01*
X53066113Y-27442231D01*
X53061824Y-27442209D01*
X53061817Y-27442208D01*
X52789730Y-27440783D01*
X52789723Y-27440783D01*
X52785444Y-27440761D01*
X52781199Y-27441320D01*
X52781197Y-27441320D01*
X52717813Y-27449665D01*
X52507172Y-27477397D01*
X52236446Y-27551459D01*
X52232499Y-27553142D01*
X52232489Y-27553146D01*
X52052536Y-27629903D01*
X51982029Y-27638232D01*
X51914006Y-27603101D01*
X51544141Y-27233236D01*
X51536601Y-27224950D01*
X51532489Y-27218471D01*
X51482837Y-27171845D01*
X51479996Y-27169091D01*
X51460259Y-27149354D01*
X51457062Y-27146874D01*
X51448040Y-27139169D01*
X51421589Y-27114330D01*
X51415810Y-27108903D01*
X51408864Y-27105084D01*
X51408861Y-27105082D01*
X51398055Y-27099141D01*
X51381536Y-27088290D01*
X51381072Y-27087930D01*
X51365530Y-27075875D01*
X51358261Y-27072730D01*
X51358257Y-27072727D01*
X51324952Y-27058315D01*
X51314302Y-27053098D01*
X51275549Y-27031794D01*
X51255926Y-27026756D01*
X51237223Y-27020352D01*
X51225909Y-27015456D01*
X51225908Y-27015456D01*
X51218634Y-27012308D01*
X51210811Y-27011069D01*
X51210801Y-27011066D01*
X51174965Y-27005390D01*
X51163345Y-27002984D01*
X51128200Y-26993961D01*
X51128199Y-26993961D01*
X51120519Y-26991989D01*
X51100265Y-26991989D01*
X51080554Y-26990438D01*
X51068375Y-26988509D01*
X51060546Y-26987269D01*
X51052654Y-26988015D01*
X51016528Y-26991430D01*
X51004670Y-26991989D01*
X48805719Y-26991989D01*
X48737598Y-26971987D01*
X48691105Y-26918331D01*
X48681001Y-26848057D01*
X48710495Y-26783477D01*
X48757501Y-26749580D01*
X48830552Y-26719321D01*
X49002420Y-26648131D01*
X49053296Y-26618402D01*
X49241054Y-26508685D01*
X49241055Y-26508685D01*
X49244752Y-26506524D01*
X49465624Y-26333338D01*
X49660948Y-26131779D01*
X49663481Y-26128331D01*
X49663485Y-26128326D01*
X49824572Y-25909032D01*
X49827110Y-25905577D01*
X49961036Y-25658916D01*
X50045476Y-25435453D01*
X50058729Y-25400380D01*
X50058730Y-25400376D01*
X50060247Y-25396362D01*
X50122907Y-25122773D01*
X50147857Y-24843211D01*
X50148310Y-24800000D01*
X50129220Y-24519977D01*
X50123923Y-24494396D01*
X50073172Y-24249332D01*
X50072303Y-24245135D01*
X49978612Y-23980561D01*
X49968401Y-23960776D01*
X49851847Y-23734957D01*
X49851847Y-23734956D01*
X49849882Y-23731150D01*
X49839595Y-23716512D01*
X49699019Y-23516494D01*
X49688493Y-23501517D01*
X49594154Y-23399996D01*
X49500354Y-23299055D01*
X49500351Y-23299052D01*
X49497433Y-23295912D01*
X49280237Y-23118139D01*
X49052463Y-22978559D01*
X49044580Y-22973728D01*
X49040923Y-22971487D01*
X49027221Y-22965472D01*
X48787853Y-22860397D01*
X48783921Y-22858671D01*
X48764519Y-22853144D01*
X48518114Y-22782954D01*
X48518115Y-22782954D01*
X48513986Y-22781778D01*
X48308217Y-22752493D01*
X48240365Y-22742836D01*
X48240363Y-22742836D01*
X48236113Y-22742231D01*
X48231824Y-22742209D01*
X48231817Y-22742208D01*
X47959730Y-22740783D01*
X47959723Y-22740783D01*
X47955444Y-22740761D01*
X47951199Y-22741320D01*
X47951197Y-22741320D01*
X47887813Y-22749665D01*
X47677172Y-22777397D01*
X47406446Y-22851459D01*
X47148277Y-22961577D01*
X47009292Y-23044758D01*
X46911123Y-23103511D01*
X46911119Y-23103514D01*
X46907441Y-23105715D01*
X46688395Y-23281204D01*
X46685451Y-23284306D01*
X46685447Y-23284310D01*
X46500858Y-23478826D01*
X46495192Y-23484797D01*
X46331408Y-23712727D01*
X46200073Y-23960776D01*
X46198601Y-23964799D01*
X46198599Y-23964803D01*
X46169763Y-24043602D01*
X46103616Y-24224355D01*
X46043825Y-24498585D01*
X46021803Y-24778393D01*
X46037960Y-25058601D01*
X46038785Y-25062806D01*
X46038786Y-25062814D01*
X46049711Y-25118497D01*
X46091996Y-25334024D01*
X46093383Y-25338074D01*
X46093384Y-25338079D01*
X46126723Y-25435453D01*
X46182911Y-25599565D01*
X46309022Y-25850310D01*
X46311448Y-25853839D01*
X46311451Y-25853845D01*
X46420012Y-26011801D01*
X46467997Y-26081620D01*
X46656894Y-26289215D01*
X46660183Y-26291965D01*
X46868925Y-26466501D01*
X46868930Y-26466505D01*
X46872217Y-26469253D01*
X46927424Y-26503884D01*
X47106341Y-26616119D01*
X47106345Y-26616121D01*
X47109981Y-26618402D01*
X47365788Y-26733903D01*
X47369907Y-26735123D01*
X47403852Y-26745178D01*
X47463486Y-26783703D01*
X47492826Y-26848354D01*
X47482555Y-26918604D01*
X47435934Y-26972149D01*
X47368066Y-26991989D01*
X41480083Y-26991989D01*
X41411962Y-26971987D01*
X41390988Y-26955084D01*
X34011318Y-19575413D01*
X33977292Y-19513101D01*
X33982357Y-19442286D01*
X34024904Y-19385450D01*
X34091424Y-19360639D01*
X34105024Y-19360403D01*
X34121698Y-19361015D01*
X34136674Y-19361564D01*
X34136678Y-19361564D01*
X34141837Y-19361753D01*
X34146957Y-19361097D01*
X34146959Y-19361097D01*
X34358288Y-19334025D01*
X34358289Y-19334025D01*
X34363416Y-19333368D01*
X34402434Y-19321662D01*
X34572429Y-19270661D01*
X34572434Y-19270659D01*
X34577384Y-19269174D01*
X34777994Y-19170896D01*
X34959860Y-19041173D01*
X35118096Y-18883489D01*
X35177594Y-18800689D01*
X35248453Y-18702077D01*
X35249776Y-18703028D01*
X35296645Y-18659857D01*
X35366580Y-18647625D01*
X35432026Y-18675144D01*
X35459875Y-18706994D01*
X35519987Y-18805088D01*
X35666250Y-18973938D01*
X35838126Y-19116632D01*
X36031000Y-19229338D01*
X36239692Y-19309030D01*
X36244760Y-19310061D01*
X36244763Y-19310062D01*
X36352012Y-19331882D01*
X36458597Y-19353567D01*
X36463772Y-19353757D01*
X36463774Y-19353757D01*
X36676673Y-19361564D01*
X36676677Y-19361564D01*
X36681837Y-19361753D01*
X36686957Y-19361097D01*
X36686959Y-19361097D01*
X36898288Y-19334025D01*
X36898289Y-19334025D01*
X36903416Y-19333368D01*
X36942434Y-19321662D01*
X37112429Y-19270661D01*
X37112434Y-19270659D01*
X37117384Y-19269174D01*
X37317994Y-19170896D01*
X37499860Y-19041173D01*
X37658096Y-18883489D01*
X37717594Y-18800689D01*
X37788453Y-18702077D01*
X37789776Y-18703028D01*
X37836645Y-18659857D01*
X37906580Y-18647625D01*
X37972026Y-18675144D01*
X37999875Y-18706994D01*
X38059987Y-18805088D01*
X38206250Y-18973938D01*
X38378126Y-19116632D01*
X38571000Y-19229338D01*
X38779692Y-19309030D01*
X38784760Y-19310061D01*
X38784763Y-19310062D01*
X38892012Y-19331882D01*
X38998597Y-19353567D01*
X39003772Y-19353757D01*
X39003774Y-19353757D01*
X39216673Y-19361564D01*
X39216677Y-19361564D01*
X39221837Y-19361753D01*
X39226957Y-19361097D01*
X39226959Y-19361097D01*
X39438288Y-19334025D01*
X39438289Y-19334025D01*
X39443416Y-19333368D01*
X39482434Y-19321662D01*
X39652429Y-19270661D01*
X39652434Y-19270659D01*
X39657384Y-19269174D01*
X39857994Y-19170896D01*
X40039860Y-19041173D01*
X40198096Y-18883489D01*
X40257594Y-18800689D01*
X40328453Y-18702077D01*
X40329776Y-18703028D01*
X40376645Y-18659857D01*
X40446580Y-18647625D01*
X40512026Y-18675144D01*
X40539875Y-18706994D01*
X40599987Y-18805088D01*
X40746250Y-18973938D01*
X40918126Y-19116632D01*
X41111000Y-19229338D01*
X41319692Y-19309030D01*
X41324760Y-19310061D01*
X41324763Y-19310062D01*
X41432012Y-19331882D01*
X41538597Y-19353567D01*
X41543772Y-19353757D01*
X41543774Y-19353757D01*
X41756673Y-19361564D01*
X41756677Y-19361564D01*
X41761837Y-19361753D01*
X41766957Y-19361097D01*
X41766959Y-19361097D01*
X41978288Y-19334025D01*
X41978289Y-19334025D01*
X41983416Y-19333368D01*
X42022434Y-19321662D01*
X42192429Y-19270661D01*
X42192434Y-19270659D01*
X42197384Y-19269174D01*
X42397994Y-19170896D01*
X42579860Y-19041173D01*
X42738096Y-18883489D01*
X42797594Y-18800689D01*
X42868453Y-18702077D01*
X42869776Y-18703028D01*
X42916645Y-18659857D01*
X42986580Y-18647625D01*
X43052026Y-18675144D01*
X43079875Y-18706994D01*
X43139987Y-18805088D01*
X43286250Y-18973938D01*
X43458126Y-19116632D01*
X43651000Y-19229338D01*
X43859692Y-19309030D01*
X43864760Y-19310061D01*
X43864763Y-19310062D01*
X43972012Y-19331882D01*
X44078597Y-19353567D01*
X44083772Y-19353757D01*
X44083774Y-19353757D01*
X44296673Y-19361564D01*
X44296677Y-19361564D01*
X44301837Y-19361753D01*
X44306957Y-19361097D01*
X44306959Y-19361097D01*
X44518288Y-19334025D01*
X44518289Y-19334025D01*
X44523416Y-19333368D01*
X44562434Y-19321662D01*
X44732429Y-19270661D01*
X44732434Y-19270659D01*
X44737384Y-19269174D01*
X44937994Y-19170896D01*
X45119860Y-19041173D01*
X45278096Y-18883489D01*
X45337594Y-18800689D01*
X45408453Y-18702077D01*
X45409776Y-18703028D01*
X45456645Y-18659857D01*
X45526580Y-18647625D01*
X45592026Y-18675144D01*
X45619875Y-18706994D01*
X45679987Y-18805088D01*
X45826250Y-18973938D01*
X45998126Y-19116632D01*
X46191000Y-19229338D01*
X46399692Y-19309030D01*
X46404760Y-19310061D01*
X46404763Y-19310062D01*
X46512012Y-19331882D01*
X46618597Y-19353567D01*
X46623772Y-19353757D01*
X46623774Y-19353757D01*
X46836673Y-19361564D01*
X46836677Y-19361564D01*
X46841837Y-19361753D01*
X46846957Y-19361097D01*
X46846959Y-19361097D01*
X47058288Y-19334025D01*
X47058289Y-19334025D01*
X47063416Y-19333368D01*
X47102434Y-19321662D01*
X47272429Y-19270661D01*
X47272434Y-19270659D01*
X47277384Y-19269174D01*
X47477994Y-19170896D01*
X47659860Y-19041173D01*
X47818096Y-18883489D01*
X47877594Y-18800689D01*
X47948453Y-18702077D01*
X47949776Y-18703028D01*
X47996645Y-18659857D01*
X48066580Y-18647625D01*
X48132026Y-18675144D01*
X48159875Y-18706994D01*
X48219987Y-18805088D01*
X48366250Y-18973938D01*
X48538126Y-19116632D01*
X48731000Y-19229338D01*
X48939692Y-19309030D01*
X48944760Y-19310061D01*
X48944763Y-19310062D01*
X49052012Y-19331882D01*
X49158597Y-19353567D01*
X49163772Y-19353757D01*
X49163774Y-19353757D01*
X49376673Y-19361564D01*
X49376677Y-19361564D01*
X49381837Y-19361753D01*
X49386957Y-19361097D01*
X49386959Y-19361097D01*
X49598288Y-19334025D01*
X49598289Y-19334025D01*
X49603416Y-19333368D01*
X49642434Y-19321662D01*
X49812429Y-19270661D01*
X49812434Y-19270659D01*
X49817384Y-19269174D01*
X50017994Y-19170896D01*
X50199860Y-19041173D01*
X50358096Y-18883489D01*
X50417594Y-18800689D01*
X50488453Y-18702077D01*
X50489776Y-18703028D01*
X50536645Y-18659857D01*
X50606580Y-18647625D01*
X50672026Y-18675144D01*
X50699875Y-18706994D01*
X50759987Y-18805088D01*
X50906250Y-18973938D01*
X51078126Y-19116632D01*
X51271000Y-19229338D01*
X51479692Y-19309030D01*
X51484760Y-19310061D01*
X51484763Y-19310062D01*
X51592012Y-19331882D01*
X51698597Y-19353567D01*
X51703772Y-19353757D01*
X51703774Y-19353757D01*
X51916673Y-19361564D01*
X51916677Y-19361564D01*
X51921837Y-19361753D01*
X51926957Y-19361097D01*
X51926959Y-19361097D01*
X52138288Y-19334025D01*
X52138289Y-19334025D01*
X52143416Y-19333368D01*
X52148367Y-19331883D01*
X52148370Y-19331882D01*
X52189829Y-19319444D01*
X52260825Y-19319028D01*
X52315131Y-19351035D01*
X55856348Y-22892253D01*
X55863888Y-22900539D01*
X55868000Y-22907018D01*
X55873777Y-22912443D01*
X55917651Y-22953643D01*
X55920493Y-22956398D01*
X55940230Y-22976135D01*
X55943427Y-22978615D01*
X55952447Y-22986318D01*
X55984679Y-23016586D01*
X55991625Y-23020405D01*
X55991628Y-23020407D01*
X56002434Y-23026348D01*
X56018953Y-23037199D01*
X56034959Y-23049614D01*
X56042228Y-23052759D01*
X56042232Y-23052762D01*
X56075537Y-23067174D01*
X56086187Y-23072391D01*
X56124940Y-23093695D01*
X56132615Y-23095666D01*
X56132616Y-23095666D01*
X56144562Y-23098733D01*
X56163266Y-23105137D01*
X56170800Y-23108397D01*
X56181855Y-23113181D01*
X56189678Y-23114420D01*
X56189688Y-23114423D01*
X56225524Y-23120099D01*
X56237144Y-23122505D01*
X56268959Y-23130673D01*
X56279970Y-23133500D01*
X56300224Y-23133500D01*
X56319934Y-23135051D01*
X56339943Y-23138220D01*
X56347835Y-23137474D01*
X56373467Y-23135051D01*
X56383962Y-23134059D01*
X56395819Y-23133500D01*
X68859511Y-23133500D01*
X68927632Y-23153502D01*
X68970502Y-23199861D01*
X69080398Y-23404386D01*
X69229668Y-23604283D01*
X69406844Y-23779921D01*
X69410606Y-23782679D01*
X69410609Y-23782682D01*
X69522139Y-23864458D01*
X69608036Y-23927440D01*
X69612175Y-23929617D01*
X69616138Y-23932094D01*
X69615401Y-23933273D01*
X69661957Y-23978409D01*
X69678121Y-24047541D01*
X69654344Y-24114438D01*
X69598174Y-24157860D01*
X69552318Y-24166500D01*
X54963505Y-24166500D01*
X54895384Y-24146498D01*
X54848891Y-24092842D01*
X54844732Y-24082560D01*
X54810043Y-23984602D01*
X54808612Y-23980561D01*
X54798401Y-23960776D01*
X54681847Y-23734957D01*
X54681847Y-23734956D01*
X54679882Y-23731150D01*
X54669595Y-23716512D01*
X54529019Y-23516494D01*
X54518493Y-23501517D01*
X54424154Y-23399996D01*
X54330354Y-23299055D01*
X54330351Y-23299052D01*
X54327433Y-23295912D01*
X54110237Y-23118139D01*
X53882463Y-22978559D01*
X53874580Y-22973728D01*
X53870923Y-22971487D01*
X53857221Y-22965472D01*
X53617853Y-22860397D01*
X53613921Y-22858671D01*
X53594519Y-22853144D01*
X53348114Y-22782954D01*
X53348115Y-22782954D01*
X53343986Y-22781778D01*
X53138217Y-22752493D01*
X53070365Y-22742836D01*
X53070363Y-22742836D01*
X53066113Y-22742231D01*
X53061824Y-22742209D01*
X53061817Y-22742208D01*
X52789730Y-22740783D01*
X52789723Y-22740783D01*
X52785444Y-22740761D01*
X52781199Y-22741320D01*
X52781197Y-22741320D01*
X52717813Y-22749665D01*
X52507172Y-22777397D01*
X52236446Y-22851459D01*
X51978277Y-22961577D01*
X51839292Y-23044758D01*
X51741123Y-23103511D01*
X51741119Y-23103514D01*
X51737441Y-23105715D01*
X51518395Y-23281204D01*
X51515451Y-23284306D01*
X51515447Y-23284310D01*
X51330858Y-23478826D01*
X51325192Y-23484797D01*
X51161408Y-23712727D01*
X51030073Y-23960776D01*
X51028601Y-23964799D01*
X51028599Y-23964803D01*
X50999763Y-24043602D01*
X50933616Y-24224355D01*
X50873825Y-24498585D01*
X50851803Y-24778393D01*
X50867960Y-25058601D01*
X50868785Y-25062806D01*
X50868786Y-25062814D01*
X50879711Y-25118497D01*
X50921996Y-25334024D01*
X50923383Y-25338074D01*
X50923384Y-25338079D01*
X50956723Y-25435453D01*
X51012911Y-25599565D01*
X51139022Y-25850310D01*
X51141448Y-25853839D01*
X51141451Y-25853845D01*
X51250012Y-26011801D01*
X51297997Y-26081620D01*
X51486894Y-26289215D01*
X51490183Y-26291965D01*
X51698925Y-26466501D01*
X51698930Y-26466505D01*
X51702217Y-26469253D01*
X51757424Y-26503884D01*
X51936341Y-26616119D01*
X51936345Y-26616121D01*
X51939981Y-26618402D01*
X52195788Y-26733903D01*
X52199907Y-26735123D01*
X52460790Y-26812401D01*
X52460795Y-26812402D01*
X52464903Y-26813619D01*
X52469137Y-26814267D01*
X52469142Y-26814268D01*
X52713514Y-26851662D01*
X52742347Y-26856074D01*
X52885292Y-26858319D01*
X53018694Y-26860415D01*
X53018700Y-26860415D01*
X53022985Y-26860482D01*
X53301626Y-26826763D01*
X53573112Y-26755540D01*
X53577072Y-26753900D01*
X53577077Y-26753898D01*
X53716600Y-26696105D01*
X53832420Y-26648131D01*
X53883296Y-26618402D01*
X54071054Y-26508685D01*
X54071055Y-26508685D01*
X54074752Y-26506524D01*
X54295624Y-26333338D01*
X54490948Y-26131779D01*
X54493481Y-26128331D01*
X54493485Y-26128326D01*
X54654572Y-25909032D01*
X54657110Y-25905577D01*
X54791036Y-25658916D01*
X54845432Y-25514962D01*
X54888222Y-25458309D01*
X54954848Y-25433784D01*
X54963298Y-25433500D01*
X78121233Y-25433500D01*
X78132416Y-25434027D01*
X78139909Y-25435702D01*
X78147835Y-25435453D01*
X78147836Y-25435453D01*
X78207986Y-25433562D01*
X78211945Y-25433500D01*
X78239856Y-25433500D01*
X78243791Y-25433003D01*
X78243856Y-25432995D01*
X78255693Y-25432062D01*
X78287951Y-25431048D01*
X78291970Y-25430922D01*
X78299889Y-25430673D01*
X78319343Y-25425021D01*
X78338700Y-25421013D01*
X78350930Y-25419468D01*
X78350931Y-25419468D01*
X78358797Y-25418474D01*
X78366168Y-25415555D01*
X78366170Y-25415555D01*
X78399912Y-25402196D01*
X78411142Y-25398351D01*
X78445983Y-25388229D01*
X78445984Y-25388229D01*
X78453593Y-25386018D01*
X78460412Y-25381985D01*
X78460417Y-25381983D01*
X78471028Y-25375707D01*
X78488776Y-25367012D01*
X78507617Y-25359552D01*
X78543387Y-25333564D01*
X78553307Y-25327048D01*
X78584535Y-25308580D01*
X78584538Y-25308578D01*
X78591362Y-25304542D01*
X78605683Y-25290221D01*
X78620717Y-25277380D01*
X78630694Y-25270131D01*
X78637107Y-25265472D01*
X78665298Y-25231395D01*
X78673288Y-25222616D01*
X79790281Y-24105623D01*
X79852593Y-24071597D01*
X79920917Y-24075763D01*
X80059937Y-24124311D01*
X80059943Y-24124313D01*
X80064354Y-24125853D01*
X80068947Y-24126725D01*
X80304867Y-24171516D01*
X80304870Y-24171516D01*
X80309456Y-24172387D01*
X80434100Y-24177285D01*
X80554075Y-24181999D01*
X80554081Y-24181999D01*
X80558743Y-24182182D01*
X80648181Y-24172387D01*
X80802087Y-24155532D01*
X80802092Y-24155531D01*
X80806740Y-24155022D01*
X80839116Y-24146498D01*
X81043476Y-24092694D01*
X81043478Y-24092693D01*
X81047999Y-24091503D01*
X81053399Y-24089183D01*
X81272924Y-23994868D01*
X81272926Y-23994867D01*
X81277218Y-23993023D01*
X81379679Y-23929618D01*
X81485391Y-23864202D01*
X81485395Y-23864199D01*
X81489364Y-23861743D01*
X81589900Y-23776633D01*
X81676209Y-23703567D01*
X81676210Y-23703566D01*
X81679775Y-23700548D01*
X81761316Y-23607569D01*
X81841187Y-23516494D01*
X81841191Y-23516489D01*
X81844269Y-23512979D01*
X81860803Y-23487275D01*
X81976703Y-23307087D01*
X81979231Y-23303157D01*
X82081697Y-23075691D01*
X82088164Y-23052762D01*
X82148146Y-22840082D01*
X82148147Y-22840079D01*
X82149416Y-22835578D01*
X82180900Y-22588092D01*
X82180984Y-22584909D01*
X82182243Y-22536828D01*
X82183207Y-22500000D01*
X82164718Y-22251206D01*
X82109659Y-22007878D01*
X82095164Y-21970605D01*
X82020931Y-21779714D01*
X82020930Y-21779711D01*
X82019238Y-21775361D01*
X81994494Y-21732067D01*
X81912123Y-21587949D01*
X81895442Y-21558763D01*
X81740990Y-21362842D01*
X81559276Y-21191902D01*
X81443160Y-21111350D01*
X81358130Y-21052362D01*
X81358125Y-21052359D01*
X81354292Y-21049700D01*
X81350110Y-21047637D01*
X81350102Y-21047633D01*
X81134728Y-20941423D01*
X81134725Y-20941422D01*
X81130540Y-20939358D01*
X80892937Y-20863300D01*
X80888330Y-20862550D01*
X80888327Y-20862549D01*
X80651312Y-20823949D01*
X80651313Y-20823949D01*
X80646701Y-20823198D01*
X80525753Y-20821615D01*
X80401920Y-20819994D01*
X80401917Y-20819994D01*
X80397243Y-20819933D01*
X80150042Y-20853575D01*
X80145556Y-20854883D01*
X80145554Y-20854883D01*
X80117576Y-20863038D01*
X79910528Y-20923387D01*
X79906275Y-20925347D01*
X79906274Y-20925348D01*
X79878971Y-20937935D01*
X79683965Y-21027834D01*
X79653767Y-21047633D01*
X79479242Y-21162056D01*
X79479237Y-21162060D01*
X79475329Y-21164622D01*
X79289202Y-21330746D01*
X79129675Y-21522557D01*
X79000252Y-21735840D01*
X78998443Y-21740154D01*
X78998442Y-21740156D01*
X78945462Y-21866500D01*
X78903775Y-21965911D01*
X78902624Y-21970443D01*
X78902623Y-21970446D01*
X78894185Y-22003671D01*
X78842365Y-22207714D01*
X78817370Y-22455939D01*
X78817594Y-22460606D01*
X78817594Y-22460611D01*
X78823354Y-22580535D01*
X78829339Y-22705131D01*
X78878010Y-22949818D01*
X78879586Y-22954209D01*
X78879589Y-22954218D01*
X78924001Y-23077915D01*
X78928195Y-23148787D01*
X78894508Y-23209587D01*
X77974500Y-24129595D01*
X77912188Y-24163621D01*
X77885405Y-24166500D01*
X76439942Y-24166500D01*
X76371821Y-24146498D01*
X76325328Y-24092842D01*
X76315224Y-24022568D01*
X76344718Y-23957988D01*
X76373639Y-23933356D01*
X76485391Y-23864202D01*
X76485395Y-23864199D01*
X76489364Y-23861743D01*
X76589900Y-23776633D01*
X76676209Y-23703567D01*
X76676210Y-23703566D01*
X76679775Y-23700548D01*
X76761316Y-23607569D01*
X76841187Y-23516494D01*
X76841191Y-23516489D01*
X76844269Y-23512979D01*
X76860803Y-23487275D01*
X76976703Y-23307087D01*
X76979231Y-23303157D01*
X77081697Y-23075691D01*
X77088164Y-23052762D01*
X77148146Y-22840082D01*
X77148147Y-22840079D01*
X77149416Y-22835578D01*
X77180900Y-22588092D01*
X77180984Y-22584909D01*
X77182243Y-22536828D01*
X77183207Y-22500000D01*
X77164718Y-22251206D01*
X77109659Y-22007878D01*
X77095164Y-21970605D01*
X77020931Y-21779714D01*
X77020930Y-21779711D01*
X77019238Y-21775361D01*
X76994494Y-21732067D01*
X76912123Y-21587949D01*
X76895442Y-21558763D01*
X76740990Y-21362842D01*
X76559276Y-21191902D01*
X76443160Y-21111350D01*
X76358130Y-21052362D01*
X76358125Y-21052359D01*
X76354292Y-21049700D01*
X76350110Y-21047637D01*
X76350102Y-21047633D01*
X76134728Y-20941423D01*
X76134725Y-20941422D01*
X76130540Y-20939358D01*
X75892937Y-20863300D01*
X75888330Y-20862550D01*
X75888327Y-20862549D01*
X75651312Y-20823949D01*
X75651313Y-20823949D01*
X75646701Y-20823198D01*
X75525753Y-20821615D01*
X75401920Y-20819994D01*
X75401917Y-20819994D01*
X75397243Y-20819933D01*
X75150042Y-20853575D01*
X75145556Y-20854883D01*
X75145554Y-20854883D01*
X75117576Y-20863038D01*
X74910528Y-20923387D01*
X74906275Y-20925347D01*
X74906274Y-20925348D01*
X74878971Y-20937935D01*
X74683965Y-21027834D01*
X74653767Y-21047633D01*
X74479242Y-21162056D01*
X74479237Y-21162060D01*
X74475329Y-21164622D01*
X74289202Y-21330746D01*
X74129675Y-21522557D01*
X74105070Y-21563105D01*
X74002680Y-21731839D01*
X74000252Y-21735840D01*
X73981856Y-21779711D01*
X73977866Y-21789225D01*
X73933078Y-21844311D01*
X73861669Y-21866500D01*
X72140873Y-21866500D01*
X72072752Y-21846498D01*
X72026259Y-21792842D01*
X72023439Y-21786165D01*
X72019238Y-21775361D01*
X71994494Y-21732067D01*
X71912123Y-21587949D01*
X71895442Y-21558763D01*
X71740990Y-21362842D01*
X71559276Y-21191902D01*
X71443160Y-21111350D01*
X71358130Y-21052362D01*
X71358125Y-21052359D01*
X71354292Y-21049700D01*
X71350110Y-21047637D01*
X71350102Y-21047633D01*
X71134728Y-20941423D01*
X71134725Y-20941422D01*
X71130540Y-20939358D01*
X70892937Y-20863300D01*
X70888330Y-20862550D01*
X70888327Y-20862549D01*
X70651312Y-20823949D01*
X70651313Y-20823949D01*
X70646701Y-20823198D01*
X70525753Y-20821615D01*
X70401920Y-20819994D01*
X70401917Y-20819994D01*
X70397243Y-20819933D01*
X70150042Y-20853575D01*
X70145556Y-20854883D01*
X70145554Y-20854883D01*
X70117576Y-20863038D01*
X69910528Y-20923387D01*
X69906275Y-20925347D01*
X69906274Y-20925348D01*
X69878971Y-20937935D01*
X69683965Y-21027834D01*
X69653767Y-21047633D01*
X69479242Y-21162056D01*
X69479237Y-21162060D01*
X69475329Y-21164622D01*
X69289202Y-21330746D01*
X69129675Y-21522557D01*
X69105070Y-21563105D01*
X69002680Y-21731839D01*
X69000252Y-21735840D01*
X68981856Y-21779711D01*
X68977866Y-21789225D01*
X68933078Y-21844311D01*
X68861669Y-21866500D01*
X56674594Y-21866500D01*
X56606473Y-21846498D01*
X56585499Y-21829595D01*
X55575837Y-20819933D01*
X54182904Y-19426999D01*
X54148879Y-19364689D01*
X54146213Y-19339884D01*
X54654000Y-19339884D01*
X54658475Y-19355123D01*
X54659865Y-19356328D01*
X54667548Y-19357999D01*
X55294669Y-19357999D01*
X55301490Y-19357629D01*
X55352352Y-19352105D01*
X55367604Y-19348479D01*
X55488054Y-19303324D01*
X55503649Y-19294786D01*
X55605724Y-19218285D01*
X55618285Y-19205724D01*
X55694786Y-19103649D01*
X55703324Y-19088054D01*
X55748478Y-18967606D01*
X55752105Y-18952351D01*
X55757631Y-18901486D01*
X55758000Y-18894672D01*
X55758000Y-18272115D01*
X55753525Y-18256876D01*
X55752135Y-18255671D01*
X55744452Y-18254000D01*
X54672115Y-18254000D01*
X54656876Y-18258475D01*
X54655671Y-18259865D01*
X54654000Y-18267548D01*
X54654000Y-19339884D01*
X54146213Y-19339884D01*
X54146000Y-19337906D01*
X54146000Y-17872000D01*
X54166002Y-17803879D01*
X54219658Y-17757386D01*
X54272000Y-17746000D01*
X55739884Y-17746000D01*
X55755123Y-17741525D01*
X55756328Y-17740135D01*
X55757999Y-17732452D01*
X55757999Y-17584989D01*
X55778001Y-17516868D01*
X55831657Y-17470375D01*
X55883999Y-17458989D01*
X66509895Y-17458989D01*
X66578016Y-17478991D01*
X66598990Y-17495894D01*
X68489854Y-19386758D01*
X68497398Y-19395048D01*
X68501511Y-19401529D01*
X68507288Y-19406954D01*
X68551178Y-19448169D01*
X68554020Y-19450924D01*
X68573741Y-19470645D01*
X68576936Y-19473123D01*
X68585958Y-19480829D01*
X68618190Y-19511097D01*
X68625139Y-19514917D01*
X68635943Y-19520857D01*
X68652467Y-19531710D01*
X68668470Y-19544124D01*
X68709054Y-19561687D01*
X68719684Y-19566894D01*
X68758451Y-19588206D01*
X68766128Y-19590177D01*
X68766133Y-19590179D01*
X68778069Y-19593243D01*
X68796777Y-19599648D01*
X68815366Y-19607692D01*
X68823191Y-19608931D01*
X68823193Y-19608932D01*
X68859030Y-19614608D01*
X68870651Y-19617015D01*
X68902470Y-19625184D01*
X68913481Y-19628011D01*
X68933742Y-19628011D01*
X68953451Y-19629562D01*
X68973454Y-19632730D01*
X68981346Y-19631984D01*
X68986573Y-19631490D01*
X69017465Y-19628570D01*
X69029322Y-19628011D01*
X78926722Y-19628011D01*
X78937905Y-19628538D01*
X78945398Y-19630213D01*
X78953324Y-19629964D01*
X78953325Y-19629964D01*
X79013475Y-19628073D01*
X79017434Y-19628011D01*
X79045345Y-19628011D01*
X79049280Y-19627514D01*
X79049345Y-19627506D01*
X79061182Y-19626573D01*
X79093440Y-19625559D01*
X79097459Y-19625433D01*
X79105378Y-19625184D01*
X79124832Y-19619532D01*
X79144189Y-19615524D01*
X79156419Y-19613979D01*
X79156420Y-19613979D01*
X79164286Y-19612985D01*
X79171657Y-19610066D01*
X79171659Y-19610066D01*
X79205401Y-19596707D01*
X79216631Y-19592862D01*
X79251472Y-19582740D01*
X79251473Y-19582740D01*
X79259082Y-19580529D01*
X79265901Y-19576496D01*
X79265906Y-19576494D01*
X79276517Y-19570218D01*
X79294265Y-19561523D01*
X79313106Y-19554063D01*
X79333476Y-19539264D01*
X79348876Y-19528075D01*
X79358796Y-19521559D01*
X79390024Y-19503091D01*
X79390027Y-19503089D01*
X79396851Y-19499053D01*
X79411172Y-19484732D01*
X79426206Y-19471891D01*
X79427921Y-19470645D01*
X79442596Y-19459983D01*
X79470787Y-19425906D01*
X79478777Y-19417127D01*
X79790281Y-19105623D01*
X79852593Y-19071597D01*
X79920917Y-19075763D01*
X80059937Y-19124311D01*
X80059943Y-19124313D01*
X80064354Y-19125853D01*
X80068947Y-19126725D01*
X80304867Y-19171516D01*
X80304870Y-19171516D01*
X80309456Y-19172387D01*
X80434100Y-19177285D01*
X80554075Y-19181999D01*
X80554081Y-19181999D01*
X80558743Y-19182182D01*
X80656134Y-19171516D01*
X80802087Y-19155532D01*
X80802092Y-19155531D01*
X80806740Y-19155022D01*
X80811264Y-19153831D01*
X81043476Y-19092694D01*
X81043478Y-19092693D01*
X81047999Y-19091503D01*
X81094332Y-19071597D01*
X81272924Y-18994868D01*
X81272926Y-18994867D01*
X81277218Y-18993023D01*
X81425140Y-18901486D01*
X81485391Y-18864202D01*
X81485395Y-18864199D01*
X81489364Y-18861743D01*
X81679775Y-18700548D01*
X81726187Y-18647625D01*
X81841187Y-18516494D01*
X81841191Y-18516489D01*
X81844269Y-18512979D01*
X81851453Y-18501811D01*
X81976703Y-18307087D01*
X81979231Y-18303157D01*
X82081697Y-18075691D01*
X82149416Y-17835578D01*
X82163434Y-17725386D01*
X82180502Y-17591222D01*
X82180502Y-17591218D01*
X82180900Y-17588092D01*
X82183207Y-17500000D01*
X82164718Y-17251206D01*
X82109659Y-17007878D01*
X82106536Y-16999848D01*
X82020931Y-16779714D01*
X82020930Y-16779711D01*
X82019238Y-16775361D01*
X82007551Y-16754912D01*
X81943491Y-16642831D01*
X81895442Y-16558763D01*
X81740990Y-16362842D01*
X81559276Y-16191902D01*
X81443160Y-16111350D01*
X81358130Y-16052362D01*
X81358125Y-16052359D01*
X81354292Y-16049700D01*
X81350110Y-16047637D01*
X81350102Y-16047633D01*
X81134728Y-15941423D01*
X81134725Y-15941422D01*
X81130540Y-15939358D01*
X80892937Y-15863300D01*
X80888330Y-15862550D01*
X80888327Y-15862549D01*
X80651312Y-15823949D01*
X80651313Y-15823949D01*
X80646701Y-15823198D01*
X80525753Y-15821615D01*
X80401920Y-15819994D01*
X80401917Y-15819994D01*
X80397243Y-15819933D01*
X80150042Y-15853575D01*
X80145556Y-15854883D01*
X80145554Y-15854883D01*
X80102617Y-15867398D01*
X79910528Y-15923387D01*
X79906275Y-15925347D01*
X79906274Y-15925348D01*
X79858563Y-15947343D01*
X79683965Y-16027834D01*
X79680056Y-16030397D01*
X79479242Y-16162056D01*
X79479237Y-16162060D01*
X79475329Y-16164622D01*
X79289202Y-16330746D01*
X79129675Y-16522557D01*
X79000252Y-16735840D01*
X78998443Y-16740154D01*
X78998442Y-16740156D01*
X78945462Y-16866500D01*
X78903775Y-16965911D01*
X78902624Y-16970443D01*
X78902623Y-16970446D01*
X78886328Y-17034610D01*
X78842365Y-17207714D01*
X78817370Y-17455939D01*
X78817594Y-17460606D01*
X78817594Y-17460611D01*
X78822402Y-17560702D01*
X78829339Y-17705131D01*
X78878010Y-17949818D01*
X78879586Y-17954209D01*
X78879589Y-17954218D01*
X78924001Y-18077915D01*
X78928195Y-18148787D01*
X78894508Y-18209587D01*
X78779989Y-18324106D01*
X78717677Y-18358132D01*
X78690894Y-18361011D01*
X77148123Y-18361011D01*
X77080002Y-18341009D01*
X77033509Y-18287353D01*
X77023405Y-18217079D01*
X77033241Y-18183261D01*
X77079774Y-18079960D01*
X77079776Y-18079955D01*
X77081697Y-18075691D01*
X77149416Y-17835578D01*
X77163434Y-17725386D01*
X77180502Y-17591222D01*
X77180502Y-17591218D01*
X77180900Y-17588092D01*
X77183207Y-17500000D01*
X77164718Y-17251206D01*
X77109659Y-17007878D01*
X77106536Y-16999848D01*
X77020931Y-16779714D01*
X77020930Y-16779711D01*
X77019238Y-16775361D01*
X77007551Y-16754912D01*
X76943491Y-16642831D01*
X76895442Y-16558763D01*
X76740990Y-16362842D01*
X76559276Y-16191902D01*
X76443160Y-16111350D01*
X76358130Y-16052362D01*
X76358125Y-16052359D01*
X76354292Y-16049700D01*
X76350110Y-16047637D01*
X76350102Y-16047633D01*
X76134728Y-15941423D01*
X76134725Y-15941422D01*
X76130540Y-15939358D01*
X75892937Y-15863300D01*
X75888330Y-15862550D01*
X75888327Y-15862549D01*
X75651312Y-15823949D01*
X75651313Y-15823949D01*
X75646701Y-15823198D01*
X75525753Y-15821615D01*
X75401920Y-15819994D01*
X75401917Y-15819994D01*
X75397243Y-15819933D01*
X75150042Y-15853575D01*
X75145556Y-15854883D01*
X75145554Y-15854883D01*
X75102617Y-15867398D01*
X74910528Y-15923387D01*
X74906275Y-15925347D01*
X74906274Y-15925348D01*
X74858563Y-15947343D01*
X74683965Y-16027834D01*
X74680056Y-16030397D01*
X74479242Y-16162056D01*
X74479237Y-16162060D01*
X74475329Y-16164622D01*
X74289202Y-16330746D01*
X74129675Y-16522557D01*
X74064964Y-16629198D01*
X74002680Y-16731839D01*
X74000252Y-16735840D01*
X73981856Y-16779711D01*
X73977866Y-16789225D01*
X73933078Y-16844311D01*
X73861669Y-16866500D01*
X72140873Y-16866500D01*
X72072752Y-16846498D01*
X72026259Y-16792842D01*
X72023439Y-16786165D01*
X72019238Y-16775361D01*
X72007551Y-16754912D01*
X71943491Y-16642831D01*
X71895442Y-16558763D01*
X71740990Y-16362842D01*
X71559276Y-16191902D01*
X71443160Y-16111350D01*
X71358130Y-16052362D01*
X71358125Y-16052359D01*
X71354292Y-16049700D01*
X71350110Y-16047637D01*
X71350102Y-16047633D01*
X71134728Y-15941423D01*
X71134725Y-15941422D01*
X71130540Y-15939358D01*
X70892937Y-15863300D01*
X70888330Y-15862550D01*
X70888327Y-15862549D01*
X70651312Y-15823949D01*
X70651313Y-15823949D01*
X70646701Y-15823198D01*
X70525753Y-15821615D01*
X70401920Y-15819994D01*
X70401917Y-15819994D01*
X70397243Y-15819933D01*
X70150042Y-15853575D01*
X70145556Y-15854883D01*
X70145554Y-15854883D01*
X69999788Y-15897370D01*
X69910624Y-15923359D01*
X69839628Y-15923218D01*
X69796233Y-15899223D01*
X69795750Y-15899845D01*
X69795748Y-15899843D01*
X69792551Y-15897363D01*
X69783529Y-15889658D01*
X69770100Y-15877047D01*
X69751299Y-15859392D01*
X69744353Y-15855573D01*
X69744350Y-15855571D01*
X69733544Y-15849630D01*
X69717025Y-15838779D01*
X69716561Y-15838419D01*
X69701019Y-15826364D01*
X69693750Y-15823219D01*
X69693746Y-15823216D01*
X69660441Y-15808804D01*
X69649791Y-15803587D01*
X69611038Y-15782283D01*
X69591415Y-15777245D01*
X69572712Y-15770841D01*
X69561398Y-15765945D01*
X69561397Y-15765945D01*
X69554123Y-15762797D01*
X69546300Y-15761558D01*
X69546297Y-15761557D01*
X69529829Y-15758949D01*
X69465676Y-15728536D01*
X69428150Y-15668267D01*
X69429164Y-15597278D01*
X69468398Y-15538106D01*
X69533393Y-15509539D01*
X69549541Y-15508500D01*
X85365500Y-15508500D01*
X85433621Y-15528502D01*
X85480114Y-15582158D01*
X85491500Y-15634500D01*
X85491500Y-54365500D01*
X85471498Y-54433621D01*
X85417842Y-54480114D01*
X85365500Y-54491500D01*
X53203965Y-54491500D01*
X53135844Y-54471498D01*
X53089351Y-54417842D01*
X53079247Y-54347568D01*
X53108741Y-54282988D01*
X53168467Y-54244604D01*
X53188828Y-54240413D01*
X53297362Y-54227279D01*
X53301626Y-54226763D01*
X53573112Y-54155540D01*
X53577072Y-54153900D01*
X53577077Y-54153898D01*
X53716600Y-54096105D01*
X53832420Y-54048131D01*
X53883296Y-54018402D01*
X54071054Y-53908685D01*
X54071055Y-53908685D01*
X54074752Y-53906524D01*
X54295624Y-53733338D01*
X54490948Y-53531779D01*
X54493481Y-53528331D01*
X54493485Y-53528326D01*
X54654572Y-53309032D01*
X54657110Y-53305577D01*
X54791036Y-53058916D01*
X54890247Y-52796362D01*
X54952907Y-52522773D01*
X54977857Y-52243211D01*
X54978310Y-52200000D01*
X54959220Y-51919977D01*
X54953923Y-51894396D01*
X54903172Y-51649332D01*
X54902303Y-51645135D01*
X54808612Y-51380561D01*
X54798401Y-51360776D01*
X54681847Y-51134957D01*
X54681847Y-51134956D01*
X54679882Y-51131150D01*
X54669595Y-51116512D01*
X54520956Y-50905022D01*
X54518493Y-50901517D01*
X54327433Y-50695912D01*
X54110237Y-50518139D01*
X53870923Y-50371487D01*
X53848348Y-50361577D01*
X53617853Y-50260397D01*
X53613921Y-50258671D01*
X53594519Y-50253144D01*
X53348114Y-50182954D01*
X53348115Y-50182954D01*
X53343986Y-50181778D01*
X53138217Y-50152493D01*
X53070365Y-50142836D01*
X53070363Y-50142836D01*
X53066113Y-50142231D01*
X53061824Y-50142209D01*
X53061817Y-50142208D01*
X52789730Y-50140783D01*
X52789723Y-50140783D01*
X52785444Y-50140761D01*
X52781199Y-50141320D01*
X52781197Y-50141320D01*
X52717813Y-50149665D01*
X52507172Y-50177397D01*
X52236446Y-50251459D01*
X51978277Y-50361577D01*
X51832721Y-50448691D01*
X51741123Y-50503511D01*
X51741119Y-50503514D01*
X51737441Y-50505715D01*
X51518395Y-50681204D01*
X51515451Y-50684306D01*
X51515447Y-50684310D01*
X51328142Y-50881688D01*
X51325192Y-50884797D01*
X51161408Y-51112727D01*
X51030073Y-51360776D01*
X51028601Y-51364799D01*
X51028599Y-51364803D01*
X51021354Y-51384602D01*
X50933616Y-51624355D01*
X50873825Y-51898585D01*
X50851803Y-52178393D01*
X50867960Y-52458601D01*
X50868785Y-52462806D01*
X50868786Y-52462814D01*
X50879711Y-52518497D01*
X50921996Y-52734024D01*
X50923383Y-52738074D01*
X50923384Y-52738079D01*
X51011522Y-52995509D01*
X51012911Y-52999565D01*
X51139022Y-53250310D01*
X51141448Y-53253839D01*
X51141451Y-53253845D01*
X51250012Y-53411801D01*
X51297997Y-53481620D01*
X51486894Y-53689215D01*
X51490183Y-53691965D01*
X51698925Y-53866501D01*
X51698930Y-53866505D01*
X51702217Y-53869253D01*
X51757424Y-53903884D01*
X51936341Y-54016119D01*
X51936345Y-54016121D01*
X51939981Y-54018402D01*
X52195788Y-54133903D01*
X52199907Y-54135123D01*
X52460790Y-54212401D01*
X52460795Y-54212402D01*
X52464903Y-54213619D01*
X52469137Y-54214267D01*
X52469142Y-54214268D01*
X52643511Y-54240950D01*
X52707822Y-54271026D01*
X52745664Y-54331097D01*
X52745022Y-54402090D01*
X52706100Y-54461467D01*
X52641255Y-54490375D01*
X52624452Y-54491500D01*
X48373965Y-54491500D01*
X48305844Y-54471498D01*
X48259351Y-54417842D01*
X48249247Y-54347568D01*
X48278741Y-54282988D01*
X48338467Y-54244604D01*
X48358828Y-54240413D01*
X48467362Y-54227279D01*
X48471626Y-54226763D01*
X48743112Y-54155540D01*
X48747072Y-54153900D01*
X48747077Y-54153898D01*
X48886600Y-54096105D01*
X49002420Y-54048131D01*
X49053296Y-54018402D01*
X49241054Y-53908685D01*
X49241055Y-53908685D01*
X49244752Y-53906524D01*
X49465624Y-53733338D01*
X49660948Y-53531779D01*
X49663481Y-53528331D01*
X49663485Y-53528326D01*
X49824572Y-53309032D01*
X49827110Y-53305577D01*
X49961036Y-53058916D01*
X50060247Y-52796362D01*
X50122907Y-52522773D01*
X50147857Y-52243211D01*
X50148310Y-52200000D01*
X50129220Y-51919977D01*
X50123923Y-51894396D01*
X50073172Y-51649332D01*
X50072303Y-51645135D01*
X49978612Y-51380561D01*
X49968401Y-51360776D01*
X49851847Y-51134957D01*
X49851847Y-51134956D01*
X49849882Y-51131150D01*
X49839595Y-51116512D01*
X49690956Y-50905022D01*
X49688493Y-50901517D01*
X49497433Y-50695912D01*
X49280237Y-50518139D01*
X49040923Y-50371487D01*
X49018348Y-50361577D01*
X48787853Y-50260397D01*
X48783921Y-50258671D01*
X48764519Y-50253144D01*
X48518114Y-50182954D01*
X48518115Y-50182954D01*
X48513986Y-50181778D01*
X48308217Y-50152493D01*
X48240365Y-50142836D01*
X48240363Y-50142836D01*
X48236113Y-50142231D01*
X48231824Y-50142209D01*
X48231817Y-50142208D01*
X47959730Y-50140783D01*
X47959723Y-50140783D01*
X47955444Y-50140761D01*
X47951199Y-50141320D01*
X47951197Y-50141320D01*
X47887813Y-50149665D01*
X47677172Y-50177397D01*
X47406446Y-50251459D01*
X47148277Y-50361577D01*
X47002721Y-50448691D01*
X46911123Y-50503511D01*
X46911119Y-50503514D01*
X46907441Y-50505715D01*
X46688395Y-50681204D01*
X46685451Y-50684306D01*
X46685447Y-50684310D01*
X46498142Y-50881688D01*
X46495192Y-50884797D01*
X46331408Y-51112727D01*
X46200073Y-51360776D01*
X46198601Y-51364799D01*
X46198599Y-51364803D01*
X46191354Y-51384602D01*
X46103616Y-51624355D01*
X46043825Y-51898585D01*
X46021803Y-52178393D01*
X46037960Y-52458601D01*
X46038785Y-52462806D01*
X46038786Y-52462814D01*
X46049711Y-52518497D01*
X46091996Y-52734024D01*
X46093383Y-52738074D01*
X46093384Y-52738079D01*
X46181522Y-52995509D01*
X46182911Y-52999565D01*
X46309022Y-53250310D01*
X46311448Y-53253839D01*
X46311451Y-53253845D01*
X46420012Y-53411801D01*
X46467997Y-53481620D01*
X46656894Y-53689215D01*
X46660183Y-53691965D01*
X46868925Y-53866501D01*
X46868930Y-53866505D01*
X46872217Y-53869253D01*
X46927424Y-53903884D01*
X47106341Y-54016119D01*
X47106345Y-54016121D01*
X47109981Y-54018402D01*
X47365788Y-54133903D01*
X47369907Y-54135123D01*
X47630790Y-54212401D01*
X47630795Y-54212402D01*
X47634903Y-54213619D01*
X47639137Y-54214267D01*
X47639142Y-54214268D01*
X47813511Y-54240950D01*
X47877822Y-54271026D01*
X47915664Y-54331097D01*
X47915022Y-54402090D01*
X47876100Y-54461467D01*
X47811255Y-54490375D01*
X47794452Y-54491500D01*
X15634500Y-54491500D01*
X15566379Y-54471498D01*
X15519886Y-54417842D01*
X15508500Y-54365500D01*
X15508500Y-47478393D01*
X46021803Y-47478393D01*
X46037960Y-47758601D01*
X46038785Y-47762806D01*
X46038786Y-47762814D01*
X46049711Y-47818497D01*
X46091996Y-48034024D01*
X46093383Y-48038074D01*
X46093384Y-48038079D01*
X46181522Y-48295509D01*
X46182911Y-48299565D01*
X46309022Y-48550310D01*
X46311448Y-48553839D01*
X46311451Y-48553845D01*
X46420012Y-48711801D01*
X46467997Y-48781620D01*
X46656894Y-48989215D01*
X46660183Y-48991965D01*
X46868925Y-49166501D01*
X46868930Y-49166505D01*
X46872217Y-49169253D01*
X46927424Y-49203884D01*
X47106341Y-49316119D01*
X47106345Y-49316121D01*
X47109981Y-49318402D01*
X47365788Y-49433903D01*
X47369907Y-49435123D01*
X47630790Y-49512401D01*
X47630795Y-49512402D01*
X47634903Y-49513619D01*
X47639137Y-49514267D01*
X47639142Y-49514268D01*
X47883514Y-49551662D01*
X47912347Y-49556074D01*
X48055292Y-49558319D01*
X48188694Y-49560415D01*
X48188700Y-49560415D01*
X48192985Y-49560482D01*
X48471626Y-49526763D01*
X48743112Y-49455540D01*
X48747072Y-49453900D01*
X48747077Y-49453898D01*
X48886600Y-49396105D01*
X49002420Y-49348131D01*
X49053296Y-49318402D01*
X49241054Y-49208685D01*
X49241055Y-49208685D01*
X49244752Y-49206524D01*
X49465624Y-49033338D01*
X49660948Y-48831779D01*
X49663481Y-48828331D01*
X49663485Y-48828326D01*
X49824572Y-48609032D01*
X49827110Y-48605577D01*
X49961036Y-48358916D01*
X50060247Y-48096362D01*
X50122907Y-47822773D01*
X50147857Y-47543211D01*
X50148310Y-47500000D01*
X50146837Y-47478393D01*
X50851803Y-47478393D01*
X50867960Y-47758601D01*
X50868785Y-47762806D01*
X50868786Y-47762814D01*
X50879711Y-47818497D01*
X50921996Y-48034024D01*
X50923383Y-48038074D01*
X50923384Y-48038079D01*
X51011522Y-48295509D01*
X51012911Y-48299565D01*
X51139022Y-48550310D01*
X51141448Y-48553839D01*
X51141451Y-48553845D01*
X51250012Y-48711801D01*
X51297997Y-48781620D01*
X51486894Y-48989215D01*
X51490183Y-48991965D01*
X51698925Y-49166501D01*
X51698930Y-49166505D01*
X51702217Y-49169253D01*
X51757424Y-49203884D01*
X51936341Y-49316119D01*
X51936345Y-49316121D01*
X51939981Y-49318402D01*
X52195788Y-49433903D01*
X52199907Y-49435123D01*
X52460790Y-49512401D01*
X52460795Y-49512402D01*
X52464903Y-49513619D01*
X52469137Y-49514267D01*
X52469142Y-49514268D01*
X52713514Y-49551662D01*
X52742347Y-49556074D01*
X52885292Y-49558319D01*
X53018694Y-49560415D01*
X53018700Y-49560415D01*
X53022985Y-49560482D01*
X53301626Y-49526763D01*
X53573112Y-49455540D01*
X53577072Y-49453900D01*
X53577077Y-49453898D01*
X53716600Y-49396105D01*
X53832420Y-49348131D01*
X53883296Y-49318402D01*
X54071054Y-49208685D01*
X54071055Y-49208685D01*
X54074752Y-49206524D01*
X54295624Y-49033338D01*
X54490948Y-48831779D01*
X54493481Y-48828331D01*
X54493485Y-48828326D01*
X54654572Y-48609032D01*
X54657110Y-48605577D01*
X54791036Y-48358916D01*
X54890247Y-48096362D01*
X54952907Y-47822773D01*
X54977857Y-47543211D01*
X54978310Y-47500000D01*
X54959220Y-47219977D01*
X54953923Y-47194396D01*
X54903172Y-46949332D01*
X54902303Y-46945135D01*
X54808612Y-46680561D01*
X54798401Y-46660776D01*
X54681847Y-46434957D01*
X54681847Y-46434956D01*
X54679882Y-46431150D01*
X54669595Y-46416512D01*
X54520956Y-46205022D01*
X54518493Y-46201517D01*
X54327433Y-45995912D01*
X54110237Y-45818139D01*
X53870923Y-45671487D01*
X53848348Y-45661577D01*
X53617853Y-45560397D01*
X53613921Y-45558671D01*
X53594519Y-45553144D01*
X53348114Y-45482954D01*
X53348115Y-45482954D01*
X53343986Y-45481778D01*
X53138217Y-45452493D01*
X53070365Y-45442836D01*
X53070363Y-45442836D01*
X53066113Y-45442231D01*
X53061824Y-45442209D01*
X53061817Y-45442208D01*
X52789730Y-45440783D01*
X52789723Y-45440783D01*
X52785444Y-45440761D01*
X52781199Y-45441320D01*
X52781197Y-45441320D01*
X52717813Y-45449665D01*
X52507172Y-45477397D01*
X52236446Y-45551459D01*
X51978277Y-45661577D01*
X51832721Y-45748691D01*
X51741123Y-45803511D01*
X51741119Y-45803514D01*
X51737441Y-45805715D01*
X51518395Y-45981204D01*
X51515451Y-45984306D01*
X51515447Y-45984310D01*
X51328142Y-46181688D01*
X51325192Y-46184797D01*
X51161408Y-46412727D01*
X51030073Y-46660776D01*
X51028601Y-46664799D01*
X51028599Y-46664803D01*
X51021354Y-46684602D01*
X50933616Y-46924355D01*
X50873825Y-47198585D01*
X50851803Y-47478393D01*
X50146837Y-47478393D01*
X50129220Y-47219977D01*
X50123923Y-47194396D01*
X50073172Y-46949332D01*
X50072303Y-46945135D01*
X49978612Y-46680561D01*
X49968401Y-46660776D01*
X49851847Y-46434957D01*
X49851847Y-46434956D01*
X49849882Y-46431150D01*
X49839595Y-46416512D01*
X49690956Y-46205022D01*
X49688493Y-46201517D01*
X49497433Y-45995912D01*
X49280237Y-45818139D01*
X49040923Y-45671487D01*
X49018348Y-45661577D01*
X48787853Y-45560397D01*
X48783921Y-45558671D01*
X48764519Y-45553144D01*
X48518114Y-45482954D01*
X48518115Y-45482954D01*
X48513986Y-45481778D01*
X48308217Y-45452493D01*
X48240365Y-45442836D01*
X48240363Y-45442836D01*
X48236113Y-45442231D01*
X48231824Y-45442209D01*
X48231817Y-45442208D01*
X47959730Y-45440783D01*
X47959723Y-45440783D01*
X47955444Y-45440761D01*
X47951199Y-45441320D01*
X47951197Y-45441320D01*
X47887813Y-45449665D01*
X47677172Y-45477397D01*
X47406446Y-45551459D01*
X47148277Y-45661577D01*
X47002721Y-45748691D01*
X46911123Y-45803511D01*
X46911119Y-45803514D01*
X46907441Y-45805715D01*
X46688395Y-45981204D01*
X46685451Y-45984306D01*
X46685447Y-45984310D01*
X46498142Y-46181688D01*
X46495192Y-46184797D01*
X46331408Y-46412727D01*
X46200073Y-46660776D01*
X46198601Y-46664799D01*
X46198599Y-46664803D01*
X46191354Y-46684602D01*
X46103616Y-46924355D01*
X46043825Y-47198585D01*
X46021803Y-47478393D01*
X15508500Y-47478393D01*
X15508500Y-44425151D01*
X46825121Y-44425151D01*
X46832175Y-44435121D01*
X46869214Y-44466091D01*
X46876156Y-44471134D01*
X47106578Y-44615678D01*
X47114130Y-44619727D01*
X47362050Y-44731668D01*
X47370081Y-44734654D01*
X47630899Y-44811912D01*
X47639251Y-44813779D01*
X47908147Y-44854925D01*
X47916681Y-44855641D01*
X48188668Y-44859915D01*
X48197219Y-44859466D01*
X48467274Y-44826786D01*
X48475675Y-44825184D01*
X48738809Y-44756152D01*
X48746911Y-44753425D01*
X48998237Y-44649322D01*
X49005899Y-44645519D01*
X49240764Y-44508275D01*
X49247850Y-44503459D01*
X49335269Y-44434915D01*
X49342243Y-44425151D01*
X51655121Y-44425151D01*
X51662175Y-44435121D01*
X51699214Y-44466091D01*
X51706156Y-44471134D01*
X51936578Y-44615678D01*
X51944130Y-44619727D01*
X52192050Y-44731668D01*
X52200081Y-44734654D01*
X52460899Y-44811912D01*
X52469251Y-44813779D01*
X52738147Y-44854925D01*
X52746681Y-44855641D01*
X53018668Y-44859915D01*
X53027219Y-44859466D01*
X53297274Y-44826786D01*
X53305675Y-44825184D01*
X53568809Y-44756152D01*
X53576911Y-44753425D01*
X53828237Y-44649322D01*
X53835899Y-44645519D01*
X54070764Y-44508275D01*
X54077850Y-44503459D01*
X54165269Y-44434915D01*
X54173739Y-44423056D01*
X54167222Y-44411432D01*
X52927812Y-43172022D01*
X52913868Y-43164408D01*
X52912035Y-43164539D01*
X52905420Y-43168790D01*
X51662414Y-44411796D01*
X51655121Y-44425151D01*
X49342243Y-44425151D01*
X49343739Y-44423056D01*
X49337222Y-44411432D01*
X48097812Y-43172022D01*
X48083868Y-43164408D01*
X48082035Y-43164539D01*
X48075420Y-43168790D01*
X46832414Y-44411796D01*
X46825121Y-44425151D01*
X15508500Y-44425151D01*
X15508500Y-42782679D01*
X46022551Y-42782679D01*
X46038210Y-43054252D01*
X46039283Y-43062751D01*
X46091656Y-43329693D01*
X46093867Y-43337945D01*
X46181983Y-43595314D01*
X46185297Y-43603198D01*
X46307531Y-43846231D01*
X46311881Y-43853586D01*
X46448390Y-44052209D01*
X46458643Y-44060552D01*
X46472384Y-44053406D01*
X47712978Y-42812812D01*
X47719356Y-42801132D01*
X48449408Y-42801132D01*
X48449539Y-42802965D01*
X48453790Y-42809580D01*
X49696497Y-44052287D01*
X49708707Y-44058954D01*
X49720206Y-44050265D01*
X49824149Y-43908763D01*
X49828733Y-43901540D01*
X49958530Y-43662484D01*
X49962098Y-43654690D01*
X50058249Y-43400235D01*
X50060726Y-43392029D01*
X50121454Y-43126878D01*
X50122794Y-43118417D01*
X50147137Y-42845665D01*
X50147383Y-42840726D01*
X50147783Y-42802485D01*
X50147640Y-42797519D01*
X50146628Y-42782679D01*
X50852551Y-42782679D01*
X50868210Y-43054252D01*
X50869283Y-43062751D01*
X50921656Y-43329693D01*
X50923867Y-43337945D01*
X51011983Y-43595314D01*
X51015297Y-43603198D01*
X51137531Y-43846231D01*
X51141881Y-43853586D01*
X51278390Y-44052209D01*
X51288643Y-44060552D01*
X51302384Y-44053406D01*
X52542978Y-42812812D01*
X52549356Y-42801132D01*
X53279408Y-42801132D01*
X53279539Y-42802965D01*
X53283790Y-42809580D01*
X54526497Y-44052287D01*
X54538707Y-44058954D01*
X54550206Y-44050265D01*
X54654149Y-43908763D01*
X54658733Y-43901540D01*
X54788530Y-43662484D01*
X54792098Y-43654690D01*
X54888249Y-43400235D01*
X54890726Y-43392029D01*
X54951454Y-43126878D01*
X54952794Y-43118417D01*
X54977137Y-42845665D01*
X54977383Y-42840726D01*
X54977783Y-42802485D01*
X54977640Y-42797519D01*
X54959015Y-42524319D01*
X54957856Y-42515851D01*
X54902689Y-42249467D01*
X54900389Y-42241229D01*
X54809584Y-41984801D01*
X54806188Y-41976953D01*
X54681421Y-41735222D01*
X54676983Y-41727895D01*
X54550922Y-41548527D01*
X54540400Y-41540146D01*
X54527012Y-41547198D01*
X53287022Y-42787188D01*
X53279408Y-42801132D01*
X52549356Y-42801132D01*
X52550592Y-42798868D01*
X52550461Y-42797035D01*
X52546210Y-42790420D01*
X51302987Y-41547197D01*
X51290977Y-41540638D01*
X51279238Y-41549606D01*
X51164342Y-41709501D01*
X51159820Y-41716795D01*
X51032541Y-41957183D01*
X51029055Y-41965011D01*
X50935573Y-42220464D01*
X50933184Y-42228688D01*
X50875233Y-42494473D01*
X50873984Y-42502929D01*
X50852640Y-42774128D01*
X50852551Y-42782679D01*
X50146628Y-42782679D01*
X50129015Y-42524319D01*
X50127856Y-42515851D01*
X50072689Y-42249467D01*
X50070389Y-42241229D01*
X49979584Y-41984801D01*
X49976188Y-41976953D01*
X49851421Y-41735222D01*
X49846983Y-41727895D01*
X49720922Y-41548527D01*
X49710400Y-41540146D01*
X49697012Y-41547198D01*
X48457022Y-42787188D01*
X48449408Y-42801132D01*
X47719356Y-42801132D01*
X47720592Y-42798868D01*
X47720461Y-42797035D01*
X47716210Y-42790420D01*
X46472987Y-41547197D01*
X46460977Y-41540638D01*
X46449238Y-41549606D01*
X46334342Y-41709501D01*
X46329820Y-41716795D01*
X46202541Y-41957183D01*
X46199055Y-41965011D01*
X46105573Y-42220464D01*
X46103184Y-42228688D01*
X46045233Y-42494473D01*
X46043984Y-42502929D01*
X46022640Y-42774128D01*
X46022551Y-42782679D01*
X15508500Y-42782679D01*
X15508500Y-41176929D01*
X46826013Y-41176929D01*
X46832409Y-41188199D01*
X48072188Y-42427978D01*
X48086132Y-42435592D01*
X48087965Y-42435461D01*
X48094580Y-42431210D01*
X49337136Y-41188654D01*
X49343538Y-41176929D01*
X51656013Y-41176929D01*
X51662409Y-41188199D01*
X52902188Y-42427978D01*
X52916132Y-42435592D01*
X52917965Y-42435461D01*
X52924580Y-42431210D01*
X54167136Y-41188654D01*
X54174327Y-41175485D01*
X54167004Y-41165248D01*
X54113265Y-41121263D01*
X54106290Y-41116306D01*
X53874341Y-40974167D01*
X53866771Y-40970210D01*
X53617681Y-40860868D01*
X53609621Y-40857966D01*
X53348010Y-40783444D01*
X53339635Y-40781664D01*
X53070328Y-40743336D01*
X53061780Y-40742708D01*
X52789761Y-40741283D01*
X52781228Y-40741820D01*
X52511528Y-40777328D01*
X52503127Y-40779022D01*
X52240756Y-40850798D01*
X52232661Y-40853617D01*
X51982446Y-40960342D01*
X51974823Y-40964227D01*
X51741411Y-41103921D01*
X51734379Y-41108808D01*
X51664482Y-41164806D01*
X51656013Y-41176929D01*
X49343538Y-41176929D01*
X49344327Y-41175485D01*
X49337004Y-41165248D01*
X49283265Y-41121263D01*
X49276290Y-41116306D01*
X49044341Y-40974167D01*
X49036771Y-40970210D01*
X48787681Y-40860868D01*
X48779621Y-40857966D01*
X48518010Y-40783444D01*
X48509635Y-40781664D01*
X48240328Y-40743336D01*
X48231780Y-40742708D01*
X47959761Y-40741283D01*
X47951228Y-40741820D01*
X47681528Y-40777328D01*
X47673127Y-40779022D01*
X47410756Y-40850798D01*
X47402661Y-40853617D01*
X47152446Y-40960342D01*
X47144823Y-40964227D01*
X46911411Y-41103921D01*
X46904379Y-41108808D01*
X46834482Y-41164806D01*
X46826013Y-41176929D01*
X15508500Y-41176929D01*
X15508500Y-34178393D01*
X46021803Y-34178393D01*
X46037960Y-34458601D01*
X46038785Y-34462806D01*
X46038786Y-34462814D01*
X46049711Y-34518497D01*
X46091996Y-34734024D01*
X46093383Y-34738074D01*
X46093384Y-34738079D01*
X46181522Y-34995509D01*
X46182911Y-34999565D01*
X46309022Y-35250310D01*
X46311448Y-35253839D01*
X46311451Y-35253845D01*
X46420012Y-35411801D01*
X46467997Y-35481620D01*
X46656894Y-35689215D01*
X46660183Y-35691965D01*
X46868925Y-35866501D01*
X46868930Y-35866505D01*
X46872217Y-35869253D01*
X46927424Y-35903884D01*
X47106341Y-36016119D01*
X47106345Y-36016121D01*
X47109981Y-36018402D01*
X47365788Y-36133903D01*
X47369907Y-36135123D01*
X47630790Y-36212401D01*
X47630795Y-36212402D01*
X47634903Y-36213619D01*
X47639137Y-36214267D01*
X47639142Y-36214268D01*
X47883514Y-36251662D01*
X47912347Y-36256074D01*
X48055292Y-36258319D01*
X48188694Y-36260415D01*
X48188700Y-36260415D01*
X48192985Y-36260482D01*
X48471626Y-36226763D01*
X48743112Y-36155540D01*
X48747072Y-36153900D01*
X48747077Y-36153898D01*
X48886600Y-36096105D01*
X49002420Y-36048131D01*
X49053296Y-36018402D01*
X49241054Y-35908685D01*
X49241055Y-35908685D01*
X49244752Y-35906524D01*
X49465624Y-35733338D01*
X49660948Y-35531779D01*
X49663481Y-35528331D01*
X49663485Y-35528326D01*
X49824572Y-35309032D01*
X49827110Y-35305577D01*
X49961036Y-35058916D01*
X50060247Y-34796362D01*
X50122907Y-34522773D01*
X50147857Y-34243211D01*
X50148310Y-34200000D01*
X50146837Y-34178393D01*
X50851803Y-34178393D01*
X50867960Y-34458601D01*
X50868785Y-34462806D01*
X50868786Y-34462814D01*
X50879711Y-34518497D01*
X50921996Y-34734024D01*
X50923383Y-34738074D01*
X50923384Y-34738079D01*
X51011522Y-34995509D01*
X51012911Y-34999565D01*
X51139022Y-35250310D01*
X51141448Y-35253839D01*
X51141451Y-35253845D01*
X51250012Y-35411801D01*
X51297997Y-35481620D01*
X51486894Y-35689215D01*
X51490183Y-35691965D01*
X51698925Y-35866501D01*
X51698930Y-35866505D01*
X51702217Y-35869253D01*
X51757424Y-35903884D01*
X51936341Y-36016119D01*
X51936345Y-36016121D01*
X51939981Y-36018402D01*
X52195788Y-36133903D01*
X52199907Y-36135123D01*
X52460790Y-36212401D01*
X52460795Y-36212402D01*
X52464903Y-36213619D01*
X52469137Y-36214267D01*
X52469142Y-36214268D01*
X52713514Y-36251662D01*
X52742347Y-36256074D01*
X52885292Y-36258319D01*
X53018694Y-36260415D01*
X53018700Y-36260415D01*
X53022985Y-36260482D01*
X53301626Y-36226763D01*
X53573112Y-36155540D01*
X53577072Y-36153900D01*
X53577077Y-36153898D01*
X53716600Y-36096105D01*
X53832420Y-36048131D01*
X53883296Y-36018402D01*
X54071054Y-35908685D01*
X54071055Y-35908685D01*
X54074752Y-35906524D01*
X54295624Y-35733338D01*
X54490948Y-35531779D01*
X54493481Y-35528331D01*
X54493485Y-35528326D01*
X54654572Y-35309032D01*
X54657110Y-35305577D01*
X54791036Y-35058916D01*
X54890247Y-34796362D01*
X54952907Y-34522773D01*
X54977857Y-34243211D01*
X54978310Y-34200000D01*
X54959220Y-33919977D01*
X54953923Y-33894396D01*
X54903172Y-33649332D01*
X54902303Y-33645135D01*
X54808612Y-33380561D01*
X54798401Y-33360776D01*
X54681847Y-33134957D01*
X54681847Y-33134956D01*
X54679882Y-33131150D01*
X54669595Y-33116512D01*
X54520956Y-32905022D01*
X54518493Y-32901517D01*
X54327433Y-32695912D01*
X54110237Y-32518139D01*
X53870923Y-32371487D01*
X53848348Y-32361577D01*
X53617853Y-32260397D01*
X53613921Y-32258671D01*
X53594519Y-32253144D01*
X53348114Y-32182954D01*
X53348115Y-32182954D01*
X53343986Y-32181778D01*
X53138217Y-32152493D01*
X53070365Y-32142836D01*
X53070363Y-32142836D01*
X53066113Y-32142231D01*
X53061824Y-32142209D01*
X53061817Y-32142208D01*
X52789730Y-32140783D01*
X52789723Y-32140783D01*
X52785444Y-32140761D01*
X52781199Y-32141320D01*
X52781197Y-32141320D01*
X52717813Y-32149665D01*
X52507172Y-32177397D01*
X52236446Y-32251459D01*
X51978277Y-32361577D01*
X51832721Y-32448691D01*
X51741123Y-32503511D01*
X51741119Y-32503514D01*
X51737441Y-32505715D01*
X51518395Y-32681204D01*
X51515451Y-32684306D01*
X51515447Y-32684310D01*
X51328142Y-32881688D01*
X51325192Y-32884797D01*
X51161408Y-33112727D01*
X51030073Y-33360776D01*
X51028601Y-33364799D01*
X51028599Y-33364803D01*
X51021354Y-33384602D01*
X50933616Y-33624355D01*
X50873825Y-33898585D01*
X50851803Y-34178393D01*
X50146837Y-34178393D01*
X50129220Y-33919977D01*
X50123923Y-33894396D01*
X50073172Y-33649332D01*
X50072303Y-33645135D01*
X49978612Y-33380561D01*
X49968401Y-33360776D01*
X49851847Y-33134957D01*
X49851847Y-33134956D01*
X49849882Y-33131150D01*
X49839595Y-33116512D01*
X49690956Y-32905022D01*
X49688493Y-32901517D01*
X49497433Y-32695912D01*
X49280237Y-32518139D01*
X49040923Y-32371487D01*
X49018348Y-32361577D01*
X48787853Y-32260397D01*
X48783921Y-32258671D01*
X48764519Y-32253144D01*
X48518114Y-32182954D01*
X48518115Y-32182954D01*
X48513986Y-32181778D01*
X48308217Y-32152493D01*
X48240365Y-32142836D01*
X48240363Y-32142836D01*
X48236113Y-32142231D01*
X48231824Y-32142209D01*
X48231817Y-32142208D01*
X47959730Y-32140783D01*
X47959723Y-32140783D01*
X47955444Y-32140761D01*
X47951199Y-32141320D01*
X47951197Y-32141320D01*
X47887813Y-32149665D01*
X47677172Y-32177397D01*
X47406446Y-32251459D01*
X47148277Y-32361577D01*
X47002721Y-32448691D01*
X46911123Y-32503511D01*
X46911119Y-32503514D01*
X46907441Y-32505715D01*
X46688395Y-32681204D01*
X46685451Y-32684306D01*
X46685447Y-32684310D01*
X46498142Y-32881688D01*
X46495192Y-32884797D01*
X46331408Y-33112727D01*
X46200073Y-33360776D01*
X46198601Y-33364799D01*
X46198599Y-33364803D01*
X46191354Y-33384602D01*
X46103616Y-33624355D01*
X46043825Y-33898585D01*
X46021803Y-34178393D01*
X15508500Y-34178393D01*
X15508500Y-15634500D01*
X15528502Y-15566379D01*
X15582158Y-15519886D01*
X15634500Y-15508500D01*
X48221633Y-15508500D01*
X48289754Y-15528502D01*
G37*
G04 #@! TD.AperFunction*
G04 #@! TD*
M02*
