G04 #@! TF.GenerationSoftware,KiCad,Pcbnew,6.0.7-f9a2dced07~116~ubuntu22.04.1*
G04 #@! TF.CreationDate,2022-09-02T23:43:53-04:00*
G04 #@! TF.ProjectId,voltproc_b2,766f6c74-7072-46f6-935f-62322e6b6963,rev?*
G04 #@! TF.SameCoordinates,Original*
G04 #@! TF.FileFunction,Copper,L1,Top*
G04 #@! TF.FilePolarity,Positive*
%FSLAX46Y46*%
G04 Gerber Fmt 4.6, Leading zero omitted, Abs format (unit mm)*
G04 Created by KiCad (PCBNEW 6.0.7-f9a2dced07~116~ubuntu22.04.1) date 2022-09-02 23:43:53*
%MOMM*%
%LPD*%
G01*
G04 APERTURE LIST*
G04 #@! TA.AperFunction,ComponentPad*
%ADD10C,3.100000*%
G04 #@! TD*
G04 #@! TA.AperFunction,ComponentPad*
%ADD11C,2.340000*%
G04 #@! TD*
G04 #@! TA.AperFunction,ComponentPad*
%ADD12R,1.700000X1.700000*%
G04 #@! TD*
G04 #@! TA.AperFunction,ComponentPad*
%ADD13O,1.700000X1.700000*%
G04 #@! TD*
G04 #@! TA.AperFunction,Conductor*
%ADD14C,0.250000*%
G04 #@! TD*
G04 APERTURE END LIST*
D10*
G04 #@! TO.P,SW1,1,A*
G04 #@! TO.N,Board_0-/Panel components/LIN_IN*
X52915000Y-34200000D03*
G04 #@! TO.P,SW1,2,B*
G04 #@! TO.N,Board_0-/Panel components/LAG_IN*
X52915000Y-29500000D03*
G04 #@! TO.P,SW1,3,C*
G04 #@! TO.N,Board_0-/Panel components/RC_IN*
X52915000Y-24800000D03*
G04 #@! TO.P,SW1,4,A*
G04 #@! TO.N,Board_0-/Panel components/LIN_OUT*
X48085000Y-34200000D03*
G04 #@! TO.P,SW1,5,B*
G04 #@! TO.N,Board_0-/Panel components/LAG_OUT*
X48085000Y-29500000D03*
G04 #@! TO.P,SW1,6,C*
G04 #@! TO.N,Board_0-/Panel components/RC_OUT*
X48085000Y-24800000D03*
G04 #@! TD*
D11*
G04 #@! TO.P,RV3,1,1*
G04 #@! TO.N,Board_0-GND1*
X30500000Y-22500000D03*
G04 #@! TO.P,RV3,2,2*
G04 #@! TO.N,Board_0-/Panel components/IN_2_1_WIP*
X25500000Y-22500000D03*
G04 #@! TO.P,RV3,3,3*
G04 #@! TO.N,Board_0-/Panel components/IN_2_1_CW*
X20500000Y-22500000D03*
G04 #@! TD*
D10*
G04 #@! TO.P,SW2,1,A*
G04 #@! TO.N,Board_0-GND1*
X48085000Y-42800000D03*
G04 #@! TO.P,SW2,2,B*
G04 #@! TO.N,Board_0-/Panel components/LIN_SPEED*
X48085000Y-47500000D03*
G04 #@! TO.P,SW2,3,C*
G04 #@! TO.N,Board_0-unconnected-(SW2-Pad3)*
X48085000Y-52200000D03*
G04 #@! TO.P,SW2,4,A*
G04 #@! TO.N,Board_0-GND1*
X52915000Y-42800000D03*
G04 #@! TO.P,SW2,5,B*
G04 #@! TO.N,Board_0-/Panel components/RC_SPEED*
X52915000Y-47500000D03*
G04 #@! TO.P,SW2,6,C*
G04 #@! TO.N,Board_0-unconnected-(SW2-Pad6)*
X52915000Y-52200000D03*
G04 #@! TD*
D11*
G04 #@! TO.P,RV4,1,1*
G04 #@! TO.N,Board_0-/Panel components/LAG_LIN_CCW*
X80500000Y-17500000D03*
G04 #@! TO.P,RV4,2,2*
G04 #@! TO.N,Board_0-/Panel components/LAG_LIN_WIP*
X75500000Y-17500000D03*
G04 #@! TO.P,RV4,3,3*
X70500000Y-17500000D03*
G04 #@! TO.P,RV4,4,4*
G04 #@! TO.N,Board_0-/Panel components/RC_IN*
X80500000Y-22500000D03*
G04 #@! TO.P,RV4,5,5*
G04 #@! TO.N,Board_0-/Panel components/LAG_RC_WIP*
X75500000Y-22500000D03*
G04 #@! TO.P,RV4,6,6*
X70500000Y-22500000D03*
G04 #@! TD*
D12*
G04 #@! TO.P,J7,1,Pin_1*
G04 #@! TO.N,Board_0-GND1*
X54400000Y-18000000D03*
D13*
G04 #@! TO.P,J7,2,Pin_2*
G04 #@! TO.N,Board_0-/Panel components/LAG_RC_WIP*
X51860000Y-18000000D03*
G04 #@! TO.P,J7,3,Pin_3*
G04 #@! TO.N,Board_0-/Panel components/LAG_LIN_CCW*
X49320000Y-18000000D03*
G04 #@! TO.P,J7,4,Pin_4*
G04 #@! TO.N,Board_0-/Panel components/LAG_LIN_WIP*
X46780000Y-18000000D03*
G04 #@! TO.P,J7,5,Pin_5*
G04 #@! TO.N,Board_0-/Panel components/LIN_SPEED*
X44240000Y-18000000D03*
G04 #@! TO.P,J7,6,Pin_6*
G04 #@! TO.N,Board_0-/Panel components/RC_SPEED*
X41700000Y-18000000D03*
G04 #@! TO.P,J7,7,Pin_7*
G04 #@! TO.N,Board_0-/Panel components/RC_OUT*
X39160000Y-18000000D03*
G04 #@! TO.P,J7,8,Pin_8*
G04 #@! TO.N,Board_0-/Panel components/LAG_OUT*
X36620000Y-18000000D03*
G04 #@! TO.P,J7,9,Pin_9*
G04 #@! TO.N,Board_0-/Panel components/LIN_OUT*
X34080000Y-18000000D03*
G04 #@! TO.P,J7,10,Pin_10*
G04 #@! TO.N,Board_0-/Panel components/LAG_IN*
X31540000Y-18000000D03*
G04 #@! TO.P,J7,11,Pin_11*
G04 #@! TO.N,Board_0-/Panel components/LIN_IN*
X29000000Y-18000000D03*
G04 #@! TO.P,J7,12,Pin_12*
G04 #@! TO.N,Board_0-/Panel components/IN_2_1_CW*
X26460000Y-18000000D03*
G04 #@! TO.P,J7,13,Pin_13*
G04 #@! TO.N,Board_0-/Panel components/IN_2_1_WIP*
X23920000Y-18000000D03*
G04 #@! TD*
D14*
G04 #@! TO.N,Board_0-/Panel components/IN_2_1_WIP*
X23920000Y-20920000D02*
X25500000Y-22500000D01*
X23920000Y-18000000D02*
X23920000Y-20920000D01*
G04 #@! TO.N,Board_0-/Panel components/LAG_OUT*
X46210489Y-27625489D02*
X48085000Y-29500000D01*
X46210489Y-23896081D02*
X46210489Y-27625489D01*
X38209031Y-19624031D02*
X41938439Y-19624031D01*
X41938439Y-19624031D02*
X46210489Y-23896081D01*
X36620000Y-18035000D02*
X38209031Y-19624031D01*
G04 #@! TO.N,Board_0-/Panel components/LIN_IN*
X45242000Y-24199000D02*
X45242000Y-34007960D01*
X34701000Y-19373000D02*
X35971000Y-20643000D01*
X51040489Y-36074511D02*
X52915000Y-34200000D01*
X35971000Y-20643000D02*
X41686000Y-20643000D01*
X29000000Y-18000000D02*
X30373000Y-19373000D01*
X41686000Y-20643000D02*
X45242000Y-24199000D01*
X45242000Y-34007960D02*
X47308551Y-36074511D01*
X47308551Y-36074511D02*
X51040489Y-36074511D01*
X30373000Y-19373000D02*
X34701000Y-19373000D01*
G04 #@! TO.N,Board_0-/Panel components/LIN_OUT*
X45691511Y-31806511D02*
X48085000Y-34200000D01*
X41872194Y-20193490D02*
X45691511Y-24012807D01*
X45691511Y-24012807D02*
X45691511Y-31806511D01*
X36273490Y-20193490D02*
X41872194Y-20193490D01*
X34080000Y-18000000D02*
X36273490Y-20193490D01*
G04 #@! TO.N,Board_0-/Panel components/LIN_SPEED*
X55343511Y-45707193D02*
X55343511Y-47722449D01*
X56867511Y-30165847D02*
X56867511Y-44183193D01*
X53877643Y-27175979D02*
X56867511Y-30165847D01*
X52640018Y-27175978D02*
X53877643Y-27175979D01*
X44240000Y-18000000D02*
X48715978Y-22475978D01*
X50449000Y-23877336D02*
X50449000Y-24984960D01*
X56867511Y-44183193D02*
X55343511Y-45707193D01*
X50449000Y-24984960D02*
X52640018Y-27175978D01*
X53691449Y-49374511D02*
X49959511Y-49374511D01*
X48715978Y-22475978D02*
X49047643Y-22475979D01*
X49047643Y-22475979D02*
X50449000Y-23877336D01*
X55343511Y-47722449D02*
X53691449Y-49374511D01*
X49959511Y-49374511D02*
X48085000Y-47500000D01*
G04 #@! TO.N,Board_0-/Panel components/RC_OUT*
X39160000Y-18000000D02*
X40334511Y-19174511D01*
X40334511Y-19174511D02*
X42238793Y-19174511D01*
X42238793Y-19174511D02*
X47864282Y-24800000D01*
G04 #@! TO.N,Board_0-/Panel components/RC_SPEED*
X41700000Y-18000000D02*
X46625489Y-22925489D01*
X53691449Y-27625489D02*
X56418000Y-30352040D01*
X52351489Y-27625489D02*
X53691449Y-27625489D01*
X56418000Y-30352040D02*
X56418000Y-43997000D01*
X48861449Y-22925489D02*
X49959511Y-24023551D01*
X56418000Y-43997000D02*
X52915000Y-47500000D01*
X49959511Y-24023551D02*
X49959511Y-25233511D01*
X49959511Y-25233511D02*
X52351489Y-27625489D01*
X46625489Y-22925489D02*
X48861449Y-22925489D01*
G04 #@! TD*
G04 #@! TA.AperFunction,Conductor*
G04 #@! TO.N,Board_0-GND1*
G36*
X85433621Y-15528502D02*
G01*
X85480114Y-15582158D01*
X85491500Y-15634500D01*
X85491500Y-54365500D01*
X85471498Y-54433621D01*
X85417842Y-54480114D01*
X85365500Y-54491500D01*
X53203965Y-54491500D01*
X53135844Y-54471498D01*
X53089351Y-54417842D01*
X53079247Y-54347568D01*
X53108741Y-54282988D01*
X53168467Y-54244604D01*
X53188828Y-54240413D01*
X53297362Y-54227279D01*
X53301626Y-54226763D01*
X53573112Y-54155540D01*
X53577072Y-54153900D01*
X53577077Y-54153898D01*
X53716600Y-54096105D01*
X53832420Y-54048131D01*
X53883296Y-54018402D01*
X54071054Y-53908685D01*
X54071055Y-53908685D01*
X54074752Y-53906524D01*
X54295624Y-53733338D01*
X54490948Y-53531779D01*
X54493481Y-53528331D01*
X54493485Y-53528326D01*
X54654572Y-53309032D01*
X54657110Y-53305577D01*
X54791036Y-53058916D01*
X54890247Y-52796362D01*
X54952907Y-52522773D01*
X54977857Y-52243211D01*
X54978310Y-52200000D01*
X54959220Y-51919977D01*
X54953923Y-51894396D01*
X54903172Y-51649332D01*
X54902303Y-51645135D01*
X54808612Y-51380561D01*
X54798401Y-51360776D01*
X54681847Y-51134957D01*
X54681847Y-51134956D01*
X54679882Y-51131150D01*
X54669595Y-51116512D01*
X54520956Y-50905022D01*
X54518493Y-50901517D01*
X54327433Y-50695912D01*
X54110237Y-50518139D01*
X53870923Y-50371487D01*
X53848348Y-50361577D01*
X53617853Y-50260397D01*
X53613921Y-50258671D01*
X53608380Y-50257092D01*
X53607988Y-50256845D01*
X53605757Y-50256042D01*
X53605934Y-50255549D01*
X53548346Y-50219197D01*
X53518328Y-50154858D01*
X53527860Y-50084505D01*
X53573915Y-50030473D01*
X53638937Y-50009975D01*
X53699435Y-50008073D01*
X53703394Y-50008011D01*
X53731305Y-50008011D01*
X53735240Y-50007514D01*
X53735305Y-50007506D01*
X53747142Y-50006573D01*
X53779400Y-50005559D01*
X53783419Y-50005433D01*
X53791338Y-50005184D01*
X53810792Y-49999532D01*
X53830149Y-49995524D01*
X53842379Y-49993979D01*
X53842380Y-49993979D01*
X53850246Y-49992985D01*
X53857617Y-49990066D01*
X53857619Y-49990066D01*
X53891361Y-49976707D01*
X53902591Y-49972862D01*
X53937432Y-49962740D01*
X53937433Y-49962740D01*
X53945042Y-49960529D01*
X53951861Y-49956496D01*
X53951866Y-49956494D01*
X53962477Y-49950218D01*
X53980225Y-49941523D01*
X53999066Y-49934063D01*
X54034836Y-49908075D01*
X54044756Y-49901559D01*
X54075984Y-49883091D01*
X54075987Y-49883089D01*
X54082811Y-49879053D01*
X54097132Y-49864732D01*
X54112166Y-49851891D01*
X54122143Y-49844642D01*
X54128556Y-49839983D01*
X54156747Y-49805906D01*
X54164737Y-49797127D01*
X55735758Y-48226106D01*
X55744048Y-48218562D01*
X55750529Y-48214449D01*
X55797170Y-48164781D01*
X55799924Y-48161940D01*
X55819645Y-48142219D01*
X55822123Y-48139024D01*
X55829829Y-48130002D01*
X55854669Y-48103550D01*
X55860097Y-48097770D01*
X55869857Y-48080017D01*
X55880710Y-48063494D01*
X55888264Y-48053755D01*
X55893124Y-48047490D01*
X55910687Y-48006906D01*
X55915894Y-47996276D01*
X55937206Y-47957509D01*
X55939177Y-47949832D01*
X55939179Y-47949827D01*
X55942243Y-47937891D01*
X55948649Y-47919179D01*
X55953545Y-47907866D01*
X55956692Y-47900594D01*
X55963608Y-47856930D01*
X55966015Y-47845309D01*
X55975039Y-47810160D01*
X55975039Y-47810159D01*
X55977011Y-47802479D01*
X55977011Y-47782218D01*
X55978562Y-47762507D01*
X55980490Y-47750334D01*
X55981730Y-47742506D01*
X55977570Y-47698495D01*
X55977011Y-47686638D01*
X55977011Y-46021787D01*
X55997013Y-45953666D01*
X56013916Y-45932692D01*
X57259758Y-44686850D01*
X57268048Y-44679306D01*
X57274529Y-44675193D01*
X57321170Y-44625525D01*
X57323924Y-44622684D01*
X57343645Y-44602963D01*
X57346123Y-44599768D01*
X57353829Y-44590746D01*
X57378669Y-44564294D01*
X57384097Y-44558514D01*
X57393857Y-44540761D01*
X57404710Y-44524238D01*
X57412264Y-44514499D01*
X57417124Y-44508234D01*
X57434687Y-44467650D01*
X57439894Y-44457020D01*
X57461206Y-44418253D01*
X57463177Y-44410576D01*
X57463179Y-44410571D01*
X57466243Y-44398635D01*
X57472649Y-44379923D01*
X57477545Y-44368610D01*
X57480692Y-44361338D01*
X57487608Y-44317674D01*
X57490015Y-44306053D01*
X57499039Y-44270904D01*
X57499039Y-44270903D01*
X57501011Y-44263223D01*
X57501011Y-44242962D01*
X57502562Y-44223251D01*
X57504490Y-44211078D01*
X57505730Y-44203250D01*
X57501570Y-44159239D01*
X57501011Y-44147382D01*
X57501011Y-30244614D01*
X57501538Y-30233431D01*
X57503213Y-30225938D01*
X57501073Y-30157847D01*
X57501011Y-30153890D01*
X57501011Y-30125991D01*
X57500507Y-30122000D01*
X57499574Y-30110158D01*
X57499141Y-30096362D01*
X57498185Y-30065958D01*
X57495973Y-30058344D01*
X57495972Y-30058339D01*
X57492534Y-30046506D01*
X57488523Y-30027142D01*
X57486978Y-30014911D01*
X57485985Y-30007050D01*
X57483068Y-29999683D01*
X57483067Y-29999678D01*
X57469709Y-29965939D01*
X57465865Y-29954712D01*
X57463743Y-29947408D01*
X57453529Y-29912254D01*
X57443218Y-29894819D01*
X57434523Y-29877071D01*
X57427063Y-29858230D01*
X57401075Y-29822460D01*
X57394559Y-29812540D01*
X57376091Y-29781312D01*
X57376089Y-29781309D01*
X57372053Y-29774485D01*
X57357732Y-29760164D01*
X57344891Y-29745130D01*
X57337642Y-29735153D01*
X57332983Y-29728740D01*
X57298906Y-29700549D01*
X57290127Y-29692559D01*
X54381295Y-26783726D01*
X54373755Y-26775440D01*
X54369643Y-26768961D01*
X54319991Y-26722335D01*
X54317150Y-26719581D01*
X54297413Y-26699844D01*
X54294216Y-26697364D01*
X54285194Y-26689659D01*
X54258743Y-26664820D01*
X54252964Y-26659393D01*
X54246018Y-26655574D01*
X54246015Y-26655572D01*
X54235209Y-26649631D01*
X54218690Y-26638780D01*
X54208950Y-26631225D01*
X54208949Y-26631224D01*
X54202684Y-26626365D01*
X54199219Y-26624866D01*
X54152028Y-26574322D01*
X54139324Y-26504471D01*
X54166400Y-26438841D01*
X54186874Y-26418609D01*
X54292252Y-26335982D01*
X54295624Y-26333338D01*
X54490948Y-26131779D01*
X54493482Y-26128330D01*
X54493485Y-26128326D01*
X54654572Y-25909032D01*
X54657110Y-25905577D01*
X54791036Y-25658916D01*
X54890247Y-25396362D01*
X54952907Y-25122773D01*
X54977857Y-24843211D01*
X54978310Y-24800000D01*
X54959220Y-24519977D01*
X54939448Y-24424499D01*
X54903172Y-24249332D01*
X54902303Y-24245135D01*
X54808612Y-23980561D01*
X54782319Y-23929618D01*
X54681847Y-23734957D01*
X54681847Y-23734956D01*
X54679882Y-23731150D01*
X54660497Y-23703567D01*
X54561916Y-23563302D01*
X54518493Y-23501517D01*
X54424154Y-23399996D01*
X54330354Y-23299055D01*
X54330351Y-23299052D01*
X54327433Y-23295912D01*
X54110237Y-23118139D01*
X53870923Y-22971487D01*
X53848348Y-22961577D01*
X53617853Y-22860397D01*
X53613921Y-22858671D01*
X53594519Y-22853144D01*
X53348114Y-22782954D01*
X53348115Y-22782954D01*
X53343986Y-22781778D01*
X53138217Y-22752493D01*
X53070365Y-22742836D01*
X53070363Y-22742836D01*
X53066113Y-22742231D01*
X53061824Y-22742209D01*
X53061817Y-22742208D01*
X52789730Y-22740783D01*
X52789723Y-22740783D01*
X52785444Y-22740761D01*
X52781199Y-22741320D01*
X52781197Y-22741320D01*
X52717813Y-22749665D01*
X52507172Y-22777397D01*
X52236446Y-22851459D01*
X51978277Y-22961577D01*
X51832721Y-23048691D01*
X51741123Y-23103511D01*
X51741119Y-23103514D01*
X51737441Y-23105715D01*
X51518395Y-23281204D01*
X51515451Y-23284306D01*
X51515447Y-23284310D01*
X51329267Y-23480503D01*
X51325192Y-23484797D01*
X51322691Y-23488278D01*
X51322684Y-23488286D01*
X51233936Y-23611791D01*
X51177942Y-23655439D01*
X51107238Y-23661885D01*
X51044274Y-23629082D01*
X51014463Y-23584649D01*
X51008552Y-23569719D01*
X50982564Y-23533949D01*
X50976048Y-23524029D01*
X50957580Y-23492801D01*
X50957578Y-23492798D01*
X50953542Y-23485974D01*
X50939221Y-23471653D01*
X50926380Y-23456619D01*
X50919131Y-23446642D01*
X50914472Y-23440229D01*
X50880395Y-23412038D01*
X50871616Y-23404048D01*
X49923508Y-22455939D01*
X68817370Y-22455939D01*
X68817594Y-22460606D01*
X68817594Y-22460611D01*
X68823354Y-22580535D01*
X68829339Y-22705131D01*
X68878010Y-22949818D01*
X68962314Y-23184622D01*
X69080398Y-23404386D01*
X69229668Y-23604283D01*
X69406844Y-23779921D01*
X69410606Y-23782679D01*
X69410609Y-23782682D01*
X69522139Y-23864458D01*
X69608036Y-23927440D01*
X69612171Y-23929616D01*
X69612175Y-23929618D01*
X69709002Y-23980561D01*
X69828823Y-24043602D01*
X69959347Y-24089183D01*
X70058550Y-24123826D01*
X70064354Y-24125853D01*
X70068947Y-24126725D01*
X70304867Y-24171516D01*
X70304870Y-24171516D01*
X70309456Y-24172387D01*
X70434100Y-24177285D01*
X70554075Y-24181999D01*
X70554081Y-24181999D01*
X70558743Y-24182182D01*
X70648181Y-24172387D01*
X70802087Y-24155532D01*
X70802092Y-24155531D01*
X70806740Y-24155022D01*
X70813140Y-24153337D01*
X71043476Y-24092694D01*
X71043478Y-24092693D01*
X71047999Y-24091503D01*
X71053399Y-24089183D01*
X71272924Y-23994868D01*
X71272926Y-23994867D01*
X71277218Y-23993023D01*
X71379679Y-23929618D01*
X71485391Y-23864202D01*
X71485395Y-23864199D01*
X71489364Y-23861743D01*
X71589900Y-23776633D01*
X71676209Y-23703567D01*
X71676210Y-23703566D01*
X71679775Y-23700548D01*
X71742449Y-23629082D01*
X71841187Y-23516494D01*
X71841191Y-23516489D01*
X71844269Y-23512979D01*
X71860803Y-23487275D01*
X71976703Y-23307087D01*
X71979231Y-23303157D01*
X72081697Y-23075691D01*
X72114355Y-22959896D01*
X72148146Y-22840082D01*
X72148147Y-22840079D01*
X72149416Y-22835578D01*
X72180900Y-22588092D01*
X72180984Y-22584909D01*
X72182243Y-22536828D01*
X72183207Y-22500000D01*
X72179933Y-22455939D01*
X73817370Y-22455939D01*
X73817594Y-22460606D01*
X73817594Y-22460611D01*
X73823354Y-22580535D01*
X73829339Y-22705131D01*
X73878010Y-22949818D01*
X73962314Y-23184622D01*
X74080398Y-23404386D01*
X74229668Y-23604283D01*
X74406844Y-23779921D01*
X74410606Y-23782679D01*
X74410609Y-23782682D01*
X74522139Y-23864458D01*
X74608036Y-23927440D01*
X74612171Y-23929616D01*
X74612175Y-23929618D01*
X74709002Y-23980561D01*
X74828823Y-24043602D01*
X74959347Y-24089183D01*
X75058550Y-24123826D01*
X75064354Y-24125853D01*
X75068947Y-24126725D01*
X75304867Y-24171516D01*
X75304870Y-24171516D01*
X75309456Y-24172387D01*
X75434100Y-24177285D01*
X75554075Y-24181999D01*
X75554081Y-24181999D01*
X75558743Y-24182182D01*
X75648181Y-24172387D01*
X75802087Y-24155532D01*
X75802092Y-24155531D01*
X75806740Y-24155022D01*
X75813140Y-24153337D01*
X76043476Y-24092694D01*
X76043478Y-24092693D01*
X76047999Y-24091503D01*
X76053399Y-24089183D01*
X76272924Y-23994868D01*
X76272926Y-23994867D01*
X76277218Y-23993023D01*
X76379679Y-23929618D01*
X76485391Y-23864202D01*
X76485395Y-23864199D01*
X76489364Y-23861743D01*
X76589900Y-23776633D01*
X76676209Y-23703567D01*
X76676210Y-23703566D01*
X76679775Y-23700548D01*
X76742449Y-23629082D01*
X76841187Y-23516494D01*
X76841191Y-23516489D01*
X76844269Y-23512979D01*
X76860803Y-23487275D01*
X76976703Y-23307087D01*
X76979231Y-23303157D01*
X77081697Y-23075691D01*
X77114355Y-22959896D01*
X77148146Y-22840082D01*
X77148147Y-22840079D01*
X77149416Y-22835578D01*
X77180900Y-22588092D01*
X77180984Y-22584909D01*
X77182243Y-22536828D01*
X77183207Y-22500000D01*
X77179933Y-22455939D01*
X78817370Y-22455939D01*
X78817594Y-22460606D01*
X78817594Y-22460611D01*
X78823354Y-22580535D01*
X78829339Y-22705131D01*
X78878010Y-22949818D01*
X78962314Y-23184622D01*
X79080398Y-23404386D01*
X79229668Y-23604283D01*
X79406844Y-23779921D01*
X79410606Y-23782679D01*
X79410609Y-23782682D01*
X79522139Y-23864458D01*
X79608036Y-23927440D01*
X79612171Y-23929616D01*
X79612175Y-23929618D01*
X79709002Y-23980561D01*
X79828823Y-24043602D01*
X79959347Y-24089183D01*
X80058550Y-24123826D01*
X80064354Y-24125853D01*
X80068947Y-24126725D01*
X80304867Y-24171516D01*
X80304870Y-24171516D01*
X80309456Y-24172387D01*
X80434100Y-24177285D01*
X80554075Y-24181999D01*
X80554081Y-24181999D01*
X80558743Y-24182182D01*
X80648181Y-24172387D01*
X80802087Y-24155532D01*
X80802092Y-24155531D01*
X80806740Y-24155022D01*
X80813140Y-24153337D01*
X81043476Y-24092694D01*
X81043478Y-24092693D01*
X81047999Y-24091503D01*
X81053399Y-24089183D01*
X81272924Y-23994868D01*
X81272926Y-23994867D01*
X81277218Y-23993023D01*
X81379679Y-23929618D01*
X81485391Y-23864202D01*
X81485395Y-23864199D01*
X81489364Y-23861743D01*
X81589900Y-23776633D01*
X81676209Y-23703567D01*
X81676210Y-23703566D01*
X81679775Y-23700548D01*
X81742449Y-23629082D01*
X81841187Y-23516494D01*
X81841191Y-23516489D01*
X81844269Y-23512979D01*
X81860803Y-23487275D01*
X81976703Y-23307087D01*
X81979231Y-23303157D01*
X82081697Y-23075691D01*
X82114355Y-22959896D01*
X82148146Y-22840082D01*
X82148147Y-22840079D01*
X82149416Y-22835578D01*
X82180900Y-22588092D01*
X82180984Y-22584909D01*
X82182243Y-22536828D01*
X82183207Y-22500000D01*
X82167725Y-22291668D01*
X82165064Y-22255858D01*
X82165063Y-22255854D01*
X82164718Y-22251206D01*
X82109659Y-22007878D01*
X82106535Y-21999844D01*
X82020931Y-21779714D01*
X82020930Y-21779712D01*
X82019238Y-21775361D01*
X81994494Y-21732067D01*
X81973285Y-21694959D01*
X81895442Y-21558763D01*
X81740990Y-21362842D01*
X81559276Y-21191902D01*
X81421982Y-21096658D01*
X81358130Y-21052362D01*
X81358125Y-21052359D01*
X81354292Y-21049700D01*
X81350110Y-21047637D01*
X81350102Y-21047633D01*
X81134728Y-20941423D01*
X81134725Y-20941422D01*
X81130540Y-20939358D01*
X80892937Y-20863300D01*
X80888330Y-20862550D01*
X80888327Y-20862549D01*
X80651312Y-20823949D01*
X80651313Y-20823949D01*
X80646701Y-20823198D01*
X80525753Y-20821615D01*
X80401920Y-20819994D01*
X80401917Y-20819994D01*
X80397243Y-20819933D01*
X80150042Y-20853575D01*
X80145556Y-20854883D01*
X80145554Y-20854883D01*
X80117576Y-20863038D01*
X79910528Y-20923387D01*
X79906275Y-20925347D01*
X79906274Y-20925348D01*
X79900552Y-20927986D01*
X79683965Y-21027834D01*
X79680056Y-21030397D01*
X79479242Y-21162056D01*
X79479237Y-21162060D01*
X79475329Y-21164622D01*
X79418448Y-21215390D01*
X79294875Y-21325683D01*
X79289202Y-21330746D01*
X79129675Y-21522557D01*
X79000252Y-21735840D01*
X78998443Y-21740154D01*
X78998442Y-21740156D01*
X78906508Y-21959394D01*
X78903775Y-21965911D01*
X78902624Y-21970443D01*
X78902623Y-21970446D01*
X78894185Y-22003671D01*
X78842365Y-22207714D01*
X78817370Y-22455939D01*
X77179933Y-22455939D01*
X77167725Y-22291668D01*
X77165064Y-22255858D01*
X77165063Y-22255854D01*
X77164718Y-22251206D01*
X77109659Y-22007878D01*
X77106535Y-21999844D01*
X77020931Y-21779714D01*
X77020930Y-21779712D01*
X77019238Y-21775361D01*
X76994494Y-21732067D01*
X76973285Y-21694959D01*
X76895442Y-21558763D01*
X76740990Y-21362842D01*
X76559276Y-21191902D01*
X76421982Y-21096658D01*
X76358130Y-21052362D01*
X76358125Y-21052359D01*
X76354292Y-21049700D01*
X76350110Y-21047637D01*
X76350102Y-21047633D01*
X76134728Y-20941423D01*
X76134725Y-20941422D01*
X76130540Y-20939358D01*
X75892937Y-20863300D01*
X75888330Y-20862550D01*
X75888327Y-20862549D01*
X75651312Y-20823949D01*
X75651313Y-20823949D01*
X75646701Y-20823198D01*
X75525753Y-20821615D01*
X75401920Y-20819994D01*
X75401917Y-20819994D01*
X75397243Y-20819933D01*
X75150042Y-20853575D01*
X75145556Y-20854883D01*
X75145554Y-20854883D01*
X75117576Y-20863038D01*
X74910528Y-20923387D01*
X74906275Y-20925347D01*
X74906274Y-20925348D01*
X74900552Y-20927986D01*
X74683965Y-21027834D01*
X74680056Y-21030397D01*
X74479242Y-21162056D01*
X74479237Y-21162060D01*
X74475329Y-21164622D01*
X74418448Y-21215390D01*
X74294875Y-21325683D01*
X74289202Y-21330746D01*
X74129675Y-21522557D01*
X74000252Y-21735840D01*
X73998443Y-21740154D01*
X73998442Y-21740156D01*
X73906508Y-21959394D01*
X73903775Y-21965911D01*
X73902624Y-21970443D01*
X73902623Y-21970446D01*
X73894185Y-22003671D01*
X73842365Y-22207714D01*
X73817370Y-22455939D01*
X72179933Y-22455939D01*
X72167725Y-22291668D01*
X72165064Y-22255858D01*
X72165063Y-22255854D01*
X72164718Y-22251206D01*
X72109659Y-22007878D01*
X72106535Y-21999844D01*
X72020931Y-21779714D01*
X72020930Y-21779712D01*
X72019238Y-21775361D01*
X71994494Y-21732067D01*
X71973285Y-21694959D01*
X71895442Y-21558763D01*
X71740990Y-21362842D01*
X71559276Y-21191902D01*
X71421982Y-21096658D01*
X71358130Y-21052362D01*
X71358125Y-21052359D01*
X71354292Y-21049700D01*
X71350110Y-21047637D01*
X71350102Y-21047633D01*
X71134728Y-20941423D01*
X71134725Y-20941422D01*
X71130540Y-20939358D01*
X70892937Y-20863300D01*
X70888330Y-20862550D01*
X70888327Y-20862549D01*
X70651312Y-20823949D01*
X70651313Y-20823949D01*
X70646701Y-20823198D01*
X70525753Y-20821615D01*
X70401920Y-20819994D01*
X70401917Y-20819994D01*
X70397243Y-20819933D01*
X70150042Y-20853575D01*
X70145556Y-20854883D01*
X70145554Y-20854883D01*
X70117576Y-20863038D01*
X69910528Y-20923387D01*
X69906275Y-20925347D01*
X69906274Y-20925348D01*
X69900552Y-20927986D01*
X69683965Y-21027834D01*
X69680056Y-21030397D01*
X69479242Y-21162056D01*
X69479237Y-21162060D01*
X69475329Y-21164622D01*
X69418448Y-21215390D01*
X69294875Y-21325683D01*
X69289202Y-21330746D01*
X69129675Y-21522557D01*
X69000252Y-21735840D01*
X68998443Y-21740154D01*
X68998442Y-21740156D01*
X68906508Y-21959394D01*
X68903775Y-21965911D01*
X68902624Y-21970443D01*
X68902623Y-21970446D01*
X68894185Y-22003671D01*
X68842365Y-22207714D01*
X68817370Y-22455939D01*
X49923508Y-22455939D01*
X49551296Y-22083727D01*
X49543756Y-22075441D01*
X49539644Y-22068962D01*
X49489985Y-22022329D01*
X49487144Y-22019575D01*
X49467413Y-21999844D01*
X49464288Y-21997420D01*
X49464280Y-21997413D01*
X49464220Y-21997367D01*
X49455194Y-21989658D01*
X49441455Y-21976756D01*
X49422966Y-21959394D01*
X49416022Y-21955577D01*
X49416020Y-21955575D01*
X49405207Y-21949630D01*
X49388687Y-21938778D01*
X49386824Y-21937333D01*
X49372684Y-21926365D01*
X49365411Y-21923218D01*
X49365408Y-21923216D01*
X49332102Y-21908803D01*
X49321443Y-21903581D01*
X49289654Y-21886105D01*
X49289652Y-21886104D01*
X49282705Y-21882285D01*
X49263074Y-21877245D01*
X49244381Y-21870844D01*
X49233065Y-21865947D01*
X49225788Y-21862798D01*
X49182119Y-21855882D01*
X49170504Y-21853476D01*
X49127675Y-21842479D01*
X49107419Y-21842479D01*
X49087708Y-21840928D01*
X49075529Y-21838999D01*
X49067700Y-21837759D01*
X49040812Y-21840301D01*
X48971112Y-21826799D01*
X48939859Y-21803955D01*
X46711317Y-19575413D01*
X46677291Y-19513101D01*
X46682356Y-19442286D01*
X46724903Y-19385450D01*
X46791423Y-19360639D01*
X46805024Y-19360403D01*
X46820845Y-19360983D01*
X46836674Y-19361564D01*
X46836678Y-19361564D01*
X46841837Y-19361753D01*
X46846957Y-19361097D01*
X46846959Y-19361097D01*
X47058288Y-19334025D01*
X47058289Y-19334025D01*
X47063416Y-19333368D01*
X47068369Y-19331882D01*
X47272429Y-19270661D01*
X47272434Y-19270659D01*
X47277384Y-19269174D01*
X47477994Y-19170896D01*
X47659860Y-19041173D01*
X47818096Y-18883489D01*
X47877594Y-18800689D01*
X47948453Y-18702077D01*
X47949776Y-18703028D01*
X47996645Y-18659857D01*
X48066580Y-18647625D01*
X48132026Y-18675144D01*
X48159875Y-18706994D01*
X48219987Y-18805088D01*
X48366250Y-18973938D01*
X48538126Y-19116632D01*
X48731000Y-19229338D01*
X48939692Y-19309030D01*
X48944760Y-19310061D01*
X48944763Y-19310062D01*
X49052012Y-19331882D01*
X49158597Y-19353567D01*
X49163772Y-19353757D01*
X49163774Y-19353757D01*
X49376673Y-19361564D01*
X49376677Y-19361564D01*
X49381837Y-19361753D01*
X49386957Y-19361097D01*
X49386959Y-19361097D01*
X49598288Y-19334025D01*
X49598289Y-19334025D01*
X49603416Y-19333368D01*
X49608369Y-19331882D01*
X49812429Y-19270661D01*
X49812434Y-19270659D01*
X49817384Y-19269174D01*
X50017994Y-19170896D01*
X50199860Y-19041173D01*
X50358096Y-18883489D01*
X50417594Y-18800689D01*
X50488453Y-18702077D01*
X50489776Y-18703028D01*
X50536645Y-18659857D01*
X50606580Y-18647625D01*
X50672026Y-18675144D01*
X50699875Y-18706994D01*
X50759987Y-18805088D01*
X50906250Y-18973938D01*
X51078126Y-19116632D01*
X51271000Y-19229338D01*
X51479692Y-19309030D01*
X51484760Y-19310061D01*
X51484763Y-19310062D01*
X51592012Y-19331882D01*
X51698597Y-19353567D01*
X51703772Y-19353757D01*
X51703774Y-19353757D01*
X51916673Y-19361564D01*
X51916677Y-19361564D01*
X51921837Y-19361753D01*
X51926957Y-19361097D01*
X51926959Y-19361097D01*
X52138288Y-19334025D01*
X52138289Y-19334025D01*
X52143416Y-19333368D01*
X52148369Y-19331882D01*
X52352429Y-19270661D01*
X52352434Y-19270659D01*
X52357384Y-19269174D01*
X52557994Y-19170896D01*
X52739860Y-19041173D01*
X52807331Y-18973938D01*
X52848479Y-18932933D01*
X52910851Y-18899017D01*
X52981658Y-18904205D01*
X53038419Y-18946851D01*
X53055401Y-18977954D01*
X53096676Y-19088054D01*
X53105214Y-19103649D01*
X53181715Y-19205724D01*
X53194276Y-19218285D01*
X53296351Y-19294786D01*
X53311946Y-19303324D01*
X53432394Y-19348478D01*
X53447649Y-19352105D01*
X53498514Y-19357631D01*
X53505328Y-19358000D01*
X54127885Y-19358000D01*
X54143124Y-19353525D01*
X54144329Y-19352135D01*
X54146000Y-19344452D01*
X54146000Y-19339884D01*
X54654000Y-19339884D01*
X54658475Y-19355123D01*
X54659865Y-19356328D01*
X54667548Y-19357999D01*
X55294669Y-19357999D01*
X55301490Y-19357629D01*
X55352352Y-19352105D01*
X55367604Y-19348479D01*
X55488054Y-19303324D01*
X55503649Y-19294786D01*
X55605724Y-19218285D01*
X55618285Y-19205724D01*
X55694786Y-19103649D01*
X55703324Y-19088054D01*
X55748478Y-18967606D01*
X55752105Y-18952351D01*
X55757631Y-18901486D01*
X55758000Y-18894672D01*
X55758000Y-18272115D01*
X55753525Y-18256876D01*
X55752135Y-18255671D01*
X55744452Y-18254000D01*
X54672115Y-18254000D01*
X54656876Y-18258475D01*
X54655671Y-18259865D01*
X54654000Y-18267548D01*
X54654000Y-19339884D01*
X54146000Y-19339884D01*
X54146000Y-17727885D01*
X54654000Y-17727885D01*
X54658475Y-17743124D01*
X54659865Y-17744329D01*
X54667548Y-17746000D01*
X55739884Y-17746000D01*
X55755123Y-17741525D01*
X55756328Y-17740135D01*
X55757999Y-17732452D01*
X55757999Y-17455939D01*
X68817370Y-17455939D01*
X68817594Y-17460606D01*
X68817594Y-17460611D01*
X68822402Y-17560702D01*
X68829339Y-17705131D01*
X68878010Y-17949818D01*
X68962314Y-18184622D01*
X69080398Y-18404386D01*
X69083193Y-18408130D01*
X69083195Y-18408132D01*
X69151694Y-18499863D01*
X69229668Y-18604283D01*
X69406844Y-18779921D01*
X69410606Y-18782679D01*
X69410609Y-18782682D01*
X69542370Y-18879292D01*
X69608036Y-18927440D01*
X69612171Y-18929616D01*
X69612175Y-18929618D01*
X69688988Y-18970031D01*
X69828823Y-19043602D01*
X70064354Y-19125853D01*
X70068947Y-19126725D01*
X70304867Y-19171516D01*
X70304870Y-19171516D01*
X70309456Y-19172387D01*
X70434100Y-19177285D01*
X70554075Y-19181999D01*
X70554081Y-19181999D01*
X70558743Y-19182182D01*
X70656134Y-19171516D01*
X70802087Y-19155532D01*
X70802092Y-19155531D01*
X70806740Y-19155022D01*
X70811264Y-19153831D01*
X71043476Y-19092694D01*
X71043478Y-19092693D01*
X71047999Y-19091503D01*
X71056027Y-19088054D01*
X71272924Y-18994868D01*
X71272926Y-18994867D01*
X71277218Y-18993023D01*
X71387667Y-18924675D01*
X71485391Y-18864202D01*
X71485395Y-18864199D01*
X71489364Y-18861743D01*
X71679775Y-18700548D01*
X71726187Y-18647625D01*
X71841187Y-18516494D01*
X71841191Y-18516489D01*
X71844269Y-18512979D01*
X71851453Y-18501811D01*
X71976703Y-18307087D01*
X71979231Y-18303157D01*
X72081697Y-18075691D01*
X72113885Y-17961562D01*
X72148146Y-17840082D01*
X72148147Y-17840079D01*
X72149416Y-17835578D01*
X72180900Y-17588092D01*
X72183207Y-17500000D01*
X72179933Y-17455939D01*
X73817370Y-17455939D01*
X73817594Y-17460606D01*
X73817594Y-17460611D01*
X73822402Y-17560702D01*
X73829339Y-17705131D01*
X73878010Y-17949818D01*
X73962314Y-18184622D01*
X74080398Y-18404386D01*
X74083193Y-18408130D01*
X74083195Y-18408132D01*
X74151694Y-18499863D01*
X74229668Y-18604283D01*
X74406844Y-18779921D01*
X74410606Y-18782679D01*
X74410609Y-18782682D01*
X74542370Y-18879292D01*
X74608036Y-18927440D01*
X74612171Y-18929616D01*
X74612175Y-18929618D01*
X74688988Y-18970031D01*
X74828823Y-19043602D01*
X75064354Y-19125853D01*
X75068947Y-19126725D01*
X75304867Y-19171516D01*
X75304870Y-19171516D01*
X75309456Y-19172387D01*
X75434100Y-19177285D01*
X75554075Y-19181999D01*
X75554081Y-19181999D01*
X75558743Y-19182182D01*
X75656134Y-19171516D01*
X75802087Y-19155532D01*
X75802092Y-19155531D01*
X75806740Y-19155022D01*
X75811264Y-19153831D01*
X76043476Y-19092694D01*
X76043478Y-19092693D01*
X76047999Y-19091503D01*
X76056027Y-19088054D01*
X76272924Y-18994868D01*
X76272926Y-18994867D01*
X76277218Y-18993023D01*
X76387667Y-18924675D01*
X76485391Y-18864202D01*
X76485395Y-18864199D01*
X76489364Y-18861743D01*
X76679775Y-18700548D01*
X76726187Y-18647625D01*
X76841187Y-18516494D01*
X76841191Y-18516489D01*
X76844269Y-18512979D01*
X76851453Y-18501811D01*
X76976703Y-18307087D01*
X76979231Y-18303157D01*
X77081697Y-18075691D01*
X77113885Y-17961562D01*
X77148146Y-17840082D01*
X77148147Y-17840079D01*
X77149416Y-17835578D01*
X77180900Y-17588092D01*
X77183207Y-17500000D01*
X77179933Y-17455939D01*
X78817370Y-17455939D01*
X78817594Y-17460606D01*
X78817594Y-17460611D01*
X78822402Y-17560702D01*
X78829339Y-17705131D01*
X78878010Y-17949818D01*
X78962314Y-18184622D01*
X79080398Y-18404386D01*
X79083193Y-18408130D01*
X79083195Y-18408132D01*
X79151694Y-18499863D01*
X79229668Y-18604283D01*
X79406844Y-18779921D01*
X79410606Y-18782679D01*
X79410609Y-18782682D01*
X79542370Y-18879292D01*
X79608036Y-18927440D01*
X79612171Y-18929616D01*
X79612175Y-18929618D01*
X79688988Y-18970031D01*
X79828823Y-19043602D01*
X80064354Y-19125853D01*
X80068947Y-19126725D01*
X80304867Y-19171516D01*
X80304870Y-19171516D01*
X80309456Y-19172387D01*
X80434100Y-19177285D01*
X80554075Y-19181999D01*
X80554081Y-19181999D01*
X80558743Y-19182182D01*
X80656134Y-19171516D01*
X80802087Y-19155532D01*
X80802092Y-19155531D01*
X80806740Y-19155022D01*
X80811264Y-19153831D01*
X81043476Y-19092694D01*
X81043478Y-19092693D01*
X81047999Y-19091503D01*
X81056027Y-19088054D01*
X81272924Y-18994868D01*
X81272926Y-18994867D01*
X81277218Y-18993023D01*
X81387667Y-18924675D01*
X81485391Y-18864202D01*
X81485395Y-18864199D01*
X81489364Y-18861743D01*
X81679775Y-18700548D01*
X81726187Y-18647625D01*
X81841187Y-18516494D01*
X81841191Y-18516489D01*
X81844269Y-18512979D01*
X81851453Y-18501811D01*
X81976703Y-18307087D01*
X81979231Y-18303157D01*
X82081697Y-18075691D01*
X82113885Y-17961562D01*
X82148146Y-17840082D01*
X82148147Y-17840079D01*
X82149416Y-17835578D01*
X82180900Y-17588092D01*
X82183207Y-17500000D01*
X82164718Y-17251206D01*
X82109659Y-17007878D01*
X82106536Y-16999848D01*
X82020931Y-16779714D01*
X82020930Y-16779712D01*
X82019238Y-16775361D01*
X82007551Y-16754912D01*
X81948458Y-16651522D01*
X81895442Y-16558763D01*
X81740990Y-16362842D01*
X81559276Y-16191902D01*
X81443160Y-16111350D01*
X81358130Y-16052362D01*
X81358125Y-16052359D01*
X81354292Y-16049700D01*
X81350110Y-16047637D01*
X81350102Y-16047633D01*
X81134728Y-15941423D01*
X81134725Y-15941422D01*
X81130540Y-15939358D01*
X80892937Y-15863300D01*
X80888330Y-15862550D01*
X80888327Y-15862549D01*
X80651312Y-15823949D01*
X80651313Y-15823949D01*
X80646701Y-15823198D01*
X80525753Y-15821615D01*
X80401920Y-15819994D01*
X80401917Y-15819994D01*
X80397243Y-15819933D01*
X80150042Y-15853575D01*
X80145556Y-15854883D01*
X80145554Y-15854883D01*
X80116677Y-15863300D01*
X79910528Y-15923387D01*
X79683965Y-16027834D01*
X79680056Y-16030397D01*
X79479242Y-16162056D01*
X79479237Y-16162060D01*
X79475329Y-16164622D01*
X79289202Y-16330746D01*
X79129675Y-16522557D01*
X79000252Y-16735840D01*
X78998443Y-16740154D01*
X78998442Y-16740156D01*
X78975748Y-16794276D01*
X78903775Y-16965911D01*
X78902624Y-16970443D01*
X78902623Y-16970446D01*
X78893373Y-17006870D01*
X78842365Y-17207714D01*
X78817370Y-17455939D01*
X77179933Y-17455939D01*
X77164718Y-17251206D01*
X77109659Y-17007878D01*
X77106536Y-16999848D01*
X77020931Y-16779714D01*
X77020930Y-16779712D01*
X77019238Y-16775361D01*
X77007551Y-16754912D01*
X76948458Y-16651522D01*
X76895442Y-16558763D01*
X76740990Y-16362842D01*
X76559276Y-16191902D01*
X76443160Y-16111350D01*
X76358130Y-16052362D01*
X76358125Y-16052359D01*
X76354292Y-16049700D01*
X76350110Y-16047637D01*
X76350102Y-16047633D01*
X76134728Y-15941423D01*
X76134725Y-15941422D01*
X76130540Y-15939358D01*
X75892937Y-15863300D01*
X75888330Y-15862550D01*
X75888327Y-15862549D01*
X75651312Y-15823949D01*
X75651313Y-15823949D01*
X75646701Y-15823198D01*
X75525753Y-15821615D01*
X75401920Y-15819994D01*
X75401917Y-15819994D01*
X75397243Y-15819933D01*
X75150042Y-15853575D01*
X75145556Y-15854883D01*
X75145554Y-15854883D01*
X75116677Y-15863300D01*
X74910528Y-15923387D01*
X74683965Y-16027834D01*
X74680056Y-16030397D01*
X74479242Y-16162056D01*
X74479237Y-16162060D01*
X74475329Y-16164622D01*
X74289202Y-16330746D01*
X74129675Y-16522557D01*
X74000252Y-16735840D01*
X73998443Y-16740154D01*
X73998442Y-16740156D01*
X73975748Y-16794276D01*
X73903775Y-16965911D01*
X73902624Y-16970443D01*
X73902623Y-16970446D01*
X73893373Y-17006870D01*
X73842365Y-17207714D01*
X73817370Y-17455939D01*
X72179933Y-17455939D01*
X72164718Y-17251206D01*
X72109659Y-17007878D01*
X72106536Y-16999848D01*
X72020931Y-16779714D01*
X72020930Y-16779712D01*
X72019238Y-16775361D01*
X72007551Y-16754912D01*
X71948458Y-16651522D01*
X71895442Y-16558763D01*
X71740990Y-16362842D01*
X71559276Y-16191902D01*
X71443160Y-16111350D01*
X71358130Y-16052362D01*
X71358125Y-16052359D01*
X71354292Y-16049700D01*
X71350110Y-16047637D01*
X71350102Y-16047633D01*
X71134728Y-15941423D01*
X71134725Y-15941422D01*
X71130540Y-15939358D01*
X70892937Y-15863300D01*
X70888330Y-15862550D01*
X70888327Y-15862549D01*
X70651312Y-15823949D01*
X70651313Y-15823949D01*
X70646701Y-15823198D01*
X70525753Y-15821615D01*
X70401920Y-15819994D01*
X70401917Y-15819994D01*
X70397243Y-15819933D01*
X70150042Y-15853575D01*
X70145556Y-15854883D01*
X70145554Y-15854883D01*
X70116677Y-15863300D01*
X69910528Y-15923387D01*
X69683965Y-16027834D01*
X69680056Y-16030397D01*
X69479242Y-16162056D01*
X69479237Y-16162060D01*
X69475329Y-16164622D01*
X69289202Y-16330746D01*
X69129675Y-16522557D01*
X69000252Y-16735840D01*
X68998443Y-16740154D01*
X68998442Y-16740156D01*
X68975748Y-16794276D01*
X68903775Y-16965911D01*
X68902624Y-16970443D01*
X68902623Y-16970446D01*
X68893373Y-17006870D01*
X68842365Y-17207714D01*
X68817370Y-17455939D01*
X55757999Y-17455939D01*
X55757999Y-17105331D01*
X55757629Y-17098510D01*
X55752105Y-17047648D01*
X55748479Y-17032396D01*
X55703324Y-16911946D01*
X55694786Y-16896351D01*
X55618285Y-16794276D01*
X55605724Y-16781715D01*
X55503649Y-16705214D01*
X55488054Y-16696676D01*
X55367606Y-16651522D01*
X55352351Y-16647895D01*
X55301486Y-16642369D01*
X55294672Y-16642000D01*
X54672115Y-16642000D01*
X54656876Y-16646475D01*
X54655671Y-16647865D01*
X54654000Y-16655548D01*
X54654000Y-17727885D01*
X54146000Y-17727885D01*
X54146000Y-16660116D01*
X54141525Y-16644877D01*
X54140135Y-16643672D01*
X54132452Y-16642001D01*
X53505331Y-16642001D01*
X53498510Y-16642371D01*
X53447648Y-16647895D01*
X53432396Y-16651521D01*
X53311946Y-16696676D01*
X53296351Y-16705214D01*
X53194276Y-16781715D01*
X53181715Y-16794276D01*
X53105214Y-16896351D01*
X53096676Y-16911946D01*
X53055297Y-17022322D01*
X53012655Y-17079087D01*
X52946093Y-17103786D01*
X52876744Y-17088578D01*
X52844121Y-17062891D01*
X52793151Y-17006876D01*
X52793145Y-17006870D01*
X52789670Y-17003051D01*
X52785619Y-16999852D01*
X52785615Y-16999848D01*
X52618414Y-16867800D01*
X52618410Y-16867798D01*
X52614359Y-16864598D01*
X52418789Y-16756638D01*
X52413920Y-16754914D01*
X52413916Y-16754912D01*
X52213087Y-16683795D01*
X52213083Y-16683794D01*
X52208212Y-16682069D01*
X52203119Y-16681162D01*
X52203116Y-16681161D01*
X51993373Y-16643800D01*
X51993367Y-16643799D01*
X51988284Y-16642894D01*
X51914452Y-16641992D01*
X51770081Y-16640228D01*
X51770079Y-16640228D01*
X51764911Y-16640165D01*
X51544091Y-16673955D01*
X51331756Y-16743357D01*
X51133607Y-16846507D01*
X51129474Y-16849610D01*
X51129471Y-16849612D01*
X50968535Y-16970446D01*
X50954965Y-16980635D01*
X50800629Y-17142138D01*
X50693201Y-17299621D01*
X50638293Y-17344621D01*
X50567768Y-17352792D01*
X50504021Y-17321538D01*
X50483324Y-17297054D01*
X50402822Y-17172617D01*
X50402820Y-17172614D01*
X50400014Y-17168277D01*
X50249670Y-17003051D01*
X50245619Y-16999852D01*
X50245615Y-16999848D01*
X50078414Y-16867800D01*
X50078410Y-16867798D01*
X50074359Y-16864598D01*
X49878789Y-16756638D01*
X49873920Y-16754914D01*
X49873916Y-16754912D01*
X49673087Y-16683795D01*
X49673083Y-16683794D01*
X49668212Y-16682069D01*
X49663119Y-16681162D01*
X49663116Y-16681161D01*
X49453373Y-16643800D01*
X49453367Y-16643799D01*
X49448284Y-16642894D01*
X49374452Y-16641992D01*
X49230081Y-16640228D01*
X49230079Y-16640228D01*
X49224911Y-16640165D01*
X49004091Y-16673955D01*
X48791756Y-16743357D01*
X48593607Y-16846507D01*
X48589474Y-16849610D01*
X48589471Y-16849612D01*
X48428535Y-16970446D01*
X48414965Y-16980635D01*
X48260629Y-17142138D01*
X48153201Y-17299621D01*
X48098293Y-17344621D01*
X48027768Y-17352792D01*
X47964021Y-17321538D01*
X47943324Y-17297054D01*
X47862822Y-17172617D01*
X47862820Y-17172614D01*
X47860014Y-17168277D01*
X47709670Y-17003051D01*
X47705619Y-16999852D01*
X47705615Y-16999848D01*
X47538414Y-16867800D01*
X47538410Y-16867798D01*
X47534359Y-16864598D01*
X47338789Y-16756638D01*
X47333920Y-16754914D01*
X47333916Y-16754912D01*
X47133087Y-16683795D01*
X47133083Y-16683794D01*
X47128212Y-16682069D01*
X47123119Y-16681162D01*
X47123116Y-16681161D01*
X46913373Y-16643800D01*
X46913367Y-16643799D01*
X46908284Y-16642894D01*
X46834452Y-16641992D01*
X46690081Y-16640228D01*
X46690079Y-16640228D01*
X46684911Y-16640165D01*
X46464091Y-16673955D01*
X46251756Y-16743357D01*
X46053607Y-16846507D01*
X46049474Y-16849610D01*
X46049471Y-16849612D01*
X45888535Y-16970446D01*
X45874965Y-16980635D01*
X45720629Y-17142138D01*
X45613201Y-17299621D01*
X45558293Y-17344621D01*
X45487768Y-17352792D01*
X45424021Y-17321538D01*
X45403324Y-17297054D01*
X45322822Y-17172617D01*
X45322820Y-17172614D01*
X45320014Y-17168277D01*
X45169670Y-17003051D01*
X45165619Y-16999852D01*
X45165615Y-16999848D01*
X44998414Y-16867800D01*
X44998410Y-16867798D01*
X44994359Y-16864598D01*
X44798789Y-16756638D01*
X44793920Y-16754914D01*
X44793916Y-16754912D01*
X44593087Y-16683795D01*
X44593083Y-16683794D01*
X44588212Y-16682069D01*
X44583119Y-16681162D01*
X44583116Y-16681161D01*
X44373373Y-16643800D01*
X44373367Y-16643799D01*
X44368284Y-16642894D01*
X44294452Y-16641992D01*
X44150081Y-16640228D01*
X44150079Y-16640228D01*
X44144911Y-16640165D01*
X43924091Y-16673955D01*
X43711756Y-16743357D01*
X43513607Y-16846507D01*
X43509474Y-16849610D01*
X43509471Y-16849612D01*
X43348535Y-16970446D01*
X43334965Y-16980635D01*
X43180629Y-17142138D01*
X43073201Y-17299621D01*
X43018293Y-17344621D01*
X42947768Y-17352792D01*
X42884021Y-17321538D01*
X42863324Y-17297054D01*
X42782822Y-17172617D01*
X42782820Y-17172614D01*
X42780014Y-17168277D01*
X42629670Y-17003051D01*
X42625619Y-16999852D01*
X42625615Y-16999848D01*
X42458414Y-16867800D01*
X42458410Y-16867798D01*
X42454359Y-16864598D01*
X42258789Y-16756638D01*
X42253920Y-16754914D01*
X42253916Y-16754912D01*
X42053087Y-16683795D01*
X42053083Y-16683794D01*
X42048212Y-16682069D01*
X42043119Y-16681162D01*
X42043116Y-16681161D01*
X41833373Y-16643800D01*
X41833367Y-16643799D01*
X41828284Y-16642894D01*
X41754452Y-16641992D01*
X41610081Y-16640228D01*
X41610079Y-16640228D01*
X41604911Y-16640165D01*
X41384091Y-16673955D01*
X41171756Y-16743357D01*
X40973607Y-16846507D01*
X40969474Y-16849610D01*
X40969471Y-16849612D01*
X40808535Y-16970446D01*
X40794965Y-16980635D01*
X40640629Y-17142138D01*
X40533201Y-17299621D01*
X40478293Y-17344621D01*
X40407768Y-17352792D01*
X40344021Y-17321538D01*
X40323324Y-17297054D01*
X40242822Y-17172617D01*
X40242820Y-17172614D01*
X40240014Y-17168277D01*
X40089670Y-17003051D01*
X40085619Y-16999852D01*
X40085615Y-16999848D01*
X39918414Y-16867800D01*
X39918410Y-16867798D01*
X39914359Y-16864598D01*
X39718789Y-16756638D01*
X39713920Y-16754914D01*
X39713916Y-16754912D01*
X39513087Y-16683795D01*
X39513083Y-16683794D01*
X39508212Y-16682069D01*
X39503119Y-16681162D01*
X39503116Y-16681161D01*
X39293373Y-16643800D01*
X39293367Y-16643799D01*
X39288284Y-16642894D01*
X39214452Y-16641992D01*
X39070081Y-16640228D01*
X39070079Y-16640228D01*
X39064911Y-16640165D01*
X38844091Y-16673955D01*
X38631756Y-16743357D01*
X38433607Y-16846507D01*
X38429474Y-16849610D01*
X38429471Y-16849612D01*
X38268535Y-16970446D01*
X38254965Y-16980635D01*
X38100629Y-17142138D01*
X37993201Y-17299621D01*
X37938293Y-17344621D01*
X37867768Y-17352792D01*
X37804021Y-17321538D01*
X37783324Y-17297054D01*
X37702822Y-17172617D01*
X37702820Y-17172614D01*
X37700014Y-17168277D01*
X37549670Y-17003051D01*
X37545619Y-16999852D01*
X37545615Y-16999848D01*
X37378414Y-16867800D01*
X37378410Y-16867798D01*
X37374359Y-16864598D01*
X37178789Y-16756638D01*
X37173920Y-16754914D01*
X37173916Y-16754912D01*
X36973087Y-16683795D01*
X36973083Y-16683794D01*
X36968212Y-16682069D01*
X36963119Y-16681162D01*
X36963116Y-16681161D01*
X36753373Y-16643800D01*
X36753367Y-16643799D01*
X36748284Y-16642894D01*
X36674452Y-16641992D01*
X36530081Y-16640228D01*
X36530079Y-16640228D01*
X36524911Y-16640165D01*
X36304091Y-16673955D01*
X36091756Y-16743357D01*
X35893607Y-16846507D01*
X35889474Y-16849610D01*
X35889471Y-16849612D01*
X35728535Y-16970446D01*
X35714965Y-16980635D01*
X35560629Y-17142138D01*
X35453201Y-17299621D01*
X35398293Y-17344621D01*
X35327768Y-17352792D01*
X35264021Y-17321538D01*
X35243324Y-17297054D01*
X35162822Y-17172617D01*
X35162820Y-17172614D01*
X35160014Y-17168277D01*
X35009670Y-17003051D01*
X35005619Y-16999852D01*
X35005615Y-16999848D01*
X34838414Y-16867800D01*
X34838410Y-16867798D01*
X34834359Y-16864598D01*
X34638789Y-16756638D01*
X34633920Y-16754914D01*
X34633916Y-16754912D01*
X34433087Y-16683795D01*
X34433083Y-16683794D01*
X34428212Y-16682069D01*
X34423119Y-16681162D01*
X34423116Y-16681161D01*
X34213373Y-16643800D01*
X34213367Y-16643799D01*
X34208284Y-16642894D01*
X34134452Y-16641992D01*
X33990081Y-16640228D01*
X33990079Y-16640228D01*
X33984911Y-16640165D01*
X33764091Y-16673955D01*
X33551756Y-16743357D01*
X33353607Y-16846507D01*
X33349474Y-16849610D01*
X33349471Y-16849612D01*
X33188535Y-16970446D01*
X33174965Y-16980635D01*
X33020629Y-17142138D01*
X32913201Y-17299621D01*
X32858293Y-17344621D01*
X32787768Y-17352792D01*
X32724021Y-17321538D01*
X32703324Y-17297054D01*
X32622822Y-17172617D01*
X32622820Y-17172614D01*
X32620014Y-17168277D01*
X32469670Y-17003051D01*
X32465619Y-16999852D01*
X32465615Y-16999848D01*
X32298414Y-16867800D01*
X32298410Y-16867798D01*
X32294359Y-16864598D01*
X32098789Y-16756638D01*
X32093920Y-16754914D01*
X32093916Y-16754912D01*
X31893087Y-16683795D01*
X31893083Y-16683794D01*
X31888212Y-16682069D01*
X31883119Y-16681162D01*
X31883116Y-16681161D01*
X31673373Y-16643800D01*
X31673367Y-16643799D01*
X31668284Y-16642894D01*
X31594452Y-16641992D01*
X31450081Y-16640228D01*
X31450079Y-16640228D01*
X31444911Y-16640165D01*
X31224091Y-16673955D01*
X31011756Y-16743357D01*
X30813607Y-16846507D01*
X30809474Y-16849610D01*
X30809471Y-16849612D01*
X30648535Y-16970446D01*
X30634965Y-16980635D01*
X30480629Y-17142138D01*
X30373201Y-17299621D01*
X30318293Y-17344621D01*
X30247768Y-17352792D01*
X30184021Y-17321538D01*
X30163324Y-17297054D01*
X30082822Y-17172617D01*
X30082820Y-17172614D01*
X30080014Y-17168277D01*
X29929670Y-17003051D01*
X29925619Y-16999852D01*
X29925615Y-16999848D01*
X29758414Y-16867800D01*
X29758410Y-16867798D01*
X29754359Y-16864598D01*
X29558789Y-16756638D01*
X29553920Y-16754914D01*
X29553916Y-16754912D01*
X29353087Y-16683795D01*
X29353083Y-16683794D01*
X29348212Y-16682069D01*
X29343119Y-16681162D01*
X29343116Y-16681161D01*
X29133373Y-16643800D01*
X29133367Y-16643799D01*
X29128284Y-16642894D01*
X29054452Y-16641992D01*
X28910081Y-16640228D01*
X28910079Y-16640228D01*
X28904911Y-16640165D01*
X28684091Y-16673955D01*
X28471756Y-16743357D01*
X28273607Y-16846507D01*
X28269474Y-16849610D01*
X28269471Y-16849612D01*
X28108535Y-16970446D01*
X28094965Y-16980635D01*
X27940629Y-17142138D01*
X27833201Y-17299621D01*
X27778293Y-17344621D01*
X27707768Y-17352792D01*
X27644021Y-17321538D01*
X27623324Y-17297054D01*
X27542822Y-17172617D01*
X27542820Y-17172614D01*
X27540014Y-17168277D01*
X27389670Y-17003051D01*
X27385619Y-16999852D01*
X27385615Y-16999848D01*
X27218414Y-16867800D01*
X27218410Y-16867798D01*
X27214359Y-16864598D01*
X27018789Y-16756638D01*
X27013920Y-16754914D01*
X27013916Y-16754912D01*
X26813087Y-16683795D01*
X26813083Y-16683794D01*
X26808212Y-16682069D01*
X26803119Y-16681162D01*
X26803116Y-16681161D01*
X26593373Y-16643800D01*
X26593367Y-16643799D01*
X26588284Y-16642894D01*
X26514452Y-16641992D01*
X26370081Y-16640228D01*
X26370079Y-16640228D01*
X26364911Y-16640165D01*
X26144091Y-16673955D01*
X25931756Y-16743357D01*
X25733607Y-16846507D01*
X25729474Y-16849610D01*
X25729471Y-16849612D01*
X25568535Y-16970446D01*
X25554965Y-16980635D01*
X25400629Y-17142138D01*
X25293201Y-17299621D01*
X25238293Y-17344621D01*
X25167768Y-17352792D01*
X25104021Y-17321538D01*
X25083324Y-17297054D01*
X25002822Y-17172617D01*
X25002820Y-17172614D01*
X25000014Y-17168277D01*
X24849670Y-17003051D01*
X24845619Y-16999852D01*
X24845615Y-16999848D01*
X24678414Y-16867800D01*
X24678410Y-16867798D01*
X24674359Y-16864598D01*
X24478789Y-16756638D01*
X24473920Y-16754914D01*
X24473916Y-16754912D01*
X24273087Y-16683795D01*
X24273083Y-16683794D01*
X24268212Y-16682069D01*
X24263119Y-16681162D01*
X24263116Y-16681161D01*
X24053373Y-16643800D01*
X24053367Y-16643799D01*
X24048284Y-16642894D01*
X23974452Y-16641992D01*
X23830081Y-16640228D01*
X23830079Y-16640228D01*
X23824911Y-16640165D01*
X23604091Y-16673955D01*
X23391756Y-16743357D01*
X23193607Y-16846507D01*
X23189474Y-16849610D01*
X23189471Y-16849612D01*
X23028535Y-16970446D01*
X23014965Y-16980635D01*
X22860629Y-17142138D01*
X22734743Y-17326680D01*
X22687715Y-17427993D01*
X22655753Y-17496851D01*
X22640688Y-17529305D01*
X22580989Y-17744570D01*
X22557251Y-17966695D01*
X22557548Y-17971848D01*
X22557548Y-17971851D01*
X22563781Y-18079955D01*
X22570110Y-18189715D01*
X22571247Y-18194761D01*
X22571248Y-18194767D01*
X22585606Y-18258475D01*
X22619222Y-18407639D01*
X22651723Y-18487680D01*
X22700405Y-18607569D01*
X22703266Y-18614616D01*
X22753773Y-18697037D01*
X22817291Y-18800688D01*
X22819987Y-18805088D01*
X22966250Y-18973938D01*
X23138126Y-19116632D01*
X23204696Y-19155532D01*
X23224070Y-19166853D01*
X23272794Y-19218491D01*
X23286500Y-19275641D01*
X23286500Y-20841233D01*
X23285973Y-20852416D01*
X23284298Y-20859909D01*
X23284547Y-20867835D01*
X23284547Y-20867836D01*
X23286438Y-20927986D01*
X23286500Y-20931945D01*
X23286500Y-20959856D01*
X23286997Y-20963790D01*
X23286997Y-20963791D01*
X23287005Y-20963856D01*
X23287938Y-20975693D01*
X23289327Y-21019889D01*
X23293789Y-21035247D01*
X23294978Y-21039339D01*
X23298987Y-21058700D01*
X23301526Y-21078797D01*
X23304445Y-21086168D01*
X23304445Y-21086170D01*
X23317804Y-21119912D01*
X23321649Y-21131142D01*
X23326596Y-21148169D01*
X23333982Y-21173593D01*
X23338015Y-21180412D01*
X23338017Y-21180417D01*
X23344293Y-21191028D01*
X23352988Y-21208776D01*
X23360448Y-21227617D01*
X23365110Y-21234033D01*
X23365110Y-21234034D01*
X23386436Y-21263387D01*
X23392952Y-21273307D01*
X23406670Y-21296502D01*
X23415458Y-21311362D01*
X23429779Y-21325683D01*
X23442619Y-21340716D01*
X23454528Y-21357107D01*
X23488605Y-21385298D01*
X23497384Y-21393288D01*
X23893074Y-21788978D01*
X23927100Y-21851290D01*
X23920177Y-21926796D01*
X23903775Y-21965911D01*
X23842365Y-22207714D01*
X23817370Y-22455939D01*
X23817594Y-22460606D01*
X23817594Y-22460611D01*
X23823354Y-22580535D01*
X23829339Y-22705131D01*
X23878010Y-22949818D01*
X23962314Y-23184622D01*
X24080398Y-23404386D01*
X24229668Y-23604283D01*
X24406844Y-23779921D01*
X24410606Y-23782679D01*
X24410609Y-23782682D01*
X24522139Y-23864458D01*
X24608036Y-23927440D01*
X24612171Y-23929616D01*
X24612175Y-23929618D01*
X24709002Y-23980561D01*
X24828823Y-24043602D01*
X24959347Y-24089183D01*
X25058550Y-24123826D01*
X25064354Y-24125853D01*
X25068947Y-24126725D01*
X25304867Y-24171516D01*
X25304870Y-24171516D01*
X25309456Y-24172387D01*
X25434100Y-24177285D01*
X25554075Y-24181999D01*
X25554081Y-24181999D01*
X25558743Y-24182182D01*
X25648181Y-24172387D01*
X25802087Y-24155532D01*
X25802092Y-24155531D01*
X25806740Y-24155022D01*
X25813140Y-24153337D01*
X26043476Y-24092694D01*
X26043478Y-24092693D01*
X26047999Y-24091503D01*
X26053399Y-24089183D01*
X26272924Y-23994868D01*
X26272926Y-23994867D01*
X26277218Y-23993023D01*
X26379679Y-23929618D01*
X26485391Y-23864202D01*
X26485395Y-23864199D01*
X26489364Y-23861743D01*
X26500997Y-23851895D01*
X29512851Y-23851895D01*
X29521563Y-23863415D01*
X29604529Y-23924249D01*
X29612444Y-23929194D01*
X29824873Y-24040959D01*
X29833447Y-24044687D01*
X30060067Y-24123826D01*
X30069077Y-24126240D01*
X30304923Y-24171017D01*
X30314180Y-24172071D01*
X30554058Y-24181497D01*
X30563372Y-24181171D01*
X30801996Y-24155038D01*
X30811173Y-24153337D01*
X31043312Y-24092220D01*
X31052132Y-24089183D01*
X31272693Y-23994423D01*
X31280965Y-23990116D01*
X31484026Y-23864458D01*
X31490751Y-23854253D01*
X31484688Y-23843899D01*
X30512810Y-22872020D01*
X30498869Y-22864408D01*
X30497034Y-22864539D01*
X30490420Y-22868790D01*
X29519509Y-23839702D01*
X29512851Y-23851895D01*
X26500997Y-23851895D01*
X26589900Y-23776633D01*
X26676209Y-23703567D01*
X26676210Y-23703566D01*
X26679775Y-23700548D01*
X26742449Y-23629082D01*
X26841187Y-23516494D01*
X26841191Y-23516489D01*
X26844269Y-23512979D01*
X26860803Y-23487275D01*
X26976703Y-23307087D01*
X26979231Y-23303157D01*
X27081697Y-23075691D01*
X27114355Y-22959896D01*
X27148146Y-22840082D01*
X27148147Y-22840079D01*
X27149416Y-22835578D01*
X27180900Y-22588092D01*
X27180984Y-22584909D01*
X27182243Y-22536828D01*
X27183207Y-22500000D01*
X27180281Y-22460624D01*
X28818096Y-22460624D01*
X28829614Y-22700398D01*
X28830751Y-22709658D01*
X28877581Y-22945095D01*
X28880075Y-22954088D01*
X28961189Y-23180009D01*
X28964989Y-23188544D01*
X29078607Y-23399996D01*
X29083618Y-23407863D01*
X29136609Y-23478826D01*
X29147867Y-23487275D01*
X29160286Y-23480503D01*
X30127980Y-22512810D01*
X30134357Y-22501131D01*
X30864408Y-22501131D01*
X30864539Y-22502966D01*
X30868790Y-22509580D01*
X31842024Y-23482813D01*
X31854404Y-23489573D01*
X31862745Y-23483330D01*
X31976265Y-23306843D01*
X31980708Y-23298659D01*
X32079304Y-23079783D01*
X32082494Y-23071018D01*
X32147654Y-22839981D01*
X32149514Y-22830839D01*
X32180001Y-22591196D01*
X32180482Y-22584909D01*
X32182622Y-22503160D01*
X32182471Y-22496851D01*
X32164568Y-22255932D01*
X32163191Y-22246726D01*
X32110210Y-22012582D01*
X32107486Y-22003671D01*
X32020478Y-21779930D01*
X32016467Y-21771521D01*
X31897347Y-21563105D01*
X31892130Y-21555370D01*
X31864425Y-21520227D01*
X31852501Y-21511758D01*
X31840965Y-21518246D01*
X30872020Y-22487190D01*
X30864408Y-22501131D01*
X30134357Y-22501131D01*
X30135592Y-22498869D01*
X30135461Y-22497034D01*
X30131210Y-22490420D01*
X29158131Y-21517342D01*
X29144823Y-21510075D01*
X29134786Y-21517195D01*
X29133076Y-21519251D01*
X29127655Y-21526851D01*
X29003127Y-21732067D01*
X28998889Y-21740384D01*
X28906060Y-21961755D01*
X28903099Y-21970605D01*
X28844011Y-22203264D01*
X28842390Y-22212458D01*
X28818341Y-22451297D01*
X28818096Y-22460624D01*
X27180281Y-22460624D01*
X27167725Y-22291668D01*
X27165064Y-22255858D01*
X27165063Y-22255854D01*
X27164718Y-22251206D01*
X27109659Y-22007878D01*
X27106535Y-21999844D01*
X27020931Y-21779714D01*
X27020930Y-21779712D01*
X27019238Y-21775361D01*
X26994494Y-21732067D01*
X26973285Y-21694959D01*
X26895442Y-21558763D01*
X26740990Y-21362842D01*
X26559276Y-21191902D01*
X26493952Y-21146585D01*
X29510999Y-21146585D01*
X29515572Y-21156361D01*
X30487190Y-22127980D01*
X30501131Y-22135592D01*
X30502966Y-22135461D01*
X30509580Y-22131210D01*
X31480929Y-21159860D01*
X31487313Y-21148169D01*
X31477903Y-21136061D01*
X31357873Y-21052793D01*
X31349846Y-21048065D01*
X31134540Y-20941888D01*
X31125907Y-20938400D01*
X30897265Y-20865211D01*
X30888214Y-20863038D01*
X30651269Y-20824449D01*
X30641980Y-20823637D01*
X30401950Y-20820495D01*
X30392638Y-20821065D01*
X30154776Y-20853436D01*
X30145658Y-20855374D01*
X29915203Y-20922546D01*
X29906450Y-20925818D01*
X29688454Y-21026316D01*
X29680299Y-21030836D01*
X29520136Y-21135844D01*
X29510999Y-21146585D01*
X26493952Y-21146585D01*
X26421982Y-21096658D01*
X26358130Y-21052362D01*
X26358125Y-21052359D01*
X26354292Y-21049700D01*
X26350110Y-21047637D01*
X26350102Y-21047633D01*
X26134728Y-20941423D01*
X26134725Y-20941422D01*
X26130540Y-20939358D01*
X25892937Y-20863300D01*
X25888330Y-20862550D01*
X25888327Y-20862549D01*
X25651312Y-20823949D01*
X25651313Y-20823949D01*
X25646701Y-20823198D01*
X25525753Y-20821615D01*
X25401920Y-20819994D01*
X25401917Y-20819994D01*
X25397243Y-20819933D01*
X25150042Y-20853575D01*
X24911492Y-20923106D01*
X24840497Y-20922966D01*
X24787140Y-20891235D01*
X24590405Y-20694500D01*
X24556379Y-20632188D01*
X24553500Y-20605405D01*
X24553500Y-19280427D01*
X24573502Y-19212306D01*
X24614618Y-19172550D01*
X24617994Y-19170896D01*
X24799860Y-19041173D01*
X24958096Y-18883489D01*
X25017594Y-18800689D01*
X25088453Y-18702077D01*
X25089776Y-18703028D01*
X25136645Y-18659857D01*
X25206580Y-18647625D01*
X25272026Y-18675144D01*
X25299875Y-18706994D01*
X25359987Y-18805088D01*
X25506250Y-18973938D01*
X25678126Y-19116632D01*
X25871000Y-19229338D01*
X26079692Y-19309030D01*
X26084760Y-19310061D01*
X26084763Y-19310062D01*
X26192012Y-19331882D01*
X26298597Y-19353567D01*
X26303772Y-19353757D01*
X26303774Y-19353757D01*
X26516673Y-19361564D01*
X26516677Y-19361564D01*
X26521837Y-19361753D01*
X26526957Y-19361097D01*
X26526959Y-19361097D01*
X26738288Y-19334025D01*
X26738289Y-19334025D01*
X26743416Y-19333368D01*
X26748369Y-19331882D01*
X26952429Y-19270661D01*
X26952434Y-19270659D01*
X26957384Y-19269174D01*
X27157994Y-19170896D01*
X27339860Y-19041173D01*
X27498096Y-18883489D01*
X27557594Y-18800689D01*
X27628453Y-18702077D01*
X27629776Y-18703028D01*
X27676645Y-18659857D01*
X27746580Y-18647625D01*
X27812026Y-18675144D01*
X27839875Y-18706994D01*
X27899987Y-18805088D01*
X28046250Y-18973938D01*
X28218126Y-19116632D01*
X28411000Y-19229338D01*
X28619692Y-19309030D01*
X28624760Y-19310061D01*
X28624763Y-19310062D01*
X28732012Y-19331882D01*
X28838597Y-19353567D01*
X28843772Y-19353757D01*
X28843774Y-19353757D01*
X29056673Y-19361564D01*
X29056677Y-19361564D01*
X29061837Y-19361753D01*
X29066957Y-19361097D01*
X29066959Y-19361097D01*
X29278288Y-19334025D01*
X29278289Y-19334025D01*
X29283416Y-19333368D01*
X29288367Y-19331883D01*
X29288370Y-19331882D01*
X29329829Y-19319444D01*
X29400825Y-19319028D01*
X29455131Y-19351035D01*
X29869343Y-19765247D01*
X29876887Y-19773537D01*
X29881000Y-19780018D01*
X29886777Y-19785443D01*
X29930667Y-19826658D01*
X29933509Y-19829413D01*
X29953230Y-19849134D01*
X29956425Y-19851612D01*
X29965447Y-19859318D01*
X29997679Y-19889586D01*
X30004628Y-19893406D01*
X30015432Y-19899346D01*
X30031956Y-19910199D01*
X30047959Y-19922613D01*
X30088543Y-19940176D01*
X30099173Y-19945383D01*
X30137940Y-19966695D01*
X30145617Y-19968666D01*
X30145622Y-19968668D01*
X30157558Y-19971732D01*
X30176266Y-19978137D01*
X30194855Y-19986181D01*
X30202683Y-19987421D01*
X30202690Y-19987423D01*
X30238524Y-19993099D01*
X30250144Y-19995505D01*
X30285289Y-20004528D01*
X30292970Y-20006500D01*
X30313224Y-20006500D01*
X30332934Y-20008051D01*
X30352943Y-20011220D01*
X30360835Y-20010474D01*
X30396961Y-20007059D01*
X30408819Y-20006500D01*
X34386406Y-20006500D01*
X34454527Y-20026502D01*
X34475501Y-20043405D01*
X35467343Y-21035247D01*
X35474887Y-21043537D01*
X35479000Y-21050018D01*
X35484777Y-21055443D01*
X35528667Y-21096658D01*
X35531509Y-21099413D01*
X35551230Y-21119134D01*
X35554425Y-21121612D01*
X35563447Y-21129318D01*
X35595679Y-21159586D01*
X35602628Y-21163406D01*
X35613432Y-21169346D01*
X35629956Y-21180199D01*
X35645959Y-21192613D01*
X35686543Y-21210176D01*
X35697173Y-21215383D01*
X35735940Y-21236695D01*
X35743617Y-21238666D01*
X35743622Y-21238668D01*
X35755558Y-21241732D01*
X35774266Y-21248137D01*
X35792855Y-21256181D01*
X35800683Y-21257421D01*
X35800690Y-21257423D01*
X35836524Y-21263099D01*
X35848144Y-21265505D01*
X35883289Y-21274528D01*
X35890970Y-21276500D01*
X35911224Y-21276500D01*
X35930934Y-21278051D01*
X35950943Y-21281220D01*
X35958835Y-21280474D01*
X35994961Y-21277059D01*
X36006819Y-21276500D01*
X41371406Y-21276500D01*
X41439527Y-21296502D01*
X41460501Y-21313405D01*
X44571595Y-24424499D01*
X44605621Y-24486811D01*
X44608500Y-24513594D01*
X44608500Y-33929193D01*
X44607973Y-33940376D01*
X44606298Y-33947869D01*
X44606547Y-33955795D01*
X44606547Y-33955796D01*
X44608438Y-34015946D01*
X44608500Y-34019905D01*
X44608500Y-34047816D01*
X44608997Y-34051750D01*
X44608997Y-34051751D01*
X44609005Y-34051816D01*
X44609938Y-34063653D01*
X44611327Y-34107849D01*
X44616978Y-34127299D01*
X44620987Y-34146660D01*
X44623526Y-34166757D01*
X44626445Y-34174128D01*
X44626445Y-34174130D01*
X44639804Y-34207872D01*
X44643649Y-34219102D01*
X44655982Y-34261553D01*
X44660015Y-34268372D01*
X44660017Y-34268377D01*
X44666293Y-34278988D01*
X44674988Y-34296736D01*
X44682448Y-34315577D01*
X44687110Y-34321993D01*
X44687110Y-34321994D01*
X44708436Y-34351347D01*
X44714952Y-34361267D01*
X44737458Y-34399322D01*
X44751779Y-34413643D01*
X44764619Y-34428676D01*
X44776528Y-34445067D01*
X44810605Y-34473258D01*
X44819384Y-34481248D01*
X46804894Y-36466758D01*
X46812438Y-36475048D01*
X46816551Y-36481529D01*
X46822328Y-36486954D01*
X46866218Y-36528169D01*
X46869060Y-36530924D01*
X46888781Y-36550645D01*
X46891976Y-36553123D01*
X46900998Y-36560829D01*
X46933230Y-36591097D01*
X46940179Y-36594917D01*
X46950983Y-36600857D01*
X46967507Y-36611710D01*
X46983510Y-36624124D01*
X47024094Y-36641687D01*
X47034724Y-36646894D01*
X47073491Y-36668206D01*
X47081168Y-36670177D01*
X47081173Y-36670179D01*
X47093109Y-36673243D01*
X47111817Y-36679648D01*
X47130406Y-36687692D01*
X47138231Y-36688931D01*
X47138233Y-36688932D01*
X47174070Y-36694608D01*
X47185691Y-36697015D01*
X47217510Y-36705184D01*
X47228521Y-36708011D01*
X47248782Y-36708011D01*
X47268491Y-36709562D01*
X47288494Y-36712730D01*
X47296386Y-36711984D01*
X47301613Y-36711490D01*
X47332505Y-36708570D01*
X47344362Y-36708011D01*
X50961722Y-36708011D01*
X50972905Y-36708538D01*
X50980398Y-36710213D01*
X50988324Y-36709964D01*
X50988325Y-36709964D01*
X51048475Y-36708073D01*
X51052434Y-36708011D01*
X51080345Y-36708011D01*
X51084280Y-36707514D01*
X51084345Y-36707506D01*
X51096182Y-36706573D01*
X51128440Y-36705559D01*
X51132459Y-36705433D01*
X51140378Y-36705184D01*
X51159832Y-36699532D01*
X51179189Y-36695524D01*
X51191419Y-36693979D01*
X51191420Y-36693979D01*
X51199286Y-36692985D01*
X51206657Y-36690066D01*
X51206659Y-36690066D01*
X51240401Y-36676707D01*
X51251631Y-36672862D01*
X51286472Y-36662740D01*
X51286473Y-36662740D01*
X51294082Y-36660529D01*
X51300901Y-36656496D01*
X51300906Y-36656494D01*
X51311517Y-36650218D01*
X51329265Y-36641523D01*
X51348106Y-36634063D01*
X51368476Y-36619264D01*
X51383876Y-36608075D01*
X51393796Y-36601559D01*
X51425024Y-36583091D01*
X51425027Y-36583089D01*
X51431851Y-36579053D01*
X51446172Y-36564732D01*
X51461206Y-36551891D01*
X51462921Y-36550645D01*
X51477596Y-36539983D01*
X51482646Y-36533879D01*
X51482651Y-36533874D01*
X51505782Y-36505913D01*
X51513772Y-36497132D01*
X51914588Y-36096317D01*
X51976900Y-36062292D01*
X52047716Y-36067357D01*
X52055527Y-36070573D01*
X52112544Y-36096317D01*
X52191876Y-36132137D01*
X52191880Y-36132139D01*
X52195788Y-36133903D01*
X52199907Y-36135123D01*
X52460790Y-36212401D01*
X52460795Y-36212402D01*
X52464903Y-36213619D01*
X52469137Y-36214267D01*
X52469142Y-36214268D01*
X52713514Y-36251662D01*
X52742347Y-36256074D01*
X52885292Y-36258319D01*
X53018694Y-36260415D01*
X53018700Y-36260415D01*
X53022985Y-36260482D01*
X53301626Y-36226763D01*
X53573112Y-36155540D01*
X53577072Y-36153900D01*
X53577077Y-36153898D01*
X53798232Y-36062292D01*
X53832420Y-36048131D01*
X54074752Y-35906524D01*
X54295624Y-35733338D01*
X54490948Y-35531779D01*
X54493481Y-35528331D01*
X54493485Y-35528326D01*
X54654572Y-35309032D01*
X54657110Y-35305577D01*
X54791036Y-35058916D01*
X54890247Y-34796362D01*
X54952907Y-34522773D01*
X54959392Y-34450118D01*
X54977637Y-34245677D01*
X54977637Y-34245675D01*
X54977857Y-34243211D01*
X54978228Y-34207872D01*
X54978284Y-34202484D01*
X54978284Y-34202483D01*
X54978310Y-34200000D01*
X54976044Y-34166757D01*
X54959512Y-33924254D01*
X54959511Y-33924248D01*
X54959220Y-33919977D01*
X54953923Y-33894396D01*
X54903172Y-33649332D01*
X54902303Y-33645135D01*
X54808612Y-33380561D01*
X54800477Y-33364798D01*
X54681847Y-33134957D01*
X54681847Y-33134956D01*
X54679882Y-33131150D01*
X54669595Y-33116512D01*
X54520956Y-32905022D01*
X54518493Y-32901517D01*
X54327433Y-32695912D01*
X54110237Y-32518139D01*
X53870923Y-32371487D01*
X53848348Y-32361577D01*
X53617853Y-32260397D01*
X53613921Y-32258671D01*
X53594526Y-32253146D01*
X53348114Y-32182954D01*
X53348115Y-32182954D01*
X53343986Y-32181778D01*
X53138217Y-32152493D01*
X53070365Y-32142836D01*
X53070363Y-32142836D01*
X53066113Y-32142231D01*
X53061824Y-32142209D01*
X53061817Y-32142208D01*
X52789730Y-32140783D01*
X52789723Y-32140783D01*
X52785444Y-32140761D01*
X52781199Y-32141320D01*
X52781197Y-32141320D01*
X52717813Y-32149665D01*
X52507172Y-32177397D01*
X52236446Y-32251459D01*
X51978277Y-32361577D01*
X51832721Y-32448691D01*
X51741123Y-32503511D01*
X51741119Y-32503514D01*
X51737441Y-32505715D01*
X51518395Y-32681204D01*
X51515451Y-32684306D01*
X51515447Y-32684310D01*
X51328142Y-32881688D01*
X51325192Y-32884797D01*
X51161408Y-33112727D01*
X51159404Y-33116512D01*
X51081931Y-33262834D01*
X51030073Y-33360776D01*
X51028601Y-33364798D01*
X51028599Y-33364803D01*
X51021354Y-33384602D01*
X50933616Y-33624355D01*
X50932703Y-33628541D01*
X50932703Y-33628542D01*
X50925326Y-33662379D01*
X50873825Y-33898585D01*
X50860833Y-34063659D01*
X50854301Y-34146660D01*
X50851803Y-34178393D01*
X50867960Y-34458601D01*
X50868785Y-34462806D01*
X50868786Y-34462814D01*
X50872403Y-34481248D01*
X50921996Y-34734024D01*
X50923383Y-34738074D01*
X50923384Y-34738079D01*
X51011522Y-34995509D01*
X51012911Y-34999565D01*
X51014838Y-35003396D01*
X51041148Y-35055708D01*
X51053886Y-35125552D01*
X51026842Y-35191196D01*
X51017678Y-35201417D01*
X50814989Y-35404106D01*
X50752677Y-35438132D01*
X50725894Y-35441011D01*
X49965362Y-35441011D01*
X49897241Y-35421009D01*
X49850748Y-35367353D01*
X49840644Y-35297079D01*
X49854631Y-35254889D01*
X49958986Y-35062692D01*
X49958987Y-35062690D01*
X49961036Y-35058916D01*
X50060247Y-34796362D01*
X50122907Y-34522773D01*
X50129392Y-34450118D01*
X50147637Y-34245677D01*
X50147637Y-34245675D01*
X50147857Y-34243211D01*
X50148228Y-34207872D01*
X50148284Y-34202484D01*
X50148284Y-34202483D01*
X50148310Y-34200000D01*
X50146044Y-34166757D01*
X50129512Y-33924254D01*
X50129511Y-33924248D01*
X50129220Y-33919977D01*
X50123923Y-33894396D01*
X50073172Y-33649332D01*
X50072303Y-33645135D01*
X49978612Y-33380561D01*
X49970477Y-33364798D01*
X49851847Y-33134957D01*
X49851847Y-33134956D01*
X49849882Y-33131150D01*
X49839595Y-33116512D01*
X49690956Y-32905022D01*
X49688493Y-32901517D01*
X49497433Y-32695912D01*
X49280237Y-32518139D01*
X49040923Y-32371487D01*
X49018348Y-32361577D01*
X48787853Y-32260397D01*
X48783921Y-32258671D01*
X48764526Y-32253146D01*
X48518114Y-32182954D01*
X48518115Y-32182954D01*
X48513986Y-32181778D01*
X48308217Y-32152493D01*
X48240365Y-32142836D01*
X48240363Y-32142836D01*
X48236113Y-32142231D01*
X48231824Y-32142209D01*
X48231817Y-32142208D01*
X47959730Y-32140783D01*
X47959723Y-32140783D01*
X47955444Y-32140761D01*
X47951199Y-32141320D01*
X47951197Y-32141320D01*
X47887813Y-32149665D01*
X47677172Y-32177397D01*
X47406446Y-32251459D01*
X47402499Y-32253142D01*
X47402489Y-32253146D01*
X47222536Y-32329903D01*
X47152029Y-32338232D01*
X47084005Y-32303101D01*
X46361915Y-31581010D01*
X46327890Y-31518698D01*
X46325011Y-31491915D01*
X46325011Y-30950170D01*
X46345013Y-30882049D01*
X46398669Y-30835556D01*
X46468943Y-30825452D01*
X46533523Y-30854946D01*
X46544201Y-30865367D01*
X46585329Y-30910566D01*
X46654007Y-30986043D01*
X46654012Y-30986048D01*
X46656894Y-30989215D01*
X46660183Y-30991965D01*
X46868925Y-31166501D01*
X46868930Y-31166505D01*
X46872217Y-31169253D01*
X46927424Y-31203884D01*
X47106341Y-31316119D01*
X47106345Y-31316121D01*
X47109981Y-31318402D01*
X47365788Y-31433903D01*
X47369907Y-31435123D01*
X47630790Y-31512401D01*
X47630795Y-31512402D01*
X47634903Y-31513619D01*
X47639137Y-31514267D01*
X47639142Y-31514268D01*
X47834136Y-31544106D01*
X47912347Y-31556074D01*
X48055292Y-31558319D01*
X48188694Y-31560415D01*
X48188700Y-31560415D01*
X48192985Y-31560482D01*
X48471626Y-31526763D01*
X48743112Y-31455540D01*
X48747072Y-31453900D01*
X48747077Y-31453898D01*
X48886600Y-31396105D01*
X49002420Y-31348131D01*
X49053296Y-31318402D01*
X49241054Y-31208685D01*
X49241055Y-31208685D01*
X49244752Y-31206524D01*
X49465624Y-31033338D01*
X49660948Y-30831779D01*
X49663481Y-30828331D01*
X49663485Y-30828326D01*
X49824572Y-30609032D01*
X49827110Y-30605577D01*
X49829156Y-30601809D01*
X49958986Y-30362692D01*
X49958987Y-30362690D01*
X49961036Y-30358916D01*
X50014280Y-30218011D01*
X50058729Y-30100380D01*
X50058730Y-30100376D01*
X50060247Y-30096362D01*
X50113098Y-29865601D01*
X50121949Y-29826957D01*
X50121950Y-29826953D01*
X50122907Y-29822773D01*
X50123821Y-29812540D01*
X50147637Y-29545677D01*
X50147637Y-29545675D01*
X50147857Y-29543211D01*
X50148310Y-29500000D01*
X50129220Y-29219977D01*
X50123923Y-29194396D01*
X50073172Y-28949332D01*
X50072303Y-28945135D01*
X49978612Y-28680561D01*
X49968401Y-28660776D01*
X49851847Y-28434957D01*
X49851847Y-28434956D01*
X49849882Y-28431150D01*
X49839595Y-28416512D01*
X49690956Y-28205022D01*
X49688493Y-28201517D01*
X49497433Y-27995912D01*
X49280237Y-27818139D01*
X49040923Y-27671487D01*
X49018348Y-27661577D01*
X48787853Y-27560397D01*
X48783921Y-27558671D01*
X48764526Y-27553146D01*
X48518114Y-27482954D01*
X48518115Y-27482954D01*
X48513986Y-27481778D01*
X48308217Y-27452493D01*
X48240365Y-27442836D01*
X48240363Y-27442836D01*
X48236113Y-27442231D01*
X48231824Y-27442209D01*
X48231817Y-27442208D01*
X47959730Y-27440783D01*
X47959723Y-27440783D01*
X47955444Y-27440761D01*
X47951199Y-27441320D01*
X47951197Y-27441320D01*
X47887813Y-27449665D01*
X47677172Y-27477397D01*
X47406446Y-27551459D01*
X47402499Y-27553142D01*
X47402489Y-27553146D01*
X47222536Y-27629903D01*
X47152029Y-27638232D01*
X47084006Y-27603101D01*
X46880894Y-27399989D01*
X46846868Y-27337677D01*
X46843989Y-27310894D01*
X46843989Y-26679324D01*
X46863991Y-26611203D01*
X46917647Y-26564710D01*
X46987921Y-26554606D01*
X47036943Y-26572585D01*
X47109981Y-26618402D01*
X47365788Y-26733903D01*
X47369907Y-26735123D01*
X47630790Y-26812401D01*
X47630795Y-26812402D01*
X47634903Y-26813619D01*
X47639137Y-26814267D01*
X47639142Y-26814268D01*
X47883514Y-26851662D01*
X47912347Y-26856074D01*
X48055292Y-26858319D01*
X48188694Y-26860415D01*
X48188700Y-26860415D01*
X48192985Y-26860482D01*
X48471626Y-26826763D01*
X48743112Y-26755540D01*
X48747072Y-26753900D01*
X48747077Y-26753898D01*
X48902163Y-26689659D01*
X49002420Y-26648131D01*
X49008022Y-26644858D01*
X49241054Y-26508685D01*
X49241055Y-26508685D01*
X49244752Y-26506524D01*
X49465624Y-26333338D01*
X49660948Y-26131779D01*
X49701513Y-26076557D01*
X49757959Y-26033499D01*
X49828726Y-26027794D01*
X49892153Y-26062057D01*
X51581542Y-27751447D01*
X51615568Y-27813759D01*
X51610503Y-27884575D01*
X51571228Y-27938876D01*
X51521737Y-27978526D01*
X51521732Y-27978530D01*
X51518395Y-27981204D01*
X51515451Y-27984306D01*
X51515447Y-27984310D01*
X51328142Y-28181688D01*
X51325192Y-28184797D01*
X51161408Y-28412727D01*
X51030073Y-28660776D01*
X51028601Y-28664799D01*
X51028599Y-28664803D01*
X51021354Y-28684602D01*
X50933616Y-28924355D01*
X50873825Y-29198585D01*
X50851803Y-29478393D01*
X50867960Y-29758601D01*
X50868785Y-29762806D01*
X50868786Y-29762814D01*
X50891201Y-29877060D01*
X50921996Y-30034024D01*
X50923383Y-30038074D01*
X50923384Y-30038079D01*
X50994097Y-30244614D01*
X51012911Y-30299565D01*
X51139022Y-30550310D01*
X51141448Y-30553839D01*
X51141451Y-30553845D01*
X51183100Y-30614444D01*
X51297997Y-30781620D01*
X51486894Y-30989215D01*
X51490183Y-30991965D01*
X51698925Y-31166501D01*
X51698930Y-31166505D01*
X51702217Y-31169253D01*
X51757424Y-31203884D01*
X51936341Y-31316119D01*
X51936345Y-31316121D01*
X51939981Y-31318402D01*
X52195788Y-31433903D01*
X52199907Y-31435123D01*
X52460790Y-31512401D01*
X52460795Y-31512402D01*
X52464903Y-31513619D01*
X52469137Y-31514267D01*
X52469142Y-31514268D01*
X52664136Y-31544106D01*
X52742347Y-31556074D01*
X52885292Y-31558319D01*
X53018694Y-31560415D01*
X53018700Y-31560415D01*
X53022985Y-31560482D01*
X53301626Y-31526763D01*
X53573112Y-31455540D01*
X53577072Y-31453900D01*
X53577077Y-31453898D01*
X53716600Y-31396105D01*
X53832420Y-31348131D01*
X53883296Y-31318402D01*
X54071054Y-31208685D01*
X54071055Y-31208685D01*
X54074752Y-31206524D01*
X54295624Y-31033338D01*
X54490948Y-30831779D01*
X54493481Y-30828331D01*
X54493485Y-30828326D01*
X54654572Y-30609032D01*
X54657110Y-30605577D01*
X54659156Y-30601809D01*
X54788986Y-30362692D01*
X54788987Y-30362690D01*
X54791036Y-30358916D01*
X54844280Y-30218011D01*
X54888729Y-30100380D01*
X54888730Y-30100376D01*
X54890247Y-30096362D01*
X54909495Y-30012320D01*
X54944200Y-29950384D01*
X55006881Y-29917043D01*
X55077637Y-29922882D01*
X55121410Y-29951354D01*
X55747595Y-30577539D01*
X55781621Y-30639851D01*
X55784500Y-30666634D01*
X55784500Y-43682406D01*
X55764498Y-43750527D01*
X55747595Y-43771501D01*
X53915612Y-45603484D01*
X53853300Y-45637510D01*
X53775873Y-45629763D01*
X53613921Y-45558671D01*
X53594519Y-45553144D01*
X53348114Y-45482954D01*
X53348115Y-45482954D01*
X53343986Y-45481778D01*
X53138217Y-45452493D01*
X53070365Y-45442836D01*
X53070363Y-45442836D01*
X53066113Y-45442231D01*
X53061824Y-45442209D01*
X53061817Y-45442208D01*
X52789730Y-45440783D01*
X52789723Y-45440783D01*
X52785444Y-45440761D01*
X52781199Y-45441320D01*
X52781197Y-45441320D01*
X52717813Y-45449665D01*
X52507172Y-45477397D01*
X52236446Y-45551459D01*
X51978277Y-45661577D01*
X51832721Y-45748691D01*
X51741123Y-45803511D01*
X51741119Y-45803514D01*
X51737441Y-45805715D01*
X51518395Y-45981204D01*
X51515451Y-45984306D01*
X51515447Y-45984310D01*
X51479883Y-46021787D01*
X51325192Y-46184797D01*
X51161408Y-46412727D01*
X51030073Y-46660776D01*
X51028601Y-46664799D01*
X51028599Y-46664803D01*
X51021354Y-46684602D01*
X50933616Y-46924355D01*
X50873825Y-47198585D01*
X50851803Y-47478393D01*
X50867960Y-47758601D01*
X50868785Y-47762806D01*
X50868786Y-47762814D01*
X50879711Y-47818497D01*
X50921996Y-48034024D01*
X50923383Y-48038074D01*
X50923384Y-48038079D01*
X50966764Y-48164782D01*
X51012911Y-48299565D01*
X51139022Y-48550310D01*
X51139858Y-48551527D01*
X51157153Y-48619684D01*
X51134639Y-48687016D01*
X51079296Y-48731487D01*
X51031240Y-48741011D01*
X50274105Y-48741011D01*
X50205984Y-48721009D01*
X50185010Y-48704106D01*
X49984671Y-48503767D01*
X49950645Y-48441455D01*
X49955710Y-48370640D01*
X49959074Y-48362529D01*
X49961036Y-48358916D01*
X50035467Y-48161940D01*
X50058729Y-48100380D01*
X50058730Y-48100376D01*
X50060247Y-48096362D01*
X50090458Y-47964454D01*
X50121949Y-47826957D01*
X50121950Y-47826953D01*
X50122907Y-47822773D01*
X50124719Y-47802479D01*
X50147637Y-47545677D01*
X50147637Y-47545675D01*
X50147857Y-47543211D01*
X50148310Y-47500000D01*
X50129220Y-47219977D01*
X50123923Y-47194396D01*
X50073172Y-46949332D01*
X50072303Y-46945135D01*
X49978612Y-46680561D01*
X49968401Y-46660776D01*
X49851847Y-46434957D01*
X49851847Y-46434956D01*
X49849882Y-46431150D01*
X49839595Y-46416512D01*
X49690956Y-46205022D01*
X49688493Y-46201517D01*
X49497433Y-45995912D01*
X49280237Y-45818139D01*
X49040923Y-45671487D01*
X49024722Y-45664375D01*
X48787853Y-45560397D01*
X48783921Y-45558671D01*
X48764519Y-45553144D01*
X48518114Y-45482954D01*
X48518115Y-45482954D01*
X48513986Y-45481778D01*
X48308217Y-45452493D01*
X48240365Y-45442836D01*
X48240363Y-45442836D01*
X48236113Y-45442231D01*
X48231824Y-45442209D01*
X48231817Y-45442208D01*
X47959730Y-45440783D01*
X47959723Y-45440783D01*
X47955444Y-45440761D01*
X47951199Y-45441320D01*
X47951197Y-45441320D01*
X47887813Y-45449665D01*
X47677172Y-45477397D01*
X47406446Y-45551459D01*
X47148277Y-45661577D01*
X47002721Y-45748691D01*
X46911123Y-45803511D01*
X46911119Y-45803514D01*
X46907441Y-45805715D01*
X46688395Y-45981204D01*
X46685451Y-45984306D01*
X46685447Y-45984310D01*
X46649883Y-46021787D01*
X46495192Y-46184797D01*
X46331408Y-46412727D01*
X46200073Y-46660776D01*
X46198601Y-46664799D01*
X46198599Y-46664803D01*
X46191354Y-46684602D01*
X46103616Y-46924355D01*
X46043825Y-47198585D01*
X46021803Y-47478393D01*
X46037960Y-47758601D01*
X46038785Y-47762806D01*
X46038786Y-47762814D01*
X46049711Y-47818497D01*
X46091996Y-48034024D01*
X46093383Y-48038074D01*
X46093384Y-48038079D01*
X46136764Y-48164782D01*
X46182911Y-48299565D01*
X46309022Y-48550310D01*
X46311448Y-48553839D01*
X46311451Y-48553845D01*
X46356701Y-48619684D01*
X46467997Y-48781620D01*
X46656894Y-48989215D01*
X46660183Y-48991965D01*
X46868925Y-49166501D01*
X46868930Y-49166505D01*
X46872217Y-49169253D01*
X46991099Y-49243827D01*
X47106341Y-49316119D01*
X47106345Y-49316121D01*
X47109981Y-49318402D01*
X47365788Y-49433903D01*
X47369907Y-49435123D01*
X47630790Y-49512401D01*
X47630795Y-49512402D01*
X47634903Y-49513619D01*
X47639137Y-49514267D01*
X47639142Y-49514268D01*
X47883514Y-49551662D01*
X47912347Y-49556074D01*
X48055292Y-49558319D01*
X48188694Y-49560415D01*
X48188700Y-49560415D01*
X48192985Y-49560482D01*
X48471626Y-49526763D01*
X48743112Y-49455540D01*
X48747072Y-49453900D01*
X48747077Y-49453898D01*
X48949251Y-49370155D01*
X49019841Y-49362566D01*
X49086564Y-49397469D01*
X49455859Y-49766764D01*
X49463399Y-49775050D01*
X49467511Y-49781529D01*
X49473288Y-49786954D01*
X49517162Y-49828154D01*
X49520004Y-49830909D01*
X49539741Y-49850646D01*
X49542938Y-49853126D01*
X49551958Y-49860829D01*
X49584190Y-49891097D01*
X49591136Y-49894916D01*
X49591139Y-49894918D01*
X49601945Y-49900859D01*
X49618464Y-49911710D01*
X49634470Y-49924125D01*
X49641739Y-49927270D01*
X49641743Y-49927273D01*
X49675048Y-49941685D01*
X49685698Y-49946902D01*
X49724451Y-49968206D01*
X49732126Y-49970177D01*
X49732127Y-49970177D01*
X49744073Y-49973244D01*
X49762778Y-49979648D01*
X49781366Y-49987692D01*
X49789189Y-49988931D01*
X49789199Y-49988934D01*
X49825035Y-49994610D01*
X49836655Y-49997016D01*
X49868470Y-50005184D01*
X49879481Y-50008011D01*
X49899735Y-50008011D01*
X49919445Y-50009562D01*
X49939454Y-50012731D01*
X49947346Y-50011985D01*
X49983472Y-50008570D01*
X49995330Y-50008011D01*
X52191463Y-50008011D01*
X52259584Y-50028013D01*
X52306077Y-50081669D01*
X52316181Y-50151943D01*
X52286687Y-50216523D01*
X52236161Y-50250790D01*
X52236446Y-50251459D01*
X51978277Y-50361577D01*
X51832721Y-50448691D01*
X51741123Y-50503511D01*
X51741119Y-50503514D01*
X51737441Y-50505715D01*
X51518395Y-50681204D01*
X51515451Y-50684306D01*
X51515447Y-50684310D01*
X51328142Y-50881688D01*
X51325192Y-50884797D01*
X51161408Y-51112727D01*
X51030073Y-51360776D01*
X51028601Y-51364799D01*
X51028599Y-51364803D01*
X51021354Y-51384602D01*
X50933616Y-51624355D01*
X50873825Y-51898585D01*
X50851803Y-52178393D01*
X50867960Y-52458601D01*
X50868785Y-52462806D01*
X50868786Y-52462814D01*
X50879711Y-52518497D01*
X50921996Y-52734024D01*
X50923383Y-52738074D01*
X50923384Y-52738079D01*
X51011522Y-52995509D01*
X51012911Y-52999565D01*
X51139022Y-53250310D01*
X51141448Y-53253839D01*
X51141451Y-53253845D01*
X51250012Y-53411801D01*
X51297997Y-53481620D01*
X51486894Y-53689215D01*
X51490183Y-53691965D01*
X51698925Y-53866501D01*
X51698930Y-53866505D01*
X51702217Y-53869253D01*
X51757424Y-53903884D01*
X51936341Y-54016119D01*
X51936345Y-54016121D01*
X51939981Y-54018402D01*
X52195788Y-54133903D01*
X52199907Y-54135123D01*
X52460790Y-54212401D01*
X52460795Y-54212402D01*
X52464903Y-54213619D01*
X52469137Y-54214267D01*
X52469142Y-54214268D01*
X52643511Y-54240950D01*
X52707822Y-54271026D01*
X52745664Y-54331097D01*
X52745022Y-54402090D01*
X52706100Y-54461467D01*
X52641255Y-54490375D01*
X52624452Y-54491500D01*
X48373965Y-54491500D01*
X48305844Y-54471498D01*
X48259351Y-54417842D01*
X48249247Y-54347568D01*
X48278741Y-54282988D01*
X48338467Y-54244604D01*
X48358828Y-54240413D01*
X48467362Y-54227279D01*
X48471626Y-54226763D01*
X48743112Y-54155540D01*
X48747072Y-54153900D01*
X48747077Y-54153898D01*
X48886600Y-54096105D01*
X49002420Y-54048131D01*
X49053296Y-54018402D01*
X49241054Y-53908685D01*
X49241055Y-53908685D01*
X49244752Y-53906524D01*
X49465624Y-53733338D01*
X49660948Y-53531779D01*
X49663481Y-53528331D01*
X49663485Y-53528326D01*
X49824572Y-53309032D01*
X49827110Y-53305577D01*
X49961036Y-53058916D01*
X50060247Y-52796362D01*
X50122907Y-52522773D01*
X50147857Y-52243211D01*
X50148310Y-52200000D01*
X50129220Y-51919977D01*
X50123923Y-51894396D01*
X50073172Y-51649332D01*
X50072303Y-51645135D01*
X49978612Y-51380561D01*
X49968401Y-51360776D01*
X49851847Y-51134957D01*
X49851847Y-51134956D01*
X49849882Y-51131150D01*
X49839595Y-51116512D01*
X49690956Y-50905022D01*
X49688493Y-50901517D01*
X49497433Y-50695912D01*
X49280237Y-50518139D01*
X49040923Y-50371487D01*
X49018348Y-50361577D01*
X48787853Y-50260397D01*
X48783921Y-50258671D01*
X48764519Y-50253144D01*
X48518114Y-50182954D01*
X48518115Y-50182954D01*
X48513986Y-50181778D01*
X48304353Y-50151943D01*
X48240365Y-50142836D01*
X48240363Y-50142836D01*
X48236113Y-50142231D01*
X48231824Y-50142209D01*
X48231817Y-50142208D01*
X47959730Y-50140783D01*
X47959723Y-50140783D01*
X47955444Y-50140761D01*
X47951199Y-50141320D01*
X47951197Y-50141320D01*
X47887813Y-50149665D01*
X47677172Y-50177397D01*
X47406446Y-50251459D01*
X47148277Y-50361577D01*
X47002721Y-50448691D01*
X46911123Y-50503511D01*
X46911119Y-50503514D01*
X46907441Y-50505715D01*
X46688395Y-50681204D01*
X46685451Y-50684306D01*
X46685447Y-50684310D01*
X46498142Y-50881688D01*
X46495192Y-50884797D01*
X46331408Y-51112727D01*
X46200073Y-51360776D01*
X46198601Y-51364799D01*
X46198599Y-51364803D01*
X46191354Y-51384602D01*
X46103616Y-51624355D01*
X46043825Y-51898585D01*
X46021803Y-52178393D01*
X46037960Y-52458601D01*
X46038785Y-52462806D01*
X46038786Y-52462814D01*
X46049711Y-52518497D01*
X46091996Y-52734024D01*
X46093383Y-52738074D01*
X46093384Y-52738079D01*
X46181522Y-52995509D01*
X46182911Y-52999565D01*
X46309022Y-53250310D01*
X46311448Y-53253839D01*
X46311451Y-53253845D01*
X46420012Y-53411801D01*
X46467997Y-53481620D01*
X46656894Y-53689215D01*
X46660183Y-53691965D01*
X46868925Y-53866501D01*
X46868930Y-53866505D01*
X46872217Y-53869253D01*
X46927424Y-53903884D01*
X47106341Y-54016119D01*
X47106345Y-54016121D01*
X47109981Y-54018402D01*
X47365788Y-54133903D01*
X47369907Y-54135123D01*
X47630790Y-54212401D01*
X47630795Y-54212402D01*
X47634903Y-54213619D01*
X47639137Y-54214267D01*
X47639142Y-54214268D01*
X47813511Y-54240950D01*
X47877822Y-54271026D01*
X47915664Y-54331097D01*
X47915022Y-54402090D01*
X47876100Y-54461467D01*
X47811255Y-54490375D01*
X47794452Y-54491500D01*
X15634500Y-54491500D01*
X15566379Y-54471498D01*
X15519886Y-54417842D01*
X15508500Y-54365500D01*
X15508500Y-44425151D01*
X46825121Y-44425151D01*
X46832175Y-44435121D01*
X46869214Y-44466091D01*
X46876156Y-44471134D01*
X47106578Y-44615678D01*
X47114130Y-44619727D01*
X47362050Y-44731668D01*
X47370081Y-44734654D01*
X47630899Y-44811912D01*
X47639251Y-44813779D01*
X47908147Y-44854925D01*
X47916681Y-44855641D01*
X48188668Y-44859915D01*
X48197219Y-44859466D01*
X48467274Y-44826786D01*
X48475675Y-44825184D01*
X48738809Y-44756152D01*
X48746911Y-44753425D01*
X48998237Y-44649322D01*
X49005899Y-44645519D01*
X49240764Y-44508275D01*
X49247850Y-44503459D01*
X49335269Y-44434915D01*
X49342243Y-44425151D01*
X51655121Y-44425151D01*
X51662175Y-44435121D01*
X51699214Y-44466091D01*
X51706156Y-44471134D01*
X51936578Y-44615678D01*
X51944130Y-44619727D01*
X52192050Y-44731668D01*
X52200081Y-44734654D01*
X52460899Y-44811912D01*
X52469251Y-44813779D01*
X52738147Y-44854925D01*
X52746681Y-44855641D01*
X53018668Y-44859915D01*
X53027219Y-44859466D01*
X53297274Y-44826786D01*
X53305675Y-44825184D01*
X53568809Y-44756152D01*
X53576911Y-44753425D01*
X53828237Y-44649322D01*
X53835899Y-44645519D01*
X54070764Y-44508275D01*
X54077850Y-44503459D01*
X54165269Y-44434915D01*
X54173739Y-44423056D01*
X54167222Y-44411432D01*
X52927812Y-43172022D01*
X52913868Y-43164408D01*
X52912035Y-43164539D01*
X52905420Y-43168790D01*
X51662414Y-44411796D01*
X51655121Y-44425151D01*
X49342243Y-44425151D01*
X49343739Y-44423056D01*
X49337222Y-44411432D01*
X48097812Y-43172022D01*
X48083868Y-43164408D01*
X48082035Y-43164539D01*
X48075420Y-43168790D01*
X46832414Y-44411796D01*
X46825121Y-44425151D01*
X15508500Y-44425151D01*
X15508500Y-42782679D01*
X46022551Y-42782679D01*
X46038210Y-43054252D01*
X46039283Y-43062751D01*
X46091656Y-43329693D01*
X46093867Y-43337945D01*
X46181983Y-43595314D01*
X46185297Y-43603198D01*
X46307531Y-43846231D01*
X46311881Y-43853586D01*
X46448390Y-44052209D01*
X46458643Y-44060552D01*
X46472384Y-44053406D01*
X47712978Y-42812812D01*
X47719356Y-42801132D01*
X48449408Y-42801132D01*
X48449539Y-42802965D01*
X48453790Y-42809580D01*
X49696497Y-44052287D01*
X49708707Y-44058954D01*
X49720206Y-44050265D01*
X49824149Y-43908763D01*
X49828733Y-43901540D01*
X49958530Y-43662484D01*
X49962098Y-43654690D01*
X50058249Y-43400235D01*
X50060726Y-43392029D01*
X50121454Y-43126878D01*
X50122794Y-43118417D01*
X50147137Y-42845665D01*
X50147383Y-42840726D01*
X50147783Y-42802485D01*
X50147640Y-42797519D01*
X50146628Y-42782679D01*
X50852551Y-42782679D01*
X50868210Y-43054252D01*
X50869283Y-43062751D01*
X50921656Y-43329693D01*
X50923867Y-43337945D01*
X51011983Y-43595314D01*
X51015297Y-43603198D01*
X51137531Y-43846231D01*
X51141881Y-43853586D01*
X51278390Y-44052209D01*
X51288643Y-44060552D01*
X51302384Y-44053406D01*
X52542978Y-42812812D01*
X52549356Y-42801132D01*
X53279408Y-42801132D01*
X53279539Y-42802965D01*
X53283790Y-42809580D01*
X54526497Y-44052287D01*
X54538707Y-44058954D01*
X54550206Y-44050265D01*
X54654149Y-43908763D01*
X54658733Y-43901540D01*
X54788530Y-43662484D01*
X54792098Y-43654690D01*
X54888249Y-43400235D01*
X54890726Y-43392029D01*
X54951454Y-43126878D01*
X54952794Y-43118417D01*
X54977137Y-42845665D01*
X54977383Y-42840726D01*
X54977783Y-42802485D01*
X54977640Y-42797519D01*
X54959015Y-42524319D01*
X54957856Y-42515851D01*
X54902689Y-42249467D01*
X54900389Y-42241229D01*
X54809584Y-41984801D01*
X54806188Y-41976953D01*
X54681421Y-41735222D01*
X54676983Y-41727895D01*
X54550922Y-41548527D01*
X54540400Y-41540146D01*
X54527012Y-41547198D01*
X53287022Y-42787188D01*
X53279408Y-42801132D01*
X52549356Y-42801132D01*
X52550592Y-42798868D01*
X52550461Y-42797035D01*
X52546210Y-42790420D01*
X51302987Y-41547197D01*
X51290977Y-41540638D01*
X51279238Y-41549606D01*
X51164342Y-41709501D01*
X51159820Y-41716795D01*
X51032541Y-41957183D01*
X51029055Y-41965011D01*
X50935573Y-42220464D01*
X50933184Y-42228688D01*
X50875233Y-42494473D01*
X50873984Y-42502929D01*
X50852640Y-42774128D01*
X50852551Y-42782679D01*
X50146628Y-42782679D01*
X50129015Y-42524319D01*
X50127856Y-42515851D01*
X50072689Y-42249467D01*
X50070389Y-42241229D01*
X49979584Y-41984801D01*
X49976188Y-41976953D01*
X49851421Y-41735222D01*
X49846983Y-41727895D01*
X49720922Y-41548527D01*
X49710400Y-41540146D01*
X49697012Y-41547198D01*
X48457022Y-42787188D01*
X48449408Y-42801132D01*
X47719356Y-42801132D01*
X47720592Y-42798868D01*
X47720461Y-42797035D01*
X47716210Y-42790420D01*
X46472987Y-41547197D01*
X46460977Y-41540638D01*
X46449238Y-41549606D01*
X46334342Y-41709501D01*
X46329820Y-41716795D01*
X46202541Y-41957183D01*
X46199055Y-41965011D01*
X46105573Y-42220464D01*
X46103184Y-42228688D01*
X46045233Y-42494473D01*
X46043984Y-42502929D01*
X46022640Y-42774128D01*
X46022551Y-42782679D01*
X15508500Y-42782679D01*
X15508500Y-41176929D01*
X46826013Y-41176929D01*
X46832409Y-41188199D01*
X48072188Y-42427978D01*
X48086132Y-42435592D01*
X48087965Y-42435461D01*
X48094580Y-42431210D01*
X49337136Y-41188654D01*
X49343538Y-41176929D01*
X51656013Y-41176929D01*
X51662409Y-41188199D01*
X52902188Y-42427978D01*
X52916132Y-42435592D01*
X52917965Y-42435461D01*
X52924580Y-42431210D01*
X54167136Y-41188654D01*
X54174327Y-41175485D01*
X54167004Y-41165248D01*
X54113265Y-41121263D01*
X54106290Y-41116306D01*
X53874341Y-40974167D01*
X53866771Y-40970210D01*
X53617681Y-40860868D01*
X53609621Y-40857966D01*
X53348010Y-40783444D01*
X53339635Y-40781664D01*
X53070328Y-40743336D01*
X53061780Y-40742708D01*
X52789761Y-40741283D01*
X52781228Y-40741820D01*
X52511528Y-40777328D01*
X52503127Y-40779022D01*
X52240756Y-40850798D01*
X52232661Y-40853617D01*
X51982446Y-40960342D01*
X51974823Y-40964227D01*
X51741411Y-41103921D01*
X51734379Y-41108808D01*
X51664482Y-41164806D01*
X51656013Y-41176929D01*
X49343538Y-41176929D01*
X49344327Y-41175485D01*
X49337004Y-41165248D01*
X49283265Y-41121263D01*
X49276290Y-41116306D01*
X49044341Y-40974167D01*
X49036771Y-40970210D01*
X48787681Y-40860868D01*
X48779621Y-40857966D01*
X48518010Y-40783444D01*
X48509635Y-40781664D01*
X48240328Y-40743336D01*
X48231780Y-40742708D01*
X47959761Y-40741283D01*
X47951228Y-40741820D01*
X47681528Y-40777328D01*
X47673127Y-40779022D01*
X47410756Y-40850798D01*
X47402661Y-40853617D01*
X47152446Y-40960342D01*
X47144823Y-40964227D01*
X46911411Y-41103921D01*
X46904379Y-41108808D01*
X46834482Y-41164806D01*
X46826013Y-41176929D01*
X15508500Y-41176929D01*
X15508500Y-22455939D01*
X18817370Y-22455939D01*
X18817594Y-22460606D01*
X18817594Y-22460611D01*
X18823354Y-22580535D01*
X18829339Y-22705131D01*
X18878010Y-22949818D01*
X18962314Y-23184622D01*
X19080398Y-23404386D01*
X19229668Y-23604283D01*
X19406844Y-23779921D01*
X19410606Y-23782679D01*
X19410609Y-23782682D01*
X19522139Y-23864458D01*
X19608036Y-23927440D01*
X19612171Y-23929616D01*
X19612175Y-23929618D01*
X19709002Y-23980561D01*
X19828823Y-24043602D01*
X19959347Y-24089183D01*
X20058550Y-24123826D01*
X20064354Y-24125853D01*
X20068947Y-24126725D01*
X20304867Y-24171516D01*
X20304870Y-24171516D01*
X20309456Y-24172387D01*
X20434100Y-24177285D01*
X20554075Y-24181999D01*
X20554081Y-24181999D01*
X20558743Y-24182182D01*
X20648181Y-24172387D01*
X20802087Y-24155532D01*
X20802092Y-24155531D01*
X20806740Y-24155022D01*
X20813140Y-24153337D01*
X21043476Y-24092694D01*
X21043478Y-24092693D01*
X21047999Y-24091503D01*
X21053399Y-24089183D01*
X21272924Y-23994868D01*
X21272926Y-23994867D01*
X21277218Y-23993023D01*
X21379679Y-23929618D01*
X21485391Y-23864202D01*
X21485395Y-23864199D01*
X21489364Y-23861743D01*
X21589900Y-23776633D01*
X21676209Y-23703567D01*
X21676210Y-23703566D01*
X21679775Y-23700548D01*
X21742449Y-23629082D01*
X21841187Y-23516494D01*
X21841191Y-23516489D01*
X21844269Y-23512979D01*
X21860803Y-23487275D01*
X21976703Y-23307087D01*
X21979231Y-23303157D01*
X22081697Y-23075691D01*
X22114355Y-22959896D01*
X22148146Y-22840082D01*
X22148147Y-22840079D01*
X22149416Y-22835578D01*
X22180900Y-22588092D01*
X22180984Y-22584909D01*
X22182243Y-22536828D01*
X22183207Y-22500000D01*
X22167725Y-22291668D01*
X22165064Y-22255858D01*
X22165063Y-22255854D01*
X22164718Y-22251206D01*
X22109659Y-22007878D01*
X22106535Y-21999844D01*
X22020931Y-21779714D01*
X22020930Y-21779712D01*
X22019238Y-21775361D01*
X21994494Y-21732067D01*
X21973285Y-21694959D01*
X21895442Y-21558763D01*
X21740990Y-21362842D01*
X21559276Y-21191902D01*
X21421982Y-21096658D01*
X21358130Y-21052362D01*
X21358125Y-21052359D01*
X21354292Y-21049700D01*
X21350110Y-21047637D01*
X21350102Y-21047633D01*
X21134728Y-20941423D01*
X21134725Y-20941422D01*
X21130540Y-20939358D01*
X20892937Y-20863300D01*
X20888330Y-20862550D01*
X20888327Y-20862549D01*
X20651312Y-20823949D01*
X20651313Y-20823949D01*
X20646701Y-20823198D01*
X20525753Y-20821615D01*
X20401920Y-20819994D01*
X20401917Y-20819994D01*
X20397243Y-20819933D01*
X20150042Y-20853575D01*
X20145556Y-20854883D01*
X20145554Y-20854883D01*
X20117576Y-20863038D01*
X19910528Y-20923387D01*
X19906275Y-20925347D01*
X19906274Y-20925348D01*
X19900552Y-20927986D01*
X19683965Y-21027834D01*
X19680056Y-21030397D01*
X19479242Y-21162056D01*
X19479237Y-21162060D01*
X19475329Y-21164622D01*
X19418448Y-21215390D01*
X19294875Y-21325683D01*
X19289202Y-21330746D01*
X19129675Y-21522557D01*
X19000252Y-21735840D01*
X18998443Y-21740154D01*
X18998442Y-21740156D01*
X18906508Y-21959394D01*
X18903775Y-21965911D01*
X18902624Y-21970443D01*
X18902623Y-21970446D01*
X18894185Y-22003671D01*
X18842365Y-22207714D01*
X18817370Y-22455939D01*
X15508500Y-22455939D01*
X15508500Y-15634500D01*
X15528502Y-15566379D01*
X15582158Y-15519886D01*
X15634500Y-15508500D01*
X85365500Y-15508500D01*
X85433621Y-15528502D01*
G37*
G04 #@! TD.AperFunction*
G04 #@! TD*
M02*
