M48
; DRILL file {KiCad 6.0.9-8da3e8f707~116~ubuntu22.04.1} date Sat Nov 12 16:46:25 2022
; FORMAT={-:-/ absolute / metric / decimal}
; #@! TF.CreationDate,2022-11-12T16:46:25-05:00
; #@! TF.GenerationSoftware,Kicad,Pcbnew,6.0.9-8da3e8f707~116~ubuntu22.04.1
; #@! TF.FileFunction,MixedPlating,1,2
FMAT,2
METRIC
; #@! TA.AperFunction,Plated,PTH,ViaDrill
T1C0.400
; #@! TA.AperFunction,Plated,PTH,ComponentDrill
T2C0.700
; #@! TA.AperFunction,Plated,PTH,ComponentDrill
T3C0.800
; #@! TA.AperFunction,Plated,PTH,ComponentDrill
T4C1.000
; #@! TA.AperFunction,Plated,PTH,ComponentDrill
T5C1.016
; #@! TA.AperFunction,Plated,PTH,ComponentDrill
T6C1.100
; #@! TA.AperFunction,Plated,PTH,ComponentDrill
T7C1.200
%
G90
G05
T1
X164.106Y-115.256
X166.637Y-43.247
T2
X139.84Y-15.18
X146.19Y-15.18
X152.54Y-15.18
T3
X116.98Y-71.06
X118.25Y-105.35
X118.25Y-109.16
X118.25Y-116.78
X118.25Y-120.59
X118.25Y-124.4
X118.25Y-128.21
X123.38Y-101.545
X125.91Y-112.97
X127.14Y-71.06
X128.38Y-101.545
X128.41Y-105.35
X128.41Y-109.16
X128.41Y-112.97
X128.41Y-116.78
X128.41Y-120.59
X128.41Y-124.4
X128.41Y-128.21
X130.95Y-71.06
X133.5Y-105.355
X133.5Y-107.895
X133.5Y-110.435
X133.5Y-112.975
X133.5Y-115.515
X133.5Y-118.055
X133.5Y-120.595
X139.84Y-161.23
X141.11Y-71.06
X141.12Y-105.355
X141.12Y-107.895
X141.12Y-110.435
X141.12Y-112.975
X141.12Y-115.515
X141.12Y-118.055
X141.12Y-120.595
X143.65Y-20.26
X143.65Y-27.88
X143.65Y-35.5
X143.65Y-39.31
X146.19Y-101.54
X146.19Y-105.35
X146.19Y-109.16
X146.19Y-112.97
X146.19Y-129.48
X146.23Y-116.78
X146.23Y-123.13
X148.73Y-116.78
X150.0Y-161.23
X151.19Y-129.48
X151.23Y-123.13
X151.31Y-24.07
X151.31Y-31.69
X151.81Y-134.56
X153.81Y-20.26
X153.81Y-24.07
X153.81Y-27.88
X153.81Y-31.69
X153.81Y-35.5
X153.81Y-39.31
X153.81Y-134.56
X153.81Y-161.23
X155.08Y-123.17
X155.08Y-125.67
X156.35Y-71.06
X156.35Y-101.54
X156.35Y-105.35
X156.35Y-109.16
X156.35Y-112.97
X157.66Y-21.53
X158.89Y-27.88
X158.89Y-30.42
X158.89Y-32.96
X158.89Y-35.5
X158.9Y-118.055
X158.9Y-120.595
X158.9Y-123.135
X158.9Y-125.675
X158.9Y-128.215
X158.9Y-130.755
X158.9Y-133.295
X160.16Y-21.53
X162.7Y-142.18
X162.7Y-152.34
X163.97Y-161.23
X165.28Y-21.53
X166.51Y-27.88
X166.51Y-30.42
X166.51Y-32.96
X166.51Y-35.5
X166.51Y-71.06
X166.52Y-118.055
X166.52Y-120.595
X166.52Y-123.135
X166.52Y-125.675
X166.52Y-128.215
X166.52Y-130.755
X166.52Y-133.295
X167.78Y-21.53
X167.78Y-161.23
X170.32Y-71.06
X171.55Y-24.07
X171.55Y-27.88
X171.55Y-31.69
X171.55Y-35.5
X171.59Y-16.45
X171.59Y-39.31
X171.59Y-99.0
X171.59Y-102.81
X171.59Y-110.43
X171.59Y-114.24
X171.59Y-121.86
X171.59Y-129.48
X171.59Y-133.29
X171.59Y-137.1
X171.63Y-125.67
X174.09Y-39.31
X174.13Y-20.26
X174.13Y-106.62
X174.13Y-125.67
X176.63Y-20.26
X176.63Y-106.62
X177.94Y-161.23
X179.25Y-125.67
X180.48Y-71.06
X181.71Y-24.07
X181.71Y-27.88
X181.71Y-31.69
X181.71Y-35.5
X181.75Y-16.45
X181.75Y-99.0
X181.75Y-102.81
X181.75Y-110.43
X181.75Y-114.24
X181.75Y-121.86
X181.75Y-125.67
X181.75Y-129.48
X181.75Y-133.29
X181.75Y-137.1
T4
X123.42Y-97.5
X125.96Y-97.5
X128.5Y-97.5
X131.04Y-97.5
X133.58Y-97.5
X136.12Y-97.5
X138.66Y-97.5
X141.2Y-97.5
X143.74Y-97.5
X146.28Y-97.5
X148.82Y-97.5
X151.36Y-97.5
X153.9Y-97.5
T5
X120.79Y-26.61
X120.79Y-29.15
X120.79Y-31.69
X120.79Y-34.23
X120.79Y-36.77
X123.33Y-26.61
X123.33Y-29.15
X123.33Y-31.69
X123.33Y-34.23
X123.33Y-36.77
T6
X129.68Y-27.88
X129.68Y-35.5
X139.84Y-27.88
X139.84Y-35.5
T7
X153.81Y-45.66
X156.35Y-45.66
X158.89Y-45.66
X163.97Y-45.66
X166.51Y-45.66
X169.05Y-45.66
T4
X118.6Y-55.65G85X118.6Y-57.35
G05
X118.6Y-80.65G85X118.6Y-82.35
G05
X118.6Y-170.65G85X118.6Y-172.35
G05
X118.708Y-145.65G85X118.708Y-147.35
G05
X119.659Y-63.139G85X120.861Y-64.341
G05
X119.659Y-88.139G85X120.861Y-89.341
G05
X119.659Y-178.139G85X120.861Y-179.341
G05
X119.767Y-153.139G85X120.969Y-154.341
G05
X125.35Y-52.6G85X123.65Y-52.6
G05
X125.35Y-77.6G85X123.65Y-77.6
G05
X125.35Y-167.6G85X123.65Y-167.6
G05
X125.458Y-142.6G85X123.758Y-142.6
G05
X128.35Y-65.4G85X126.65Y-65.4
G05
X128.35Y-90.4G85X126.65Y-90.4
G05
X128.35Y-180.4G85X126.65Y-180.4
G05
X128.458Y-155.4G85X126.758Y-155.4
G05
X131.4Y-58.65G85X131.4Y-60.35
G05
X131.4Y-83.65G85X131.4Y-85.35
G05
X131.4Y-173.65G85X131.4Y-175.35
G05
X131.508Y-148.65G85X131.508Y-150.35
G05
X143.6Y-55.65G85X143.6Y-57.35
G05
X143.6Y-80.65G85X143.6Y-82.35
G05
X143.6Y-145.65G85X143.6Y-147.35
G05
X143.6Y-170.65G85X143.6Y-172.35
G05
X144.659Y-63.139G85X145.861Y-64.341
G05
X144.659Y-88.139G85X145.861Y-89.341
G05
X144.659Y-153.139G85X145.861Y-154.341
G05
X144.659Y-178.139G85X145.861Y-179.341
G05
X150.35Y-52.6G85X148.65Y-52.6
G05
X150.35Y-77.6G85X148.65Y-77.6
G05
X150.35Y-142.6G85X148.65Y-142.6
G05
X150.35Y-167.6G85X148.65Y-167.6
G05
X153.35Y-65.4G85X151.65Y-65.4
G05
X153.35Y-90.4G85X151.65Y-90.4
G05
X153.35Y-155.4G85X151.65Y-155.4
G05
X153.35Y-180.4G85X151.65Y-180.4
G05
X156.4Y-58.65G85X156.4Y-60.35
G05
X156.4Y-83.65G85X156.4Y-85.35
G05
X156.4Y-148.65G85X156.4Y-150.35
G05
X156.4Y-173.65G85X156.4Y-175.35
G05
X168.6Y-55.65G85X168.6Y-57.35
G05
X168.6Y-83.65G85X168.6Y-85.35
G05
X168.6Y-145.65G85X168.6Y-147.35
G05
X168.6Y-170.65G85X168.6Y-172.35
G05
X169.659Y-63.139G85X170.861Y-64.341
G05
X169.659Y-153.139G85X170.861Y-154.341
G05
X169.659Y-178.139G85X170.861Y-179.341
G05
X171.65Y-90.4G85X173.35Y-90.4
G05
X175.35Y-52.6G85X173.65Y-52.6
G05
X175.35Y-142.6G85X173.65Y-142.6
G05
X175.35Y-167.6G85X173.65Y-167.6
G05
X174.65Y-77.6G85X176.35Y-77.6
G05
X178.35Y-65.4G85X176.65Y-65.4
G05
X178.35Y-155.4G85X176.65Y-155.4
G05
X178.35Y-180.4G85X176.65Y-180.4
G05
X179.139Y-89.341G85X180.341Y-88.139
G05
X181.4Y-58.65G85X181.4Y-60.35
G05
X181.4Y-80.65G85X181.4Y-82.35
G05
X181.4Y-148.65G85X181.4Y-150.35
G05
X181.4Y-173.65G85X181.4Y-175.35
G05
T0
M30
