M48
; DRILL file {KiCad 6.0.7-f9a2dced07~116~ubuntu22.04.1} date Fri Sep  2 23:43:51 2022
; FORMAT={-:-/ absolute / metric / decimal}
; #@! TF.CreationDate,2022-09-02T23:43:51-04:00
; #@! TF.GenerationSoftware,Kicad,Pcbnew,6.0.7-f9a2dced07~116~ubuntu22.04.1
; #@! TF.FileFunction,MixedPlating,1,2
FMAT,2
METRIC
; #@! TA.AperFunction,Plated,PTH,ViaDrill
T1C0.400
; #@! TA.AperFunction,Plated,PTH,ComponentDrill
T2C0.700
; #@! TA.AperFunction,Plated,PTH,ComponentDrill
T3C0.800
; #@! TA.AperFunction,Plated,PTH,ComponentDrill
T4C1.000
; #@! TA.AperFunction,Plated,PTH,ComponentDrill
T5C1.016
; #@! TA.AperFunction,Plated,PTH,ComponentDrill
T6C1.100
; #@! TA.AperFunction,Plated,PTH,ComponentDrill
T7C1.200
%
G90
G05
T1
X64.605Y-117.256
X67.137Y-45.247
T2
X40.34Y-17.18
X46.69Y-17.18
X53.04Y-17.18
T3
X17.48Y-73.06
X18.75Y-107.35
X18.75Y-111.16
X18.75Y-118.78
X18.75Y-122.59
X18.75Y-126.4
X18.75Y-130.21
X23.88Y-103.545
X26.41Y-114.97
X27.64Y-73.06
X28.88Y-103.545
X28.91Y-107.35
X28.91Y-111.16
X28.91Y-114.97
X28.91Y-118.78
X28.91Y-122.59
X28.91Y-126.4
X28.91Y-130.21
X31.45Y-73.06
X34.0Y-107.355
X34.0Y-109.895
X34.0Y-112.435
X34.0Y-114.975
X34.0Y-117.515
X34.0Y-120.055
X34.0Y-122.595
X40.34Y-163.23
X41.61Y-73.06
X41.62Y-107.355
X41.62Y-109.895
X41.62Y-112.435
X41.62Y-114.975
X41.62Y-117.515
X41.62Y-120.055
X41.62Y-122.595
X44.15Y-22.26
X44.15Y-29.88
X44.15Y-37.5
X44.15Y-41.31
X46.69Y-103.54
X46.69Y-107.35
X46.69Y-111.16
X46.69Y-114.97
X46.69Y-131.48
X46.73Y-118.78
X46.73Y-125.13
X49.23Y-118.78
X50.5Y-163.23
X51.69Y-131.48
X51.73Y-125.13
X51.81Y-26.07
X51.81Y-33.69
X52.31Y-136.56
X54.31Y-22.26
X54.31Y-26.07
X54.31Y-29.88
X54.31Y-33.69
X54.31Y-37.5
X54.31Y-41.31
X54.31Y-136.56
X54.31Y-163.23
X55.58Y-125.17
X55.58Y-127.67
X56.85Y-73.06
X56.85Y-103.54
X56.85Y-107.35
X56.85Y-111.16
X56.85Y-114.97
X58.16Y-23.53
X59.39Y-29.88
X59.39Y-32.42
X59.39Y-34.96
X59.39Y-37.5
X59.4Y-120.055
X59.4Y-122.595
X59.4Y-125.135
X59.4Y-127.675
X59.4Y-130.215
X59.4Y-132.755
X59.4Y-135.295
X60.66Y-23.53
X63.2Y-144.18
X63.2Y-154.34
X64.47Y-163.23
X65.78Y-23.53
X67.01Y-29.88
X67.01Y-32.42
X67.01Y-34.96
X67.01Y-37.5
X67.01Y-73.06
X67.02Y-120.055
X67.02Y-122.595
X67.02Y-125.135
X67.02Y-127.675
X67.02Y-130.215
X67.02Y-132.755
X67.02Y-135.295
X68.28Y-23.53
X68.28Y-163.23
X70.82Y-73.06
X72.05Y-26.07
X72.05Y-29.88
X72.05Y-33.69
X72.05Y-37.5
X72.09Y-18.45
X72.09Y-41.31
X72.09Y-101.0
X72.09Y-104.81
X72.09Y-112.43
X72.09Y-116.24
X72.09Y-123.86
X72.09Y-131.48
X72.09Y-135.29
X72.09Y-139.1
X72.13Y-127.67
X74.59Y-41.31
X74.63Y-22.26
X74.63Y-108.62
X74.63Y-127.67
X77.13Y-22.26
X77.13Y-108.62
X78.44Y-163.23
X79.75Y-127.67
X80.98Y-73.06
X82.21Y-26.07
X82.21Y-29.88
X82.21Y-33.69
X82.21Y-37.5
X82.25Y-18.45
X82.25Y-101.0
X82.25Y-104.81
X82.25Y-112.43
X82.25Y-116.24
X82.25Y-123.86
X82.25Y-127.67
X82.25Y-131.48
X82.25Y-135.29
X82.25Y-139.1
T4
X23.92Y-99.5
X26.46Y-99.5
X29.0Y-99.5
X31.54Y-99.5
X34.08Y-99.5
X36.62Y-99.5
X39.16Y-99.5
X41.7Y-99.5
X44.24Y-99.5
X46.78Y-99.5
X49.32Y-99.5
X51.86Y-99.5
X54.4Y-99.5
T5
X21.29Y-28.61
X21.29Y-31.15
X21.29Y-33.69
X21.29Y-36.23
X21.29Y-38.77
X23.83Y-28.61
X23.83Y-31.15
X23.83Y-33.69
X23.83Y-36.23
X23.83Y-38.77
T6
X30.18Y-29.88
X30.18Y-37.5
X40.34Y-29.88
X40.34Y-37.5
T7
X54.31Y-47.66
X56.85Y-47.66
X59.39Y-47.66
X64.47Y-47.66
X67.01Y-47.66
X69.55Y-47.66
T4
X19.1Y-57.65G85X19.1Y-59.35
G05
X19.1Y-82.65G85X19.1Y-84.35
G05
X19.1Y-172.65G85X19.1Y-174.35
G05
X19.208Y-147.65G85X19.208Y-149.35
G05
X20.159Y-65.139G85X21.361Y-66.341
G05
X20.159Y-90.139G85X21.361Y-91.341
G05
X20.159Y-180.139G85X21.361Y-181.341
G05
X20.267Y-155.139G85X21.469Y-156.341
G05
X25.85Y-54.6G85X24.15Y-54.6
G05
X25.85Y-79.6G85X24.15Y-79.6
G05
X25.85Y-169.6G85X24.15Y-169.6
G05
X25.958Y-144.6G85X24.258Y-144.6
G05
X28.85Y-67.4G85X27.15Y-67.4
G05
X28.85Y-92.4G85X27.15Y-92.4
G05
X28.85Y-182.4G85X27.15Y-182.4
G05
X28.958Y-157.4G85X27.258Y-157.4
G05
X31.9Y-60.65G85X31.9Y-62.35
G05
X31.9Y-85.65G85X31.9Y-87.35
G05
X31.9Y-175.65G85X31.9Y-177.35
G05
X32.008Y-150.65G85X32.008Y-152.35
G05
X44.1Y-57.65G85X44.1Y-59.35
G05
X44.1Y-82.65G85X44.1Y-84.35
G05
X44.1Y-147.65G85X44.1Y-149.35
G05
X44.1Y-172.65G85X44.1Y-174.35
G05
X45.159Y-65.139G85X46.361Y-66.341
G05
X45.159Y-90.139G85X46.361Y-91.341
G05
X45.159Y-155.139G85X46.361Y-156.341
G05
X45.159Y-180.139G85X46.361Y-181.341
G05
X50.85Y-54.6G85X49.15Y-54.6
G05
X50.85Y-79.6G85X49.15Y-79.6
G05
X50.85Y-144.6G85X49.15Y-144.6
G05
X50.85Y-169.6G85X49.15Y-169.6
G05
X53.85Y-67.4G85X52.15Y-67.4
G05
X53.85Y-92.4G85X52.15Y-92.4
G05
X53.85Y-157.4G85X52.15Y-157.4
G05
X53.85Y-182.4G85X52.15Y-182.4
G05
X56.9Y-60.65G85X56.9Y-62.35
G05
X56.9Y-85.65G85X56.9Y-87.35
G05
X56.9Y-150.65G85X56.9Y-152.35
G05
X56.9Y-175.65G85X56.9Y-177.35
G05
X69.1Y-57.65G85X69.1Y-59.35
G05
X69.1Y-85.65G85X69.1Y-87.35
G05
X69.1Y-147.65G85X69.1Y-149.35
G05
X69.1Y-172.65G85X69.1Y-174.35
G05
X70.159Y-65.139G85X71.361Y-66.341
G05
X70.159Y-155.139G85X71.361Y-156.341
G05
X70.159Y-180.139G85X71.361Y-181.341
G05
X72.15Y-92.4G85X73.85Y-92.4
G05
X75.85Y-54.6G85X74.15Y-54.6
G05
X75.85Y-144.6G85X74.15Y-144.6
G05
X75.85Y-169.6G85X74.15Y-169.6
G05
X75.15Y-79.6G85X76.85Y-79.6
G05
X78.85Y-67.4G85X77.15Y-67.4
G05
X78.85Y-157.4G85X77.15Y-157.4
G05
X78.85Y-182.4G85X77.15Y-182.4
G05
X79.639Y-91.341G85X80.841Y-90.139
G05
X81.9Y-60.65G85X81.9Y-62.35
G05
X81.9Y-82.65G85X81.9Y-84.35
G05
X81.9Y-150.65G85X81.9Y-152.35
G05
X81.9Y-175.65G85X81.9Y-177.35
G05
T0
M30
