M48
; DRILL file {KiCad 6.0.7-f9a2dced07~116~ubuntu22.04.1} date Fri Sep  2 23:25:56 2022
; FORMAT={-:-/ absolute / metric / decimal}
; #@! TF.CreationDate,2022-09-02T23:25:56-04:00
; #@! TF.GenerationSoftware,Kicad,Pcbnew,6.0.7-f9a2dced07~116~ubuntu22.04.1
; #@! TF.FileFunction,MixedPlating,1,2
FMAT,2
METRIC
; #@! TA.AperFunction,Plated,PTH,ComponentDrill
T1C3.200
; #@! TA.AperFunction,Plated,PTH,ComponentDrill
T2C7.000
; #@! TA.AperFunction,Plated,PTH,ComponentDrill
T3C10.000
%
G90
G05
T2
X28.6Y-37.6
X28.6Y-126.6
X53.6Y-117.6
X53.6Y-135.6
X78.6Y-37.6
X78.6Y-126.6
T3
X28.6Y-67.6
X28.6Y-92.6
X28.6Y-157.6
X28.6Y-182.6
X53.6Y-67.6
X53.6Y-92.6
X53.6Y-157.6
X53.6Y-182.6
X78.6Y-67.6
X78.6Y-92.6
X78.6Y-157.6
X78.6Y-182.6
T1
X19.1Y-10.6G85X21.9Y-10.6
G05
X19.1Y-204.6G85X21.9Y-204.6
G05
X88.1Y-10.6G85X85.3Y-10.6
G05
X88.1Y-204.6G85X85.3Y-204.6
G05
T0
M30
