G04 #@! TF.GenerationSoftware,KiCad,Pcbnew,6.0.7-f9a2dced07~116~ubuntu22.04.1*
G04 #@! TF.CreationDate,2022-09-02T23:25:56-04:00*
G04 #@! TF.ProjectId,voltproc_panel,766f6c74-7072-46f6-935f-70616e656c2e,rev?*
G04 #@! TF.SameCoordinates,Original*
G04 #@! TF.FileFunction,Copper,L2,Bot*
G04 #@! TF.FilePolarity,Positive*
%FSLAX46Y46*%
G04 Gerber Fmt 4.6, Leading zero omitted, Abs format (unit mm)*
G04 Created by KiCad (PCBNEW 6.0.7-f9a2dced07~116~ubuntu22.04.1) date 2022-09-02 23:25:56*
%MOMM*%
%LPD*%
G01*
G04 APERTURE LIST*
G04 #@! TA.AperFunction,ComponentPad*
%ADD10O,6.800000X4.000000*%
G04 #@! TD*
G04 #@! TA.AperFunction,ComponentPad*
%ADD11C,9.000000*%
G04 #@! TD*
G04 #@! TA.AperFunction,ComponentPad*
%ADD12C,14.000000*%
G04 #@! TD*
G04 APERTURE END LIST*
D10*
G04 #@! TO.P,H12,1*
G04 #@! TO.N,GND*
X86700000Y-204600000D03*
X86700000Y-10600000D03*
G04 #@! TD*
D11*
G04 #@! TO.P,H10,1*
G04 #@! TO.N,GND*
X53600000Y-117600000D03*
G04 #@! TD*
D12*
G04 #@! TO.P,H7,1*
G04 #@! TO.N,GND*
X28600000Y-67600000D03*
G04 #@! TD*
G04 #@! TO.P,H8,1*
G04 #@! TO.N,GND*
X53600000Y-67600000D03*
G04 #@! TD*
G04 #@! TO.P,H1,1*
G04 #@! TO.N,GND*
X28600000Y-157600000D03*
G04 #@! TD*
D10*
G04 #@! TO.P,H9,1*
G04 #@! TO.N,GND*
X20500000Y-204600000D03*
X20500000Y-10600000D03*
G04 #@! TD*
D11*
G04 #@! TO.P,H11,1*
G04 #@! TO.N,GND*
X28600000Y-37600000D03*
G04 #@! TD*
D12*
G04 #@! TO.P,H2,1*
G04 #@! TO.N,GND*
X28600000Y-182600000D03*
G04 #@! TD*
G04 #@! TO.P,H3,1*
G04 #@! TO.N,GND*
X53600000Y-157600000D03*
G04 #@! TD*
G04 #@! TO.P,H4,1*
G04 #@! TO.N,GND*
X53600000Y-182600000D03*
G04 #@! TD*
G04 #@! TO.P,H5,1*
G04 #@! TO.N,GND*
X78600000Y-157600000D03*
G04 #@! TD*
G04 #@! TO.P,H6,1*
G04 #@! TO.N,GND*
X78600000Y-182600000D03*
G04 #@! TD*
D11*
G04 #@! TO.P,H20,1*
G04 #@! TO.N,GND*
X78600000Y-126600000D03*
G04 #@! TD*
D12*
G04 #@! TO.P,H14,1*
G04 #@! TO.N,GND*
X28600000Y-92600000D03*
G04 #@! TD*
D11*
G04 #@! TO.P,H15,1*
G04 #@! TO.N,GND*
X53600000Y-135600000D03*
G04 #@! TD*
D12*
G04 #@! TO.P,H18,1*
G04 #@! TO.N,GND*
X78600000Y-92600000D03*
G04 #@! TD*
G04 #@! TO.P,H17,1*
G04 #@! TO.N,GND*
X53600000Y-92600000D03*
G04 #@! TD*
D11*
G04 #@! TO.P,H19,1*
G04 #@! TO.N,GND*
X78600000Y-37600000D03*
G04 #@! TD*
G04 #@! TO.P,H16,1*
G04 #@! TO.N,GND*
X28600000Y-126600000D03*
G04 #@! TD*
D12*
G04 #@! TO.P,H13,1*
G04 #@! TO.N,GND*
X78600000Y-67600000D03*
G04 #@! TD*
G04 #@! TA.AperFunction,Conductor*
G04 #@! TO.N,GND*
G36*
X84208761Y-8128502D02*
G01*
X84255254Y-8182158D01*
X84265358Y-8252432D01*
X84235864Y-8317012D01*
X84194288Y-8348508D01*
X84092959Y-8396190D01*
X84086026Y-8400001D01*
X83826271Y-8564847D01*
X83819868Y-8569498D01*
X83582813Y-8765607D01*
X83577046Y-8771023D01*
X83366443Y-8995293D01*
X83361404Y-9001384D01*
X83180570Y-9250281D01*
X83176330Y-9256961D01*
X83028110Y-9526572D01*
X83024753Y-9533707D01*
X82911492Y-9819770D01*
X82909047Y-9827296D01*
X82832538Y-10125279D01*
X82831055Y-10133050D01*
X82806425Y-10328026D01*
X82808728Y-10342306D01*
X82821720Y-10346000D01*
X86828000Y-10346000D01*
X86896121Y-10366002D01*
X86942614Y-10419658D01*
X86954000Y-10472000D01*
X86954000Y-13089885D01*
X86958475Y-13105124D01*
X86959865Y-13106329D01*
X86967548Y-13108000D01*
X88176829Y-13108000D01*
X88180820Y-13107874D01*
X88410994Y-13093393D01*
X88418855Y-13092400D01*
X88721046Y-13034754D01*
X88728723Y-13032783D01*
X89021309Y-12937716D01*
X89028672Y-12934801D01*
X89307041Y-12803811D01*
X89313974Y-12799999D01*
X89573729Y-12635153D01*
X89580132Y-12630502D01*
X89817187Y-12434393D01*
X89822954Y-12428977D01*
X90033557Y-12204707D01*
X90038596Y-12198616D01*
X90219430Y-11949719D01*
X90223670Y-11943039D01*
X90355085Y-11703996D01*
X90405431Y-11653937D01*
X90474848Y-11639044D01*
X90541297Y-11664045D01*
X90583681Y-11721002D01*
X90591500Y-11764697D01*
X90591500Y-203435303D01*
X90571498Y-203503424D01*
X90517842Y-203549917D01*
X90447568Y-203560021D01*
X90382988Y-203530527D01*
X90355085Y-203496004D01*
X90223670Y-203256961D01*
X90219430Y-203250281D01*
X90038596Y-203001384D01*
X90033557Y-202995293D01*
X89822954Y-202771023D01*
X89817187Y-202765607D01*
X89580132Y-202569498D01*
X89573729Y-202564847D01*
X89313974Y-202400001D01*
X89307041Y-202396189D01*
X89028672Y-202265199D01*
X89021309Y-202262284D01*
X88728723Y-202167217D01*
X88721046Y-202165246D01*
X88418855Y-202107600D01*
X88410994Y-202106607D01*
X88180820Y-202092126D01*
X88176829Y-202092000D01*
X86972115Y-202092000D01*
X86956876Y-202096475D01*
X86955671Y-202097865D01*
X86954000Y-202105548D01*
X86954000Y-204728000D01*
X86933998Y-204796121D01*
X86880342Y-204842614D01*
X86828000Y-204854000D01*
X82822269Y-204854000D01*
X82808392Y-204858075D01*
X82806355Y-204871426D01*
X82831055Y-205066950D01*
X82832538Y-205074721D01*
X82909047Y-205372704D01*
X82911492Y-205380230D01*
X83024753Y-205666293D01*
X83028110Y-205673428D01*
X83176330Y-205943039D01*
X83180570Y-205949719D01*
X83361404Y-206198616D01*
X83366443Y-206204707D01*
X83577046Y-206428977D01*
X83582813Y-206434393D01*
X83819868Y-206630502D01*
X83826271Y-206635153D01*
X84086026Y-206799999D01*
X84092959Y-206803810D01*
X84194288Y-206851492D01*
X84247409Y-206898594D01*
X84266632Y-206966939D01*
X84245853Y-207034827D01*
X84191670Y-207080704D01*
X84140640Y-207091500D01*
X23059360Y-207091500D01*
X22991239Y-207071498D01*
X22944746Y-207017842D01*
X22934642Y-206947568D01*
X22964136Y-206882988D01*
X23005712Y-206851492D01*
X23107041Y-206803810D01*
X23113974Y-206799999D01*
X23373729Y-206635153D01*
X23380132Y-206630502D01*
X23617187Y-206434393D01*
X23622954Y-206428977D01*
X23833557Y-206204707D01*
X23838596Y-206198616D01*
X24019430Y-205949719D01*
X24023670Y-205943039D01*
X24171890Y-205673428D01*
X24175247Y-205666293D01*
X24288508Y-205380230D01*
X24290953Y-205372704D01*
X24367462Y-205074721D01*
X24368945Y-205066950D01*
X24393575Y-204871974D01*
X24391272Y-204857694D01*
X24378280Y-204854000D01*
X20372000Y-204854000D01*
X20303879Y-204833998D01*
X20257386Y-204780342D01*
X20246000Y-204728000D01*
X20246000Y-204327885D01*
X20754000Y-204327885D01*
X20758475Y-204343124D01*
X20759865Y-204344329D01*
X20767548Y-204346000D01*
X24377731Y-204346000D01*
X24391608Y-204341925D01*
X24393645Y-204328574D01*
X24393576Y-204328026D01*
X82806425Y-204328026D01*
X82808728Y-204342306D01*
X82821720Y-204346000D01*
X86427885Y-204346000D01*
X86443124Y-204341525D01*
X86444329Y-204340135D01*
X86446000Y-204332452D01*
X86446000Y-202110115D01*
X86441525Y-202094876D01*
X86440135Y-202093671D01*
X86432452Y-202092000D01*
X85223171Y-202092000D01*
X85219180Y-202092126D01*
X84989006Y-202106607D01*
X84981145Y-202107600D01*
X84678954Y-202165246D01*
X84671277Y-202167217D01*
X84378691Y-202262284D01*
X84371328Y-202265199D01*
X84092959Y-202396189D01*
X84086026Y-202400001D01*
X83826271Y-202564847D01*
X83819868Y-202569498D01*
X83582813Y-202765607D01*
X83577046Y-202771023D01*
X83366443Y-202995293D01*
X83361404Y-203001384D01*
X83180570Y-203250281D01*
X83176330Y-203256961D01*
X83028110Y-203526572D01*
X83024753Y-203533707D01*
X82911492Y-203819770D01*
X82909047Y-203827296D01*
X82832538Y-204125279D01*
X82831055Y-204133050D01*
X82806425Y-204328026D01*
X24393576Y-204328026D01*
X24368945Y-204133050D01*
X24367462Y-204125279D01*
X24290953Y-203827296D01*
X24288508Y-203819770D01*
X24175247Y-203533707D01*
X24171890Y-203526572D01*
X24023670Y-203256961D01*
X24019430Y-203250281D01*
X23838596Y-203001384D01*
X23833557Y-202995293D01*
X23622954Y-202771023D01*
X23617187Y-202765607D01*
X23380132Y-202569498D01*
X23373729Y-202564847D01*
X23113974Y-202400001D01*
X23107041Y-202396189D01*
X22828672Y-202265199D01*
X22821309Y-202262284D01*
X22528723Y-202167217D01*
X22521046Y-202165246D01*
X22218855Y-202107600D01*
X22210994Y-202106607D01*
X21980820Y-202092126D01*
X21976829Y-202092000D01*
X20772115Y-202092000D01*
X20756876Y-202096475D01*
X20755671Y-202097865D01*
X20754000Y-202105548D01*
X20754000Y-204327885D01*
X20246000Y-204327885D01*
X20246000Y-202110115D01*
X20241525Y-202094876D01*
X20240135Y-202093671D01*
X20232452Y-202092000D01*
X19023171Y-202092000D01*
X19019180Y-202092126D01*
X18789006Y-202106607D01*
X18781145Y-202107600D01*
X18478954Y-202165246D01*
X18471277Y-202167217D01*
X18178691Y-202262284D01*
X18171328Y-202265199D01*
X17892959Y-202396189D01*
X17886026Y-202400001D01*
X17626271Y-202564847D01*
X17619868Y-202569498D01*
X17382813Y-202765607D01*
X17377046Y-202771023D01*
X17166443Y-202995293D01*
X17161404Y-203001384D01*
X16980570Y-203250281D01*
X16976330Y-203256961D01*
X16844915Y-203496004D01*
X16794569Y-203546063D01*
X16725152Y-203560956D01*
X16658703Y-203535955D01*
X16616319Y-203478998D01*
X16608500Y-203435303D01*
X16608500Y-188087102D01*
X23478438Y-188087102D01*
X23478462Y-188087441D01*
X23484285Y-188096073D01*
X23728991Y-188319913D01*
X23732445Y-188322852D01*
X24150430Y-188653550D01*
X24154067Y-188656222D01*
X24594618Y-188956182D01*
X24598446Y-188958593D01*
X25059337Y-189226300D01*
X25063309Y-189228421D01*
X25542148Y-189462483D01*
X25546284Y-189464325D01*
X26040627Y-189663551D01*
X26044871Y-189665087D01*
X26552218Y-189828467D01*
X26556539Y-189829689D01*
X27074254Y-189956374D01*
X27078695Y-189957294D01*
X27604141Y-190046637D01*
X27608595Y-190047232D01*
X28139106Y-190098782D01*
X28143579Y-190099056D01*
X28676427Y-190112543D01*
X28680930Y-190112496D01*
X29213352Y-190087853D01*
X29217836Y-190087485D01*
X29747152Y-190024836D01*
X29751591Y-190024149D01*
X30275087Y-189923814D01*
X30279446Y-189922815D01*
X30794414Y-189785311D01*
X30798727Y-189783992D01*
X31302525Y-189610028D01*
X31306740Y-189608402D01*
X31796805Y-189398866D01*
X31800892Y-189396943D01*
X32274731Y-189152900D01*
X32278658Y-189150696D01*
X32733828Y-188873404D01*
X32737624Y-188870901D01*
X33171786Y-188561788D01*
X33175372Y-188559036D01*
X33586362Y-188219640D01*
X33589705Y-188216672D01*
X33713630Y-188098453D01*
X33720179Y-188087102D01*
X48478438Y-188087102D01*
X48478462Y-188087441D01*
X48484285Y-188096073D01*
X48728991Y-188319913D01*
X48732445Y-188322852D01*
X49150430Y-188653550D01*
X49154067Y-188656222D01*
X49594618Y-188956182D01*
X49598446Y-188958593D01*
X50059337Y-189226300D01*
X50063309Y-189228421D01*
X50542148Y-189462483D01*
X50546284Y-189464325D01*
X51040627Y-189663551D01*
X51044871Y-189665087D01*
X51552218Y-189828467D01*
X51556539Y-189829689D01*
X52074254Y-189956374D01*
X52078695Y-189957294D01*
X52604141Y-190046637D01*
X52608595Y-190047232D01*
X53139106Y-190098782D01*
X53143579Y-190099056D01*
X53676427Y-190112543D01*
X53680930Y-190112496D01*
X54213352Y-190087853D01*
X54217836Y-190087485D01*
X54747152Y-190024836D01*
X54751591Y-190024149D01*
X55275087Y-189923814D01*
X55279446Y-189922815D01*
X55794414Y-189785311D01*
X55798727Y-189783992D01*
X56302525Y-189610028D01*
X56306740Y-189608402D01*
X56796805Y-189398866D01*
X56800892Y-189396943D01*
X57274731Y-189152900D01*
X57278658Y-189150696D01*
X57733828Y-188873404D01*
X57737624Y-188870901D01*
X58171786Y-188561788D01*
X58175372Y-188559036D01*
X58586362Y-188219640D01*
X58589705Y-188216672D01*
X58713630Y-188098453D01*
X58720179Y-188087102D01*
X73478438Y-188087102D01*
X73478462Y-188087441D01*
X73484285Y-188096073D01*
X73728991Y-188319913D01*
X73732445Y-188322852D01*
X74150430Y-188653550D01*
X74154067Y-188656222D01*
X74594618Y-188956182D01*
X74598446Y-188958593D01*
X75059337Y-189226300D01*
X75063309Y-189228421D01*
X75542148Y-189462483D01*
X75546284Y-189464325D01*
X76040627Y-189663551D01*
X76044871Y-189665087D01*
X76552218Y-189828467D01*
X76556539Y-189829689D01*
X77074254Y-189956374D01*
X77078695Y-189957294D01*
X77604141Y-190046637D01*
X77608595Y-190047232D01*
X78139106Y-190098782D01*
X78143579Y-190099056D01*
X78676427Y-190112543D01*
X78680930Y-190112496D01*
X79213352Y-190087853D01*
X79217836Y-190087485D01*
X79747152Y-190024836D01*
X79751591Y-190024149D01*
X80275087Y-189923814D01*
X80279446Y-189922815D01*
X80794414Y-189785311D01*
X80798727Y-189783992D01*
X81302525Y-189610028D01*
X81306740Y-189608402D01*
X81796805Y-189398866D01*
X81800892Y-189396943D01*
X82274731Y-189152900D01*
X82278658Y-189150696D01*
X82733828Y-188873404D01*
X82737624Y-188870901D01*
X83171786Y-188561788D01*
X83175372Y-188559036D01*
X83586362Y-188219640D01*
X83589705Y-188216672D01*
X83713630Y-188098453D01*
X83721568Y-188084695D01*
X83721518Y-188083649D01*
X83716625Y-188075835D01*
X78612812Y-182972022D01*
X78598868Y-182964408D01*
X78597035Y-182964539D01*
X78590420Y-182968790D01*
X73486052Y-188073158D01*
X73478438Y-188087102D01*
X58720179Y-188087102D01*
X58721568Y-188084695D01*
X58721518Y-188083649D01*
X58716625Y-188075835D01*
X53612812Y-182972022D01*
X53598868Y-182964408D01*
X53597035Y-182964539D01*
X53590420Y-182968790D01*
X48486052Y-188073158D01*
X48478438Y-188087102D01*
X33720179Y-188087102D01*
X33721568Y-188084695D01*
X33721518Y-188083649D01*
X33716625Y-188075835D01*
X28612812Y-182972022D01*
X28598868Y-182964408D01*
X28597035Y-182964539D01*
X28590420Y-182968790D01*
X23486052Y-188073158D01*
X23478438Y-188087102D01*
X16608500Y-188087102D01*
X16608500Y-182650201D01*
X21087236Y-182650201D01*
X21087267Y-182654699D01*
X21110052Y-183187215D01*
X21110404Y-183191696D01*
X21171206Y-183721240D01*
X21171874Y-183725659D01*
X21270381Y-184249497D01*
X21271370Y-184253884D01*
X21407070Y-184769308D01*
X21408381Y-184773648D01*
X21580581Y-185278039D01*
X21582188Y-185282249D01*
X21790028Y-185773079D01*
X21791917Y-185777129D01*
X22034314Y-186251836D01*
X22036507Y-186255776D01*
X22312217Y-186711925D01*
X22314678Y-186715685D01*
X22622290Y-187150947D01*
X22625036Y-187154552D01*
X22962987Y-187566712D01*
X22965944Y-187570066D01*
X23101751Y-187713428D01*
X23115482Y-187721415D01*
X23116410Y-187721374D01*
X23124399Y-187716391D01*
X28227978Y-182612812D01*
X28234356Y-182601132D01*
X28964408Y-182601132D01*
X28964539Y-182602965D01*
X28968790Y-182609580D01*
X34073389Y-187714179D01*
X34087333Y-187721793D01*
X34087556Y-187721778D01*
X34096338Y-187715831D01*
X34336905Y-187450987D01*
X34339793Y-187447570D01*
X34669044Y-187028414D01*
X34671701Y-187024771D01*
X34970130Y-186583164D01*
X34972526Y-186579329D01*
X35238617Y-186117514D01*
X35240726Y-186113531D01*
X35473116Y-185633878D01*
X35474941Y-185629741D01*
X35672446Y-185134690D01*
X35673961Y-185130460D01*
X35835567Y-184622549D01*
X35836781Y-184618202D01*
X35961661Y-184100034D01*
X35962555Y-184095638D01*
X36050064Y-183569885D01*
X36050649Y-183565380D01*
X36100363Y-183034517D01*
X36100613Y-183030439D01*
X36111566Y-182650201D01*
X46087236Y-182650201D01*
X46087267Y-182654699D01*
X46110052Y-183187215D01*
X46110404Y-183191696D01*
X46171206Y-183721240D01*
X46171874Y-183725659D01*
X46270381Y-184249497D01*
X46271370Y-184253884D01*
X46407070Y-184769308D01*
X46408381Y-184773648D01*
X46580581Y-185278039D01*
X46582188Y-185282249D01*
X46790028Y-185773079D01*
X46791917Y-185777129D01*
X47034314Y-186251836D01*
X47036507Y-186255776D01*
X47312217Y-186711925D01*
X47314678Y-186715685D01*
X47622290Y-187150947D01*
X47625036Y-187154552D01*
X47962987Y-187566712D01*
X47965944Y-187570066D01*
X48101751Y-187713428D01*
X48115482Y-187721415D01*
X48116410Y-187721374D01*
X48124399Y-187716391D01*
X53227978Y-182612812D01*
X53234356Y-182601132D01*
X53964408Y-182601132D01*
X53964539Y-182602965D01*
X53968790Y-182609580D01*
X59073389Y-187714179D01*
X59087333Y-187721793D01*
X59087556Y-187721778D01*
X59096338Y-187715831D01*
X59336905Y-187450987D01*
X59339793Y-187447570D01*
X59669044Y-187028414D01*
X59671701Y-187024771D01*
X59970130Y-186583164D01*
X59972526Y-186579329D01*
X60238617Y-186117514D01*
X60240726Y-186113531D01*
X60473116Y-185633878D01*
X60474941Y-185629741D01*
X60672446Y-185134690D01*
X60673961Y-185130460D01*
X60835567Y-184622549D01*
X60836781Y-184618202D01*
X60961661Y-184100034D01*
X60962555Y-184095638D01*
X61050064Y-183569885D01*
X61050649Y-183565380D01*
X61100363Y-183034517D01*
X61100613Y-183030439D01*
X61111566Y-182650201D01*
X71087236Y-182650201D01*
X71087267Y-182654699D01*
X71110052Y-183187215D01*
X71110404Y-183191696D01*
X71171206Y-183721240D01*
X71171874Y-183725659D01*
X71270381Y-184249497D01*
X71271370Y-184253884D01*
X71407070Y-184769308D01*
X71408381Y-184773648D01*
X71580581Y-185278039D01*
X71582188Y-185282249D01*
X71790028Y-185773079D01*
X71791917Y-185777129D01*
X72034314Y-186251836D01*
X72036507Y-186255776D01*
X72312217Y-186711925D01*
X72314678Y-186715685D01*
X72622290Y-187150947D01*
X72625036Y-187154552D01*
X72962987Y-187566712D01*
X72965944Y-187570066D01*
X73101751Y-187713428D01*
X73115482Y-187721415D01*
X73116410Y-187721374D01*
X73124399Y-187716391D01*
X78227978Y-182612812D01*
X78234356Y-182601132D01*
X78964408Y-182601132D01*
X78964539Y-182602965D01*
X78968790Y-182609580D01*
X84073389Y-187714179D01*
X84087333Y-187721793D01*
X84087556Y-187721778D01*
X84096338Y-187715831D01*
X84336905Y-187450987D01*
X84339793Y-187447570D01*
X84669044Y-187028414D01*
X84671701Y-187024771D01*
X84970130Y-186583164D01*
X84972526Y-186579329D01*
X85238617Y-186117514D01*
X85240726Y-186113531D01*
X85473116Y-185633878D01*
X85474941Y-185629741D01*
X85672446Y-185134690D01*
X85673961Y-185130460D01*
X85835567Y-184622549D01*
X85836781Y-184618202D01*
X85961661Y-184100034D01*
X85962555Y-184095638D01*
X86050064Y-183569885D01*
X86050649Y-183565380D01*
X86100363Y-183034517D01*
X86100613Y-183030439D01*
X86112954Y-182602024D01*
X86112939Y-182597967D01*
X86093866Y-182065096D01*
X86093544Y-182060601D01*
X86036442Y-181530662D01*
X86035800Y-181526211D01*
X85940955Y-181001710D01*
X85939999Y-180997327D01*
X85807892Y-180480933D01*
X85806630Y-180476645D01*
X85637938Y-179971015D01*
X85636370Y-179966818D01*
X85431966Y-179474558D01*
X85430088Y-179470456D01*
X85191023Y-178994094D01*
X85188855Y-178990133D01*
X84916347Y-178532090D01*
X84913891Y-178528279D01*
X84609331Y-178090890D01*
X84606624Y-178087284D01*
X84271552Y-177672765D01*
X84268609Y-177669380D01*
X84098034Y-177486780D01*
X84084361Y-177478698D01*
X84083667Y-177478724D01*
X84075320Y-177483890D01*
X78972022Y-182587188D01*
X78964408Y-182601132D01*
X78234356Y-182601132D01*
X78235592Y-182598868D01*
X78235461Y-182597035D01*
X78231210Y-182590420D01*
X73127007Y-177486217D01*
X73113063Y-177478603D01*
X73112606Y-177478635D01*
X73104130Y-177484332D01*
X72897104Y-177709077D01*
X72894190Y-177712477D01*
X72562015Y-178129331D01*
X72559344Y-178132941D01*
X72257831Y-178572465D01*
X72255409Y-178576283D01*
X71986107Y-179036216D01*
X71983964Y-179040196D01*
X71748233Y-179518211D01*
X71746376Y-179522343D01*
X71545427Y-180015984D01*
X71543874Y-180020230D01*
X71378729Y-180526984D01*
X71377484Y-180531326D01*
X71248991Y-181048608D01*
X71248067Y-181052991D01*
X71156885Y-181578152D01*
X71156274Y-181582609D01*
X71102873Y-182112930D01*
X71102583Y-182117413D01*
X71087236Y-182650201D01*
X61111566Y-182650201D01*
X61112954Y-182602024D01*
X61112939Y-182597967D01*
X61093866Y-182065096D01*
X61093544Y-182060601D01*
X61036442Y-181530662D01*
X61035800Y-181526211D01*
X60940955Y-181001710D01*
X60939999Y-180997327D01*
X60807892Y-180480933D01*
X60806630Y-180476645D01*
X60637938Y-179971015D01*
X60636370Y-179966818D01*
X60431966Y-179474558D01*
X60430088Y-179470456D01*
X60191023Y-178994094D01*
X60188855Y-178990133D01*
X59916347Y-178532090D01*
X59913891Y-178528279D01*
X59609331Y-178090890D01*
X59606624Y-178087284D01*
X59271552Y-177672765D01*
X59268609Y-177669380D01*
X59098034Y-177486780D01*
X59084361Y-177478698D01*
X59083667Y-177478724D01*
X59075320Y-177483890D01*
X53972022Y-182587188D01*
X53964408Y-182601132D01*
X53234356Y-182601132D01*
X53235592Y-182598868D01*
X53235461Y-182597035D01*
X53231210Y-182590420D01*
X48127007Y-177486217D01*
X48113063Y-177478603D01*
X48112606Y-177478635D01*
X48104130Y-177484332D01*
X47897104Y-177709077D01*
X47894190Y-177712477D01*
X47562015Y-178129331D01*
X47559344Y-178132941D01*
X47257831Y-178572465D01*
X47255409Y-178576283D01*
X46986107Y-179036216D01*
X46983964Y-179040196D01*
X46748233Y-179518211D01*
X46746376Y-179522343D01*
X46545427Y-180015984D01*
X46543874Y-180020230D01*
X46378729Y-180526984D01*
X46377484Y-180531326D01*
X46248991Y-181048608D01*
X46248067Y-181052991D01*
X46156885Y-181578152D01*
X46156274Y-181582609D01*
X46102873Y-182112930D01*
X46102583Y-182117413D01*
X46087236Y-182650201D01*
X36111566Y-182650201D01*
X36112954Y-182602024D01*
X36112939Y-182597967D01*
X36093866Y-182065096D01*
X36093544Y-182060601D01*
X36036442Y-181530662D01*
X36035800Y-181526211D01*
X35940955Y-181001710D01*
X35939999Y-180997327D01*
X35807892Y-180480933D01*
X35806630Y-180476645D01*
X35637938Y-179971015D01*
X35636370Y-179966818D01*
X35431966Y-179474558D01*
X35430088Y-179470456D01*
X35191023Y-178994094D01*
X35188855Y-178990133D01*
X34916347Y-178532090D01*
X34913891Y-178528279D01*
X34609331Y-178090890D01*
X34606624Y-178087284D01*
X34271552Y-177672765D01*
X34268609Y-177669380D01*
X34098034Y-177486780D01*
X34084361Y-177478698D01*
X34083667Y-177478724D01*
X34075320Y-177483890D01*
X28972022Y-182587188D01*
X28964408Y-182601132D01*
X28234356Y-182601132D01*
X28235592Y-182598868D01*
X28235461Y-182597035D01*
X28231210Y-182590420D01*
X23127007Y-177486217D01*
X23113063Y-177478603D01*
X23112606Y-177478635D01*
X23104130Y-177484332D01*
X22897104Y-177709077D01*
X22894190Y-177712477D01*
X22562015Y-178129331D01*
X22559344Y-178132941D01*
X22257831Y-178572465D01*
X22255409Y-178576283D01*
X21986107Y-179036216D01*
X21983964Y-179040196D01*
X21748233Y-179518211D01*
X21746376Y-179522343D01*
X21545427Y-180015984D01*
X21543874Y-180020230D01*
X21378729Y-180526984D01*
X21377484Y-180531326D01*
X21248991Y-181048608D01*
X21248067Y-181052991D01*
X21156885Y-181578152D01*
X21156274Y-181582609D01*
X21102873Y-182112930D01*
X21102583Y-182117413D01*
X21087236Y-182650201D01*
X16608500Y-182650201D01*
X16608500Y-177115591D01*
X23478674Y-177115591D01*
X23478707Y-177116404D01*
X23483783Y-177124573D01*
X28587188Y-182227978D01*
X28601132Y-182235592D01*
X28602965Y-182235461D01*
X28609580Y-182231210D01*
X33713682Y-177127108D01*
X33719971Y-177115591D01*
X48478674Y-177115591D01*
X48478707Y-177116404D01*
X48483783Y-177124573D01*
X53587188Y-182227978D01*
X53601132Y-182235592D01*
X53602965Y-182235461D01*
X53609580Y-182231210D01*
X58713682Y-177127108D01*
X58719971Y-177115591D01*
X73478674Y-177115591D01*
X73478707Y-177116404D01*
X73483783Y-177124573D01*
X78587188Y-182227978D01*
X78601132Y-182235592D01*
X78602965Y-182235461D01*
X78609580Y-182231210D01*
X83713682Y-177127108D01*
X83721296Y-177113164D01*
X83721255Y-177112590D01*
X83715684Y-177104268D01*
X83510818Y-176914228D01*
X83507387Y-176911267D01*
X83091729Y-176577666D01*
X83088115Y-176574972D01*
X82649654Y-176271933D01*
X82645835Y-176269490D01*
X82186846Y-175998585D01*
X82182877Y-175996430D01*
X81705679Y-175759028D01*
X81701575Y-175757166D01*
X81208610Y-175554483D01*
X81204395Y-175552924D01*
X80698199Y-175386006D01*
X80693883Y-175384752D01*
X80177042Y-175254451D01*
X80172665Y-175253513D01*
X79647822Y-175160496D01*
X79643365Y-175159870D01*
X79113241Y-175104620D01*
X79108747Y-175104313D01*
X78576027Y-175087107D01*
X78571530Y-175087122D01*
X78038927Y-175108048D01*
X78034451Y-175108384D01*
X77504713Y-175167336D01*
X77500261Y-175167994D01*
X76976106Y-175264667D01*
X76971701Y-175265643D01*
X76455801Y-175399545D01*
X76451490Y-175400830D01*
X75946471Y-175571278D01*
X75942259Y-175572870D01*
X75450723Y-175778988D01*
X75446647Y-175780871D01*
X74971109Y-176021605D01*
X74967158Y-176023786D01*
X74510063Y-176297893D01*
X74506267Y-176300358D01*
X74069930Y-176606452D01*
X74066347Y-176609162D01*
X73653007Y-176945674D01*
X73649617Y-176948642D01*
X73486708Y-177101891D01*
X73478674Y-177115591D01*
X58719971Y-177115591D01*
X58721296Y-177113164D01*
X58721255Y-177112590D01*
X58715684Y-177104268D01*
X58510818Y-176914228D01*
X58507387Y-176911267D01*
X58091729Y-176577666D01*
X58088115Y-176574972D01*
X57649654Y-176271933D01*
X57645835Y-176269490D01*
X57186846Y-175998585D01*
X57182877Y-175996430D01*
X56705679Y-175759028D01*
X56701575Y-175757166D01*
X56208610Y-175554483D01*
X56204395Y-175552924D01*
X55698199Y-175386006D01*
X55693883Y-175384752D01*
X55177042Y-175254451D01*
X55172665Y-175253513D01*
X54647822Y-175160496D01*
X54643365Y-175159870D01*
X54113241Y-175104620D01*
X54108747Y-175104313D01*
X53576027Y-175087107D01*
X53571530Y-175087122D01*
X53038927Y-175108048D01*
X53034451Y-175108384D01*
X52504713Y-175167336D01*
X52500261Y-175167994D01*
X51976106Y-175264667D01*
X51971701Y-175265643D01*
X51455801Y-175399545D01*
X51451490Y-175400830D01*
X50946471Y-175571278D01*
X50942259Y-175572870D01*
X50450723Y-175778988D01*
X50446647Y-175780871D01*
X49971109Y-176021605D01*
X49967158Y-176023786D01*
X49510063Y-176297893D01*
X49506267Y-176300358D01*
X49069930Y-176606452D01*
X49066347Y-176609162D01*
X48653007Y-176945674D01*
X48649617Y-176948642D01*
X48486708Y-177101891D01*
X48478674Y-177115591D01*
X33719971Y-177115591D01*
X33721296Y-177113164D01*
X33721255Y-177112590D01*
X33715684Y-177104268D01*
X33510818Y-176914228D01*
X33507387Y-176911267D01*
X33091729Y-176577666D01*
X33088115Y-176574972D01*
X32649654Y-176271933D01*
X32645835Y-176269490D01*
X32186846Y-175998585D01*
X32182877Y-175996430D01*
X31705679Y-175759028D01*
X31701575Y-175757166D01*
X31208610Y-175554483D01*
X31204395Y-175552924D01*
X30698199Y-175386006D01*
X30693883Y-175384752D01*
X30177042Y-175254451D01*
X30172665Y-175253513D01*
X29647822Y-175160496D01*
X29643365Y-175159870D01*
X29113241Y-175104620D01*
X29108747Y-175104313D01*
X28576027Y-175087107D01*
X28571530Y-175087122D01*
X28038927Y-175108048D01*
X28034451Y-175108384D01*
X27504713Y-175167336D01*
X27500261Y-175167994D01*
X26976106Y-175264667D01*
X26971701Y-175265643D01*
X26455801Y-175399545D01*
X26451490Y-175400830D01*
X25946471Y-175571278D01*
X25942259Y-175572870D01*
X25450723Y-175778988D01*
X25446647Y-175780871D01*
X24971109Y-176021605D01*
X24967158Y-176023786D01*
X24510063Y-176297893D01*
X24506267Y-176300358D01*
X24069930Y-176606452D01*
X24066347Y-176609162D01*
X23653007Y-176945674D01*
X23649617Y-176948642D01*
X23486708Y-177101891D01*
X23478674Y-177115591D01*
X16608500Y-177115591D01*
X16608500Y-163087102D01*
X23478438Y-163087102D01*
X23478462Y-163087441D01*
X23484285Y-163096073D01*
X23728991Y-163319913D01*
X23732445Y-163322852D01*
X24150430Y-163653550D01*
X24154067Y-163656222D01*
X24594618Y-163956182D01*
X24598446Y-163958593D01*
X25059337Y-164226300D01*
X25063309Y-164228421D01*
X25542148Y-164462483D01*
X25546284Y-164464325D01*
X26040627Y-164663551D01*
X26044871Y-164665087D01*
X26552218Y-164828467D01*
X26556539Y-164829689D01*
X27074254Y-164956374D01*
X27078695Y-164957294D01*
X27604141Y-165046637D01*
X27608595Y-165047232D01*
X28139106Y-165098782D01*
X28143579Y-165099056D01*
X28676427Y-165112543D01*
X28680930Y-165112496D01*
X29213352Y-165087853D01*
X29217836Y-165087485D01*
X29747152Y-165024836D01*
X29751591Y-165024149D01*
X30275087Y-164923814D01*
X30279446Y-164922815D01*
X30794414Y-164785311D01*
X30798727Y-164783992D01*
X31302525Y-164610028D01*
X31306740Y-164608402D01*
X31796805Y-164398866D01*
X31800892Y-164396943D01*
X32274731Y-164152900D01*
X32278658Y-164150696D01*
X32733828Y-163873404D01*
X32737624Y-163870901D01*
X33171786Y-163561788D01*
X33175372Y-163559036D01*
X33586362Y-163219640D01*
X33589705Y-163216672D01*
X33713630Y-163098453D01*
X33720179Y-163087102D01*
X48478438Y-163087102D01*
X48478462Y-163087441D01*
X48484285Y-163096073D01*
X48728991Y-163319913D01*
X48732445Y-163322852D01*
X49150430Y-163653550D01*
X49154067Y-163656222D01*
X49594618Y-163956182D01*
X49598446Y-163958593D01*
X50059337Y-164226300D01*
X50063309Y-164228421D01*
X50542148Y-164462483D01*
X50546284Y-164464325D01*
X51040627Y-164663551D01*
X51044871Y-164665087D01*
X51552218Y-164828467D01*
X51556539Y-164829689D01*
X52074254Y-164956374D01*
X52078695Y-164957294D01*
X52604141Y-165046637D01*
X52608595Y-165047232D01*
X53139106Y-165098782D01*
X53143579Y-165099056D01*
X53676427Y-165112543D01*
X53680930Y-165112496D01*
X54213352Y-165087853D01*
X54217836Y-165087485D01*
X54747152Y-165024836D01*
X54751591Y-165024149D01*
X55275087Y-164923814D01*
X55279446Y-164922815D01*
X55794414Y-164785311D01*
X55798727Y-164783992D01*
X56302525Y-164610028D01*
X56306740Y-164608402D01*
X56796805Y-164398866D01*
X56800892Y-164396943D01*
X57274731Y-164152900D01*
X57278658Y-164150696D01*
X57733828Y-163873404D01*
X57737624Y-163870901D01*
X58171786Y-163561788D01*
X58175372Y-163559036D01*
X58586362Y-163219640D01*
X58589705Y-163216672D01*
X58713630Y-163098453D01*
X58720179Y-163087102D01*
X73478438Y-163087102D01*
X73478462Y-163087441D01*
X73484285Y-163096073D01*
X73728991Y-163319913D01*
X73732445Y-163322852D01*
X74150430Y-163653550D01*
X74154067Y-163656222D01*
X74594618Y-163956182D01*
X74598446Y-163958593D01*
X75059337Y-164226300D01*
X75063309Y-164228421D01*
X75542148Y-164462483D01*
X75546284Y-164464325D01*
X76040627Y-164663551D01*
X76044871Y-164665087D01*
X76552218Y-164828467D01*
X76556539Y-164829689D01*
X77074254Y-164956374D01*
X77078695Y-164957294D01*
X77604141Y-165046637D01*
X77608595Y-165047232D01*
X78139106Y-165098782D01*
X78143579Y-165099056D01*
X78676427Y-165112543D01*
X78680930Y-165112496D01*
X79213352Y-165087853D01*
X79217836Y-165087485D01*
X79747152Y-165024836D01*
X79751591Y-165024149D01*
X80275087Y-164923814D01*
X80279446Y-164922815D01*
X80794414Y-164785311D01*
X80798727Y-164783992D01*
X81302525Y-164610028D01*
X81306740Y-164608402D01*
X81796805Y-164398866D01*
X81800892Y-164396943D01*
X82274731Y-164152900D01*
X82278658Y-164150696D01*
X82733828Y-163873404D01*
X82737624Y-163870901D01*
X83171786Y-163561788D01*
X83175372Y-163559036D01*
X83586362Y-163219640D01*
X83589705Y-163216672D01*
X83713630Y-163098453D01*
X83721568Y-163084695D01*
X83721518Y-163083649D01*
X83716625Y-163075835D01*
X78612812Y-157972022D01*
X78598868Y-157964408D01*
X78597035Y-157964539D01*
X78590420Y-157968790D01*
X73486052Y-163073158D01*
X73478438Y-163087102D01*
X58720179Y-163087102D01*
X58721568Y-163084695D01*
X58721518Y-163083649D01*
X58716625Y-163075835D01*
X53612812Y-157972022D01*
X53598868Y-157964408D01*
X53597035Y-157964539D01*
X53590420Y-157968790D01*
X48486052Y-163073158D01*
X48478438Y-163087102D01*
X33720179Y-163087102D01*
X33721568Y-163084695D01*
X33721518Y-163083649D01*
X33716625Y-163075835D01*
X28612812Y-157972022D01*
X28598868Y-157964408D01*
X28597035Y-157964539D01*
X28590420Y-157968790D01*
X23486052Y-163073158D01*
X23478438Y-163087102D01*
X16608500Y-163087102D01*
X16608500Y-157650201D01*
X21087236Y-157650201D01*
X21087267Y-157654699D01*
X21110052Y-158187215D01*
X21110404Y-158191696D01*
X21171206Y-158721240D01*
X21171874Y-158725659D01*
X21270381Y-159249497D01*
X21271370Y-159253884D01*
X21407070Y-159769308D01*
X21408381Y-159773648D01*
X21580581Y-160278039D01*
X21582188Y-160282249D01*
X21790028Y-160773079D01*
X21791917Y-160777129D01*
X22034314Y-161251836D01*
X22036507Y-161255776D01*
X22312217Y-161711925D01*
X22314678Y-161715685D01*
X22622290Y-162150947D01*
X22625036Y-162154552D01*
X22962987Y-162566712D01*
X22965944Y-162570066D01*
X23101751Y-162713428D01*
X23115482Y-162721415D01*
X23116410Y-162721374D01*
X23124399Y-162716391D01*
X28227978Y-157612812D01*
X28234356Y-157601132D01*
X28964408Y-157601132D01*
X28964539Y-157602965D01*
X28968790Y-157609580D01*
X34073389Y-162714179D01*
X34087333Y-162721793D01*
X34087556Y-162721778D01*
X34096338Y-162715831D01*
X34336905Y-162450987D01*
X34339793Y-162447570D01*
X34669044Y-162028414D01*
X34671701Y-162024771D01*
X34970130Y-161583164D01*
X34972526Y-161579329D01*
X35238617Y-161117514D01*
X35240726Y-161113531D01*
X35473116Y-160633878D01*
X35474941Y-160629741D01*
X35672446Y-160134690D01*
X35673961Y-160130460D01*
X35835567Y-159622549D01*
X35836781Y-159618202D01*
X35961661Y-159100034D01*
X35962555Y-159095638D01*
X36050064Y-158569885D01*
X36050649Y-158565380D01*
X36100363Y-158034517D01*
X36100613Y-158030439D01*
X36111566Y-157650201D01*
X46087236Y-157650201D01*
X46087267Y-157654699D01*
X46110052Y-158187215D01*
X46110404Y-158191696D01*
X46171206Y-158721240D01*
X46171874Y-158725659D01*
X46270381Y-159249497D01*
X46271370Y-159253884D01*
X46407070Y-159769308D01*
X46408381Y-159773648D01*
X46580581Y-160278039D01*
X46582188Y-160282249D01*
X46790028Y-160773079D01*
X46791917Y-160777129D01*
X47034314Y-161251836D01*
X47036507Y-161255776D01*
X47312217Y-161711925D01*
X47314678Y-161715685D01*
X47622290Y-162150947D01*
X47625036Y-162154552D01*
X47962987Y-162566712D01*
X47965944Y-162570066D01*
X48101751Y-162713428D01*
X48115482Y-162721415D01*
X48116410Y-162721374D01*
X48124399Y-162716391D01*
X53227978Y-157612812D01*
X53234356Y-157601132D01*
X53964408Y-157601132D01*
X53964539Y-157602965D01*
X53968790Y-157609580D01*
X59073389Y-162714179D01*
X59087333Y-162721793D01*
X59087556Y-162721778D01*
X59096338Y-162715831D01*
X59336905Y-162450987D01*
X59339793Y-162447570D01*
X59669044Y-162028414D01*
X59671701Y-162024771D01*
X59970130Y-161583164D01*
X59972526Y-161579329D01*
X60238617Y-161117514D01*
X60240726Y-161113531D01*
X60473116Y-160633878D01*
X60474941Y-160629741D01*
X60672446Y-160134690D01*
X60673961Y-160130460D01*
X60835567Y-159622549D01*
X60836781Y-159618202D01*
X60961661Y-159100034D01*
X60962555Y-159095638D01*
X61050064Y-158569885D01*
X61050649Y-158565380D01*
X61100363Y-158034517D01*
X61100613Y-158030439D01*
X61111566Y-157650201D01*
X71087236Y-157650201D01*
X71087267Y-157654699D01*
X71110052Y-158187215D01*
X71110404Y-158191696D01*
X71171206Y-158721240D01*
X71171874Y-158725659D01*
X71270381Y-159249497D01*
X71271370Y-159253884D01*
X71407070Y-159769308D01*
X71408381Y-159773648D01*
X71580581Y-160278039D01*
X71582188Y-160282249D01*
X71790028Y-160773079D01*
X71791917Y-160777129D01*
X72034314Y-161251836D01*
X72036507Y-161255776D01*
X72312217Y-161711925D01*
X72314678Y-161715685D01*
X72622290Y-162150947D01*
X72625036Y-162154552D01*
X72962987Y-162566712D01*
X72965944Y-162570066D01*
X73101751Y-162713428D01*
X73115482Y-162721415D01*
X73116410Y-162721374D01*
X73124399Y-162716391D01*
X78227978Y-157612812D01*
X78234356Y-157601132D01*
X78964408Y-157601132D01*
X78964539Y-157602965D01*
X78968790Y-157609580D01*
X84073389Y-162714179D01*
X84087333Y-162721793D01*
X84087556Y-162721778D01*
X84096338Y-162715831D01*
X84336905Y-162450987D01*
X84339793Y-162447570D01*
X84669044Y-162028414D01*
X84671701Y-162024771D01*
X84970130Y-161583164D01*
X84972526Y-161579329D01*
X85238617Y-161117514D01*
X85240726Y-161113531D01*
X85473116Y-160633878D01*
X85474941Y-160629741D01*
X85672446Y-160134690D01*
X85673961Y-160130460D01*
X85835567Y-159622549D01*
X85836781Y-159618202D01*
X85961661Y-159100034D01*
X85962555Y-159095638D01*
X86050064Y-158569885D01*
X86050649Y-158565380D01*
X86100363Y-158034517D01*
X86100613Y-158030439D01*
X86112954Y-157602024D01*
X86112939Y-157597967D01*
X86093866Y-157065096D01*
X86093544Y-157060601D01*
X86036442Y-156530662D01*
X86035800Y-156526211D01*
X85940955Y-156001710D01*
X85939999Y-155997327D01*
X85807892Y-155480933D01*
X85806630Y-155476645D01*
X85637938Y-154971015D01*
X85636370Y-154966818D01*
X85431966Y-154474558D01*
X85430088Y-154470456D01*
X85191023Y-153994094D01*
X85188855Y-153990133D01*
X84916347Y-153532090D01*
X84913891Y-153528279D01*
X84609331Y-153090890D01*
X84606624Y-153087284D01*
X84271552Y-152672765D01*
X84268609Y-152669380D01*
X84098034Y-152486780D01*
X84084361Y-152478698D01*
X84083667Y-152478724D01*
X84075320Y-152483890D01*
X78972022Y-157587188D01*
X78964408Y-157601132D01*
X78234356Y-157601132D01*
X78235592Y-157598868D01*
X78235461Y-157597035D01*
X78231210Y-157590420D01*
X73127007Y-152486217D01*
X73113063Y-152478603D01*
X73112606Y-152478635D01*
X73104130Y-152484332D01*
X72897104Y-152709077D01*
X72894190Y-152712477D01*
X72562015Y-153129331D01*
X72559344Y-153132941D01*
X72257831Y-153572465D01*
X72255409Y-153576283D01*
X71986107Y-154036216D01*
X71983964Y-154040196D01*
X71748233Y-154518211D01*
X71746376Y-154522343D01*
X71545427Y-155015984D01*
X71543874Y-155020230D01*
X71378729Y-155526984D01*
X71377484Y-155531326D01*
X71248991Y-156048608D01*
X71248067Y-156052991D01*
X71156885Y-156578152D01*
X71156274Y-156582609D01*
X71102873Y-157112930D01*
X71102583Y-157117413D01*
X71087236Y-157650201D01*
X61111566Y-157650201D01*
X61112954Y-157602024D01*
X61112939Y-157597967D01*
X61093866Y-157065096D01*
X61093544Y-157060601D01*
X61036442Y-156530662D01*
X61035800Y-156526211D01*
X60940955Y-156001710D01*
X60939999Y-155997327D01*
X60807892Y-155480933D01*
X60806630Y-155476645D01*
X60637938Y-154971015D01*
X60636370Y-154966818D01*
X60431966Y-154474558D01*
X60430088Y-154470456D01*
X60191023Y-153994094D01*
X60188855Y-153990133D01*
X59916347Y-153532090D01*
X59913891Y-153528279D01*
X59609331Y-153090890D01*
X59606624Y-153087284D01*
X59271552Y-152672765D01*
X59268609Y-152669380D01*
X59098034Y-152486780D01*
X59084361Y-152478698D01*
X59083667Y-152478724D01*
X59075320Y-152483890D01*
X53972022Y-157587188D01*
X53964408Y-157601132D01*
X53234356Y-157601132D01*
X53235592Y-157598868D01*
X53235461Y-157597035D01*
X53231210Y-157590420D01*
X48127007Y-152486217D01*
X48113063Y-152478603D01*
X48112606Y-152478635D01*
X48104130Y-152484332D01*
X47897104Y-152709077D01*
X47894190Y-152712477D01*
X47562015Y-153129331D01*
X47559344Y-153132941D01*
X47257831Y-153572465D01*
X47255409Y-153576283D01*
X46986107Y-154036216D01*
X46983964Y-154040196D01*
X46748233Y-154518211D01*
X46746376Y-154522343D01*
X46545427Y-155015984D01*
X46543874Y-155020230D01*
X46378729Y-155526984D01*
X46377484Y-155531326D01*
X46248991Y-156048608D01*
X46248067Y-156052991D01*
X46156885Y-156578152D01*
X46156274Y-156582609D01*
X46102873Y-157112930D01*
X46102583Y-157117413D01*
X46087236Y-157650201D01*
X36111566Y-157650201D01*
X36112954Y-157602024D01*
X36112939Y-157597967D01*
X36093866Y-157065096D01*
X36093544Y-157060601D01*
X36036442Y-156530662D01*
X36035800Y-156526211D01*
X35940955Y-156001710D01*
X35939999Y-155997327D01*
X35807892Y-155480933D01*
X35806630Y-155476645D01*
X35637938Y-154971015D01*
X35636370Y-154966818D01*
X35431966Y-154474558D01*
X35430088Y-154470456D01*
X35191023Y-153994094D01*
X35188855Y-153990133D01*
X34916347Y-153532090D01*
X34913891Y-153528279D01*
X34609331Y-153090890D01*
X34606624Y-153087284D01*
X34271552Y-152672765D01*
X34268609Y-152669380D01*
X34098034Y-152486780D01*
X34084361Y-152478698D01*
X34083667Y-152478724D01*
X34075320Y-152483890D01*
X28972022Y-157587188D01*
X28964408Y-157601132D01*
X28234356Y-157601132D01*
X28235592Y-157598868D01*
X28235461Y-157597035D01*
X28231210Y-157590420D01*
X23127007Y-152486217D01*
X23113063Y-152478603D01*
X23112606Y-152478635D01*
X23104130Y-152484332D01*
X22897104Y-152709077D01*
X22894190Y-152712477D01*
X22562015Y-153129331D01*
X22559344Y-153132941D01*
X22257831Y-153572465D01*
X22255409Y-153576283D01*
X21986107Y-154036216D01*
X21983964Y-154040196D01*
X21748233Y-154518211D01*
X21746376Y-154522343D01*
X21545427Y-155015984D01*
X21543874Y-155020230D01*
X21378729Y-155526984D01*
X21377484Y-155531326D01*
X21248991Y-156048608D01*
X21248067Y-156052991D01*
X21156885Y-156578152D01*
X21156274Y-156582609D01*
X21102873Y-157112930D01*
X21102583Y-157117413D01*
X21087236Y-157650201D01*
X16608500Y-157650201D01*
X16608500Y-152115591D01*
X23478674Y-152115591D01*
X23478707Y-152116404D01*
X23483783Y-152124573D01*
X28587188Y-157227978D01*
X28601132Y-157235592D01*
X28602965Y-157235461D01*
X28609580Y-157231210D01*
X33713682Y-152127108D01*
X33719971Y-152115591D01*
X48478674Y-152115591D01*
X48478707Y-152116404D01*
X48483783Y-152124573D01*
X53587188Y-157227978D01*
X53601132Y-157235592D01*
X53602965Y-157235461D01*
X53609580Y-157231210D01*
X58713682Y-152127108D01*
X58719971Y-152115591D01*
X73478674Y-152115591D01*
X73478707Y-152116404D01*
X73483783Y-152124573D01*
X78587188Y-157227978D01*
X78601132Y-157235592D01*
X78602965Y-157235461D01*
X78609580Y-157231210D01*
X83713682Y-152127108D01*
X83721296Y-152113164D01*
X83721255Y-152112590D01*
X83715684Y-152104268D01*
X83510818Y-151914228D01*
X83507387Y-151911267D01*
X83091729Y-151577666D01*
X83088115Y-151574972D01*
X82649654Y-151271933D01*
X82645835Y-151269490D01*
X82186846Y-150998585D01*
X82182877Y-150996430D01*
X81705679Y-150759028D01*
X81701575Y-150757166D01*
X81208610Y-150554483D01*
X81204395Y-150552924D01*
X80698199Y-150386006D01*
X80693883Y-150384752D01*
X80177042Y-150254451D01*
X80172665Y-150253513D01*
X79647822Y-150160496D01*
X79643365Y-150159870D01*
X79113241Y-150104620D01*
X79108747Y-150104313D01*
X78576027Y-150087107D01*
X78571530Y-150087122D01*
X78038927Y-150108048D01*
X78034451Y-150108384D01*
X77504713Y-150167336D01*
X77500261Y-150167994D01*
X76976106Y-150264667D01*
X76971701Y-150265643D01*
X76455801Y-150399545D01*
X76451490Y-150400830D01*
X75946471Y-150571278D01*
X75942259Y-150572870D01*
X75450723Y-150778988D01*
X75446647Y-150780871D01*
X74971109Y-151021605D01*
X74967158Y-151023786D01*
X74510063Y-151297893D01*
X74506267Y-151300358D01*
X74069930Y-151606452D01*
X74066347Y-151609162D01*
X73653007Y-151945674D01*
X73649617Y-151948642D01*
X73486708Y-152101891D01*
X73478674Y-152115591D01*
X58719971Y-152115591D01*
X58721296Y-152113164D01*
X58721255Y-152112590D01*
X58715684Y-152104268D01*
X58510818Y-151914228D01*
X58507387Y-151911267D01*
X58091729Y-151577666D01*
X58088115Y-151574972D01*
X57649654Y-151271933D01*
X57645835Y-151269490D01*
X57186846Y-150998585D01*
X57182877Y-150996430D01*
X56705679Y-150759028D01*
X56701575Y-150757166D01*
X56208610Y-150554483D01*
X56204395Y-150552924D01*
X55698199Y-150386006D01*
X55693883Y-150384752D01*
X55177042Y-150254451D01*
X55172665Y-150253513D01*
X54647822Y-150160496D01*
X54643365Y-150159870D01*
X54113241Y-150104620D01*
X54108747Y-150104313D01*
X53576027Y-150087107D01*
X53571530Y-150087122D01*
X53038927Y-150108048D01*
X53034451Y-150108384D01*
X52504713Y-150167336D01*
X52500261Y-150167994D01*
X51976106Y-150264667D01*
X51971701Y-150265643D01*
X51455801Y-150399545D01*
X51451490Y-150400830D01*
X50946471Y-150571278D01*
X50942259Y-150572870D01*
X50450723Y-150778988D01*
X50446647Y-150780871D01*
X49971109Y-151021605D01*
X49967158Y-151023786D01*
X49510063Y-151297893D01*
X49506267Y-151300358D01*
X49069930Y-151606452D01*
X49066347Y-151609162D01*
X48653007Y-151945674D01*
X48649617Y-151948642D01*
X48486708Y-152101891D01*
X48478674Y-152115591D01*
X33719971Y-152115591D01*
X33721296Y-152113164D01*
X33721255Y-152112590D01*
X33715684Y-152104268D01*
X33510818Y-151914228D01*
X33507387Y-151911267D01*
X33091729Y-151577666D01*
X33088115Y-151574972D01*
X32649654Y-151271933D01*
X32645835Y-151269490D01*
X32186846Y-150998585D01*
X32182877Y-150996430D01*
X31705679Y-150759028D01*
X31701575Y-150757166D01*
X31208610Y-150554483D01*
X31204395Y-150552924D01*
X30698199Y-150386006D01*
X30693883Y-150384752D01*
X30177042Y-150254451D01*
X30172665Y-150253513D01*
X29647822Y-150160496D01*
X29643365Y-150159870D01*
X29113241Y-150104620D01*
X29108747Y-150104313D01*
X28576027Y-150087107D01*
X28571530Y-150087122D01*
X28038927Y-150108048D01*
X28034451Y-150108384D01*
X27504713Y-150167336D01*
X27500261Y-150167994D01*
X26976106Y-150264667D01*
X26971701Y-150265643D01*
X26455801Y-150399545D01*
X26451490Y-150400830D01*
X25946471Y-150571278D01*
X25942259Y-150572870D01*
X25450723Y-150778988D01*
X25446647Y-150780871D01*
X24971109Y-151021605D01*
X24967158Y-151023786D01*
X24510063Y-151297893D01*
X24506267Y-151300358D01*
X24069930Y-151606452D01*
X24066347Y-151609162D01*
X23653007Y-151945674D01*
X23649617Y-151948642D01*
X23486708Y-152101891D01*
X23478674Y-152115591D01*
X16608500Y-152115591D01*
X16608500Y-139317924D01*
X50247616Y-139317924D01*
X50247665Y-139318616D01*
X50253111Y-139326781D01*
X50342226Y-139410027D01*
X50346503Y-139413681D01*
X50693829Y-139684553D01*
X50698386Y-139687792D01*
X51068432Y-139926727D01*
X51073261Y-139929549D01*
X51463048Y-140134626D01*
X51468150Y-140137027D01*
X51874633Y-140306647D01*
X51879888Y-140308570D01*
X52299860Y-140441389D01*
X52305259Y-140442836D01*
X52735375Y-140537796D01*
X52740886Y-140538758D01*
X53177749Y-140595110D01*
X53183312Y-140595577D01*
X53623453Y-140612869D01*
X53629045Y-140612840D01*
X54068965Y-140590940D01*
X54074548Y-140590412D01*
X54510788Y-140529490D01*
X54516275Y-140528473D01*
X54945381Y-140429012D01*
X54950767Y-140427508D01*
X55369333Y-140290296D01*
X55374550Y-140288324D01*
X55779260Y-140114447D01*
X55784303Y-140112009D01*
X56171943Y-139902850D01*
X56176747Y-139899975D01*
X56544239Y-139657198D01*
X56548802Y-139653883D01*
X56893266Y-139379393D01*
X56897481Y-139375716D01*
X56945286Y-139330112D01*
X56953226Y-139316352D01*
X56953176Y-139315307D01*
X56948285Y-139307495D01*
X53612812Y-135972022D01*
X53598868Y-135964408D01*
X53597035Y-135964539D01*
X53590420Y-135968790D01*
X50255230Y-139303980D01*
X50247616Y-139317924D01*
X16608500Y-139317924D01*
X16608500Y-135471585D01*
X48588722Y-135471585D01*
X48596793Y-135911981D01*
X48597143Y-135917547D01*
X48644333Y-136355491D01*
X48645180Y-136361030D01*
X48731112Y-136793042D01*
X48732441Y-136798453D01*
X48856444Y-137221138D01*
X48858250Y-137226413D01*
X49019326Y-137636377D01*
X49021608Y-137641501D01*
X49218485Y-138035516D01*
X49221209Y-138040409D01*
X49452333Y-138415363D01*
X49455484Y-138419999D01*
X49719031Y-138772931D01*
X49722564Y-138777248D01*
X49871583Y-138943625D01*
X49885079Y-138951989D01*
X49894491Y-138946299D01*
X53227978Y-135612812D01*
X53234356Y-135601132D01*
X53964408Y-135601132D01*
X53964539Y-135602965D01*
X53968790Y-135609580D01*
X57303870Y-138944660D01*
X57317631Y-138952174D01*
X57326992Y-138945716D01*
X57510483Y-138736482D01*
X57513988Y-138732109D01*
X57773825Y-138376435D01*
X57776920Y-138371777D01*
X58004101Y-137994431D01*
X58006782Y-137989492D01*
X58199515Y-137593455D01*
X58201750Y-137588289D01*
X58358519Y-137176675D01*
X58360275Y-137171363D01*
X58479838Y-136747427D01*
X58481114Y-136741991D01*
X58562520Y-136309092D01*
X58563307Y-136303555D01*
X58605963Y-135864580D01*
X58606236Y-135860143D01*
X58612990Y-135602234D01*
X58612948Y-135597762D01*
X58593327Y-135157177D01*
X58592829Y-135151590D01*
X58534193Y-134715047D01*
X58533200Y-134709524D01*
X58435990Y-134279920D01*
X58434517Y-134274533D01*
X58299499Y-133855261D01*
X58297544Y-133850003D01*
X58125801Y-133444419D01*
X58123382Y-133439348D01*
X57916253Y-133050614D01*
X57913418Y-133045819D01*
X57672538Y-132677013D01*
X57669287Y-132672489D01*
X57396582Y-132326564D01*
X57392934Y-132322338D01*
X57329587Y-132255233D01*
X57315871Y-132247222D01*
X57315000Y-132247259D01*
X57306923Y-132252287D01*
X53972022Y-135587188D01*
X53964408Y-135601132D01*
X53234356Y-135601132D01*
X53235592Y-135598868D01*
X53235461Y-135597035D01*
X53231210Y-135590420D01*
X49893542Y-132252752D01*
X49880234Y-132245485D01*
X49870195Y-132252607D01*
X49608756Y-132566953D01*
X49605361Y-132571425D01*
X49354932Y-132933765D01*
X49351953Y-132938515D01*
X49134719Y-133321695D01*
X49132188Y-133326662D01*
X48949866Y-133727656D01*
X48947788Y-133732824D01*
X48801840Y-134148426D01*
X48800219Y-134153795D01*
X48691798Y-134580705D01*
X48690664Y-134586178D01*
X48620621Y-135021044D01*
X48619976Y-135026622D01*
X48588869Y-135465964D01*
X48588722Y-135471585D01*
X16608500Y-135471585D01*
X16608500Y-131882502D01*
X50246077Y-131882502D01*
X50252184Y-131892974D01*
X53587188Y-135227978D01*
X53601132Y-135235592D01*
X53602965Y-135235461D01*
X53609580Y-135231210D01*
X56944435Y-131896355D01*
X56951998Y-131882505D01*
X56945671Y-131873283D01*
X56756913Y-131705992D01*
X56752551Y-131702459D01*
X56398262Y-131440778D01*
X56393609Y-131437651D01*
X56017453Y-131208495D01*
X56012536Y-131205791D01*
X55617488Y-131010974D01*
X55612379Y-131008732D01*
X55201563Y-130849799D01*
X55196273Y-130848019D01*
X54772954Y-130726234D01*
X54767530Y-130724932D01*
X54335068Y-130641261D01*
X54329539Y-130640445D01*
X53891353Y-130595550D01*
X53885771Y-130595228D01*
X53445346Y-130589463D01*
X53439735Y-130589639D01*
X53000541Y-130623048D01*
X52994984Y-130623720D01*
X52560504Y-130696037D01*
X52555007Y-130697205D01*
X52128680Y-130807858D01*
X52123314Y-130809510D01*
X51708509Y-130957622D01*
X51703321Y-130959739D01*
X51303311Y-131144147D01*
X51298342Y-131146711D01*
X50916308Y-131365948D01*
X50911575Y-131368951D01*
X50550545Y-131621278D01*
X50546104Y-131624686D01*
X50254521Y-131869785D01*
X50246077Y-131882502D01*
X16608500Y-131882502D01*
X16608500Y-130317924D01*
X25247616Y-130317924D01*
X25247665Y-130318616D01*
X25253111Y-130326781D01*
X25342226Y-130410027D01*
X25346503Y-130413681D01*
X25693829Y-130684553D01*
X25698386Y-130687792D01*
X26068432Y-130926727D01*
X26073261Y-130929549D01*
X26463048Y-131134626D01*
X26468150Y-131137027D01*
X26874633Y-131306647D01*
X26879888Y-131308570D01*
X27299860Y-131441389D01*
X27305259Y-131442836D01*
X27735375Y-131537796D01*
X27740886Y-131538758D01*
X28177749Y-131595110D01*
X28183312Y-131595577D01*
X28623453Y-131612869D01*
X28629045Y-131612840D01*
X29068965Y-131590940D01*
X29074548Y-131590412D01*
X29510788Y-131529490D01*
X29516275Y-131528473D01*
X29945381Y-131429012D01*
X29950767Y-131427508D01*
X30369333Y-131290296D01*
X30374550Y-131288324D01*
X30779260Y-131114447D01*
X30784303Y-131112009D01*
X31171943Y-130902850D01*
X31176747Y-130899975D01*
X31544239Y-130657198D01*
X31548802Y-130653883D01*
X31893266Y-130379393D01*
X31897481Y-130375716D01*
X31945286Y-130330112D01*
X31952319Y-130317924D01*
X75247616Y-130317924D01*
X75247665Y-130318616D01*
X75253111Y-130326781D01*
X75342226Y-130410027D01*
X75346503Y-130413681D01*
X75693829Y-130684553D01*
X75698386Y-130687792D01*
X76068432Y-130926727D01*
X76073261Y-130929549D01*
X76463048Y-131134626D01*
X76468150Y-131137027D01*
X76874633Y-131306647D01*
X76879888Y-131308570D01*
X77299860Y-131441389D01*
X77305259Y-131442836D01*
X77735375Y-131537796D01*
X77740886Y-131538758D01*
X78177749Y-131595110D01*
X78183312Y-131595577D01*
X78623453Y-131612869D01*
X78629045Y-131612840D01*
X79068965Y-131590940D01*
X79074548Y-131590412D01*
X79510788Y-131529490D01*
X79516275Y-131528473D01*
X79945381Y-131429012D01*
X79950767Y-131427508D01*
X80369333Y-131290296D01*
X80374550Y-131288324D01*
X80779260Y-131114447D01*
X80784303Y-131112009D01*
X81171943Y-130902850D01*
X81176747Y-130899975D01*
X81544239Y-130657198D01*
X81548802Y-130653883D01*
X81893266Y-130379393D01*
X81897481Y-130375716D01*
X81945286Y-130330112D01*
X81953226Y-130316352D01*
X81953176Y-130315307D01*
X81948285Y-130307495D01*
X78612812Y-126972022D01*
X78598868Y-126964408D01*
X78597035Y-126964539D01*
X78590420Y-126968790D01*
X75255230Y-130303980D01*
X75247616Y-130317924D01*
X31952319Y-130317924D01*
X31953226Y-130316352D01*
X31953176Y-130315307D01*
X31948285Y-130307495D01*
X28612812Y-126972022D01*
X28598868Y-126964408D01*
X28597035Y-126964539D01*
X28590420Y-126968790D01*
X25255230Y-130303980D01*
X25247616Y-130317924D01*
X16608500Y-130317924D01*
X16608500Y-126471585D01*
X23588722Y-126471585D01*
X23596793Y-126911981D01*
X23597143Y-126917547D01*
X23644333Y-127355491D01*
X23645180Y-127361030D01*
X23731112Y-127793042D01*
X23732441Y-127798453D01*
X23856444Y-128221138D01*
X23858250Y-128226413D01*
X24019326Y-128636377D01*
X24021608Y-128641501D01*
X24218485Y-129035516D01*
X24221209Y-129040409D01*
X24452333Y-129415363D01*
X24455484Y-129419999D01*
X24719031Y-129772931D01*
X24722564Y-129777248D01*
X24871583Y-129943625D01*
X24885079Y-129951989D01*
X24894491Y-129946299D01*
X28227978Y-126612812D01*
X28234356Y-126601132D01*
X28964408Y-126601132D01*
X28964539Y-126602965D01*
X28968790Y-126609580D01*
X32303870Y-129944660D01*
X32317631Y-129952174D01*
X32326992Y-129945716D01*
X32510483Y-129736482D01*
X32513988Y-129732109D01*
X32773825Y-129376435D01*
X32776920Y-129371777D01*
X33004101Y-128994431D01*
X33006782Y-128989492D01*
X33199515Y-128593455D01*
X33201750Y-128588289D01*
X33358519Y-128176675D01*
X33360275Y-128171363D01*
X33479838Y-127747427D01*
X33481114Y-127741991D01*
X33562520Y-127309092D01*
X33563307Y-127303555D01*
X33605963Y-126864580D01*
X33606236Y-126860143D01*
X33612990Y-126602234D01*
X33612948Y-126597762D01*
X33607329Y-126471585D01*
X73588722Y-126471585D01*
X73596793Y-126911981D01*
X73597143Y-126917547D01*
X73644333Y-127355491D01*
X73645180Y-127361030D01*
X73731112Y-127793042D01*
X73732441Y-127798453D01*
X73856444Y-128221138D01*
X73858250Y-128226413D01*
X74019326Y-128636377D01*
X74021608Y-128641501D01*
X74218485Y-129035516D01*
X74221209Y-129040409D01*
X74452333Y-129415363D01*
X74455484Y-129419999D01*
X74719031Y-129772931D01*
X74722564Y-129777248D01*
X74871583Y-129943625D01*
X74885079Y-129951989D01*
X74894491Y-129946299D01*
X78227978Y-126612812D01*
X78234356Y-126601132D01*
X78964408Y-126601132D01*
X78964539Y-126602965D01*
X78968790Y-126609580D01*
X82303870Y-129944660D01*
X82317631Y-129952174D01*
X82326992Y-129945716D01*
X82510483Y-129736482D01*
X82513988Y-129732109D01*
X82773825Y-129376435D01*
X82776920Y-129371777D01*
X83004101Y-128994431D01*
X83006782Y-128989492D01*
X83199515Y-128593455D01*
X83201750Y-128588289D01*
X83358519Y-128176675D01*
X83360275Y-128171363D01*
X83479838Y-127747427D01*
X83481114Y-127741991D01*
X83562520Y-127309092D01*
X83563307Y-127303555D01*
X83605963Y-126864580D01*
X83606236Y-126860143D01*
X83612990Y-126602234D01*
X83612948Y-126597762D01*
X83593327Y-126157177D01*
X83592829Y-126151590D01*
X83534193Y-125715047D01*
X83533200Y-125709524D01*
X83435990Y-125279920D01*
X83434517Y-125274533D01*
X83299499Y-124855261D01*
X83297544Y-124850003D01*
X83125801Y-124444419D01*
X83123382Y-124439348D01*
X82916253Y-124050614D01*
X82913418Y-124045819D01*
X82672538Y-123677013D01*
X82669287Y-123672489D01*
X82396582Y-123326564D01*
X82392934Y-123322338D01*
X82329587Y-123255233D01*
X82315871Y-123247222D01*
X82315000Y-123247259D01*
X82306923Y-123252287D01*
X78972022Y-126587188D01*
X78964408Y-126601132D01*
X78234356Y-126601132D01*
X78235592Y-126598868D01*
X78235461Y-126597035D01*
X78231210Y-126590420D01*
X74893542Y-123252752D01*
X74880234Y-123245485D01*
X74870195Y-123252607D01*
X74608756Y-123566953D01*
X74605361Y-123571425D01*
X74354932Y-123933765D01*
X74351953Y-123938515D01*
X74134719Y-124321695D01*
X74132188Y-124326662D01*
X73949866Y-124727656D01*
X73947788Y-124732824D01*
X73801840Y-125148426D01*
X73800219Y-125153795D01*
X73691798Y-125580705D01*
X73690664Y-125586178D01*
X73620621Y-126021044D01*
X73619976Y-126026622D01*
X73588869Y-126465964D01*
X73588722Y-126471585D01*
X33607329Y-126471585D01*
X33593327Y-126157177D01*
X33592829Y-126151590D01*
X33534193Y-125715047D01*
X33533200Y-125709524D01*
X33435990Y-125279920D01*
X33434517Y-125274533D01*
X33299499Y-124855261D01*
X33297544Y-124850003D01*
X33125801Y-124444419D01*
X33123382Y-124439348D01*
X32916253Y-124050614D01*
X32913418Y-124045819D01*
X32672538Y-123677013D01*
X32669287Y-123672489D01*
X32396582Y-123326564D01*
X32392934Y-123322338D01*
X32329587Y-123255233D01*
X32315871Y-123247222D01*
X32315000Y-123247259D01*
X32306923Y-123252287D01*
X28972022Y-126587188D01*
X28964408Y-126601132D01*
X28234356Y-126601132D01*
X28235592Y-126598868D01*
X28235461Y-126597035D01*
X28231210Y-126590420D01*
X24893542Y-123252752D01*
X24880234Y-123245485D01*
X24870195Y-123252607D01*
X24608756Y-123566953D01*
X24605361Y-123571425D01*
X24354932Y-123933765D01*
X24351953Y-123938515D01*
X24134719Y-124321695D01*
X24132188Y-124326662D01*
X23949866Y-124727656D01*
X23947788Y-124732824D01*
X23801840Y-125148426D01*
X23800219Y-125153795D01*
X23691798Y-125580705D01*
X23690664Y-125586178D01*
X23620621Y-126021044D01*
X23619976Y-126026622D01*
X23588869Y-126465964D01*
X23588722Y-126471585D01*
X16608500Y-126471585D01*
X16608500Y-122882502D01*
X25246077Y-122882502D01*
X25252184Y-122892974D01*
X28587188Y-126227978D01*
X28601132Y-126235592D01*
X28602965Y-126235461D01*
X28609580Y-126231210D01*
X31944435Y-122896355D01*
X31951998Y-122882505D01*
X31951996Y-122882502D01*
X75246077Y-122882502D01*
X75252184Y-122892974D01*
X78587188Y-126227978D01*
X78601132Y-126235592D01*
X78602965Y-126235461D01*
X78609580Y-126231210D01*
X81944435Y-122896355D01*
X81951998Y-122882505D01*
X81945671Y-122873283D01*
X81756913Y-122705992D01*
X81752551Y-122702459D01*
X81398262Y-122440778D01*
X81393609Y-122437651D01*
X81017453Y-122208495D01*
X81012536Y-122205791D01*
X80617488Y-122010974D01*
X80612379Y-122008732D01*
X80201563Y-121849799D01*
X80196273Y-121848019D01*
X79772954Y-121726234D01*
X79767530Y-121724932D01*
X79335068Y-121641261D01*
X79329539Y-121640445D01*
X78891353Y-121595550D01*
X78885771Y-121595228D01*
X78445346Y-121589463D01*
X78439735Y-121589639D01*
X78000541Y-121623048D01*
X77994984Y-121623720D01*
X77560504Y-121696037D01*
X77555007Y-121697205D01*
X77128680Y-121807858D01*
X77123314Y-121809510D01*
X76708509Y-121957622D01*
X76703321Y-121959739D01*
X76303311Y-122144147D01*
X76298342Y-122146711D01*
X75916308Y-122365948D01*
X75911575Y-122368951D01*
X75550545Y-122621278D01*
X75546104Y-122624686D01*
X75254521Y-122869785D01*
X75246077Y-122882502D01*
X31951996Y-122882502D01*
X31945671Y-122873283D01*
X31756913Y-122705992D01*
X31752551Y-122702459D01*
X31398262Y-122440778D01*
X31393609Y-122437651D01*
X31017453Y-122208495D01*
X31012536Y-122205791D01*
X30617488Y-122010974D01*
X30612379Y-122008732D01*
X30201563Y-121849799D01*
X30196273Y-121848019D01*
X29772954Y-121726234D01*
X29767530Y-121724932D01*
X29335068Y-121641261D01*
X29329539Y-121640445D01*
X28891353Y-121595550D01*
X28885771Y-121595228D01*
X28445346Y-121589463D01*
X28439735Y-121589639D01*
X28000541Y-121623048D01*
X27994984Y-121623720D01*
X27560504Y-121696037D01*
X27555007Y-121697205D01*
X27128680Y-121807858D01*
X27123314Y-121809510D01*
X26708509Y-121957622D01*
X26703321Y-121959739D01*
X26303311Y-122144147D01*
X26298342Y-122146711D01*
X25916308Y-122365948D01*
X25911575Y-122368951D01*
X25550545Y-122621278D01*
X25546104Y-122624686D01*
X25254521Y-122869785D01*
X25246077Y-122882502D01*
X16608500Y-122882502D01*
X16608500Y-121317924D01*
X50247616Y-121317924D01*
X50247665Y-121318616D01*
X50253111Y-121326781D01*
X50342226Y-121410027D01*
X50346503Y-121413681D01*
X50693829Y-121684553D01*
X50698386Y-121687792D01*
X51068432Y-121926727D01*
X51073261Y-121929549D01*
X51463048Y-122134626D01*
X51468150Y-122137027D01*
X51874633Y-122306647D01*
X51879888Y-122308570D01*
X52299860Y-122441389D01*
X52305259Y-122442836D01*
X52735375Y-122537796D01*
X52740886Y-122538758D01*
X53177749Y-122595110D01*
X53183312Y-122595577D01*
X53623453Y-122612869D01*
X53629045Y-122612840D01*
X54068965Y-122590940D01*
X54074548Y-122590412D01*
X54510788Y-122529490D01*
X54516275Y-122528473D01*
X54945381Y-122429012D01*
X54950767Y-122427508D01*
X55369333Y-122290296D01*
X55374550Y-122288324D01*
X55779260Y-122114447D01*
X55784303Y-122112009D01*
X56171943Y-121902850D01*
X56176747Y-121899975D01*
X56544239Y-121657198D01*
X56548802Y-121653883D01*
X56893266Y-121379393D01*
X56897481Y-121375716D01*
X56945286Y-121330112D01*
X56953226Y-121316352D01*
X56953176Y-121315307D01*
X56948285Y-121307495D01*
X53612812Y-117972022D01*
X53598868Y-117964408D01*
X53597035Y-117964539D01*
X53590420Y-117968790D01*
X50255230Y-121303980D01*
X50247616Y-121317924D01*
X16608500Y-121317924D01*
X16608500Y-117471585D01*
X48588722Y-117471585D01*
X48596793Y-117911981D01*
X48597143Y-117917547D01*
X48644333Y-118355491D01*
X48645180Y-118361030D01*
X48731112Y-118793042D01*
X48732441Y-118798453D01*
X48856444Y-119221138D01*
X48858250Y-119226413D01*
X49019326Y-119636377D01*
X49021608Y-119641501D01*
X49218485Y-120035516D01*
X49221209Y-120040409D01*
X49452333Y-120415363D01*
X49455484Y-120419999D01*
X49719031Y-120772931D01*
X49722564Y-120777248D01*
X49871583Y-120943625D01*
X49885079Y-120951989D01*
X49894491Y-120946299D01*
X53227978Y-117612812D01*
X53234356Y-117601132D01*
X53964408Y-117601132D01*
X53964539Y-117602965D01*
X53968790Y-117609580D01*
X57303870Y-120944660D01*
X57317631Y-120952174D01*
X57326992Y-120945716D01*
X57510483Y-120736482D01*
X57513988Y-120732109D01*
X57773825Y-120376435D01*
X57776920Y-120371777D01*
X58004101Y-119994431D01*
X58006782Y-119989492D01*
X58199515Y-119593455D01*
X58201750Y-119588289D01*
X58358519Y-119176675D01*
X58360275Y-119171363D01*
X58479838Y-118747427D01*
X58481114Y-118741991D01*
X58562520Y-118309092D01*
X58563307Y-118303555D01*
X58605963Y-117864580D01*
X58606236Y-117860143D01*
X58612990Y-117602234D01*
X58612948Y-117597762D01*
X58593327Y-117157177D01*
X58592829Y-117151590D01*
X58534193Y-116715047D01*
X58533200Y-116709524D01*
X58435990Y-116279920D01*
X58434517Y-116274533D01*
X58299499Y-115855261D01*
X58297544Y-115850003D01*
X58125801Y-115444419D01*
X58123382Y-115439348D01*
X57916253Y-115050614D01*
X57913418Y-115045819D01*
X57672538Y-114677013D01*
X57669287Y-114672489D01*
X57396582Y-114326564D01*
X57392934Y-114322338D01*
X57329587Y-114255233D01*
X57315871Y-114247222D01*
X57315000Y-114247259D01*
X57306923Y-114252287D01*
X53972022Y-117587188D01*
X53964408Y-117601132D01*
X53234356Y-117601132D01*
X53235592Y-117598868D01*
X53235461Y-117597035D01*
X53231210Y-117590420D01*
X49893542Y-114252752D01*
X49880234Y-114245485D01*
X49870195Y-114252607D01*
X49608756Y-114566953D01*
X49605361Y-114571425D01*
X49354932Y-114933765D01*
X49351953Y-114938515D01*
X49134719Y-115321695D01*
X49132188Y-115326662D01*
X48949866Y-115727656D01*
X48947788Y-115732824D01*
X48801840Y-116148426D01*
X48800219Y-116153795D01*
X48691798Y-116580705D01*
X48690664Y-116586178D01*
X48620621Y-117021044D01*
X48619976Y-117026622D01*
X48588869Y-117465964D01*
X48588722Y-117471585D01*
X16608500Y-117471585D01*
X16608500Y-113882502D01*
X50246077Y-113882502D01*
X50252184Y-113892974D01*
X53587188Y-117227978D01*
X53601132Y-117235592D01*
X53602965Y-117235461D01*
X53609580Y-117231210D01*
X56944435Y-113896355D01*
X56951998Y-113882505D01*
X56945671Y-113873283D01*
X56756913Y-113705992D01*
X56752551Y-113702459D01*
X56398262Y-113440778D01*
X56393609Y-113437651D01*
X56017453Y-113208495D01*
X56012536Y-113205791D01*
X55617488Y-113010974D01*
X55612379Y-113008732D01*
X55201563Y-112849799D01*
X55196273Y-112848019D01*
X54772954Y-112726234D01*
X54767530Y-112724932D01*
X54335068Y-112641261D01*
X54329539Y-112640445D01*
X53891353Y-112595550D01*
X53885771Y-112595228D01*
X53445346Y-112589463D01*
X53439735Y-112589639D01*
X53000541Y-112623048D01*
X52994984Y-112623720D01*
X52560504Y-112696037D01*
X52555007Y-112697205D01*
X52128680Y-112807858D01*
X52123314Y-112809510D01*
X51708509Y-112957622D01*
X51703321Y-112959739D01*
X51303311Y-113144147D01*
X51298342Y-113146711D01*
X50916308Y-113365948D01*
X50911575Y-113368951D01*
X50550545Y-113621278D01*
X50546104Y-113624686D01*
X50254521Y-113869785D01*
X50246077Y-113882502D01*
X16608500Y-113882502D01*
X16608500Y-98087102D01*
X23478438Y-98087102D01*
X23478462Y-98087441D01*
X23484285Y-98096073D01*
X23728991Y-98319913D01*
X23732445Y-98322852D01*
X24150430Y-98653550D01*
X24154067Y-98656222D01*
X24594618Y-98956182D01*
X24598446Y-98958593D01*
X25059337Y-99226300D01*
X25063309Y-99228421D01*
X25542148Y-99462483D01*
X25546284Y-99464325D01*
X26040627Y-99663551D01*
X26044871Y-99665087D01*
X26552218Y-99828467D01*
X26556539Y-99829689D01*
X27074254Y-99956374D01*
X27078695Y-99957294D01*
X27604141Y-100046637D01*
X27608595Y-100047232D01*
X28139106Y-100098782D01*
X28143579Y-100099056D01*
X28676427Y-100112543D01*
X28680930Y-100112496D01*
X29213352Y-100087853D01*
X29217836Y-100087485D01*
X29747152Y-100024836D01*
X29751591Y-100024149D01*
X30275087Y-99923814D01*
X30279446Y-99922815D01*
X30794414Y-99785311D01*
X30798727Y-99783992D01*
X31302525Y-99610028D01*
X31306740Y-99608402D01*
X31796805Y-99398866D01*
X31800892Y-99396943D01*
X32274731Y-99152900D01*
X32278658Y-99150696D01*
X32733828Y-98873404D01*
X32737624Y-98870901D01*
X33171786Y-98561788D01*
X33175372Y-98559036D01*
X33586362Y-98219640D01*
X33589705Y-98216672D01*
X33713630Y-98098453D01*
X33720179Y-98087102D01*
X48478438Y-98087102D01*
X48478462Y-98087441D01*
X48484285Y-98096073D01*
X48728991Y-98319913D01*
X48732445Y-98322852D01*
X49150430Y-98653550D01*
X49154067Y-98656222D01*
X49594618Y-98956182D01*
X49598446Y-98958593D01*
X50059337Y-99226300D01*
X50063309Y-99228421D01*
X50542148Y-99462483D01*
X50546284Y-99464325D01*
X51040627Y-99663551D01*
X51044871Y-99665087D01*
X51552218Y-99828467D01*
X51556539Y-99829689D01*
X52074254Y-99956374D01*
X52078695Y-99957294D01*
X52604141Y-100046637D01*
X52608595Y-100047232D01*
X53139106Y-100098782D01*
X53143579Y-100099056D01*
X53676427Y-100112543D01*
X53680930Y-100112496D01*
X54213352Y-100087853D01*
X54217836Y-100087485D01*
X54747152Y-100024836D01*
X54751591Y-100024149D01*
X55275087Y-99923814D01*
X55279446Y-99922815D01*
X55794414Y-99785311D01*
X55798727Y-99783992D01*
X56302525Y-99610028D01*
X56306740Y-99608402D01*
X56796805Y-99398866D01*
X56800892Y-99396943D01*
X57274731Y-99152900D01*
X57278658Y-99150696D01*
X57733828Y-98873404D01*
X57737624Y-98870901D01*
X58171786Y-98561788D01*
X58175372Y-98559036D01*
X58586362Y-98219640D01*
X58589705Y-98216672D01*
X58713630Y-98098453D01*
X58720179Y-98087102D01*
X73478438Y-98087102D01*
X73478462Y-98087441D01*
X73484285Y-98096073D01*
X73728991Y-98319913D01*
X73732445Y-98322852D01*
X74150430Y-98653550D01*
X74154067Y-98656222D01*
X74594618Y-98956182D01*
X74598446Y-98958593D01*
X75059337Y-99226300D01*
X75063309Y-99228421D01*
X75542148Y-99462483D01*
X75546284Y-99464325D01*
X76040627Y-99663551D01*
X76044871Y-99665087D01*
X76552218Y-99828467D01*
X76556539Y-99829689D01*
X77074254Y-99956374D01*
X77078695Y-99957294D01*
X77604141Y-100046637D01*
X77608595Y-100047232D01*
X78139106Y-100098782D01*
X78143579Y-100099056D01*
X78676427Y-100112543D01*
X78680930Y-100112496D01*
X79213352Y-100087853D01*
X79217836Y-100087485D01*
X79747152Y-100024836D01*
X79751591Y-100024149D01*
X80275087Y-99923814D01*
X80279446Y-99922815D01*
X80794414Y-99785311D01*
X80798727Y-99783992D01*
X81302525Y-99610028D01*
X81306740Y-99608402D01*
X81796805Y-99398866D01*
X81800892Y-99396943D01*
X82274731Y-99152900D01*
X82278658Y-99150696D01*
X82733828Y-98873404D01*
X82737624Y-98870901D01*
X83171786Y-98561788D01*
X83175372Y-98559036D01*
X83586362Y-98219640D01*
X83589705Y-98216672D01*
X83713630Y-98098453D01*
X83721568Y-98084695D01*
X83721518Y-98083649D01*
X83716625Y-98075835D01*
X78612812Y-92972022D01*
X78598868Y-92964408D01*
X78597035Y-92964539D01*
X78590420Y-92968790D01*
X73486052Y-98073158D01*
X73478438Y-98087102D01*
X58720179Y-98087102D01*
X58721568Y-98084695D01*
X58721518Y-98083649D01*
X58716625Y-98075835D01*
X53612812Y-92972022D01*
X53598868Y-92964408D01*
X53597035Y-92964539D01*
X53590420Y-92968790D01*
X48486052Y-98073158D01*
X48478438Y-98087102D01*
X33720179Y-98087102D01*
X33721568Y-98084695D01*
X33721518Y-98083649D01*
X33716625Y-98075835D01*
X28612812Y-92972022D01*
X28598868Y-92964408D01*
X28597035Y-92964539D01*
X28590420Y-92968790D01*
X23486052Y-98073158D01*
X23478438Y-98087102D01*
X16608500Y-98087102D01*
X16608500Y-92650201D01*
X21087236Y-92650201D01*
X21087267Y-92654699D01*
X21110052Y-93187215D01*
X21110404Y-93191696D01*
X21171206Y-93721240D01*
X21171874Y-93725659D01*
X21270381Y-94249497D01*
X21271370Y-94253884D01*
X21407070Y-94769308D01*
X21408381Y-94773648D01*
X21580581Y-95278039D01*
X21582188Y-95282249D01*
X21790028Y-95773079D01*
X21791917Y-95777129D01*
X22034314Y-96251836D01*
X22036507Y-96255776D01*
X22312217Y-96711925D01*
X22314678Y-96715685D01*
X22622290Y-97150947D01*
X22625036Y-97154552D01*
X22962987Y-97566712D01*
X22965944Y-97570066D01*
X23101751Y-97713428D01*
X23115482Y-97721415D01*
X23116410Y-97721374D01*
X23124399Y-97716391D01*
X28227978Y-92612812D01*
X28234356Y-92601132D01*
X28964408Y-92601132D01*
X28964539Y-92602965D01*
X28968790Y-92609580D01*
X34073389Y-97714179D01*
X34087333Y-97721793D01*
X34087556Y-97721778D01*
X34096338Y-97715831D01*
X34336905Y-97450987D01*
X34339793Y-97447570D01*
X34669044Y-97028414D01*
X34671701Y-97024771D01*
X34970130Y-96583164D01*
X34972526Y-96579329D01*
X35238617Y-96117514D01*
X35240726Y-96113531D01*
X35473116Y-95633878D01*
X35474941Y-95629741D01*
X35672446Y-95134690D01*
X35673961Y-95130460D01*
X35835567Y-94622549D01*
X35836781Y-94618202D01*
X35961661Y-94100034D01*
X35962555Y-94095638D01*
X36050064Y-93569885D01*
X36050649Y-93565380D01*
X36100363Y-93034517D01*
X36100613Y-93030439D01*
X36111566Y-92650201D01*
X46087236Y-92650201D01*
X46087267Y-92654699D01*
X46110052Y-93187215D01*
X46110404Y-93191696D01*
X46171206Y-93721240D01*
X46171874Y-93725659D01*
X46270381Y-94249497D01*
X46271370Y-94253884D01*
X46407070Y-94769308D01*
X46408381Y-94773648D01*
X46580581Y-95278039D01*
X46582188Y-95282249D01*
X46790028Y-95773079D01*
X46791917Y-95777129D01*
X47034314Y-96251836D01*
X47036507Y-96255776D01*
X47312217Y-96711925D01*
X47314678Y-96715685D01*
X47622290Y-97150947D01*
X47625036Y-97154552D01*
X47962987Y-97566712D01*
X47965944Y-97570066D01*
X48101751Y-97713428D01*
X48115482Y-97721415D01*
X48116410Y-97721374D01*
X48124399Y-97716391D01*
X53227978Y-92612812D01*
X53234356Y-92601132D01*
X53964408Y-92601132D01*
X53964539Y-92602965D01*
X53968790Y-92609580D01*
X59073389Y-97714179D01*
X59087333Y-97721793D01*
X59087556Y-97721778D01*
X59096338Y-97715831D01*
X59336905Y-97450987D01*
X59339793Y-97447570D01*
X59669044Y-97028414D01*
X59671701Y-97024771D01*
X59970130Y-96583164D01*
X59972526Y-96579329D01*
X60238617Y-96117514D01*
X60240726Y-96113531D01*
X60473116Y-95633878D01*
X60474941Y-95629741D01*
X60672446Y-95134690D01*
X60673961Y-95130460D01*
X60835567Y-94622549D01*
X60836781Y-94618202D01*
X60961661Y-94100034D01*
X60962555Y-94095638D01*
X61050064Y-93569885D01*
X61050649Y-93565380D01*
X61100363Y-93034517D01*
X61100613Y-93030439D01*
X61111566Y-92650201D01*
X71087236Y-92650201D01*
X71087267Y-92654699D01*
X71110052Y-93187215D01*
X71110404Y-93191696D01*
X71171206Y-93721240D01*
X71171874Y-93725659D01*
X71270381Y-94249497D01*
X71271370Y-94253884D01*
X71407070Y-94769308D01*
X71408381Y-94773648D01*
X71580581Y-95278039D01*
X71582188Y-95282249D01*
X71790028Y-95773079D01*
X71791917Y-95777129D01*
X72034314Y-96251836D01*
X72036507Y-96255776D01*
X72312217Y-96711925D01*
X72314678Y-96715685D01*
X72622290Y-97150947D01*
X72625036Y-97154552D01*
X72962987Y-97566712D01*
X72965944Y-97570066D01*
X73101751Y-97713428D01*
X73115482Y-97721415D01*
X73116410Y-97721374D01*
X73124399Y-97716391D01*
X78227978Y-92612812D01*
X78234356Y-92601132D01*
X78964408Y-92601132D01*
X78964539Y-92602965D01*
X78968790Y-92609580D01*
X84073389Y-97714179D01*
X84087333Y-97721793D01*
X84087556Y-97721778D01*
X84096338Y-97715831D01*
X84336905Y-97450987D01*
X84339793Y-97447570D01*
X84669044Y-97028414D01*
X84671701Y-97024771D01*
X84970130Y-96583164D01*
X84972526Y-96579329D01*
X85238617Y-96117514D01*
X85240726Y-96113531D01*
X85473116Y-95633878D01*
X85474941Y-95629741D01*
X85672446Y-95134690D01*
X85673961Y-95130460D01*
X85835567Y-94622549D01*
X85836781Y-94618202D01*
X85961661Y-94100034D01*
X85962555Y-94095638D01*
X86050064Y-93569885D01*
X86050649Y-93565380D01*
X86100363Y-93034517D01*
X86100613Y-93030439D01*
X86112954Y-92602024D01*
X86112939Y-92597967D01*
X86093866Y-92065096D01*
X86093544Y-92060601D01*
X86036442Y-91530662D01*
X86035800Y-91526211D01*
X85940955Y-91001710D01*
X85939999Y-90997327D01*
X85807892Y-90480933D01*
X85806630Y-90476645D01*
X85637938Y-89971015D01*
X85636370Y-89966818D01*
X85431966Y-89474558D01*
X85430088Y-89470456D01*
X85191023Y-88994094D01*
X85188855Y-88990133D01*
X84916347Y-88532090D01*
X84913891Y-88528279D01*
X84609331Y-88090890D01*
X84606624Y-88087284D01*
X84271552Y-87672765D01*
X84268609Y-87669380D01*
X84098034Y-87486780D01*
X84084361Y-87478698D01*
X84083667Y-87478724D01*
X84075320Y-87483890D01*
X78972022Y-92587188D01*
X78964408Y-92601132D01*
X78234356Y-92601132D01*
X78235592Y-92598868D01*
X78235461Y-92597035D01*
X78231210Y-92590420D01*
X73127007Y-87486217D01*
X73113063Y-87478603D01*
X73112606Y-87478635D01*
X73104130Y-87484332D01*
X72897104Y-87709077D01*
X72894190Y-87712477D01*
X72562015Y-88129331D01*
X72559344Y-88132941D01*
X72257831Y-88572465D01*
X72255409Y-88576283D01*
X71986107Y-89036216D01*
X71983964Y-89040196D01*
X71748233Y-89518211D01*
X71746376Y-89522343D01*
X71545427Y-90015984D01*
X71543874Y-90020230D01*
X71378729Y-90526984D01*
X71377484Y-90531326D01*
X71248991Y-91048608D01*
X71248067Y-91052991D01*
X71156885Y-91578152D01*
X71156274Y-91582609D01*
X71102873Y-92112930D01*
X71102583Y-92117413D01*
X71087236Y-92650201D01*
X61111566Y-92650201D01*
X61112954Y-92602024D01*
X61112939Y-92597967D01*
X61093866Y-92065096D01*
X61093544Y-92060601D01*
X61036442Y-91530662D01*
X61035800Y-91526211D01*
X60940955Y-91001710D01*
X60939999Y-90997327D01*
X60807892Y-90480933D01*
X60806630Y-90476645D01*
X60637938Y-89971015D01*
X60636370Y-89966818D01*
X60431966Y-89474558D01*
X60430088Y-89470456D01*
X60191023Y-88994094D01*
X60188855Y-88990133D01*
X59916347Y-88532090D01*
X59913891Y-88528279D01*
X59609331Y-88090890D01*
X59606624Y-88087284D01*
X59271552Y-87672765D01*
X59268609Y-87669380D01*
X59098034Y-87486780D01*
X59084361Y-87478698D01*
X59083667Y-87478724D01*
X59075320Y-87483890D01*
X53972022Y-92587188D01*
X53964408Y-92601132D01*
X53234356Y-92601132D01*
X53235592Y-92598868D01*
X53235461Y-92597035D01*
X53231210Y-92590420D01*
X48127007Y-87486217D01*
X48113063Y-87478603D01*
X48112606Y-87478635D01*
X48104130Y-87484332D01*
X47897104Y-87709077D01*
X47894190Y-87712477D01*
X47562015Y-88129331D01*
X47559344Y-88132941D01*
X47257831Y-88572465D01*
X47255409Y-88576283D01*
X46986107Y-89036216D01*
X46983964Y-89040196D01*
X46748233Y-89518211D01*
X46746376Y-89522343D01*
X46545427Y-90015984D01*
X46543874Y-90020230D01*
X46378729Y-90526984D01*
X46377484Y-90531326D01*
X46248991Y-91048608D01*
X46248067Y-91052991D01*
X46156885Y-91578152D01*
X46156274Y-91582609D01*
X46102873Y-92112930D01*
X46102583Y-92117413D01*
X46087236Y-92650201D01*
X36111566Y-92650201D01*
X36112954Y-92602024D01*
X36112939Y-92597967D01*
X36093866Y-92065096D01*
X36093544Y-92060601D01*
X36036442Y-91530662D01*
X36035800Y-91526211D01*
X35940955Y-91001710D01*
X35939999Y-90997327D01*
X35807892Y-90480933D01*
X35806630Y-90476645D01*
X35637938Y-89971015D01*
X35636370Y-89966818D01*
X35431966Y-89474558D01*
X35430088Y-89470456D01*
X35191023Y-88994094D01*
X35188855Y-88990133D01*
X34916347Y-88532090D01*
X34913891Y-88528279D01*
X34609331Y-88090890D01*
X34606624Y-88087284D01*
X34271552Y-87672765D01*
X34268609Y-87669380D01*
X34098034Y-87486780D01*
X34084361Y-87478698D01*
X34083667Y-87478724D01*
X34075320Y-87483890D01*
X28972022Y-92587188D01*
X28964408Y-92601132D01*
X28234356Y-92601132D01*
X28235592Y-92598868D01*
X28235461Y-92597035D01*
X28231210Y-92590420D01*
X23127007Y-87486217D01*
X23113063Y-87478603D01*
X23112606Y-87478635D01*
X23104130Y-87484332D01*
X22897104Y-87709077D01*
X22894190Y-87712477D01*
X22562015Y-88129331D01*
X22559344Y-88132941D01*
X22257831Y-88572465D01*
X22255409Y-88576283D01*
X21986107Y-89036216D01*
X21983964Y-89040196D01*
X21748233Y-89518211D01*
X21746376Y-89522343D01*
X21545427Y-90015984D01*
X21543874Y-90020230D01*
X21378729Y-90526984D01*
X21377484Y-90531326D01*
X21248991Y-91048608D01*
X21248067Y-91052991D01*
X21156885Y-91578152D01*
X21156274Y-91582609D01*
X21102873Y-92112930D01*
X21102583Y-92117413D01*
X21087236Y-92650201D01*
X16608500Y-92650201D01*
X16608500Y-87115591D01*
X23478674Y-87115591D01*
X23478707Y-87116404D01*
X23483783Y-87124573D01*
X28587188Y-92227978D01*
X28601132Y-92235592D01*
X28602965Y-92235461D01*
X28609580Y-92231210D01*
X33713682Y-87127108D01*
X33719971Y-87115591D01*
X48478674Y-87115591D01*
X48478707Y-87116404D01*
X48483783Y-87124573D01*
X53587188Y-92227978D01*
X53601132Y-92235592D01*
X53602965Y-92235461D01*
X53609580Y-92231210D01*
X58713682Y-87127108D01*
X58719971Y-87115591D01*
X73478674Y-87115591D01*
X73478707Y-87116404D01*
X73483783Y-87124573D01*
X78587188Y-92227978D01*
X78601132Y-92235592D01*
X78602965Y-92235461D01*
X78609580Y-92231210D01*
X83713682Y-87127108D01*
X83721296Y-87113164D01*
X83721255Y-87112590D01*
X83715684Y-87104268D01*
X83510818Y-86914228D01*
X83507387Y-86911267D01*
X83091729Y-86577666D01*
X83088115Y-86574972D01*
X82649654Y-86271933D01*
X82645835Y-86269490D01*
X82186846Y-85998585D01*
X82182877Y-85996430D01*
X81705679Y-85759028D01*
X81701575Y-85757166D01*
X81208610Y-85554483D01*
X81204395Y-85552924D01*
X80698199Y-85386006D01*
X80693883Y-85384752D01*
X80177042Y-85254451D01*
X80172665Y-85253513D01*
X79647822Y-85160496D01*
X79643365Y-85159870D01*
X79113241Y-85104620D01*
X79108747Y-85104313D01*
X78576027Y-85087107D01*
X78571530Y-85087122D01*
X78038927Y-85108048D01*
X78034451Y-85108384D01*
X77504713Y-85167336D01*
X77500261Y-85167994D01*
X76976106Y-85264667D01*
X76971701Y-85265643D01*
X76455801Y-85399545D01*
X76451490Y-85400830D01*
X75946471Y-85571278D01*
X75942259Y-85572870D01*
X75450723Y-85778988D01*
X75446647Y-85780871D01*
X74971109Y-86021605D01*
X74967158Y-86023786D01*
X74510063Y-86297893D01*
X74506267Y-86300358D01*
X74069930Y-86606452D01*
X74066347Y-86609162D01*
X73653007Y-86945674D01*
X73649617Y-86948642D01*
X73486708Y-87101891D01*
X73478674Y-87115591D01*
X58719971Y-87115591D01*
X58721296Y-87113164D01*
X58721255Y-87112590D01*
X58715684Y-87104268D01*
X58510818Y-86914228D01*
X58507387Y-86911267D01*
X58091729Y-86577666D01*
X58088115Y-86574972D01*
X57649654Y-86271933D01*
X57645835Y-86269490D01*
X57186846Y-85998585D01*
X57182877Y-85996430D01*
X56705679Y-85759028D01*
X56701575Y-85757166D01*
X56208610Y-85554483D01*
X56204395Y-85552924D01*
X55698199Y-85386006D01*
X55693883Y-85384752D01*
X55177042Y-85254451D01*
X55172665Y-85253513D01*
X54647822Y-85160496D01*
X54643365Y-85159870D01*
X54113241Y-85104620D01*
X54108747Y-85104313D01*
X53576027Y-85087107D01*
X53571530Y-85087122D01*
X53038927Y-85108048D01*
X53034451Y-85108384D01*
X52504713Y-85167336D01*
X52500261Y-85167994D01*
X51976106Y-85264667D01*
X51971701Y-85265643D01*
X51455801Y-85399545D01*
X51451490Y-85400830D01*
X50946471Y-85571278D01*
X50942259Y-85572870D01*
X50450723Y-85778988D01*
X50446647Y-85780871D01*
X49971109Y-86021605D01*
X49967158Y-86023786D01*
X49510063Y-86297893D01*
X49506267Y-86300358D01*
X49069930Y-86606452D01*
X49066347Y-86609162D01*
X48653007Y-86945674D01*
X48649617Y-86948642D01*
X48486708Y-87101891D01*
X48478674Y-87115591D01*
X33719971Y-87115591D01*
X33721296Y-87113164D01*
X33721255Y-87112590D01*
X33715684Y-87104268D01*
X33510818Y-86914228D01*
X33507387Y-86911267D01*
X33091729Y-86577666D01*
X33088115Y-86574972D01*
X32649654Y-86271933D01*
X32645835Y-86269490D01*
X32186846Y-85998585D01*
X32182877Y-85996430D01*
X31705679Y-85759028D01*
X31701575Y-85757166D01*
X31208610Y-85554483D01*
X31204395Y-85552924D01*
X30698199Y-85386006D01*
X30693883Y-85384752D01*
X30177042Y-85254451D01*
X30172665Y-85253513D01*
X29647822Y-85160496D01*
X29643365Y-85159870D01*
X29113241Y-85104620D01*
X29108747Y-85104313D01*
X28576027Y-85087107D01*
X28571530Y-85087122D01*
X28038927Y-85108048D01*
X28034451Y-85108384D01*
X27504713Y-85167336D01*
X27500261Y-85167994D01*
X26976106Y-85264667D01*
X26971701Y-85265643D01*
X26455801Y-85399545D01*
X26451490Y-85400830D01*
X25946471Y-85571278D01*
X25942259Y-85572870D01*
X25450723Y-85778988D01*
X25446647Y-85780871D01*
X24971109Y-86021605D01*
X24967158Y-86023786D01*
X24510063Y-86297893D01*
X24506267Y-86300358D01*
X24069930Y-86606452D01*
X24066347Y-86609162D01*
X23653007Y-86945674D01*
X23649617Y-86948642D01*
X23486708Y-87101891D01*
X23478674Y-87115591D01*
X16608500Y-87115591D01*
X16608500Y-73087102D01*
X23478438Y-73087102D01*
X23478462Y-73087441D01*
X23484285Y-73096073D01*
X23728991Y-73319913D01*
X23732445Y-73322852D01*
X24150430Y-73653550D01*
X24154067Y-73656222D01*
X24594618Y-73956182D01*
X24598446Y-73958593D01*
X25059337Y-74226300D01*
X25063309Y-74228421D01*
X25542148Y-74462483D01*
X25546284Y-74464325D01*
X26040627Y-74663551D01*
X26044871Y-74665087D01*
X26552218Y-74828467D01*
X26556539Y-74829689D01*
X27074254Y-74956374D01*
X27078695Y-74957294D01*
X27604141Y-75046637D01*
X27608595Y-75047232D01*
X28139106Y-75098782D01*
X28143579Y-75099056D01*
X28676427Y-75112543D01*
X28680930Y-75112496D01*
X29213352Y-75087853D01*
X29217836Y-75087485D01*
X29747152Y-75024836D01*
X29751591Y-75024149D01*
X30275087Y-74923814D01*
X30279446Y-74922815D01*
X30794414Y-74785311D01*
X30798727Y-74783992D01*
X31302525Y-74610028D01*
X31306740Y-74608402D01*
X31796805Y-74398866D01*
X31800892Y-74396943D01*
X32274731Y-74152900D01*
X32278658Y-74150696D01*
X32733828Y-73873404D01*
X32737624Y-73870901D01*
X33171786Y-73561788D01*
X33175372Y-73559036D01*
X33586362Y-73219640D01*
X33589705Y-73216672D01*
X33713630Y-73098453D01*
X33720179Y-73087102D01*
X48478438Y-73087102D01*
X48478462Y-73087441D01*
X48484285Y-73096073D01*
X48728991Y-73319913D01*
X48732445Y-73322852D01*
X49150430Y-73653550D01*
X49154067Y-73656222D01*
X49594618Y-73956182D01*
X49598446Y-73958593D01*
X50059337Y-74226300D01*
X50063309Y-74228421D01*
X50542148Y-74462483D01*
X50546284Y-74464325D01*
X51040627Y-74663551D01*
X51044871Y-74665087D01*
X51552218Y-74828467D01*
X51556539Y-74829689D01*
X52074254Y-74956374D01*
X52078695Y-74957294D01*
X52604141Y-75046637D01*
X52608595Y-75047232D01*
X53139106Y-75098782D01*
X53143579Y-75099056D01*
X53676427Y-75112543D01*
X53680930Y-75112496D01*
X54213352Y-75087853D01*
X54217836Y-75087485D01*
X54747152Y-75024836D01*
X54751591Y-75024149D01*
X55275087Y-74923814D01*
X55279446Y-74922815D01*
X55794414Y-74785311D01*
X55798727Y-74783992D01*
X56302525Y-74610028D01*
X56306740Y-74608402D01*
X56796805Y-74398866D01*
X56800892Y-74396943D01*
X57274731Y-74152900D01*
X57278658Y-74150696D01*
X57733828Y-73873404D01*
X57737624Y-73870901D01*
X58171786Y-73561788D01*
X58175372Y-73559036D01*
X58586362Y-73219640D01*
X58589705Y-73216672D01*
X58713630Y-73098453D01*
X58720179Y-73087102D01*
X73478438Y-73087102D01*
X73478462Y-73087441D01*
X73484285Y-73096073D01*
X73728991Y-73319913D01*
X73732445Y-73322852D01*
X74150430Y-73653550D01*
X74154067Y-73656222D01*
X74594618Y-73956182D01*
X74598446Y-73958593D01*
X75059337Y-74226300D01*
X75063309Y-74228421D01*
X75542148Y-74462483D01*
X75546284Y-74464325D01*
X76040627Y-74663551D01*
X76044871Y-74665087D01*
X76552218Y-74828467D01*
X76556539Y-74829689D01*
X77074254Y-74956374D01*
X77078695Y-74957294D01*
X77604141Y-75046637D01*
X77608595Y-75047232D01*
X78139106Y-75098782D01*
X78143579Y-75099056D01*
X78676427Y-75112543D01*
X78680930Y-75112496D01*
X79213352Y-75087853D01*
X79217836Y-75087485D01*
X79747152Y-75024836D01*
X79751591Y-75024149D01*
X80275087Y-74923814D01*
X80279446Y-74922815D01*
X80794414Y-74785311D01*
X80798727Y-74783992D01*
X81302525Y-74610028D01*
X81306740Y-74608402D01*
X81796805Y-74398866D01*
X81800892Y-74396943D01*
X82274731Y-74152900D01*
X82278658Y-74150696D01*
X82733828Y-73873404D01*
X82737624Y-73870901D01*
X83171786Y-73561788D01*
X83175372Y-73559036D01*
X83586362Y-73219640D01*
X83589705Y-73216672D01*
X83713630Y-73098453D01*
X83721568Y-73084695D01*
X83721518Y-73083649D01*
X83716625Y-73075835D01*
X78612812Y-67972022D01*
X78598868Y-67964408D01*
X78597035Y-67964539D01*
X78590420Y-67968790D01*
X73486052Y-73073158D01*
X73478438Y-73087102D01*
X58720179Y-73087102D01*
X58721568Y-73084695D01*
X58721518Y-73083649D01*
X58716625Y-73075835D01*
X53612812Y-67972022D01*
X53598868Y-67964408D01*
X53597035Y-67964539D01*
X53590420Y-67968790D01*
X48486052Y-73073158D01*
X48478438Y-73087102D01*
X33720179Y-73087102D01*
X33721568Y-73084695D01*
X33721518Y-73083649D01*
X33716625Y-73075835D01*
X28612812Y-67972022D01*
X28598868Y-67964408D01*
X28597035Y-67964539D01*
X28590420Y-67968790D01*
X23486052Y-73073158D01*
X23478438Y-73087102D01*
X16608500Y-73087102D01*
X16608500Y-67650201D01*
X21087236Y-67650201D01*
X21087267Y-67654699D01*
X21110052Y-68187215D01*
X21110404Y-68191696D01*
X21171206Y-68721240D01*
X21171874Y-68725659D01*
X21270381Y-69249497D01*
X21271370Y-69253884D01*
X21407070Y-69769308D01*
X21408381Y-69773648D01*
X21580581Y-70278039D01*
X21582188Y-70282249D01*
X21790028Y-70773079D01*
X21791917Y-70777129D01*
X22034314Y-71251836D01*
X22036507Y-71255776D01*
X22312217Y-71711925D01*
X22314678Y-71715685D01*
X22622290Y-72150947D01*
X22625036Y-72154552D01*
X22962987Y-72566712D01*
X22965944Y-72570066D01*
X23101751Y-72713428D01*
X23115482Y-72721415D01*
X23116410Y-72721374D01*
X23124399Y-72716391D01*
X28227978Y-67612812D01*
X28234356Y-67601132D01*
X28964408Y-67601132D01*
X28964539Y-67602965D01*
X28968790Y-67609580D01*
X34073389Y-72714179D01*
X34087333Y-72721793D01*
X34087556Y-72721778D01*
X34096338Y-72715831D01*
X34336905Y-72450987D01*
X34339793Y-72447570D01*
X34669044Y-72028414D01*
X34671701Y-72024771D01*
X34970130Y-71583164D01*
X34972526Y-71579329D01*
X35238617Y-71117514D01*
X35240726Y-71113531D01*
X35473116Y-70633878D01*
X35474941Y-70629741D01*
X35672446Y-70134690D01*
X35673961Y-70130460D01*
X35835567Y-69622549D01*
X35836781Y-69618202D01*
X35961661Y-69100034D01*
X35962555Y-69095638D01*
X36050064Y-68569885D01*
X36050649Y-68565380D01*
X36100363Y-68034517D01*
X36100613Y-68030439D01*
X36111566Y-67650201D01*
X46087236Y-67650201D01*
X46087267Y-67654699D01*
X46110052Y-68187215D01*
X46110404Y-68191696D01*
X46171206Y-68721240D01*
X46171874Y-68725659D01*
X46270381Y-69249497D01*
X46271370Y-69253884D01*
X46407070Y-69769308D01*
X46408381Y-69773648D01*
X46580581Y-70278039D01*
X46582188Y-70282249D01*
X46790028Y-70773079D01*
X46791917Y-70777129D01*
X47034314Y-71251836D01*
X47036507Y-71255776D01*
X47312217Y-71711925D01*
X47314678Y-71715685D01*
X47622290Y-72150947D01*
X47625036Y-72154552D01*
X47962987Y-72566712D01*
X47965944Y-72570066D01*
X48101751Y-72713428D01*
X48115482Y-72721415D01*
X48116410Y-72721374D01*
X48124399Y-72716391D01*
X53227978Y-67612812D01*
X53234356Y-67601132D01*
X53964408Y-67601132D01*
X53964539Y-67602965D01*
X53968790Y-67609580D01*
X59073389Y-72714179D01*
X59087333Y-72721793D01*
X59087556Y-72721778D01*
X59096338Y-72715831D01*
X59336905Y-72450987D01*
X59339793Y-72447570D01*
X59669044Y-72028414D01*
X59671701Y-72024771D01*
X59970130Y-71583164D01*
X59972526Y-71579329D01*
X60238617Y-71117514D01*
X60240726Y-71113531D01*
X60473116Y-70633878D01*
X60474941Y-70629741D01*
X60672446Y-70134690D01*
X60673961Y-70130460D01*
X60835567Y-69622549D01*
X60836781Y-69618202D01*
X60961661Y-69100034D01*
X60962555Y-69095638D01*
X61050064Y-68569885D01*
X61050649Y-68565380D01*
X61100363Y-68034517D01*
X61100613Y-68030439D01*
X61111566Y-67650201D01*
X71087236Y-67650201D01*
X71087267Y-67654699D01*
X71110052Y-68187215D01*
X71110404Y-68191696D01*
X71171206Y-68721240D01*
X71171874Y-68725659D01*
X71270381Y-69249497D01*
X71271370Y-69253884D01*
X71407070Y-69769308D01*
X71408381Y-69773648D01*
X71580581Y-70278039D01*
X71582188Y-70282249D01*
X71790028Y-70773079D01*
X71791917Y-70777129D01*
X72034314Y-71251836D01*
X72036507Y-71255776D01*
X72312217Y-71711925D01*
X72314678Y-71715685D01*
X72622290Y-72150947D01*
X72625036Y-72154552D01*
X72962987Y-72566712D01*
X72965944Y-72570066D01*
X73101751Y-72713428D01*
X73115482Y-72721415D01*
X73116410Y-72721374D01*
X73124399Y-72716391D01*
X78227978Y-67612812D01*
X78234356Y-67601132D01*
X78964408Y-67601132D01*
X78964539Y-67602965D01*
X78968790Y-67609580D01*
X84073389Y-72714179D01*
X84087333Y-72721793D01*
X84087556Y-72721778D01*
X84096338Y-72715831D01*
X84336905Y-72450987D01*
X84339793Y-72447570D01*
X84669044Y-72028414D01*
X84671701Y-72024771D01*
X84970130Y-71583164D01*
X84972526Y-71579329D01*
X85238617Y-71117514D01*
X85240726Y-71113531D01*
X85473116Y-70633878D01*
X85474941Y-70629741D01*
X85672446Y-70134690D01*
X85673961Y-70130460D01*
X85835567Y-69622549D01*
X85836781Y-69618202D01*
X85961661Y-69100034D01*
X85962555Y-69095638D01*
X86050064Y-68569885D01*
X86050649Y-68565380D01*
X86100363Y-68034517D01*
X86100613Y-68030439D01*
X86112954Y-67602024D01*
X86112939Y-67597967D01*
X86093866Y-67065096D01*
X86093544Y-67060601D01*
X86036442Y-66530662D01*
X86035800Y-66526211D01*
X85940955Y-66001710D01*
X85939999Y-65997327D01*
X85807892Y-65480933D01*
X85806630Y-65476645D01*
X85637938Y-64971015D01*
X85636370Y-64966818D01*
X85431966Y-64474558D01*
X85430088Y-64470456D01*
X85191023Y-63994094D01*
X85188855Y-63990133D01*
X84916347Y-63532090D01*
X84913891Y-63528279D01*
X84609331Y-63090890D01*
X84606624Y-63087284D01*
X84271552Y-62672765D01*
X84268609Y-62669380D01*
X84098034Y-62486780D01*
X84084361Y-62478698D01*
X84083667Y-62478724D01*
X84075320Y-62483890D01*
X78972022Y-67587188D01*
X78964408Y-67601132D01*
X78234356Y-67601132D01*
X78235592Y-67598868D01*
X78235461Y-67597035D01*
X78231210Y-67590420D01*
X73127007Y-62486217D01*
X73113063Y-62478603D01*
X73112606Y-62478635D01*
X73104130Y-62484332D01*
X72897104Y-62709077D01*
X72894190Y-62712477D01*
X72562015Y-63129331D01*
X72559344Y-63132941D01*
X72257831Y-63572465D01*
X72255409Y-63576283D01*
X71986107Y-64036216D01*
X71983964Y-64040196D01*
X71748233Y-64518211D01*
X71746376Y-64522343D01*
X71545427Y-65015984D01*
X71543874Y-65020230D01*
X71378729Y-65526984D01*
X71377484Y-65531326D01*
X71248991Y-66048608D01*
X71248067Y-66052991D01*
X71156885Y-66578152D01*
X71156274Y-66582609D01*
X71102873Y-67112930D01*
X71102583Y-67117413D01*
X71087236Y-67650201D01*
X61111566Y-67650201D01*
X61112954Y-67602024D01*
X61112939Y-67597967D01*
X61093866Y-67065096D01*
X61093544Y-67060601D01*
X61036442Y-66530662D01*
X61035800Y-66526211D01*
X60940955Y-66001710D01*
X60939999Y-65997327D01*
X60807892Y-65480933D01*
X60806630Y-65476645D01*
X60637938Y-64971015D01*
X60636370Y-64966818D01*
X60431966Y-64474558D01*
X60430088Y-64470456D01*
X60191023Y-63994094D01*
X60188855Y-63990133D01*
X59916347Y-63532090D01*
X59913891Y-63528279D01*
X59609331Y-63090890D01*
X59606624Y-63087284D01*
X59271552Y-62672765D01*
X59268609Y-62669380D01*
X59098034Y-62486780D01*
X59084361Y-62478698D01*
X59083667Y-62478724D01*
X59075320Y-62483890D01*
X53972022Y-67587188D01*
X53964408Y-67601132D01*
X53234356Y-67601132D01*
X53235592Y-67598868D01*
X53235461Y-67597035D01*
X53231210Y-67590420D01*
X48127007Y-62486217D01*
X48113063Y-62478603D01*
X48112606Y-62478635D01*
X48104130Y-62484332D01*
X47897104Y-62709077D01*
X47894190Y-62712477D01*
X47562015Y-63129331D01*
X47559344Y-63132941D01*
X47257831Y-63572465D01*
X47255409Y-63576283D01*
X46986107Y-64036216D01*
X46983964Y-64040196D01*
X46748233Y-64518211D01*
X46746376Y-64522343D01*
X46545427Y-65015984D01*
X46543874Y-65020230D01*
X46378729Y-65526984D01*
X46377484Y-65531326D01*
X46248991Y-66048608D01*
X46248067Y-66052991D01*
X46156885Y-66578152D01*
X46156274Y-66582609D01*
X46102873Y-67112930D01*
X46102583Y-67117413D01*
X46087236Y-67650201D01*
X36111566Y-67650201D01*
X36112954Y-67602024D01*
X36112939Y-67597967D01*
X36093866Y-67065096D01*
X36093544Y-67060601D01*
X36036442Y-66530662D01*
X36035800Y-66526211D01*
X35940955Y-66001710D01*
X35939999Y-65997327D01*
X35807892Y-65480933D01*
X35806630Y-65476645D01*
X35637938Y-64971015D01*
X35636370Y-64966818D01*
X35431966Y-64474558D01*
X35430088Y-64470456D01*
X35191023Y-63994094D01*
X35188855Y-63990133D01*
X34916347Y-63532090D01*
X34913891Y-63528279D01*
X34609331Y-63090890D01*
X34606624Y-63087284D01*
X34271552Y-62672765D01*
X34268609Y-62669380D01*
X34098034Y-62486780D01*
X34084361Y-62478698D01*
X34083667Y-62478724D01*
X34075320Y-62483890D01*
X28972022Y-67587188D01*
X28964408Y-67601132D01*
X28234356Y-67601132D01*
X28235592Y-67598868D01*
X28235461Y-67597035D01*
X28231210Y-67590420D01*
X23127007Y-62486217D01*
X23113063Y-62478603D01*
X23112606Y-62478635D01*
X23104130Y-62484332D01*
X22897104Y-62709077D01*
X22894190Y-62712477D01*
X22562015Y-63129331D01*
X22559344Y-63132941D01*
X22257831Y-63572465D01*
X22255409Y-63576283D01*
X21986107Y-64036216D01*
X21983964Y-64040196D01*
X21748233Y-64518211D01*
X21746376Y-64522343D01*
X21545427Y-65015984D01*
X21543874Y-65020230D01*
X21378729Y-65526984D01*
X21377484Y-65531326D01*
X21248991Y-66048608D01*
X21248067Y-66052991D01*
X21156885Y-66578152D01*
X21156274Y-66582609D01*
X21102873Y-67112930D01*
X21102583Y-67117413D01*
X21087236Y-67650201D01*
X16608500Y-67650201D01*
X16608500Y-62115591D01*
X23478674Y-62115591D01*
X23478707Y-62116404D01*
X23483783Y-62124573D01*
X28587188Y-67227978D01*
X28601132Y-67235592D01*
X28602965Y-67235461D01*
X28609580Y-67231210D01*
X33713682Y-62127108D01*
X33719971Y-62115591D01*
X48478674Y-62115591D01*
X48478707Y-62116404D01*
X48483783Y-62124573D01*
X53587188Y-67227978D01*
X53601132Y-67235592D01*
X53602965Y-67235461D01*
X53609580Y-67231210D01*
X58713682Y-62127108D01*
X58719971Y-62115591D01*
X73478674Y-62115591D01*
X73478707Y-62116404D01*
X73483783Y-62124573D01*
X78587188Y-67227978D01*
X78601132Y-67235592D01*
X78602965Y-67235461D01*
X78609580Y-67231210D01*
X83713682Y-62127108D01*
X83721296Y-62113164D01*
X83721255Y-62112590D01*
X83715684Y-62104268D01*
X83510818Y-61914228D01*
X83507387Y-61911267D01*
X83091729Y-61577666D01*
X83088115Y-61574972D01*
X82649654Y-61271933D01*
X82645835Y-61269490D01*
X82186846Y-60998585D01*
X82182877Y-60996430D01*
X81705679Y-60759028D01*
X81701575Y-60757166D01*
X81208610Y-60554483D01*
X81204395Y-60552924D01*
X80698199Y-60386006D01*
X80693883Y-60384752D01*
X80177042Y-60254451D01*
X80172665Y-60253513D01*
X79647822Y-60160496D01*
X79643365Y-60159870D01*
X79113241Y-60104620D01*
X79108747Y-60104313D01*
X78576027Y-60087107D01*
X78571530Y-60087122D01*
X78038927Y-60108048D01*
X78034451Y-60108384D01*
X77504713Y-60167336D01*
X77500261Y-60167994D01*
X76976106Y-60264667D01*
X76971701Y-60265643D01*
X76455801Y-60399545D01*
X76451490Y-60400830D01*
X75946471Y-60571278D01*
X75942259Y-60572870D01*
X75450723Y-60778988D01*
X75446647Y-60780871D01*
X74971109Y-61021605D01*
X74967158Y-61023786D01*
X74510063Y-61297893D01*
X74506267Y-61300358D01*
X74069930Y-61606452D01*
X74066347Y-61609162D01*
X73653007Y-61945674D01*
X73649617Y-61948642D01*
X73486708Y-62101891D01*
X73478674Y-62115591D01*
X58719971Y-62115591D01*
X58721296Y-62113164D01*
X58721255Y-62112590D01*
X58715684Y-62104268D01*
X58510818Y-61914228D01*
X58507387Y-61911267D01*
X58091729Y-61577666D01*
X58088115Y-61574972D01*
X57649654Y-61271933D01*
X57645835Y-61269490D01*
X57186846Y-60998585D01*
X57182877Y-60996430D01*
X56705679Y-60759028D01*
X56701575Y-60757166D01*
X56208610Y-60554483D01*
X56204395Y-60552924D01*
X55698199Y-60386006D01*
X55693883Y-60384752D01*
X55177042Y-60254451D01*
X55172665Y-60253513D01*
X54647822Y-60160496D01*
X54643365Y-60159870D01*
X54113241Y-60104620D01*
X54108747Y-60104313D01*
X53576027Y-60087107D01*
X53571530Y-60087122D01*
X53038927Y-60108048D01*
X53034451Y-60108384D01*
X52504713Y-60167336D01*
X52500261Y-60167994D01*
X51976106Y-60264667D01*
X51971701Y-60265643D01*
X51455801Y-60399545D01*
X51451490Y-60400830D01*
X50946471Y-60571278D01*
X50942259Y-60572870D01*
X50450723Y-60778988D01*
X50446647Y-60780871D01*
X49971109Y-61021605D01*
X49967158Y-61023786D01*
X49510063Y-61297893D01*
X49506267Y-61300358D01*
X49069930Y-61606452D01*
X49066347Y-61609162D01*
X48653007Y-61945674D01*
X48649617Y-61948642D01*
X48486708Y-62101891D01*
X48478674Y-62115591D01*
X33719971Y-62115591D01*
X33721296Y-62113164D01*
X33721255Y-62112590D01*
X33715684Y-62104268D01*
X33510818Y-61914228D01*
X33507387Y-61911267D01*
X33091729Y-61577666D01*
X33088115Y-61574972D01*
X32649654Y-61271933D01*
X32645835Y-61269490D01*
X32186846Y-60998585D01*
X32182877Y-60996430D01*
X31705679Y-60759028D01*
X31701575Y-60757166D01*
X31208610Y-60554483D01*
X31204395Y-60552924D01*
X30698199Y-60386006D01*
X30693883Y-60384752D01*
X30177042Y-60254451D01*
X30172665Y-60253513D01*
X29647822Y-60160496D01*
X29643365Y-60159870D01*
X29113241Y-60104620D01*
X29108747Y-60104313D01*
X28576027Y-60087107D01*
X28571530Y-60087122D01*
X28038927Y-60108048D01*
X28034451Y-60108384D01*
X27504713Y-60167336D01*
X27500261Y-60167994D01*
X26976106Y-60264667D01*
X26971701Y-60265643D01*
X26455801Y-60399545D01*
X26451490Y-60400830D01*
X25946471Y-60571278D01*
X25942259Y-60572870D01*
X25450723Y-60778988D01*
X25446647Y-60780871D01*
X24971109Y-61021605D01*
X24967158Y-61023786D01*
X24510063Y-61297893D01*
X24506267Y-61300358D01*
X24069930Y-61606452D01*
X24066347Y-61609162D01*
X23653007Y-61945674D01*
X23649617Y-61948642D01*
X23486708Y-62101891D01*
X23478674Y-62115591D01*
X16608500Y-62115591D01*
X16608500Y-41317924D01*
X25247616Y-41317924D01*
X25247665Y-41318616D01*
X25253111Y-41326781D01*
X25342226Y-41410027D01*
X25346503Y-41413681D01*
X25693829Y-41684553D01*
X25698386Y-41687792D01*
X26068432Y-41926727D01*
X26073261Y-41929549D01*
X26463048Y-42134626D01*
X26468150Y-42137027D01*
X26874633Y-42306647D01*
X26879888Y-42308570D01*
X27299860Y-42441389D01*
X27305259Y-42442836D01*
X27735375Y-42537796D01*
X27740886Y-42538758D01*
X28177749Y-42595110D01*
X28183312Y-42595577D01*
X28623453Y-42612869D01*
X28629045Y-42612840D01*
X29068965Y-42590940D01*
X29074548Y-42590412D01*
X29510788Y-42529490D01*
X29516275Y-42528473D01*
X29945381Y-42429012D01*
X29950767Y-42427508D01*
X30369333Y-42290296D01*
X30374550Y-42288324D01*
X30779260Y-42114447D01*
X30784303Y-42112009D01*
X31171943Y-41902850D01*
X31176747Y-41899975D01*
X31544239Y-41657198D01*
X31548802Y-41653883D01*
X31893266Y-41379393D01*
X31897481Y-41375716D01*
X31945286Y-41330112D01*
X31952319Y-41317924D01*
X75247616Y-41317924D01*
X75247665Y-41318616D01*
X75253111Y-41326781D01*
X75342226Y-41410027D01*
X75346503Y-41413681D01*
X75693829Y-41684553D01*
X75698386Y-41687792D01*
X76068432Y-41926727D01*
X76073261Y-41929549D01*
X76463048Y-42134626D01*
X76468150Y-42137027D01*
X76874633Y-42306647D01*
X76879888Y-42308570D01*
X77299860Y-42441389D01*
X77305259Y-42442836D01*
X77735375Y-42537796D01*
X77740886Y-42538758D01*
X78177749Y-42595110D01*
X78183312Y-42595577D01*
X78623453Y-42612869D01*
X78629045Y-42612840D01*
X79068965Y-42590940D01*
X79074548Y-42590412D01*
X79510788Y-42529490D01*
X79516275Y-42528473D01*
X79945381Y-42429012D01*
X79950767Y-42427508D01*
X80369333Y-42290296D01*
X80374550Y-42288324D01*
X80779260Y-42114447D01*
X80784303Y-42112009D01*
X81171943Y-41902850D01*
X81176747Y-41899975D01*
X81544239Y-41657198D01*
X81548802Y-41653883D01*
X81893266Y-41379393D01*
X81897481Y-41375716D01*
X81945286Y-41330112D01*
X81953226Y-41316352D01*
X81953176Y-41315307D01*
X81948285Y-41307495D01*
X78612812Y-37972022D01*
X78598868Y-37964408D01*
X78597035Y-37964539D01*
X78590420Y-37968790D01*
X75255230Y-41303980D01*
X75247616Y-41317924D01*
X31952319Y-41317924D01*
X31953226Y-41316352D01*
X31953176Y-41315307D01*
X31948285Y-41307495D01*
X28612812Y-37972022D01*
X28598868Y-37964408D01*
X28597035Y-37964539D01*
X28590420Y-37968790D01*
X25255230Y-41303980D01*
X25247616Y-41317924D01*
X16608500Y-41317924D01*
X16608500Y-37471585D01*
X23588722Y-37471585D01*
X23596793Y-37911981D01*
X23597143Y-37917547D01*
X23644333Y-38355491D01*
X23645180Y-38361030D01*
X23731112Y-38793042D01*
X23732441Y-38798453D01*
X23856444Y-39221138D01*
X23858250Y-39226413D01*
X24019326Y-39636377D01*
X24021608Y-39641501D01*
X24218485Y-40035516D01*
X24221209Y-40040409D01*
X24452333Y-40415363D01*
X24455484Y-40419999D01*
X24719031Y-40772931D01*
X24722564Y-40777248D01*
X24871583Y-40943625D01*
X24885079Y-40951989D01*
X24894491Y-40946299D01*
X28227978Y-37612812D01*
X28234356Y-37601132D01*
X28964408Y-37601132D01*
X28964539Y-37602965D01*
X28968790Y-37609580D01*
X32303870Y-40944660D01*
X32317631Y-40952174D01*
X32326992Y-40945716D01*
X32510483Y-40736482D01*
X32513988Y-40732109D01*
X32773825Y-40376435D01*
X32776920Y-40371777D01*
X33004101Y-39994431D01*
X33006782Y-39989492D01*
X33199515Y-39593455D01*
X33201750Y-39588289D01*
X33358519Y-39176675D01*
X33360275Y-39171363D01*
X33479838Y-38747427D01*
X33481114Y-38741991D01*
X33562520Y-38309092D01*
X33563307Y-38303555D01*
X33605963Y-37864580D01*
X33606236Y-37860143D01*
X33612990Y-37602234D01*
X33612948Y-37597762D01*
X33607329Y-37471585D01*
X73588722Y-37471585D01*
X73596793Y-37911981D01*
X73597143Y-37917547D01*
X73644333Y-38355491D01*
X73645180Y-38361030D01*
X73731112Y-38793042D01*
X73732441Y-38798453D01*
X73856444Y-39221138D01*
X73858250Y-39226413D01*
X74019326Y-39636377D01*
X74021608Y-39641501D01*
X74218485Y-40035516D01*
X74221209Y-40040409D01*
X74452333Y-40415363D01*
X74455484Y-40419999D01*
X74719031Y-40772931D01*
X74722564Y-40777248D01*
X74871583Y-40943625D01*
X74885079Y-40951989D01*
X74894491Y-40946299D01*
X78227978Y-37612812D01*
X78234356Y-37601132D01*
X78964408Y-37601132D01*
X78964539Y-37602965D01*
X78968790Y-37609580D01*
X82303870Y-40944660D01*
X82317631Y-40952174D01*
X82326992Y-40945716D01*
X82510483Y-40736482D01*
X82513988Y-40732109D01*
X82773825Y-40376435D01*
X82776920Y-40371777D01*
X83004101Y-39994431D01*
X83006782Y-39989492D01*
X83199515Y-39593455D01*
X83201750Y-39588289D01*
X83358519Y-39176675D01*
X83360275Y-39171363D01*
X83479838Y-38747427D01*
X83481114Y-38741991D01*
X83562520Y-38309092D01*
X83563307Y-38303555D01*
X83605963Y-37864580D01*
X83606236Y-37860143D01*
X83612990Y-37602234D01*
X83612948Y-37597762D01*
X83593327Y-37157177D01*
X83592829Y-37151590D01*
X83534193Y-36715047D01*
X83533200Y-36709524D01*
X83435990Y-36279920D01*
X83434517Y-36274533D01*
X83299499Y-35855261D01*
X83297544Y-35850003D01*
X83125801Y-35444419D01*
X83123382Y-35439348D01*
X82916253Y-35050614D01*
X82913418Y-35045819D01*
X82672538Y-34677013D01*
X82669287Y-34672489D01*
X82396582Y-34326564D01*
X82392934Y-34322338D01*
X82329587Y-34255233D01*
X82315871Y-34247222D01*
X82315000Y-34247259D01*
X82306923Y-34252287D01*
X78972022Y-37587188D01*
X78964408Y-37601132D01*
X78234356Y-37601132D01*
X78235592Y-37598868D01*
X78235461Y-37597035D01*
X78231210Y-37590420D01*
X74893542Y-34252752D01*
X74880234Y-34245485D01*
X74870195Y-34252607D01*
X74608756Y-34566953D01*
X74605361Y-34571425D01*
X74354932Y-34933765D01*
X74351953Y-34938515D01*
X74134719Y-35321695D01*
X74132188Y-35326662D01*
X73949866Y-35727656D01*
X73947788Y-35732824D01*
X73801840Y-36148426D01*
X73800219Y-36153795D01*
X73691798Y-36580705D01*
X73690664Y-36586178D01*
X73620621Y-37021044D01*
X73619976Y-37026622D01*
X73588869Y-37465964D01*
X73588722Y-37471585D01*
X33607329Y-37471585D01*
X33593327Y-37157177D01*
X33592829Y-37151590D01*
X33534193Y-36715047D01*
X33533200Y-36709524D01*
X33435990Y-36279920D01*
X33434517Y-36274533D01*
X33299499Y-35855261D01*
X33297544Y-35850003D01*
X33125801Y-35444419D01*
X33123382Y-35439348D01*
X32916253Y-35050614D01*
X32913418Y-35045819D01*
X32672538Y-34677013D01*
X32669287Y-34672489D01*
X32396582Y-34326564D01*
X32392934Y-34322338D01*
X32329587Y-34255233D01*
X32315871Y-34247222D01*
X32315000Y-34247259D01*
X32306923Y-34252287D01*
X28972022Y-37587188D01*
X28964408Y-37601132D01*
X28234356Y-37601132D01*
X28235592Y-37598868D01*
X28235461Y-37597035D01*
X28231210Y-37590420D01*
X24893542Y-34252752D01*
X24880234Y-34245485D01*
X24870195Y-34252607D01*
X24608756Y-34566953D01*
X24605361Y-34571425D01*
X24354932Y-34933765D01*
X24351953Y-34938515D01*
X24134719Y-35321695D01*
X24132188Y-35326662D01*
X23949866Y-35727656D01*
X23947788Y-35732824D01*
X23801840Y-36148426D01*
X23800219Y-36153795D01*
X23691798Y-36580705D01*
X23690664Y-36586178D01*
X23620621Y-37021044D01*
X23619976Y-37026622D01*
X23588869Y-37465964D01*
X23588722Y-37471585D01*
X16608500Y-37471585D01*
X16608500Y-33882502D01*
X25246077Y-33882502D01*
X25252184Y-33892974D01*
X28587188Y-37227978D01*
X28601132Y-37235592D01*
X28602965Y-37235461D01*
X28609580Y-37231210D01*
X31944435Y-33896355D01*
X31951998Y-33882505D01*
X31951996Y-33882502D01*
X75246077Y-33882502D01*
X75252184Y-33892974D01*
X78587188Y-37227978D01*
X78601132Y-37235592D01*
X78602965Y-37235461D01*
X78609580Y-37231210D01*
X81944435Y-33896355D01*
X81951998Y-33882505D01*
X81945671Y-33873283D01*
X81756913Y-33705992D01*
X81752551Y-33702459D01*
X81398262Y-33440778D01*
X81393609Y-33437651D01*
X81017453Y-33208495D01*
X81012536Y-33205791D01*
X80617488Y-33010974D01*
X80612379Y-33008732D01*
X80201563Y-32849799D01*
X80196273Y-32848019D01*
X79772954Y-32726234D01*
X79767530Y-32724932D01*
X79335068Y-32641261D01*
X79329539Y-32640445D01*
X78891353Y-32595550D01*
X78885771Y-32595228D01*
X78445346Y-32589463D01*
X78439735Y-32589639D01*
X78000541Y-32623048D01*
X77994984Y-32623720D01*
X77560504Y-32696037D01*
X77555007Y-32697205D01*
X77128680Y-32807858D01*
X77123314Y-32809510D01*
X76708509Y-32957622D01*
X76703321Y-32959739D01*
X76303311Y-33144147D01*
X76298342Y-33146711D01*
X75916308Y-33365948D01*
X75911575Y-33368951D01*
X75550545Y-33621278D01*
X75546104Y-33624686D01*
X75254521Y-33869785D01*
X75246077Y-33882502D01*
X31951996Y-33882502D01*
X31945671Y-33873283D01*
X31756913Y-33705992D01*
X31752551Y-33702459D01*
X31398262Y-33440778D01*
X31393609Y-33437651D01*
X31017453Y-33208495D01*
X31012536Y-33205791D01*
X30617488Y-33010974D01*
X30612379Y-33008732D01*
X30201563Y-32849799D01*
X30196273Y-32848019D01*
X29772954Y-32726234D01*
X29767530Y-32724932D01*
X29335068Y-32641261D01*
X29329539Y-32640445D01*
X28891353Y-32595550D01*
X28885771Y-32595228D01*
X28445346Y-32589463D01*
X28439735Y-32589639D01*
X28000541Y-32623048D01*
X27994984Y-32623720D01*
X27560504Y-32696037D01*
X27555007Y-32697205D01*
X27128680Y-32807858D01*
X27123314Y-32809510D01*
X26708509Y-32957622D01*
X26703321Y-32959739D01*
X26303311Y-33144147D01*
X26298342Y-33146711D01*
X25916308Y-33365948D01*
X25911575Y-33368951D01*
X25550545Y-33621278D01*
X25546104Y-33624686D01*
X25254521Y-33869785D01*
X25246077Y-33882502D01*
X16608500Y-33882502D01*
X16608500Y-11764697D01*
X16628502Y-11696576D01*
X16682158Y-11650083D01*
X16752432Y-11639979D01*
X16817012Y-11669473D01*
X16844915Y-11703996D01*
X16976330Y-11943039D01*
X16980570Y-11949719D01*
X17161404Y-12198616D01*
X17166443Y-12204707D01*
X17377046Y-12428977D01*
X17382813Y-12434393D01*
X17619868Y-12630502D01*
X17626271Y-12635153D01*
X17886026Y-12799999D01*
X17892959Y-12803811D01*
X18171328Y-12934801D01*
X18178691Y-12937716D01*
X18471277Y-13032783D01*
X18478954Y-13034754D01*
X18781145Y-13092400D01*
X18789006Y-13093393D01*
X19019180Y-13107874D01*
X19023171Y-13108000D01*
X20227885Y-13108000D01*
X20243124Y-13103525D01*
X20244329Y-13102135D01*
X20246000Y-13094452D01*
X20246000Y-13089885D01*
X20754000Y-13089885D01*
X20758475Y-13105124D01*
X20759865Y-13106329D01*
X20767548Y-13108000D01*
X21976829Y-13108000D01*
X21980820Y-13107874D01*
X22210994Y-13093393D01*
X22218855Y-13092400D01*
X22521046Y-13034754D01*
X22528723Y-13032783D01*
X22821309Y-12937716D01*
X22828672Y-12934801D01*
X23107041Y-12803811D01*
X23113974Y-12799999D01*
X23373729Y-12635153D01*
X23380132Y-12630502D01*
X23617187Y-12434393D01*
X23622954Y-12428977D01*
X23833557Y-12204707D01*
X23838596Y-12198616D01*
X24019430Y-11949719D01*
X24023670Y-11943039D01*
X24171890Y-11673428D01*
X24175247Y-11666293D01*
X24288508Y-11380230D01*
X24290953Y-11372704D01*
X24367462Y-11074721D01*
X24368945Y-11066950D01*
X24393575Y-10871974D01*
X24393487Y-10871426D01*
X82806355Y-10871426D01*
X82831055Y-11066950D01*
X82832538Y-11074721D01*
X82909047Y-11372704D01*
X82911492Y-11380230D01*
X83024753Y-11666293D01*
X83028110Y-11673428D01*
X83176330Y-11943039D01*
X83180570Y-11949719D01*
X83361404Y-12198616D01*
X83366443Y-12204707D01*
X83577046Y-12428977D01*
X83582813Y-12434393D01*
X83819868Y-12630502D01*
X83826271Y-12635153D01*
X84086026Y-12799999D01*
X84092959Y-12803811D01*
X84371328Y-12934801D01*
X84378691Y-12937716D01*
X84671277Y-13032783D01*
X84678954Y-13034754D01*
X84981145Y-13092400D01*
X84989006Y-13093393D01*
X85219180Y-13107874D01*
X85223171Y-13108000D01*
X86427885Y-13108000D01*
X86443124Y-13103525D01*
X86444329Y-13102135D01*
X86446000Y-13094452D01*
X86446000Y-10872115D01*
X86441525Y-10856876D01*
X86440135Y-10855671D01*
X86432452Y-10854000D01*
X82822269Y-10854000D01*
X82808392Y-10858075D01*
X82806355Y-10871426D01*
X24393487Y-10871426D01*
X24391272Y-10857694D01*
X24378280Y-10854000D01*
X20772115Y-10854000D01*
X20756876Y-10858475D01*
X20755671Y-10859865D01*
X20754000Y-10867548D01*
X20754000Y-13089885D01*
X20246000Y-13089885D01*
X20246000Y-10472000D01*
X20266002Y-10403879D01*
X20319658Y-10357386D01*
X20372000Y-10346000D01*
X24377731Y-10346000D01*
X24391608Y-10341925D01*
X24393645Y-10328574D01*
X24368945Y-10133050D01*
X24367462Y-10125279D01*
X24290953Y-9827296D01*
X24288508Y-9819770D01*
X24175247Y-9533707D01*
X24171890Y-9526572D01*
X24023670Y-9256961D01*
X24019430Y-9250281D01*
X23838596Y-9001384D01*
X23833557Y-8995293D01*
X23622954Y-8771023D01*
X23617187Y-8765607D01*
X23380132Y-8569498D01*
X23373729Y-8564847D01*
X23113974Y-8400001D01*
X23107041Y-8396190D01*
X23005712Y-8348508D01*
X22952591Y-8301406D01*
X22933368Y-8233061D01*
X22954147Y-8165173D01*
X23008330Y-8119296D01*
X23059360Y-8108500D01*
X84140640Y-8108500D01*
X84208761Y-8128502D01*
G37*
G04 #@! TD.AperFunction*
G04 #@! TD*
M02*
