G04 #@! TF.GenerationSoftware,KiCad,Pcbnew,6.0.7-f9a2dced07~116~ubuntu22.04.1*
G04 #@! TF.CreationDate,2022-09-02T23:25:56-04:00*
G04 #@! TF.ProjectId,voltproc_panel,766f6c74-7072-46f6-935f-70616e656c2e,rev?*
G04 #@! TF.SameCoordinates,Original*
G04 #@! TF.FileFunction,Other,Comment*
%FSLAX46Y46*%
G04 Gerber Fmt 4.6, Leading zero omitted, Abs format (unit mm)*
G04 Created by KiCad (PCBNEW 6.0.7-f9a2dced07~116~ubuntu22.04.1) date 2022-09-02 23:25:56*
%MOMM*%
%LPD*%
G01*
G04 APERTURE LIST*
%ADD10C,0.120000*%
%ADD11C,0.150000*%
G04 APERTURE END LIST*
D10*
G04 #@! TO.C,H12*
X88100000Y-13600000D02*
X85300000Y-13600000D01*
X88100000Y-201600000D02*
X85300000Y-201600000D01*
X88100000Y-207600000D02*
X85300000Y-207600000D01*
X88100000Y-7600000D02*
X85300000Y-7600000D01*
X88100000Y-13600000D02*
G75*
G03*
X88100000Y-7600000I0J3000000D01*
G01*
X85300000Y-7600000D02*
G75*
G03*
X85300000Y-13600000I0J-3000000D01*
G01*
X88100000Y-207600000D02*
G75*
G03*
X88100000Y-201600000I0J3000000D01*
G01*
X85300000Y-201600000D02*
G75*
G03*
X85300000Y-207600000I0J-3000000D01*
G01*
D11*
G04 #@! TO.C,H10*
X59600000Y-117600000D02*
G75*
G03*
X59600000Y-117600000I-6000000J0D01*
G01*
G04 #@! TO.C,H7*
X38100000Y-67600000D02*
G75*
G03*
X38100000Y-67600000I-9500000J0D01*
G01*
G04 #@! TO.C,H8*
X63100000Y-67600000D02*
G75*
G03*
X63100000Y-67600000I-9500000J0D01*
G01*
G04 #@! TO.C,H1*
X38100000Y-157600000D02*
G75*
G03*
X38100000Y-157600000I-9500000J0D01*
G01*
D10*
G04 #@! TO.C,H9*
X19100000Y-13600000D02*
X21900000Y-13600000D01*
X19100000Y-7600000D02*
X21900000Y-7600000D01*
X19100000Y-201600000D02*
X21900000Y-201600000D01*
X19100000Y-207600000D02*
X21900000Y-207600000D01*
X21900000Y-207600000D02*
G75*
G03*
X21900000Y-201600000I0J3000000D01*
G01*
X19100000Y-201600000D02*
G75*
G03*
X19100000Y-207600000I0J-3000000D01*
G01*
X19100000Y-7600000D02*
G75*
G03*
X19100000Y-13600000I0J-3000000D01*
G01*
X21900000Y-13600000D02*
G75*
G03*
X21900000Y-7600000I0J3000000D01*
G01*
D11*
G04 #@! TO.C,H11*
X34600000Y-37600000D02*
G75*
G03*
X34600000Y-37600000I-6000000J0D01*
G01*
G04 #@! TO.C,H2*
X38100000Y-182600000D02*
G75*
G03*
X38100000Y-182600000I-9500000J0D01*
G01*
G04 #@! TO.C,H3*
X63100000Y-157600000D02*
G75*
G03*
X63100000Y-157600000I-9500000J0D01*
G01*
G04 #@! TO.C,H4*
X63100000Y-182600000D02*
G75*
G03*
X63100000Y-182600000I-9500000J0D01*
G01*
G04 #@! TO.C,H5*
X88100000Y-157600000D02*
G75*
G03*
X88100000Y-157600000I-9500000J0D01*
G01*
G04 #@! TO.C,H6*
X88100000Y-182600000D02*
G75*
G03*
X88100000Y-182600000I-9500000J0D01*
G01*
G04 #@! TO.C,H20*
X84600000Y-126600000D02*
G75*
G03*
X84600000Y-126600000I-6000000J0D01*
G01*
G04 #@! TO.C,H14*
X38100000Y-92600000D02*
G75*
G03*
X38100000Y-92600000I-9500000J0D01*
G01*
G04 #@! TO.C,H15*
X59600000Y-135600000D02*
G75*
G03*
X59600000Y-135600000I-6000000J0D01*
G01*
G04 #@! TO.C,H18*
X88100000Y-92600000D02*
G75*
G03*
X88100000Y-92600000I-9500000J0D01*
G01*
G04 #@! TO.C,H17*
X63100000Y-92600000D02*
G75*
G03*
X63100000Y-92600000I-9500000J0D01*
G01*
G04 #@! TO.C,H19*
X84600000Y-37600000D02*
G75*
G03*
X84600000Y-37600000I-6000000J0D01*
G01*
G04 #@! TO.C,H16*
X34600000Y-126600000D02*
G75*
G03*
X34600000Y-126600000I-6000000J0D01*
G01*
G04 #@! TO.C,H13*
X88100000Y-67600000D02*
G75*
G03*
X88100000Y-67600000I-9500000J0D01*
G01*
G04 #@! TD*
M02*
